<svg viewBox="0 0 14 14" role="img" xmlns="http://www.w3.org/2000/svg" version="1.1">
  <path d="M6.515.026c-.529.089-.823.684-.585 1.183.041.084.573.631 2.305 2.367l2.253 2.257-4.818.001c-3.205 0-4.868.008-4.967.024a.8.8 0 0 0-.677.67.828.828 0 0 0 .464.89l.128.06 4.93.006c2.711.004 4.929.014 4.929.023 0 .01-1.013 1.031-2.25 2.27-1.505 1.506-2.265 2.283-2.297 2.348a.9.9 0 0 0 .001.748.923.923 0 0 0 .392.378c.11.052.161.061.35.061.197 0 .236-.008.352-.066.109-.055.631-.567 3.153-3.092 2.443-2.446 3.033-3.048 3.078-3.142.047-.098.056-.153.056-.339 0-.398.274-.091-3.09-3.46C8.585 1.573 7.192.196 7.128.154a.817.817 0 0 0-.613-.128"/>
</svg>