<svg xmlns="http://www.w3.org/2000/svg" version="1.1" viewBox="0 0 24 24" role="img">
  <path d="M11.72 4.045c-.076.023-.22.102-.32.176-.099.074-1.766 1.724-3.704 3.666-2.402 2.409-3.547 3.584-3.599 3.693-.1.215-.101.625 0 .84.105.224 7.259 7.378 7.483 7.483.211.099.627.101.824.004.19-.093.382-.284.488-.485.112-.213.117-.615.01-.842-.05-.108-.956-1.043-2.777-2.869l-2.702-2.71 5.918-.01c5.603-.01 5.927-.015 6.063-.083.191-.095.382-.286.488-.486.11-.21.117-.617.014-.828a1.268 1.268 0 0 0-.5-.501c-.139-.069-.438-.074-6.065-.084l-5.919-.01 2.685-2.69c1.853-1.855 2.713-2.745 2.777-2.869.118-.229.128-.629.022-.846a1.242 1.242 0 0 0-.493-.495 1.192 1.192 0 0 0-.693-.054" />
</svg>
