<svg xmlns="http://www.w3.org/2000/svg" version="1.1" viewBox="0 0 16 16" role="img">
  <path d="M7.902 2.187 C 7.759 2.219,7.643 2.304,7.573 2.428 L 7.507 2.547 7.500 7.333 L 7.493 12.119 5.900 10.529 C 5.024 9.654,4.266 8.918,4.215 8.893 C 3.995 8.782,3.696 8.874,3.577 9.089 C 3.501 9.228,3.493 9.417,3.560 9.549 C 3.620 9.669,7.607 13.664,7.754 13.752 C 7.910 13.844,8.090 13.844,8.246 13.752 C 8.393 13.664,12.380 9.669,12.440 9.549 C 12.647 9.137,12.183 8.688,11.772 8.902 C 11.709 8.934,11.026 9.598,10.093 10.532 L 8.520 12.107 8.507 7.327 L 8.493 2.547 8.423 2.426 C 8.315 2.244,8.096 2.143,7.902 2.187" />
</svg>