<svg xmlns="http://www.w3.org/2000/svg" version="1.1" viewBox="0 0 16 16" role="img">
  <path d="M7.907 2.186 C 7.863 2.196,7.791 2.224,7.747 2.247 C 7.631 2.309,3.614 6.342,3.559 6.451 C 3.358 6.855,3.813 7.309,4.215 7.107 C 4.266 7.082,5.024 6.346,5.900 5.471 L 7.493 3.881 7.500 8.667 L 7.507 13.453 7.577 13.574 C 7.771 13.903,8.237 13.900,8.427 13.569 L 8.493 13.453 8.500 8.667 L 8.507 3.881 10.100 5.471 C 10.976 6.346,11.734 7.082,11.785 7.107 C 12.188 7.309,12.642 6.854,12.440 6.451 C 12.381 6.332,8.393 2.336,8.253 2.255 C 8.128 2.182,8.018 2.160,7.907 2.186" />
</svg>