<svg viewBox="0 0 24 24" role="img" xmlns="http://www.w3.org/2000/svg" version="1.1">
  <path d="M12,21.7c-.7,0-1.3-.4-1.7-.8-2.3-2-6.3-5.7-7.8-7.6C.1,10.2.6,6,3.5,3.5c2.5-2.1,6-2,8.5.2,2.5-2.2,5.9-2.3,8.5-.2,2.9,2.4,3.4,6.6,1,9.6-1.5,1.9-5.5,5.8-7.8,7.8-.4.4-1,.8-1.7.8ZM7.6,4c-.9,0-1.9.3-2.8,1.1-2.1,1.8-2.4,4.7-.8,6.9,1.5,1.9,5.8,5.8,7.6,7.4.2.2.3.3.4.4,0,0,6.4-5.9,7.9-7.8,1.7-2.2,1.4-5.1-.7-6.9-2.2-1.9-4.9-1.1-6.4.7-.4.4-1.1.4-1.5,0-.9-1.1-2.3-1.8-3.7-1.8ZM11,14c-.3,0-.5,0-.7-.3l-2-2c-.4-.4-.4-1,0-1.4.4-.4,1-.4,1.4,0l1.3,1.3,3.8-3.8c.4-.4,1-.4,1.4,0,.4.4.4,1,0,1.4l-4.5,4.5c-.2.2-.5.3-.7.3Z"/>
</svg>