<svg xmlns="http://www.w3.org/2000/svg" version="1.1" viewBox="0 0 32 32" role="img">
  <path d="M10.667 1.548c-.936.24-1.823.849-2.312 1.588-.235.354-.313.524-1.04 2.269-.206.494-.43.98-.498 1.08-.182.269-.431.422-1.225.75-2.263.936-2.598 1.117-3.104 1.677a3.898 3.898 0 0 0-1.031 2.875c.034.689.077.83.731 2.426.628 1.534.674 1.694.589 2.04-.034.14-.302.835-.595 1.546-.293.711-.58 1.477-.637 1.702-.385 1.504.303 3.295 1.591 4.143.324.213.781.421 2.604 1.18.974.407 1.043.484 1.563 1.739.688 1.664.819 1.951 1.052 2.301.676 1.02 1.97 1.696 3.245 1.696.674 0 1.067-.112 2.595-.739 1.552-.637 1.712-.683 2.058-.598.14.034.835.302 1.546.595.711.293 1.477.58 1.702.637 1.504.385 3.295-.303 4.143-1.591.213-.324.384-.701 1.178-2.602.282-.674.428-.895.719-1.091.113-.076.718-.349 1.345-.608a40.327 40.327 0 0 0 1.514-.653c.963-.472 1.666-1.318 2.008-2.417.103-.333.124-.515.123-1.093-.001-.845-.017-.906-.719-2.613-.626-1.522-.675-1.691-.589-2.04.034-.14.302-.835.595-1.546.293-.711.58-1.477.637-1.702.385-1.504-.301-3.289-1.591-4.144-.354-.235-.524-.313-2.27-1.041-.984-.41-1.223-.551-1.414-.833-.069-.103-.351-.727-.625-1.387-.581-1.4-.755-1.762-1.013-2.114-.476-.648-1.359-1.216-2.231-1.434a3.987 3.987 0 0 0-1.805-.003c-.222.057-.992.345-1.71.64-1.481.608-1.73.679-2.071.59-.127-.033-.813-.299-1.524-.592-.711-.292-1.477-.579-1.702-.636a4.105 4.105 0 0 0-1.832.003m2.666 2.949c1.791.739 1.849.755 2.667.756.807 0 .929-.034 2.587-.722 1.709-.711 1.766-.723 2.303-.523.586.22.692.372 1.347 1.95.618 1.49.781 1.813 1.118 2.218.523.628.87.833 2.681 1.586 1.645.683 1.789.789 2.002 1.465.14.445.143.435-.573 2.186-.699 1.712-.717 1.776-.717 2.587 0 .812.018.879.719 2.587.289.704.553 1.387.587 1.517.074.28.038.559-.117.919-.196.456-.432.609-1.841 1.188-1.413.58-1.819.783-2.253 1.125-.615.485-.885.941-1.637 2.771-.607 1.476-.747 1.676-1.326 1.891-.49.182-.667.143-2.213-.495-1.793-.739-1.849-.755-2.667-.755-.821 0-.882.017-2.667.76-1.278.532-1.382.566-1.733.569-.292.001-.428-.026-.624-.125-.488-.249-.585-.402-1.217-1.922-.613-1.477-.737-1.725-1.088-2.179-.471-.61-.952-.895-2.778-1.645-1.119-.46-1.31-.556-1.526-.766-.265-.258-.474-.714-.474-1.034 0-.236.034-.332.642-1.819.699-1.712.717-1.776.717-2.587 0-.812-.018-.876-.718-2.587a45.585 45.585 0 0 1-.589-1.487c-.084-.268-.036-.667.117-.973.23-.458.437-.589 1.885-1.186 1.8-.743 2.177-.965 2.698-1.591.336-.403.494-.717 1.114-2.206.594-1.429.689-1.593 1.075-1.84.567-.362.825-.324 2.499.367m7.094 6.967a1.43 1.43 0 0 0-.32.105c-.074.038-1.328 1.26-2.787 2.716l-2.653 2.648-1-.998c-.634-.633-1.073-1.028-1.199-1.08-.446-.184-1.02-.058-1.359.298-.338.357-.435.922-.234 1.354.065.138.638.747 1.639 1.742 1.628 1.616 1.664 1.644 2.153 1.644.513 0 .4.097 3.803-3.297 1.855-1.851 3.236-3.269 3.298-3.388.147-.283.148-.796.003-1.078a1.244 1.244 0 0 0-1.344-.666" fill-rule="evenodd" />
</svg>