<svg viewBox="0 0 24 24" role="img" aria-hidden="true" xmlns="http://www.w3.org/2000/svg" version="1.1">
  <path d="M12,23c-6.07,0-11-4.93-11-11S5.93,1,12,1s11,4.93,11,11-4.93,11-11,11ZM12,3C7.04,3,3,7.04,3,12s4.04,9,9,9,9-4.04,9-9S16.96,3,12,3Z"/>
  <path d="M8.5,16.94c-.15,0-.3-.02-.45-.08-.42-.15-.75-.48-.91-.91-.17-.49-.03-.91.18-1.54l1.49-4.46c.06-.17.11-.34.23-.51.1-.15.24-.29.39-.39.17-.12.33-.17.51-.23l4.47-1.49h0l.32.95-.31-.95c.64-.21,1.05-.35,1.54-.18.42.15.76.48.91.91.17.48.03.9-.17,1.53l-1.49,4.48c-.06.17-.11.34-.23.51-.11.16-.24.29-.4.4-.18.12-.34.17-.52.23l-4.46,1.49c-.44.15-.77.26-1.1.26ZM9.06,15.55h0ZM10.67,10.67l-1.33,3.99,3.99-1.33,1.33-3.99-3.99,1.33ZM15.55,9.06h0ZM14.72,8.27l.15.45s0,0,0,0l-.15-.44Z"/>
</svg>
