<svg xmlns="http://www.w3.org/2000/svg" version="1.1" viewBox="0 0 24 24" role="img">
  <path d="M6.92 1.041c-.767.051-1.247.164-1.74.41A3.776 3.776 0 0 0 3.124 4.16C3.012 4.738 3 5.47 3 12c0 7.433.002 7.515.245 8.32.332 1.102 1.333 2.103 2.435 2.435.78.235 1.036.245 6.32.245 5.284 0 5.54-.01 6.32-.245 1.102-.332 2.103-1.333 2.435-2.435.238-.79.245-.984.245-7.023 0-4.915-.006-5.462-.065-5.64-.059-.18-.338-.47-3.21-3.341-2.124-2.123-3.197-3.169-3.305-3.22-.153-.073-.31-.076-3.6-.08-1.892-.003-3.647.009-3.9.025m6.081 4.029c0 2.252.013 2.411.226 2.849.139.286.568.715.854.854.438.213.596.226 2.851.226L19.004 9l-.015 5.11c-.016 5.555-.009 5.373-.237 5.842-.126.259-.562.686-.834.816-.447.215-.371.212-5.918.212-5.538 0-5.467.003-5.918-.209-.27-.128-.705-.554-.834-.819a2.86 2.86 0 0 1-.16-.48c-.063-.27-.068-.842-.068-7.472 0-6.63.005-7.202.068-7.472.087-.373.206-.61.432-.861.364-.406.763-.577 1.46-.627.22-.015 1.665-.031 3.21-.034L13 3l.001 2.07m3.299.65L17.58 7H15V5.72c0-.704.005-1.28.01-1.28.006 0 .586.576 1.29 1.28m-4.605 5.337a1.04 1.04 0 0 0-.567.459l-.108.184-.011 1.935-.012 1.936-.728-.719c-.614-.605-.76-.729-.926-.785a1 1 0 0 0-1.215.449c-.091.156-.108.23-.108.484s.016.328.107.48c.134.224 3.241 3.324 3.433 3.425.1.052.226.073.44.073s.34-.021.44-.073c.192-.101 3.299-3.201 3.433-3.425.091-.152.107-.226.107-.48s-.017-.328-.108-.484a1 1 0 0 0-1.215-.449c-.166.056-.312.18-.926.785l-.728.719-.012-1.936-.011-1.935-.108-.184a1.005 1.005 0 0 0-1.177-.459" fill-rule="evenodd" />
</svg>