<svg xmlns="http://www.w3.org/2000/svg" version="1.1" viewBox="0 0 24 24" role="img">
  <path d="M5.84,19.65c-.26,0-.52-.1-.71-.29-.21-.21-.32-.52-.29-.82l.25-2.26c.03-.31.06-.51.13-.74.07-.2.16-.39.27-.57.13-.2.28-.35.5-.56l6.79-6.79s0,0,.01-.01c0,0,0,0,.01-.01l1.99-1.99c1.12-1.12,2.96-1.13,4.08,0s1.12,2.96,0,4.08l-8.8,8.8c-.22.22-.36.36-.56.5-.18.12-.37.21-.57.27-.22.07-.42.09-.71.13l-2.28.25s-.07,0-.11,0ZM13.51,9.73l-6.1,6.1c-.12.12-.19.18-.24.25-.06.16-.06.25-.08.42l-.11,1.02,1.01-.11c.18-.02.27-.02.34-.04.15-.08.21-.15.33-.28l6.1-6.1-1.25-1.25ZM14.92,8.31l1.25,1.25,1.29-1.29c.34-.35.34-.91,0-1.25s-.91-.35-1.25,0l-1.29,1.29Z" />
</svg>
