<svg xmlns="http://www.w3.org/2000/svg" version="1.1" viewBox="0 0 24 24" role="img" fill="#d03651">
  <path d="M12,22.9c-.1,0-.3,0-.4,0-.3,0-.5-.2-.8-.4l-7.4-4.1c-.4-.2-.6-.3-.8-.6-.2-.2-.3-.4-.4-.7-.1-.3-.1-.6-.1-1V7.9c0-.4,0-.7.1-1,0-.3.2-.5.4-.7.2-.2.5-.4.8-.6L10.7,1.6c.3-.2.6-.3.9-.4.3,0,.5,0,.8,0,.3,0,.5.2.9.4l7.4,4.1c.3.2.6.3.8.6.2.2.3.5.4.7,0,.3,0,.6,0,1v8.1c0,.4,0,.7-.1,1,0,.3-.2.5-.4.7-.2.2-.5.4-.8.6l-7.4,4.1c-.3.2-.6.3-.9.4-.1,0-.3,0-.4,0ZM12,3.1s-.1,0-.3.2l-7.4,4.1c-.2,0-.3.1-.3.2,0,0,0,.2,0,.3v8.1c0,.2,0,.3,0,.4,0,0,.1,0,.3.1l7.4,4.1c.2,0,.2.1.3.2,0,0,.1,0,.3-.2l7.4-4.1c.2,0,.3-.1.3-.2,0,0,0-.2,0-.3V7.9c0-.2,0-.3,0-.4,0,0-.1,0-.3-.1l-7.4-4.1c-.1,0-.2-.1-.3-.2ZM12,17c-.6,0-1-.4-1-1s.4-1,1-1h0c.6,0,1,.4,1,1s-.4,1-1,1ZM12,13c-.6,0-1-.4-1-1v-4c0-.6.4-1,1-1s1,.4,1,1v4c0,.6-.4,1-1,1Z"/>
</svg>