<svg viewBox="0 0 24 24" role="img" xmlns="http://www.w3.org/2000/svg" version="1.1">
  <path d="M5.544.885c-.921.089-1.548.388-2.151 1.027-.462.49-.731 1.075-.841 1.828-.076.526-.076 11.994 0 12.52.112.766.381 1.342.863 1.85.587.618 1.163.894 2.104 1.009.195.024 1.256.041 2.5.04 2.004-.001 2.173-.006 2.321-.074a.875.875 0 0 0 .499-.785c-.002-.273-.282-.658-.536-.736-.068-.021-1.129-.047-2.363-.058-2.418-.022-2.607-.037-2.956-.241a2.05 2.05 0 0 1-.618-.653c-.186-.365-.186-.356-.186-6.612 0-6.26 0-6.246.187-6.613.122-.239.443-.559.682-.679.116-.059.337-.124.491-.146.378-.054 8.542-.054 8.92 0 .361.051.653.2.896.458.231.244.341.446.404.742.031.145.052 1.03.064 2.658.01 1.45.034 2.5.058 2.588.076.281.347.507.68.567.385.07.826-.245.913-.651.055-.255.059-3.393.006-4.504-.061-1.279-.264-1.861-.874-2.508-.623-.66-1.22-.937-2.227-1.031-.534-.05-8.312-.046-8.836.004m.794 4.19a1.1 1.1 0 0 0-.306.241c-.388.455-.154 1.173.431 1.32.241.061 6.833.061 7.074 0 .585-.147.819-.865.431-1.32-.288-.336-.019-.314-3.968-.314-3.315 0-3.509.004-3.662.073m.182 3.282c-.645.131-.901.855-.474 1.34.281.32.143.307 3.197.294l2.704-.011.167-.116a.83.83 0 0 0 .36-.539c.095-.422-.197-.868-.628-.96-.234-.05-5.081-.057-5.326-.008m-.244 3.416c-.097.051-.23.17-.296.264-.107.151-.12.202-.12.463s.013.312.12.463c.066.094.199.213.296.264.172.09.205.093 1.224.093s1.052-.003 1.224-.093c.097-.051.23-.17.296-.264.107-.151.12-.202.12-.463s-.013-.312-.12-.463a1.004 1.004 0 0 0-.296-.264c-.172-.09-.205-.093-1.224-.093s-1.052.003-1.224.093m8.384-.027a.976.976 0 0 0-.424.434c-.065.141-.074.27-.075 1.067l-.001.907-.95.013c-1.045.014-1.069.019-1.318.28-.159.166-.212.304-.212.553 0 .248.053.386.212.555.25.264.342.283 1.358.284l.91.001.001.91c.001 1.016.02 1.108.284 1.358.169.159.307.212.555.212.248 0 .386-.053.555-.212.264-.25.283-.342.284-1.358l.001-.91.91-.001c1.028-.001 1.121-.021 1.363-.297.166-.189.207-.297.207-.542 0-.249-.053-.387-.212-.553-.249-.261-.273-.266-1.318-.28l-.95-.013v-.898c0-.978-.019-1.085-.232-1.31-.241-.254-.672-.345-.948-.2" fill-rule="evenodd"/>
</svg>