<svg xmlns="http://www.w3.org/2000/svg" version="1.1" viewBox="0 0 20 20" role="img">
  <path d="M2.65 1.703c-.661.068-1.1.313-1.361.759-.406.692-.316 1.334.292 2.091.117.145 1.406 1.598 2.866 3.228L7.1 10.746v3.157c0 3.053.002 3.164.066 3.371.125.403.46.711.889.817.208.051.243.051.487 0 .248-.051 3.308-1.247 3.703-1.447.22-.111.442-.343.549-.571l.089-.19.01-2.57.009-2.57 2.652-2.963a308.981 308.981 0 0 0 2.867-3.23c.259-.32.467-.723.519-1.008.083-.452-.108-1.016-.464-1.37-.295-.293-.59-.411-1.171-.47-.417-.043-14.245-.041-14.655.001m14.564 1.659c.027.044-.171.27-2.963 3.388-1.445 1.613-2.67 3-2.722 3.082-.053.081-.13.231-.171.333-.074.185-.075.191-.091 2.647l-.017 2.461-1.2.481c-.66.264-1.226.488-1.258.498-.054.018-.058-.153-.066-2.942l-.009-2.96-.076-.187a2.123 2.123 0 0 0-.173-.333c-.053-.081-1.278-1.467-2.721-3.08-2.939-3.286-2.989-3.343-2.962-3.386.024-.039 14.404-.042 14.429-.002" fill-rule="evenodd" />
</svg>