<svg xmlns="http://www.w3.org/2000/svg" version="1.1" viewBox="0 0 24 24" role="img">
    <path d="M21 11.8C21 10.9436 20.9997 10.3614 20.9629 9.91134C20.9271 9.47293 20.8619 9.24841 20.7822 9.09201C20.5905 8.71576 20.2845 8.40972 19.9082 8.21798C19.7518 8.13829 19.5273 8.07314 19.0889 8.03732C18.6388 8.00056 18.0566 8.00021 17.2002 8.00021H3V16.2004C3 17.0568 3.00035 17.639 3.03711 18.0891C3.07293 18.5275 3.13809 18.752 3.21778 18.9084C3.40951 19.2847 3.71555 19.5907 4.0918 19.7824C4.2482 19.8621 4.47272 19.9273 4.91114 19.9631C5.36117 19.9999 5.94342 20.0002 6.79981 20.0002H17.2002C18.0566 20.0002 18.6388 19.9999 19.0889 19.9631C19.5273 19.9273 19.7518 19.8621 19.9082 19.7824C20.2845 19.5907 20.5905 19.2847 20.7822 18.9084C20.8619 18.752 20.9271 18.5275 20.9629 18.0891C20.9997 17.639 21 17.0568 21 16.2004V11.8ZM14.793 10.7932C15.1835 10.4027 15.8165 10.4027 16.207 10.7932C16.5976 11.1837 16.5976 11.8167 16.207 12.2072L11.707 16.7072C11.3165 17.0978 10.6835 17.0978 10.293 16.7072L8.29297 14.7072C7.90245 14.3167 7.90245 13.6837 8.29297 13.2932C8.6835 12.9027 9.31651 12.9027 9.70704 13.2932L11 14.5861L14.793 10.7932ZM5.2002 4.00021C4.62365 4.00021 4.25112 4.00148 3.96778 4.02463C3.69619 4.04682 3.59534 4.0844 3.5459 4.10959C3.35793 4.20543 3.20522 4.35814 3.10938 4.54611C3.08419 4.59555 3.04662 4.6964 3.02442 4.96798C3.00406 5.21713 3.00142 5.53511 3.00098 6.00021H11.3818L10.9902 5.21603C10.6368 4.50922 10.555 4.37464 10.4639 4.28537C10.358 4.1817 10.2299 4.10322 10.0898 4.0549C9.96925 4.01333 9.81244 4.00021 9.02247 4.00021H5.2002ZM23 16.2004C23 17.0239 23.001 17.7018 22.9561 18.2522C22.9101 18.8142 22.8117 19.3313 22.5645 19.8166C22.181 20.5691 21.5689 21.1812 20.8164 21.5647C20.3311 21.8119 19.814 21.9103 19.252 21.9563C18.7016 22.0012 18.0237 22.0002 17.2002 22.0002H6.79981C5.97632 22.0002 5.29843 22.0012 4.74805 21.9563C4.186 21.9103 3.6689 21.8119 3.1836 21.5647C2.43109 21.1812 1.81902 20.5691 1.43555 19.8166C1.18828 19.3313 1.08988 18.8142 1.04395 18.2522C0.998982 17.7018 1 17.0239 1 16.2004V6.20041C1 5.65685 0.998931 5.18857 1.03028 4.8049C1.06259 4.40964 1.1344 4.0162 1.32715 3.63791C1.61473 3.07368 2.07348 2.61493 2.6377 2.32736C3.016 2.13461 3.40943 2.0628 3.80469 2.03048C4.18836 1.99914 4.65665 2.00021 5.2002 2.00021H9.02247C9.66781 2.00021 10.229 1.98728 10.7422 2.16427C11.1625 2.30926 11.5456 2.54555 11.8633 2.85666C12.2511 3.23647 12.4907 3.7443 12.7793 4.3215L13.6182 6.00021H17.2002C18.0237 6.00021 18.7016 5.99919 19.252 6.04416C19.814 6.09008 20.3311 6.18848 20.8164 6.43576C21.5689 6.81923 22.181 7.4313 22.5645 8.1838C22.8117 8.66911 22.9101 9.1862 22.9561 9.74826C23.001 10.2986 23 10.9765 23 11.8V16.2004Z"/>
</svg>