<svg xmlns="http://www.w3.org/2000/svg" version="1.1" viewBox="0 0 24 24" role="img">
  <path d="m 6.1992187,3 c -1.12011,0 -1.818179,-0.052092 -2.5605468,0.3261719 -0.5643916,0.2875573 -1.0249427,0.7481084 -1.3125,1.3125 C 1.9479054,5.3810453 2,6.0791188 2,7.1992187 V 15.347656 C 1.5658471,15.611734 1.2031937,15.979217 1.0683594,16.482422 0.98164592,16.805911 1,17.023984 1,17.333984 c 0,0.62 -0.0191869,0.992786 0.1015625,1.44336 0.2769791,1.033747 1.0874355,1.844026 2.1210938,2.121093 a 1.0001,1.0001 0 0 0 0.00195,0 C 3.6750561,21.01905 4.0460356,21 4.6660156,21 H 19.333984 c 0.62,0 0.990948,0.01907 1.441407,-0.101563 a 1.0001,1.0001 0 0 0 0.002,0 c 1.033674,-0.277064 1.844029,-1.087419 2.121093,-2.121093 a 1.0001,1.0001 0 0 0 0,-0.002 C 23.019068,18.324932 23,17.953984 23,17.333984 c 0,-0.31 0.01847,-0.527935 -0.06836,-0.851562 C 22.796863,15.979046 22.434182,15.611731 22,15.347656 V 7.1992187 C 22,6.0791188 22.052115,5.3810508 21.673828,4.6386719 21.386272,4.0741651 20.925654,3.6137188 20.361328,3.3261719 19.618932,2.9478761 18.920881,3 17.800781,3 Z m 0,2 H 17.800781 c 1.1201,0 1.53914,0.051691 1.652344,0.109375 0.188274,0.095933 0.341656,0.2493467 0.4375,0.4375 C 19.948338,5.6601361 20,6.0791188 20,7.1992187 V 15 H 4 V 7.1992187 C 4,6.0791187 4.0516615,5.6601416 4.109375,5.546875 4.2052977,5.3586066 4.3586066,5.2052977 4.546875,5.109375 4.6601472,5.0516587 5.0791088,5 6.1992187,5 Z M 3,17 c -0.06915,0.01854 0.023994,0 0.3339844,0 H 20.666016 c 0.31,0 0.403411,0.01863 0.333984,0 -0.01863,-0.06943 0,0.02398 0,0.333984 0,0.618694 -0.01765,0.865012 -0.0332,0.923828 -0.09294,0.346727 -0.362258,0.616049 -0.708985,0.708985 C 20.198996,18.982346 19.952678,19 19.333984,19 H 4.6660156 c -0.6186737,0 -0.8649408,-0.01764 -0.9238281,-0.0332 h -0.00195 C 3.3942299,18.873512 3.1259558,18.605939 3.0332031,18.259766 a 1.0001,1.0001 0 0 0 0,-0.002 C 3.0176525,18.199786 3,17.953984 3,17.333984 3,17.023984 3.0185735,16.930711 3,17 Z" />
</svg>
