<svg viewBox="0 0 24 24" role="img" xmlns="http://www.w3.org/2000/svg" version="1.1">
  <path d="M11.5 2.043c-2.758.216-5.014 2.334-5.42 5.089-.025.171-.058.7-.073 1.176l-.027.864-.257.07c-1.156.316-2.245 1.457-2.52 2.638-.169.727-.181.954-.181 3.62 0 2.666.012 2.893.181 3.62.289 1.245 1.429 2.384 2.68 2.677.778.183.79.183 6.117.183s5.339 0 6.117-.183c.72-.169 1.484-.665 1.983-1.289.459-.573.693-1.158.825-2.068.071-.481.071-5.401.001-5.88-.134-.908-.365-1.489-.825-2.07-.449-.567-1.191-1.075-1.824-1.248l-.257-.07-.027-.864a15.432 15.432 0 0 0-.073-1.176 5.965 5.965 0 0 0-1.746-3.416c-1.26-1.221-2.91-1.812-4.674-1.673m1.56 2.094c1.396.41 2.385 1.399 2.804 2.803.098.328.109.435.126 1.21l.019.85H7.991l.019-.85c.017-.775.028-.882.126-1.21.204-.683.493-1.196.944-1.675a3.955 3.955 0 0 1 1.716-1.083c.501-.156.688-.179 1.324-.164.483.011.64.031.94.119m4.517 6.955c.342.102.586.247.835.496.257.256.4.503.497.856.065.233.071.503.071 3.056s-.006 2.823-.071 3.056c-.097.353-.24.6-.497.856a1.78 1.78 0 0 1-.856.497c-.239.066-.613.071-5.556.071s-5.317-.005-5.556-.071a1.78 1.78 0 0 1-.856-.497 1.78 1.78 0 0 1-.497-.856c-.065-.233-.071-.503-.071-3.056s.006-2.823.071-3.056c.097-.352.242-.603.49-.849.346-.342.645-.486 1.145-.553.14-.018 2.585-.03 5.434-.027 4.819.006 5.196.012 5.417.077m-5.999 2.523c-.216.1-.391.28-.494.505-.054.119-.064.329-.064 1.38 0 1.354.003 1.371.242 1.656.357.422 1.119.422 1.476 0 .239-.285.242-.302.242-1.656 0-1.051-.01-1.261-.064-1.38a1 1 0 0 0-1.338-.505"/>
</svg>