<svg viewBox="0 0 24 24" role="img" aria-label="Logbestand" xmlns="http://www.w3.org/2000/svg" version="1.1">
  <path d="M15.2,23h-6.4c-1.84,0-2.76,0-3.62-.44-.76-.39-1.36-.99-1.75-1.75-.44-.86-.44-1.78-.44-3.62V6.8c0-1.84,0-2.76.44-3.62.39-.76.99-1.36,1.75-1.75.86-.44,1.78-.44,3.62-.44h3.21c.79,0,1.22,0,1.68.11.41.1.8.26,1.16.48.4.25.71.55,1.26,1.1l3.2,3.2c.55.55.86.86,1.11,1.27.22.36.38.75.48,1.16.11.46.11.89.11,1.68v7.21c0,1.84,0,2.76-.44,3.62-.38.76-.99,1.36-1.75,1.75-.86.44-1.78.44-3.62.44ZM8.8,3c-1.47,0-2.28,0-2.71.22-.38.19-.68.5-.87.87-.22.43-.22,1.24-.22,2.71v10.4c0,1.47,0,2.28.22,2.71.19.38.5.68.87.87.43.22,1.24.22,2.71.22h6.4c1.47,0,2.28,0,2.71-.22.38-.19.68-.5.87-.87.22-.43.22-1.24.22-2.71v-7.21c0-.47,0-.77-.02-.99h-3.38c-.65,0-1.08,0-1.51-.22-.38-.19-.68-.5-.87-.87-.22-.43-.22-.86-.22-1.51v-3.38c-.22-.02-.52-.02-.99-.02h-3.21ZM15,4.41v1.99c0,.28,0,.57.02.65.01-.05.3-.05.58-.05h1.99l-2.59-2.59ZM14,18h-6c-.55,0-1-.45-1-1s.45-1,1-1h6c.55,0,1,.45,1,1s-.45,1-1,1ZM16,14h-8c-.55,0-1-.45-1-1s.45-1,1-1h8c.55,0,1,.45,1,1s-.45,1-1,1Z"/>
</svg>
