<svg xmlns="http://www.w3.org/2000/svg" version="1.1" viewBox="0 0 20 20" role="img">
  <path d="M14.833.864a.836.836 0 0 0-.575.452c-.096.19-.093.517.007.717.105.211 3.491 3.597 3.702 3.702a.847.847 0 0 0 .945-.156.848.848 0 0 0 .156-.946c-.099-.198-3.49-3.596-3.685-3.692a.951.951 0 0 0-.55-.077M12.2 3.553c-.219.08-.344.148-.517.285-.229.181-9.086 9.043-9.24 9.245-.149.197-.3.478-.377.702-.038.109-.325 1.136-.639 2.282-.447 1.636-.57 2.126-.569 2.284a.783.783 0 0 0 .809.793c.133-.001.764-.16 2.316-.587 1.174-.322 2.2-.61 2.282-.639.284-.102.567-.288.908-.599.189-.171 2.302-2.275 4.696-4.674 4.97-4.981 4.581-4.544 4.581-5.145 0-.56.023-.528-1.582-2.144-1.343-1.353-1.629-1.617-1.885-1.737-.132-.063-.668-.108-.783-.066m1.383 2.88L14.65 7.5l-4.383 4.386c-2.411 2.412-4.436 4.412-4.5 4.446-.147.075-2.862.817-2.89.789-.018-.018.117-.536.647-2.471l.118-.433 4.42-4.425A804.744 804.744 0 0 1 12.5 5.367c.009 0 .497.48 1.083 1.066" fill-rule="evenodd"/>
</svg>