<svg xmlns="http://www.w3.org/2000/svg" version="1.1" viewBox="0 0 20 20" role="img">
  <path d="M9.768 3.37a.905.905 0 0 0-.564.58c-.026.092-.037.915-.037 2.674v2.541l-2.609.009c-2.914.01-2.715-.006-2.969.248a.716.716 0 0 0-.237.578c0 .252.062.403.237.578.254.254.055.238 2.969.248l2.607.009.009 2.607c.01 2.914-.006 2.715.248 2.969a.716.716 0 0 0 .578.237.716.716 0 0 0 .578-.237c.254-.254.238-.055.248-2.969l.009-2.607 2.607-.009c2.914-.01 2.715.006 2.969-.248a.716.716 0 0 0 .237-.578.716.716 0 0 0-.237-.578c-.254-.254-.055-.238-2.969-.248l-2.607-.009-.009-2.607c-.009-2.443-.013-2.616-.07-2.73a1.046 1.046 0 0 0-.412-.412.997.997 0 0 0-.576-.046"/>
</svg>