<svg xmlns="http://www.w3.org/2000/svg" version="1.1" viewBox="0 0 20 20" role="img">
  <path
    d="M14.9998 5.83329V4.33329C14.9998 3.39987 14.9998 2.93316 14.8182 2.57664C14.6584 2.26304 14.4034 2.00807 14.0898 1.84828C13.7333 1.66663 13.2666 1.66663 12.3332 1.66663H7.6665C6.73308 1.66663 6.26637 1.66663 5.90985 1.84828C5.59625 2.00807 5.34128 2.26304 5.18149 2.57664C4.99984 2.93316 4.99984 3.39987 4.99984 4.33329V5.83329M4.99984 15C4.22486 15 3.83737 15 3.51946 14.9148C2.65673 14.6836 1.98286 14.0097 1.75169 13.147C1.6665 12.8291 1.6665 12.4416 1.6665 11.6666V9.83329C1.6665 8.43316 1.6665 7.7331 1.93899 7.19832C2.17867 6.72791 2.56112 6.34546 3.03153 6.10578C3.56631 5.83329 4.26637 5.83329 5.6665 5.83329H14.3332C15.7333 5.83329 16.4334 5.83329 16.9681 6.10578C17.4386 6.34546 17.821 6.72791 18.0607 7.19832C18.3332 7.7331 18.3332 8.43316 18.3332 9.83329V11.6666C18.3332 12.4416 18.3332 12.8291 18.248 13.147C18.0168 14.0097 17.3429 14.6836 16.4802 14.9148C16.1623 15 15.7748 15 14.9998 15M12.4998 8.74996H14.9998M7.6665 18.3333H12.3332C13.2666 18.3333 13.7333 18.3333 14.0898 18.1516C14.4034 17.9918 14.6584 17.7369 14.8182 17.4233C14.9998 17.0668 14.9998 16.6 14.9998 15.6666V14.3333C14.9998 13.3999 14.9998 12.9332 14.8182 12.5766C14.6584 12.263 14.4034 12.0081 14.0898 11.8483C13.7333 11.6666 13.2666 11.6666 12.3332 11.6666H7.6665C6.73308 11.6666 6.26637 11.6666 5.90985 11.8483C5.59625 12.0081 5.34128 12.263 5.18149 12.5766C4.99984 12.9332 4.99984 13.3999 4.99984 14.3333V15.6666C4.99984 16.6 4.99984 17.0668 5.18149 17.4233C5.34128 17.7369 5.59625 17.9918 5.90985 18.1516C6.26637 18.3333 6.73308 18.3333 7.6665 18.3333Z"
    stroke="currentColor"
    fill="none"
    strokeWidth="1.66667"
    strokeLinecap="round"
    strokeLinejoin="round"
  />
</svg>
