<svg xmlns="http://www.w3.org/2000/svg" version="1.1" viewBox="0 0 20 20" role="img">
  <path d="M6.633.868c-.81.054-1.23.229-1.716.715-.345.345-.513.627-.619 1.039-.079.306-.129 1.014-.13 1.831l-.001.57-.329.04c-.755.091-1.26.288-1.763.686-.512.405-.934 1.055-1.073 1.651-.14.605-.149.791-.151 3.15-.001 1.711.01 2.324.042 2.5.053.289.189.712.3.933a3.493 3.493 0 0 0 1.49 1.491c.371.185.931.325 1.305.326h.172l.022.525c.039.914.127 1.279.416 1.715.192.291.442.538.73.722.269.172.497.257.883.33.278.053.62.058 3.789.058s3.511-.005 3.789-.058c.169-.032.389-.089.491-.127.441-.165.938-.595 1.196-1.034.229-.391.304-.756.344-1.673l.02-.458h.172c.374-.001.934-.141 1.305-.326A3.537 3.537 0 0 0 18.8 14c.116-.228.257-.668.306-.957.061-.359.06-4.618-.001-5.06-.105-.76-.302-1.257-.689-1.74-.549-.687-1.26-1.06-2.249-1.18l-.323-.039-.021-.937c-.03-1.308-.094-1.633-.421-2.127-.274-.414-.704-.769-1.124-.926C13.812.86 13.793.859 10.3.849 8.512.844 6.862.853 6.633.868M13.7 2.579a.914.914 0 0 1 .378.371c.068.126.072.185.083 1.092l.011.958H5.828l.011-.958c.01-.858.017-.971.073-1.075a.803.803 0 0 1 .555-.436c.064-.013 1.691-.022 3.616-.019 3.346.004 3.505.007 3.617.067m2.614 4.164c.285.085.489.206.696.414.208.208.329.412.412.695.052.178.059.435.07 2.489.008 1.507 0 2.356-.023 2.483-.114.626-.674 1.19-1.299 1.309-.353.067-.327.098-.35-.425-.04-.884-.117-1.251-.344-1.639-.257-.439-.755-.869-1.196-1.034-.462-.173-.506-.175-3.813-.192-1.945-.01-3.299-.003-3.667.019-.989.06-1.366.204-1.883.721-.527.527-.664.893-.723 1.934a9 9 0 0 1-.048.647 1.685 1.685 0 0 1-1.614-1.341c-.024-.128-.032-.956-.023-2.482.013-2.492.012-2.476.206-2.832.106-.195.38-.481.573-.597.172-.105.394-.176.651-.21.116-.015 2.903-.025 6.194-.023 5.621.005 5.996.009 6.181.064m-4.165 1.269c-.297.139-.457.397-.457.738 0 .341.16.599.457.738l.168.078h2.866l.168-.078c.297-.139.457-.397.457-.738 0-.341-.16-.599-.457-.738l-.168-.078h-2.866l-.168.078m1.551 4.567a.914.914 0 0 1 .378.371c.071.132.072.15.072 2.05s-.001 1.918-.072 2.05a.914.914 0 0 1-.378.371c-.112.06-.268.062-3.7.062-3.432 0-3.588-.002-3.7-.062a.914.914 0 0 1-.378-.371c-.071-.132-.072-.15-.072-2.05 0-1.806.004-1.923.062-2.033a.803.803 0 0 1 .555-.436c.064-.013 1.691-.022 3.616-.019 3.346.004 3.505.007 3.617.067" fill-rule="evenodd" />
</svg>