<svg xmlns="http://www.w3.org/2000/svg" version="1.1" viewBox="0 0 40 40" role="img">
    <path d="M18.823 1.995a4.544 4.544 0 0 0-2.816 2.267c-.339.653-.467 1.144-.519 1.994-.059.963-.272 1.247-.996 1.328-.425.048-.576-.014-1.103-.455-1.004-.841-1.845-1.16-3.056-1.158-.866.001-1.258.093-2.066.484-.378.183-.641.381-1.075.81-.492.486-.62.661-.877 1.202-.383.803-.477 1.203-.475 2.033.002 1.111.387 2.103 1.162 2.998.222.256.419.541.438.633l.059.289c.043.219-.173.706-.403.908-.238.209-.364.242-1.138.302-1.073.082-1.976.513-2.796 1.332-.95.95-1.341 1.989-1.278 3.395.055 1.242.417 2.064 1.291 2.936.849.848 1.641 1.209 2.892 1.317.452.039.861.112.998.178a.962.962 0 0 1 .535.86c0 .361-.057.473-.508 1.006a4.89 4.89 0 0 0-.968 1.746c-.201.651-.216 1.822-.032 2.433.248.823.57 1.365 1.173 1.975.486.492.661.62 1.202.877.803.383 1.203.477 2.033.475 1.11-.002 2.103-.387 2.996-1.161.258-.223.571-.43.706-.466.355-.096.861.07 1.122.366.213.243.246.367.306 1.143.082 1.073.513 1.976 1.332 2.796.948.948 1.985 1.339 3.395 1.281 1.221-.051 2.063-.422 2.935-1.294.848-.848 1.209-1.64 1.318-2.892.039-.452.112-.861.178-.998a.962.962 0 0 1 .86-.535c.361 0 .473.057 1.006.508a4.89 4.89 0 0 0 1.746.968c.651.201 1.822.216 2.433.032.823-.248 1.365-.57 1.975-1.173.492-.486.62-.661.877-1.202.383-.803.477-1.203.475-2.033-.002-1.111-.387-2.103-1.162-2.998-.222-.256-.419-.541-.438-.633l-.063-.308c-.04-.204.238-.705.481-.867.159-.105.359-.15.804-.179 1.251-.081 2.19-.489 3.015-1.313.571-.57.94-1.156 1.155-1.835.122-.387.148-.622.148-1.367s-.026-.98-.148-1.367c-.337-1.063-1.209-2.104-2.189-2.613-.678-.352-1.162-.479-2.019-.532-.963-.059-1.247-.272-1.328-.996-.048-.425.014-.576.455-1.103.841-1.004 1.16-1.845 1.158-3.056-.001-.866-.093-1.258-.484-2.066-.183-.378-.381-.641-.81-1.075-.486-.492-.661-.62-1.202-.877-.803-.383-1.203-.477-2.033-.475-1.11.002-2.103.387-2.995 1.16-.255.22-.569.43-.698.466-.425.117-.966-.126-1.166-.522-.049-.097-.107-.436-.128-.753a6.683 6.683 0 0 0-.148-1c-.361-1.398-1.579-2.685-2.965-3.135-.635-.206-1.926-.237-2.577-.061m1.812 2.97c.279.114.631.481.768.801.063.148.132.536.154.872.074 1.131.47 1.99 1.26 2.736 1.541 1.453 3.859 1.466 5.462.03.684-.614 1.247-.746 1.892-.445.577.268.894.774.895 1.426.001.407-.131.673-.615 1.24-.966 1.132-1.263 2.401-.894 3.819.214.821.45 1.233 1.041 1.824.793.791 1.79 1.196 2.958 1.2.485.002.85.148 1.172.47.296.296.419.607.419 1.062 0 .455-.123.766-.42 1.063-.322.322-.673.449-1.365.494-1.136.075-1.99.47-2.746 1.271-.716.76-1.083 1.694-1.083 2.761 0 .962.369 1.909 1.036 2.656.642.722.777 1.271.472 1.926-.268.577-.774.894-1.426.895-.407.001-.673-.131-1.24-.615-.828-.706-1.703-1.048-2.688-1.05-.653-.001-1.085.099-1.744.405-.448.208-.66.361-1.082.784-.79.789-1.186 1.722-1.192 2.81-.004.603-.103.901-.41 1.234-.344.373-.649.513-1.131.517a1.46 1.46 0 0 1-1.243-.63c-.199-.277-.23-.383-.314-1.097-.051-.435-.143-.941-.205-1.124-.552-1.646-2.137-2.767-3.912-2.767a4.006 4.006 0 0 0-2.699 1.032c-.719.646-1.27.782-1.926.476-.577-.268-.894-.774-.895-1.426-.001-.407.131-.673.614-1.239.689-.808.968-1.486 1.03-2.509.071-1.165-.312-2.151-1.17-3.008-.787-.788-1.721-1.184-2.808-1.19-.741-.005-1.155-.204-1.535-.738-.307-.431-.289-1.181.039-1.681.284-.432.597-.576 1.481-.68.43-.05.932-.142 1.115-.204a3.996 3.996 0 0 0 2.431-2.293c.633-1.536.367-3.13-.727-4.352-.614-.684-.746-1.247-.445-1.892.268-.577.774-.894 1.426-.895.407-.001.673.131 1.239.614 1.116.952 2.388 1.259 3.78.912.782-.196 1.28-.474 1.834-1.025.765-.761 1.131-1.559 1.198-2.614.055-.857.082-.978.282-1.275.445-.659 1.184-.883 1.917-.581m-1.724 8.634c-2.128.385-3.993 1.841-4.833 3.771-.423.971-.51 1.42-.51 2.63 0 .948.022 1.173.153 1.63.665 2.311 2.24 3.914 4.537 4.618.529.163.67.177 1.742.177 1.076 0 1.212-.014 1.75-.179 2.239-.686 3.812-2.26 4.495-4.496.163-.531.179-.685.183-1.717.004-.992-.014-1.199-.148-1.663-.669-2.315-2.265-3.937-4.538-4.613-.475-.141-.743-.175-1.542-.194-.532-.012-1.112.004-1.289.036m2.087 3.045c.474.132.766.284 1.193.622 1.46 1.154 1.74 3.336.619 4.822a3.502 3.502 0 0 1-5.62-4.176c.9-1.19 2.352-1.674 3.808-1.268"/>
</svg>