<svg xmlns="http://www.w3.org/2000/svg" version="1.1" x="0px" y="0px" viewBox="0 0 24 24" role="img">
  <path d="M20.2,21.5H3.8c-1.1,0-1.7,0-2.2-0.4c-0.5-0.3-0.8-0.8-0.8-1.4c-0.1-0.6,0.2-1.2,0.8-2.1L9.8,3.4l0,0l0.9,0.5L9.8,3.4c0.5-0.9,0.8-1.5,1.4-1.7c0.5-0.2,1.1-0.2,1.6,0c0.6,0.3,0.9,0.8,1.4,1.7l8.2,14.2c0.5,0.9,0.8,1.5,0.8,2.1c-0.1,0.6-0.4,1.1-0.8,1.4C21.9,21.5,21.3,21.5,20.2,21.5z M2.8,19.5c0.2,0,0.6,0,1,0h16.4c0.4,0,0.8,0,1,0c-0.1-0.2-0.3-0.5-0.5-0.9L12.5,4.4c-0.2-0.3-0.4-0.7-0.5-0.9c-0.1,0.2-0.3,0.5-0.5,0.9l-0.9-0.5l0.9,0.5L3.3,18.6C3.1,18.9,2.9,19.3,2.8,19.5z M12,18c-0.6,0-1-0.4-1-1s0.4-1,1-1h0c0.6,0,1,0.4,1,1S12.6,18,12,18z M12,14c-0.6,0-1-0.4-1-1V9c0-0.6,0.4-1,1-1s1,0.4,1,1v4C13,13.6,12.6,14,12,14z"/>
</svg>
