<svg xmlns="http://www.w3.org/2000/svg" xmlns:xlink="http://www.w3.org/1999/xlink" version="1.1" viewBox="0 0 4021 1867" style="background: transparent"><defs joint-selector="defs"></defs><g joint-selector="layers"  transform="matrix(1,0,0,1,0,0)"><g ></g><g ><!--z-index:1--><!--z-index:2--><!--z-index:3--><!--z-index:4--><!--z-index:5--><!--z-index:6--><!--z-index:7--><!--z-index:8--><!--z-index:9--><!--z-index:10--><!--z-index:11--><!--z-index:12--><!--z-index:13--><!--z-index:14--><!--z-index:15--><!--z-index:16--><!--z-index:17--><!--z-index:18--><!--z-index:19--><!--z-index:20--><!--z-index:21--><!--z-index:22--><!--z-index:23--><!--z-index:24--><!--z-index:25--><!--z-index:26--><!--z-index:27--><!--z-index:28--><!--z-index:29--><!--z-index:30--><!--z-index:31--><g   id="j_2"  transform="translate(20,1830.6)"><g id="v-5"><text  id="v-6" font-size="22px" xml:space="preserve" y="0.8em" font-weight="normal" text-anchor="start" fill="#777777" pointer-events="none" display="block" font-family="'DM Sans', DMSans, sans-serif"><tspan dy="0"  display="block">Monday, October 21, 2024 at 11:20 PM Central European Summer Time</tspan></text></g></g><!--z-index:32--><g   id="j_1"  transform="translate(20,1787.3999999999999)"><g id="v-3"><text  id="v-4" font-size="36px" xml:space="preserve" y="0.8em" font-weight="normal" text-anchor="start" fill="#bbbbbb" pointer-events="none" display="block" font-family="'DM Sans', DMSans, sans-serif"><tspan dy="0"  display="block">[Component] Abacus - Backend</tspan></text></g></g><!--z-index:33--><g   id="j_3"  transform="translate(1785,149)" style=""><g  id="v-13" style="opacity: 1;"><rect  id="v-14" rx="10" ry="10" stroke="#3c7fc0" stroke-width="2" pointer-events="visiblePainted" fill="#3c7fc0" width="450" height="300" style="fill: rgb(60, 127, 192); stroke: rgb(60, 127, 192);"></rect><rect  id="v-15" rx="10" ry="10" stroke="#3c7fc0" stroke-width="0" pointer-events="visiblePainted" fill="#438dd5" width="430" height="250" x="10" y="40" style="fill: rgb(67, 141, 213);"></rect><ellipse  id="v-22" fill="#438dd5" cx="20" cy="20" rx="10" ry="10" style="fill: rgb(67, 141, 213);"></ellipse><ellipse  id="v-23" fill="#438dd5" cx="50" cy="20" rx="10" ry="10" style="fill: rgb(67, 141, 213);"></ellipse><ellipse  id="v-24" fill="#438dd5" cx="80" cy="20" rx="10" ry="10" style="fill: rgb(67, 141, 213);"></ellipse><rect  id="v-16" rx="10" ry="10" stroke="#444444" stroke-width="0" pointer-events="visiblePainted" fill="#438dd5" width="340" height="20" x="100" y="10" style="fill: rgb(67, 141, 213);"></rect><text  id="v-17" font-size="34" xml:space="preserve" y="0.8em" font-weight="bold" text-anchor="middle" pointer-events="visible" font-family="'DM Sans', DMSans, sans-serif" fill="transparent" transform="matrix(1,0,0,1,225,92.9)" style="fill: rgb(255, 255, 255);"><tspan dy="0" >Frontend</tspan></text><text  id="v-18" font-size="17" xml:space="preserve" y="0.8em" text-anchor="middle" font-family="'DM Sans', DMSans, sans-serif" fill="transparent" transform="matrix(1,0,0,1,225,133.7)" style="fill: rgb(255, 255, 255);"><tspan dy="0" >[Container: Single-Page Application - TypeScript,</tspan><tspan dy="1.2em" x="0" >React]</tspan></text><text  id="v-19" font-size="24" xml:space="preserve" y="0.8em" text-anchor="middle" font-family="'DM Sans', DMSans, sans-serif" fill="transparent" transform="matrix(1,0,0,1,225,184.5)" style="fill: rgb(255, 255, 255);"><tspan dy="0" >Biedt alle Abacus functionaliteit via</tspan><tspan dy="1.2em" x="0" >een webbrowser.</tspan></text><g  id="v-20" font-weight="normal" text-anchor="middle" color="transparent" transform="matrix(1,0,0,1,222.5,258)" display="none" style="fill: rgb(255, 255, 255);"><g ></g><g ></g><g ></g><g ></g></g><image  id="v-21"></image></g></g><!--z-index:34--><g   id="j_5"  transform="translate(149,804)" style=""><g id="v-35"><rect  id="v-36" width="3721" height="912" rx="0" ry="0" fill="transparent" stroke="#3c7fc0" stroke-width="1" stroke-dasharray="20,20" pointer-events="none"></rect><text  id="v-37" font-size="24px" xml:space="preserve" y="873" font-weight="normal" fill="#3c7fc0" text-anchor="start" pointer-events="visible" font-family="'DM Sans', DMSans, sans-serif" transform="matrix(1,0,0,1,15,0)"><tspan dy="0" >Backend</tspan></text><text  id="v-38" font-size="17px" xml:space="preserve" y="897" font-weight="normal" fill="#3c7fc0" text-anchor="start" pointer-events="visible" font-family="'DM Sans', DMSans, sans-serif" transform="matrix(1,0,0,1,15,0)"><tspan dy="0" >[Container]</tspan></text><image  id="v-39" pointer-events="visible"></image></g></g><!--z-index:35--><g   id="j_4"  transform="translate(760,824)" style=""><g  id="v-28" style="opacity: 1;"><rect  id="v-29" rx="1" ry="1" stroke="#78a8d8" stroke-width="2" pointer-events="visiblePainted" fill="#85bbf0" width="450" height="300" style="fill: rgb(133, 187, 240); stroke: rgb(120, 168, 216);"></rect><text  id="v-30" font-size="34" xml:space="preserve" y="0.8em" font-weight="bold" text-anchor="middle" pointer-events="visible" font-family="'DM Sans', DMSans, sans-serif" fill="#000000" transform="matrix(1,0,0,1,225,88.1)" style="fill: rgb(0, 0, 0);"><tspan dy="0" >Beheer</tspan></text><text  id="v-31" font-size="17" xml:space="preserve" y="0.8em" text-anchor="middle" font-family="'DM Sans', DMSans, sans-serif" fill="#000000" transform="matrix(1,0,0,1,225,128.9)" style="fill: rgb(0, 0, 0);"><tspan dy="0" >[Component]</tspan></text><text  id="v-32" font-size="24" xml:space="preserve" y="0.8em" text-anchor="middle" font-family="'DM Sans', DMSans, sans-serif" fill="#000000" transform="matrix(1,0,0,1,225,159.3)" style="fill: rgb(0, 0, 0);"><tspan dy="0" >Beheer van verkiezingen,</tspan><tspan dy="1.2em" x="0" >verkiezingsgegevens en de zitting.</tspan></text><g  id="v-33" color="#000000" transform="matrix(1,0,0,1,222.5,268)" display="none" style="fill: rgb(0, 0, 0);"><g ></g><g ></g><g ></g><g ></g></g><image  id="v-34"></image></g></g><!--z-index:36--><g   id="j_6"  transform="translate(169,824)" style=""><g  id="v-43" style="opacity: 1;"><rect  id="v-44" rx="1" ry="1" stroke="#78a8d8" stroke-width="2" pointer-events="visiblePainted" fill="#85bbf0" width="450" height="300" style="fill: rgb(133, 187, 240); stroke: rgb(120, 168, 216);"></rect><text  id="v-45" font-size="34" xml:space="preserve" y="0.8em" font-weight="bold" text-anchor="middle" pointer-events="visible" font-family="'DM Sans', DMSans, sans-serif" fill="#000000" transform="matrix(1,0,0,1,225,88.1)" style="fill: rgb(0, 0, 0);"><tspan dy="0" >Gebruikers</tspan></text><text  id="v-46" font-size="17" xml:space="preserve" y="0.8em" text-anchor="middle" font-family="'DM Sans', DMSans, sans-serif" fill="#000000" transform="matrix(1,0,0,1,225,128.9)" style="fill: rgb(0, 0, 0);"><tspan dy="0" >[Component]</tspan></text><text  id="v-47" font-size="24" xml:space="preserve" y="0.8em" text-anchor="middle" font-family="'DM Sans', DMSans, sans-serif" fill="#000000" transform="matrix(1,0,0,1,225,159.3)" style="fill: rgb(0, 0, 0);"><tspan dy="0" >Gebruikers en rollen: beheer,</tspan><tspan dy="1.2em" x="0" >authenticatie, autorisatie.</tspan></text><g  id="v-48" color="#000000" transform="matrix(1,0,0,1,222.5,268)" display="none" style="fill: rgb(0, 0, 0);"><g ></g><g ></g><g ></g><g ></g></g><image  id="v-49"></image></g></g><!--z-index:37--><g   id="j_7"  transform="translate(760,1324)" style=""><g  id="v-56" style="opacity: 1;"><rect  id="v-57" rx="1" ry="1" stroke="#78a8d8" stroke-width="2" pointer-events="visiblePainted" fill="#85bbf0" width="450" height="300" style="fill: rgb(133, 187, 240); stroke: rgb(120, 168, 216);"></rect><text  id="v-58" font-size="34" xml:space="preserve" y="0.8em" font-weight="bold" text-anchor="middle" pointer-events="visible" font-family="'DM Sans', DMSans, sans-serif" fill="#000000" transform="matrix(1,0,0,1,225,73.7)" style="fill: rgb(0, 0, 0);"><tspan dy="0" >Verkiezingsgegevens</tspan></text><text  id="v-59" font-size="17" xml:space="preserve" y="0.8em" text-anchor="middle" font-family="'DM Sans', DMSans, sans-serif" fill="#000000" transform="matrix(1,0,0,1,225,114.5)" style="fill: rgb(0, 0, 0);"><tspan dy="0" >[Component]</tspan></text><text  id="v-60" font-size="24" xml:space="preserve" y="0.8em" text-anchor="middle" font-family="'DM Sans', DMSans, sans-serif" fill="#000000" transform="matrix(1,0,0,1,225,144.9)" style="fill: rgb(0, 0, 0);"><tspan dy="0" >Verkiezingsgegevens incl. politieke</tspan><tspan dy="1.2em" x="0" >groeperingen, kandidatenlijsten en</tspan><tspan dy="1.2em" x="0" >stembureaus.</tspan></text><g  id="v-61" color="#000000" transform="matrix(1,0,0,1,222.5,268)" display="none" style="fill: rgb(0, 0, 0);"><g ></g><g ></g><g ></g><g ></g></g><image  id="v-62"></image></g></g><!--z-index:38--><g   id="j_8"  transform="translate(1471,824)" style=""><g  id="v-66" style="opacity: 1;"><rect  id="v-67" rx="1" ry="1" stroke="#78a8d8" stroke-width="2" pointer-events="visiblePainted" fill="#85bbf0" width="450" height="300" style="fill: rgb(133, 187, 240); stroke: rgb(120, 168, 216);"></rect><text  id="v-68" font-size="34" xml:space="preserve" y="0.8em" font-weight="bold" text-anchor="middle" pointer-events="visible" font-family="'DM Sans', DMSans, sans-serif" fill="#000000" transform="matrix(1,0,0,1,225,102.5)" style="fill: rgb(0, 0, 0);"><tspan dy="0" >Invoer</tspan></text><text  id="v-69" font-size="17" xml:space="preserve" y="0.8em" text-anchor="middle" font-family="'DM Sans', DMSans, sans-serif" fill="#000000" transform="matrix(1,0,0,1,225,143.3)" style="fill: rgb(0, 0, 0);"><tspan dy="0" >[Component]</tspan></text><text  id="v-70" font-size="24" xml:space="preserve" y="0.8em" text-anchor="middle" font-family="'DM Sans', DMSans, sans-serif" fill="#000000" transform="matrix(1,0,0,1,225,173.7)" style="fill: rgb(0, 0, 0);"><tspan dy="0" >Invoeren en validatie van tellingen.</tspan></text><g  id="v-71" color="#000000" transform="matrix(1,0,0,1,222.5,268)" display="none" style="fill: rgb(0, 0, 0);"><g ></g><g ></g><g ></g><g ></g></g><image  id="v-72"></image></g></g><!--z-index:39--><g   id="j_9"  transform="translate(1471,1325)" style=""><g  id="v-76" style="opacity: 1;"><rect  id="v-77" rx="1" ry="1" stroke="#78a8d8" stroke-width="2" pointer-events="visiblePainted" fill="#85bbf0" width="450" height="300" style="fill: rgb(133, 187, 240); stroke: rgb(120, 168, 216);"></rect><text  id="v-78" font-size="34" xml:space="preserve" y="0.8em" font-weight="bold" text-anchor="middle" pointer-events="visible" font-family="'DM Sans', DMSans, sans-serif" fill="#000000" transform="matrix(1,0,0,1,225,88.1)" style="fill: rgb(0, 0, 0);"><tspan dy="0" >Telresultaten</tspan></text><text  id="v-79" font-size="17" xml:space="preserve" y="0.8em" text-anchor="middle" font-family="'DM Sans', DMSans, sans-serif" fill="#000000" transform="matrix(1,0,0,1,225,128.9)" style="fill: rgb(0, 0, 0);"><tspan dy="0" >[Component]</tspan></text><text  id="v-80" font-size="24" xml:space="preserve" y="0.8em" text-anchor="middle" font-family="'DM Sans', DMSans, sans-serif" fill="#000000" transform="matrix(1,0,0,1,225,159.3)" style="fill: rgb(0, 0, 0);"><tspan dy="0" >Gecontroleerde telresultaten van</tspan><tspan dy="1.2em" x="0" >stembureaus.</tspan></text><g  id="v-81" color="#000000" transform="matrix(1,0,0,1,222.5,268)" display="none" style="fill: rgb(0, 0, 0);"><g ></g><g ></g><g ></g><g ></g></g><image  id="v-82"></image></g></g><!--z-index:40--><g   id="j_10"  transform="translate(2823,824)" style=""><g  id="v-86" style="opacity: 1;"><rect  id="v-87" rx="1" ry="1" stroke="#78a8d8" stroke-width="2" pointer-events="visiblePainted" fill="#85bbf0" width="450" height="300" style="fill: rgb(133, 187, 240); stroke: rgb(120, 168, 216);"></rect><text  id="v-88" font-size="34" xml:space="preserve" y="0.8em" font-weight="bold" text-anchor="middle" pointer-events="visible" font-family="'DM Sans', DMSans, sans-serif" fill="#000000" transform="matrix(1,0,0,1,225,102.5)" style="fill: rgb(0, 0, 0);"><tspan dy="0" >Exporteren</tspan></text><text  id="v-89" font-size="17" xml:space="preserve" y="0.8em" text-anchor="middle" font-family="'DM Sans', DMSans, sans-serif" fill="#000000" transform="matrix(1,0,0,1,225,143.3)" style="fill: rgb(0, 0, 0);"><tspan dy="0" >[Component]</tspan></text><text  id="v-90" font-size="24" xml:space="preserve" y="0.8em" text-anchor="middle" font-family="'DM Sans', DMSans, sans-serif" fill="#000000" transform="matrix(1,0,0,1,225,173.7)" style="fill: rgb(0, 0, 0);"><tspan dy="0" >Exporteren van resultaten.</tspan></text><g  id="v-91" color="#000000" transform="matrix(1,0,0,1,222.5,268)" display="none" style="fill: rgb(0, 0, 0);"><g ></g><g ></g><g ></g><g ></g></g><image  id="v-92"></image></g></g><!--z-index:41--><g   id="j_11"  transform="translate(2093,1325)" style=""><g  id="v-99" style="opacity: 1;"><rect  id="v-100" rx="1" ry="1" stroke="#78a8d8" stroke-width="2" pointer-events="visiblePainted" fill="#85bbf0" width="450" height="300" style="fill: rgb(133, 187, 240); stroke: rgb(120, 168, 216);"></rect><text  id="v-101" font-size="34" xml:space="preserve" y="0.8em" font-weight="bold" text-anchor="middle" pointer-events="visible" font-family="'DM Sans', DMSans, sans-serif" fill="#000000" transform="matrix(1,0,0,1,225,102.5)" style="fill: rgb(0, 0, 0);"><tspan dy="0" >EML_NL generator</tspan></text><text  id="v-102" font-size="17" xml:space="preserve" y="0.8em" text-anchor="middle" font-family="'DM Sans', DMSans, sans-serif" fill="#000000" transform="matrix(1,0,0,1,225,143.3)" style="fill: rgb(0, 0, 0);"><tspan dy="0" >[Component]</tspan></text><text  id="v-103" font-size="24" xml:space="preserve" y="0.8em" text-anchor="middle" font-family="'DM Sans', DMSans, sans-serif" fill="#000000" transform="matrix(1,0,0,1,225,173.7)" style="fill: rgb(0, 0, 0);"><tspan dy="0" >EML_NL-bestandenexport.</tspan></text><g  id="v-104" color="#000000" transform="matrix(1,0,0,1,222.5,268)" display="none" style="fill: rgb(0, 0, 0);"><g ></g><g ></g><g ></g><g ></g></g><image  id="v-105"></image></g></g><!--z-index:42--><g   id="j_12"  transform="translate(2823,1325)" style=""><g  id="v-109" style="opacity: 1;"><rect  id="v-110" rx="1" ry="1" stroke="#78a8d8" stroke-width="2" pointer-events="visiblePainted" fill="#85bbf0" width="450" height="300" style="fill: rgb(133, 187, 240); stroke: rgb(120, 168, 216);"></rect><text  id="v-111" font-size="34" xml:space="preserve" y="0.8em" font-weight="bold" text-anchor="middle" pointer-events="visible" font-family="'DM Sans', DMSans, sans-serif" fill="#000000" transform="matrix(1,0,0,1,225,102.5)" style="fill: rgb(0, 0, 0);"><tspan dy="0" >PDF generator</tspan></text><text  id="v-112" font-size="17" xml:space="preserve" y="0.8em" text-anchor="middle" font-family="'DM Sans', DMSans, sans-serif" fill="#000000" transform="matrix(1,0,0,1,225,143.3)" style="fill: rgb(0, 0, 0);"><tspan dy="0" >[Component]</tspan></text><text  id="v-113" font-size="24" xml:space="preserve" y="0.8em" text-anchor="middle" font-family="'DM Sans', DMSans, sans-serif" fill="#000000" transform="matrix(1,0,0,1,225,173.7)" style="fill: rgb(0, 0, 0);"><tspan dy="0" >PDF-bestandenexport via Typst.</tspan></text><g  id="v-114" color="#000000" transform="matrix(1,0,0,1,222.5,268)" display="none" style="fill: rgb(0, 0, 0);"><g ></g><g ></g><g ></g><g ></g></g><image  id="v-115"></image></g></g><!--z-index:43--><g   id="j_13"  transform="translate(2093,824)" style=""><g  id="v-119" style="opacity: 1;"><rect  id="v-120" rx="1" ry="1" stroke="#78a8d8" stroke-width="2" pointer-events="visiblePainted" fill="#85bbf0" width="450" height="300" style="fill: rgb(133, 187, 240); stroke: rgb(120, 168, 216);"></rect><text  id="v-121" font-size="34" xml:space="preserve" y="0.8em" font-weight="bold" text-anchor="middle" pointer-events="visible" font-family="'DM Sans', DMSans, sans-serif" fill="#000000" transform="matrix(1,0,0,1,225,88.1)" style="fill: rgb(0, 0, 0);"><tspan dy="0" >Zetelverdeling</tspan></text><text  id="v-122" font-size="17" xml:space="preserve" y="0.8em" text-anchor="middle" font-family="'DM Sans', DMSans, sans-serif" fill="#000000" transform="matrix(1,0,0,1,225,128.9)" style="fill: rgb(0, 0, 0);"><tspan dy="0" >[Component]</tspan></text><text  id="v-123" font-size="24" xml:space="preserve" y="0.8em" text-anchor="middle" font-family="'DM Sans', DMSans, sans-serif" fill="#000000" transform="matrix(1,0,0,1,225,159.3)" style="fill: rgb(0, 0, 0);"><tspan dy="0" >Zetelverdeling na invoer van alle</tspan><tspan dy="1.2em" x="0" >telresultaten.</tspan></text><g  id="v-124" color="#000000" transform="matrix(1,0,0,1,222.5,268)" display="none" style="fill: rgb(0, 0, 0);"><g ></g><g ></g><g ></g><g ></g></g><image  id="v-125"></image></g></g><!--z-index:44--><g   id="j_14"  transform="translate(3400,824)" style=""><g  id="v-129" style="opacity: 1;"><rect  id="v-130" rx="1" ry="1" stroke="#78a8d8" stroke-width="2" pointer-events="visiblePainted" fill="#85bbf0" width="450" height="300" style="fill: rgb(133, 187, 240); stroke: rgb(120, 168, 216);"></rect><text  id="v-131" font-size="34" xml:space="preserve" y="0.8em" font-weight="bold" text-anchor="middle" pointer-events="visible" font-family="'DM Sans', DMSans, sans-serif" fill="#000000" transform="matrix(1,0,0,1,225,88.1)" style="fill: rgb(0, 0, 0);"><tspan dy="0" >Statistieken</tspan></text><text  id="v-132" font-size="17" xml:space="preserve" y="0.8em" text-anchor="middle" font-family="'DM Sans', DMSans, sans-serif" fill="#000000" transform="matrix(1,0,0,1,225,128.9)" style="fill: rgb(0, 0, 0);"><tspan dy="0" >[Component]</tspan></text><text  id="v-133" font-size="24" xml:space="preserve" y="0.8em" text-anchor="middle" font-family="'DM Sans', DMSans, sans-serif" fill="#000000" transform="matrix(1,0,0,1,225,159.3)" style="fill: rgb(0, 0, 0);"><tspan dy="0" >Statistieken van het</tspan><tspan dy="1.2em" x="0" >uitslagvaststellingsproces.</tspan></text><g  id="v-134" color="#000000" transform="matrix(1,0,0,1,222.5,268)" display="none" style="fill: rgb(0, 0, 0);"><g ></g><g ></g><g ></g><g ></g></g><image  id="v-135"></image></g></g><!--z-index:45--><g   id="j_15" ><path  stroke="#aaaaaa" d="M 1785 354 L 416 692 C 409.33333333333326 693.3333333333333 405.99999999999994 697.3333333333333 406 704 L 400 824" id="v-152" stroke-width="2" stroke-dasharray="30 30" fill="none" style="opacity: 1;"></path><path  fill="black" stroke="black" d="M 0 0 0 0" transform="matrix(-0.9709913519476301,0.2391146052480142,-0.2391146052480142,-0.9709913519476301,1785,354.4100036621094)"></path><path  fill="#aaaaaa" stroke="#aaaaaa" d="M 20 0 L 0 10 L 20 20 z" id="v-154" transform="matrix(0.04280681774016348,-0.9990833680704331,0.9990833680704331,0.04280681774016348,390.43916088603464,823.5719207767402)" style="opacity: 1;"></path><path  d="M 1785 354 L 416 692 C 409.33333333333326 693.3333333333333 405.99999999999994 697.3333333333333 406 704 L 400 824" id="v-153" fill="none" style="cursor: default;"></path><g ><g id="v-143"  label-idx="0" cursor="move" transform="matrix(1,0,0,1,1033.817138671875,539.4636840820312)" style="cursor: default; opacity: 1;"><rect joint-selector="rect" id="v-147" fill="transparent" rx="3" ry="3" pointer-events="none" width="156.87509155273438" height="56.662044525146484" transform="matrix(1,0,0,1,-78,-28.3)"></rect><text joint-selector="text" id="v-146" font-size="24px" xml:space="preserve" y="0.8em" fill="#aaaaaa" text-anchor="middle" pointer-events="none" font-family="'DM Sans', DMSans, sans-serif" font-weight="normal" transform="matrix(1,0,0,1,0,-24.7)"><tspan dy="0" >Communiceert</tspan><tspan dy="1.2em" x="0" >via API met</tspan></text></g><g id="v-144"  label-idx="1" cursor="move" transform="matrix(1,0,0,1,1033.817138671875,580.263671875)" style="cursor: default; opacity: 1;"><rect joint-selector="rect" id="v-149" fill="transparent" rx="3" ry="3" pointer-events="none" width="105.06295013427734" height="20.2633056640625" transform="matrix(1,0,0,1,-52.4,-10.1)"></rect><text joint-selector="text" id="v-148" font-size="17px" xml:space="preserve" y="0.8em" fill="#aaaaaa" text-anchor="middle" pointer-events="none" font-family="'DM Sans', DMSans, sans-serif" font-weight="normal" transform="matrix(1,0,0,1,0,-8.5)"><tspan dy="0" >[JSON REST]</tspan></text></g><g id="v-145"  label-idx="2" cursor="move" transform="matrix(1,0,0,1,1023.817138671875,588.6636962890625)" style="cursor: default; opacity: 1;"><rect joint-selector="rect" id="v-151" fill="transparent" rx="3" ry="3"  width="0" height="0" transform="matrix(1,0,0,1,0,0)" display="none"></rect><text joint-selector="text" id="v-150" fill="#000000" font-size="14" text-anchor="middle" pointer-events="none"></text></g></g><g  display="none"><g  transform="translate(406, 694)" id="v-140"><circle  idx="0" r="10"></circle><path  idx="0" d="M16,5.333c-7.732,0-14,4.701-14,10.5c0,1.982,0.741,3.833,2.016,5.414L2,25.667l5.613-1.441c2.339,1.317,5.237,2.107,8.387,2.107c7.732,0,14-4.701,14-10.5C30,10.034,23.732,5.333,16,5.333z" transform="translate(5, -33)"></path><path  idx="0" transform="scale(.8) translate(9.5, -37)" d="M24.778,21.419 19.276,15.917 24.777,10.415 21.949,7.585 16.447,13.087 10.945,7.585 8.117,10.415 13.618,15.917 8.116,21.419 10.946,24.248 16.447,18.746 21.948,24.248z"><title>Remove vertex.</title></path></g></g><g  id="v-156" display="none"><g  id="v-141"><path  end="source" d="M 26 0 L 0 13 L 26 26 z"></path></g><g  id="v-142"><path  end="target" d="M 26 0 L 0 13 L 26 26 z"></path></g></g><g  id="v-155" display="none"><g  id="v-139" transform="translate(1746.1660992619816, 363.5879170558438) "><g  event="remove"><circle r="11"></circle><path transform="scale(.8) translate(-16, -16)" d="M24.778,21.419 19.276,15.917 24.777,10.415 21.949,7.585 16.447,13.087 10.945,7.585 8.117,10.415 13.618,15.917 8.116,21.419 10.946,24.248 16.447,18.746 21.948,24.248z"></path><title>Remove link.</title></g><g  event="link:options"><circle r="11" transform="translate(25)"></circle><path fill="white" transform="scale(.55) translate(29, -16)" d="M31.229,17.736c0.064-0.571,0.104-1.148,0.104-1.736s-0.04-1.166-0.104-1.737l-4.377-1.557c-0.218-0.716-0.504-1.401-0.851-2.05l1.993-4.192c-0.725-0.91-1.549-1.734-2.458-2.459l-4.193,1.994c-0.647-0.347-1.334-0.632-2.049-0.849l-1.558-4.378C17.165,0.708,16.588,0.667,16,0.667s-1.166,0.041-1.737,0.105L12.707,5.15c-0.716,0.217-1.401,0.502-2.05,0.849L6.464,4.005C5.554,4.73,4.73,5.554,4.005,6.464l1.994,4.192c-0.347,0.648-0.632,1.334-0.849,2.05l-4.378,1.557C0.708,14.834,0.667,15.412,0.667,16s0.041,1.165,0.105,1.736l4.378,1.558c0.217,0.715,0.502,1.401,0.849,2.049l-1.994,4.193c0.725,0.909,1.549,1.733,2.459,2.458l4.192-1.993c0.648,0.347,1.334,0.633,2.05,0.851l1.557,4.377c0.571,0.064,1.148,0.104,1.737,0.104c0.588,0,1.165-0.04,1.736-0.104l1.558-4.377c0.715-0.218,1.399-0.504,2.049-0.851l4.193,1.993c0.909-0.725,1.733-1.549,2.458-2.458l-1.993-4.193c0.347-0.647,0.633-1.334,0.851-2.049L31.229,17.736zM16,20.871c-2.69,0-4.872-2.182-4.872-4.871c0-2.69,2.182-4.872,4.872-4.872c2.689,0,4.871,2.182,4.871,4.872C20.871,18.689,18.689,20.871,16,20.871z"></path><title>Link options.</title></g></g></g></g><!--z-index:46--><g   id="j_16" ><path  stroke="#aaaaaa" d="M 1889 449 L 1697 686 C 1693 691.3333333333333 1691 697.3333333333333 1691 704 L 1693 824" id="v-173" stroke-width="2" stroke-dasharray="30 30" fill="none" style="opacity: 1;"></path><path  fill="black" stroke="black" d="M 0 0 0 0" transform="matrix(-0.6282897663328327,0.7779794145871949,-0.7779794145871949,-0.6282897663328327,1888.8599853515625,449)"></path><path  fill="#aaaaaa" stroke="#aaaaaa" d="M 20 0 L 0 10 L 20 20 z" id="v-175" transform="matrix(-0.01784329759771581,-0.9998407956924139,0.9998407956924139,-0.01784329759771581,1683.3216265815531,824.1784278469638)" style="opacity: 1;"></path><path  d="M 1889 449 L 1697 686 C 1693 691.3333333333333 1691 697.3333333333333 1691 704 L 1693 824" id="v-174" fill="none" style="cursor: default;"></path><g ><g id="v-164"  label-idx="0" cursor="move" transform="matrix(1,0,0,1,1749.14697265625,621.631103515625)" style="cursor: default; opacity: 1;"><rect joint-selector="rect" id="v-168" fill="transparent" rx="3" ry="3" pointer-events="none" width="156.87509155273438" height="56.662044525146484" transform="matrix(1,0,0,1,-78,-28.3)"></rect><text joint-selector="text" id="v-167" font-size="24px" xml:space="preserve" y="0.8em" fill="#aaaaaa" text-anchor="middle" pointer-events="none" font-family="'DM Sans', DMSans, sans-serif" font-weight="normal" transform="matrix(1,0,0,1,0,-24.7)"><tspan dy="0" >Communiceert</tspan><tspan dy="1.2em" x="0" >via API met</tspan></text></g><g id="v-165"  label-idx="1" cursor="move" transform="matrix(1,0,0,1,1749.14697265625,662.43115234375)" style="cursor: default; opacity: 1;"><rect joint-selector="rect" id="v-170" fill="transparent" rx="3" ry="3" pointer-events="none" width="105.06295013427734" height="20.2633056640625" transform="matrix(1,0,0,1,-52.4,-10.1)"></rect><text joint-selector="text" id="v-169" font-size="17px" xml:space="preserve" y="0.8em" fill="#aaaaaa" text-anchor="middle" pointer-events="none" font-family="'DM Sans', DMSans, sans-serif" font-weight="normal" transform="matrix(1,0,0,1,0,-8.5)"><tspan dy="0" >[JSON REST]</tspan></text></g><g id="v-166"  label-idx="2" cursor="move" transform="matrix(1,0,0,1,1739.14697265625,670.8311157226562)" style="cursor: default; opacity: 1;"><rect joint-selector="rect" id="v-172" fill="transparent" rx="3" ry="3"  width="0" height="0" transform="matrix(1,0,0,1,0,0)" display="none"></rect><text joint-selector="text" id="v-171" fill="#000000" font-size="14" text-anchor="middle" pointer-events="none"></text></g></g><g  display="none"><g  transform="translate(1691, 694)" id="v-161"><circle  idx="0" r="10"></circle><path  idx="0" d="M16,5.333c-7.732,0-14,4.701-14,10.5c0,1.982,0.741,3.833,2.016,5.414L2,25.667l5.613-1.441c2.339,1.317,5.237,2.107,8.387,2.107c7.732,0,14-4.701,14-10.5C30,10.034,23.732,5.333,16,5.333z" transform="translate(5, -33)"></path><path  idx="0" transform="scale(.8) translate(9.5, -37)" d="M24.778,21.419 19.276,15.917 24.777,10.415 21.949,7.585 16.447,13.087 10.945,7.585 8.117,10.415 13.618,15.917 8.116,21.419 10.946,24.248 16.447,18.746 21.948,24.248z"><title>Remove vertex.</title></path></g></g><g  id="v-177" display="none"><g  id="v-162"><path  end="source" d="M 26 0 L 0 13 L 26 26 z"></path></g><g  id="v-163"><path  end="target" d="M 26 0 L 0 13 L 26 26 z"></path></g></g><g  id="v-176" display="none"><g  id="v-160" transform="translate(1863.8207547951147, 480.08063079978035) "><g  event="remove"><circle r="11"></circle><path transform="scale(.8) translate(-16, -16)" d="M24.778,21.419 19.276,15.917 24.777,10.415 21.949,7.585 16.447,13.087 10.945,7.585 8.117,10.415 13.618,15.917 8.116,21.419 10.946,24.248 16.447,18.746 21.948,24.248z"></path><title>Remove link.</title></g><g  event="link:options"><circle r="11" transform="translate(25)"></circle><path fill="white" transform="scale(.55) translate(29, -16)" d="M31.229,17.736c0.064-0.571,0.104-1.148,0.104-1.736s-0.04-1.166-0.104-1.737l-4.377-1.557c-0.218-0.716-0.504-1.401-0.851-2.05l1.993-4.192c-0.725-0.91-1.549-1.734-2.458-2.459l-4.193,1.994c-0.647-0.347-1.334-0.632-2.049-0.849l-1.558-4.378C17.165,0.708,16.588,0.667,16,0.667s-1.166,0.041-1.737,0.105L12.707,5.15c-0.716,0.217-1.401,0.502-2.05,0.849L6.464,4.005C5.554,4.73,4.73,5.554,4.005,6.464l1.994,4.192c-0.347,0.648-0.632,1.334-0.849,2.05l-4.378,1.557C0.708,14.834,0.667,15.412,0.667,16s0.041,1.165,0.105,1.736l4.378,1.558c0.217,0.715,0.502,1.401,0.849,2.049l-1.994,4.193c0.725,0.909,1.549,1.733,2.459,2.458l4.192-1.993c0.648,0.347,1.334,0.633,2.05,0.851l1.557,4.377c0.571,0.064,1.148,0.104,1.737,0.104c0.588,0,1.165-0.04,1.736-0.104l1.558-4.377c0.715-0.218,1.399-0.504,2.049-0.851l4.193,1.993c0.909-0.725,1.733-1.549,2.458-2.458l-1.993-4.193c0.347-0.647,0.633-1.334,0.851-2.049L31.229,17.736zM16,20.871c-2.69,0-4.872-2.182-4.872-4.871c0-2.69,2.182-4.872,4.872-4.872c2.689,0,4.871,2.182,4.871,4.872C20.871,18.689,18.689,20.871,16,20.871z"></path><title>Link options.</title></g></g></g></g><!--z-index:47--><g   id="j_17" ><path  stroke="#aaaaaa" d="M 1785 384 L 994 680 C 988 682.6666666666666 985 687.3333333333333 985 694 L 985 824" id="v-194" stroke-width="2" stroke-dasharray="30 30" fill="none" style="opacity: 1;"></path><path  fill="black" stroke="black" d="M 0 0 0 0" transform="matrix(-0.9361405248941551,0.3516261049053323,-0.3516261049053323,-0.9361405248941551,1785,383.510009765625)"></path><path  fill="#aaaaaa" stroke="#aaaaaa" d="M 20 0 L 0 10 L 20 20 z" id="v-196" transform="matrix(-1.8369701987210297e-16,-1,1,-1.8369701987210297e-16,975,824)" style="opacity: 1;"></path><path  d="M 1785 384 L 994 680 C 988 682.6666666666666 985 687.3333333333333 985 694 L 985 824" id="v-195" fill="none" style="cursor: default;"></path><g ><g id="v-185"  label-idx="0" cursor="move" transform="matrix(1,0,0,1,1320.3126220703125,557.890625)" style="cursor: default; opacity: 1;"><rect joint-selector="rect" id="v-189" fill="transparent" rx="3" ry="3" pointer-events="none" width="156.87509155273438" height="56.662044525146484" transform="matrix(1,0,0,1,-78,-28.3)"></rect><text joint-selector="text" id="v-188" font-size="24px" xml:space="preserve" y="0.8em" fill="#aaaaaa" text-anchor="middle" pointer-events="none" font-family="'DM Sans', DMSans, sans-serif" font-weight="normal" transform="matrix(1,0,0,1,0,-24.7)"><tspan dy="0" >Communiceert</tspan><tspan dy="1.2em" x="0" >via API met</tspan></text></g><g id="v-186"  label-idx="1" cursor="move" transform="matrix(1,0,0,1,1320.3126220703125,598.6906127929688)" style="cursor: default; opacity: 1;"><rect joint-selector="rect" id="v-191" fill="transparent" rx="3" ry="3" pointer-events="none" width="105.06295013427734" height="20.2633056640625" transform="matrix(1,0,0,1,-52.4,-10.1)"></rect><text joint-selector="text" id="v-190" font-size="17px" xml:space="preserve" y="0.8em" fill="#aaaaaa" text-anchor="middle" pointer-events="none" font-family="'DM Sans', DMSans, sans-serif" font-weight="normal" transform="matrix(1,0,0,1,0,-8.5)"><tspan dy="0" >[JSON REST]</tspan></text></g><g id="v-187"  label-idx="2" cursor="move" transform="matrix(1,0,0,1,1310.3126220703125,607.090576171875)" style="cursor: default; opacity: 1;"><rect joint-selector="rect" id="v-193" fill="transparent" rx="3" ry="3"  width="0" height="0" transform="matrix(1,0,0,1,0,0)" display="none"></rect><text joint-selector="text" id="v-192" fill="#000000" font-size="14" text-anchor="middle" pointer-events="none"></text></g></g><g  display="none"><g  transform="translate(985, 684)" id="v-182"><circle  idx="0" r="10"></circle><path  idx="0" d="M16,5.333c-7.732,0-14,4.701-14,10.5c0,1.982,0.741,3.833,2.016,5.414L2,25.667l5.613-1.441c2.339,1.317,5.237,2.107,8.387,2.107c7.732,0,14-4.701,14-10.5C30,10.034,23.732,5.333,16,5.333z" transform="translate(5, -33)"></path><path  idx="0" transform="scale(.8) translate(9.5, -37)" d="M24.778,21.419 19.276,15.917 24.777,10.415 21.949,7.585 16.447,13.087 10.945,7.585 8.117,10.415 13.618,15.917 8.116,21.419 10.946,24.248 16.447,18.746 21.948,24.248z"><title>Remove vertex.</title></path></g></g><g  id="v-198" display="none"><g  id="v-183"><path  end="source" d="M 26 0 L 0 13 L 26 26 z"></path></g><g  id="v-184"><path  end="target" d="M 26 0 L 0 13 L 26 26 z"></path></g></g><g  id="v-197" display="none"><g  id="v-181" transform="translate(1747.537110087815, 398.01898282428164) "><g  event="remove"><circle r="11"></circle><path transform="scale(.8) translate(-16, -16)" d="M24.778,21.419 19.276,15.917 24.777,10.415 21.949,7.585 16.447,13.087 10.945,7.585 8.117,10.415 13.618,15.917 8.116,21.419 10.946,24.248 16.447,18.746 21.948,24.248z"></path><title>Remove link.</title></g><g  event="link:options"><circle r="11" transform="translate(25)"></circle><path fill="white" transform="scale(.55) translate(29, -16)" d="M31.229,17.736c0.064-0.571,0.104-1.148,0.104-1.736s-0.04-1.166-0.104-1.737l-4.377-1.557c-0.218-0.716-0.504-1.401-0.851-2.05l1.993-4.192c-0.725-0.91-1.549-1.734-2.458-2.459l-4.193,1.994c-0.647-0.347-1.334-0.632-2.049-0.849l-1.558-4.378C17.165,0.708,16.588,0.667,16,0.667s-1.166,0.041-1.737,0.105L12.707,5.15c-0.716,0.217-1.401,0.502-2.05,0.849L6.464,4.005C5.554,4.73,4.73,5.554,4.005,6.464l1.994,4.192c-0.347,0.648-0.632,1.334-0.849,2.05l-4.378,1.557C0.708,14.834,0.667,15.412,0.667,16s0.041,1.165,0.105,1.736l4.378,1.558c0.217,0.715,0.502,1.401,0.849,2.049l-1.994,4.193c0.725,0.909,1.549,1.733,2.459,2.458l4.192-1.993c0.648,0.347,1.334,0.633,2.05,0.851l1.557,4.377c0.571,0.064,1.148,0.104,1.737,0.104c0.588,0,1.165-0.04,1.736-0.104l1.558-4.377c0.715-0.218,1.399-0.504,2.049-0.851l4.193,1.993c0.909-0.725,1.733-1.549,2.458-2.458l-1.993-4.193c0.347-0.647,0.633-1.334,0.851-2.049L31.229,17.736zM16,20.871c-2.69,0-4.872-2.182-4.872-4.871c0-2.69,2.182-4.872,4.872-4.872c2.689,0,4.871,2.182,4.871,4.872C20.871,18.689,18.689,20.871,16,20.871z"></path><title>Link options.</title></g></g></g></g><!--z-index:48--><g   id="j_18" ><path  stroke="#aaaaaa" d="M 2235 388 L 3030 701 C 3036 703.6666666666666 3039 708.3333333333333 3039 715 L 3043 824" id="v-215" stroke-width="2" stroke-dasharray="30 30" fill="none" style="opacity: 1;"></path><path  fill="black" stroke="black" d="M 0 0 0 0" transform="matrix(0.9302138566666804,0.3670179571428358,-0.3670179571428358,0.9302138566666804,2235,387.7799987792969)"></path><path  fill="#aaaaaa" stroke="#aaaaaa" d="M 20 0 L 0 10 L 20 20 z" id="v-217" transform="matrix(-0.033426563781529195,-0.9994411762749018,0.9994411762749018,-0.033426563781529195,3032.985605828191,824.3342926349393)" style="opacity: 1;"></path><path  d="M 2235 388 L 3030 701 C 3036 703.6666666666666 3039 708.3333333333333 3039 715 L 3043 824" id="v-216" fill="none" style="cursor: default;"></path><g ><g id="v-206"  label-idx="0" cursor="move" transform="matrix(1,0,0,1,2691.50146484375,567.7294921875)" style="cursor: default; opacity: 1;"><rect joint-selector="rect" id="v-210" fill="transparent" rx="3" ry="3" pointer-events="none" width="156.87509155273438" height="56.662044525146484" transform="matrix(1,0,0,1,-78,-28.3)"></rect><text joint-selector="text" id="v-209" font-size="24px" xml:space="preserve" y="0.8em" fill="#aaaaaa" text-anchor="middle" pointer-events="none" font-family="'DM Sans', DMSans, sans-serif" font-weight="normal" transform="matrix(1,0,0,1,0,-24.7)"><tspan dy="0" >Communiceert</tspan><tspan dy="1.2em" x="0" >via API met</tspan></text></g><g id="v-207"  label-idx="1" cursor="move" transform="matrix(1,0,0,1,2691.50146484375,608.529541015625)" style="cursor: default; opacity: 1;"><rect joint-selector="rect" id="v-212" fill="transparent" rx="3" ry="3" pointer-events="none" width="105.06295013427734" height="20.2633056640625" transform="matrix(1,0,0,1,-52.4,-10.1)"></rect><text joint-selector="text" id="v-211" font-size="17px" xml:space="preserve" y="0.8em" fill="#aaaaaa" text-anchor="middle" pointer-events="none" font-family="'DM Sans', DMSans, sans-serif" font-weight="normal" transform="matrix(1,0,0,1,0,-8.5)"><tspan dy="0" >[JSON REST]</tspan></text></g><g id="v-208"  label-idx="2" cursor="move" transform="matrix(1,0,0,1,2681.50146484375,616.9295043945312)" style="cursor: default; opacity: 1;"><rect joint-selector="rect" id="v-214" fill="transparent" rx="3" ry="3"  width="0" height="0" transform="matrix(1,0,0,1,0,0)" display="none"></rect><text joint-selector="text" id="v-213" fill="#000000" font-size="14" text-anchor="middle" pointer-events="none"></text></g></g><g  display="none"><g  transform="translate(3039, 705)" id="v-203"><circle  idx="0" r="10"></circle><path  idx="0" d="M16,5.333c-7.732,0-14,4.701-14,10.5c0,1.982,0.741,3.833,2.016,5.414L2,25.667l5.613-1.441c2.339,1.317,5.237,2.107,8.387,2.107c7.732,0,14-4.701,14-10.5C30,10.034,23.732,5.333,16,5.333z" transform="translate(5, -33)"></path><path  idx="0" transform="scale(.8) translate(9.5, -37)" d="M24.778,21.419 19.276,15.917 24.777,10.415 21.949,7.585 16.447,13.087 10.945,7.585 8.117,10.415 13.618,15.917 8.116,21.419 10.946,24.248 16.447,18.746 21.948,24.248z"><title>Remove vertex.</title></path></g></g><g  id="v-219" display="none"><g  id="v-204"><path  end="source" d="M 26 0 L 0 13 L 26 26 z"></path></g><g  id="v-205"><path  end="target" d="M 26 0 L 0 13 L 26 26 z"></path></g></g><g  id="v-218" display="none"><g  id="v-202" transform="translate(2272.219237764455, 402.65361184940195) "><g  event="remove"><circle r="11"></circle><path transform="scale(.8) translate(-16, -16)" d="M24.778,21.419 19.276,15.917 24.777,10.415 21.949,7.585 16.447,13.087 10.945,7.585 8.117,10.415 13.618,15.917 8.116,21.419 10.946,24.248 16.447,18.746 21.948,24.248z"></path><title>Remove link.</title></g><g  event="link:options"><circle r="11" transform="translate(25)"></circle><path fill="white" transform="scale(.55) translate(29, -16)" d="M31.229,17.736c0.064-0.571,0.104-1.148,0.104-1.736s-0.04-1.166-0.104-1.737l-4.377-1.557c-0.218-0.716-0.504-1.401-0.851-2.05l1.993-4.192c-0.725-0.91-1.549-1.734-2.458-2.459l-4.193,1.994c-0.647-0.347-1.334-0.632-2.049-0.849l-1.558-4.378C17.165,0.708,16.588,0.667,16,0.667s-1.166,0.041-1.737,0.105L12.707,5.15c-0.716,0.217-1.401,0.502-2.05,0.849L6.464,4.005C5.554,4.73,4.73,5.554,4.005,6.464l1.994,4.192c-0.347,0.648-0.632,1.334-0.849,2.05l-4.378,1.557C0.708,14.834,0.667,15.412,0.667,16s0.041,1.165,0.105,1.736l4.378,1.558c0.217,0.715,0.502,1.401,0.849,2.049l-1.994,4.193c0.725,0.909,1.549,1.733,2.459,2.458l4.192-1.993c0.648,0.347,1.334,0.633,2.05,0.851l1.557,4.377c0.571,0.064,1.148,0.104,1.737,0.104c0.588,0,1.165-0.04,1.736-0.104l1.558-4.377c0.715-0.218,1.399-0.504,2.049-0.851l4.193,1.993c0.909-0.725,1.733-1.549,2.458-2.458l-1.993-4.193c0.347-0.647,0.633-1.334,0.851-2.049L31.229,17.736zM16,20.871c-2.69,0-4.872-2.182-4.872-4.871c0-2.69,2.182-4.872,4.872-4.872c2.689,0,4.871,2.182,4.871,4.872C20.871,18.689,18.689,20.871,16,20.871z"></path><title>Link options.</title></g></g></g></g><!--z-index:49--><g   id="j_19" ><path  stroke="#aaaaaa" d="M 2125 449 L 2318 702 C 2322 707.3333333333333 2324 713.3333333333333 2324 720 L 2321 824" id="v-236" stroke-width="2" stroke-dasharray="30 30" fill="none" style="opacity: 1;"></path><path  fill="black" stroke="black" d="M 0 0 0 0" transform="matrix(0.6070884095311241,0.7946342951402049,-0.7946342951402049,0.6070884095311241,2124.60009765625,449)"></path><path  fill="#aaaaaa" stroke="#aaaaaa" d="M 20 0 L 0 10 L 20 20 z" id="v-238" transform="matrix(0.022713212828176385,-0.9997420217051106,0.9997420217051106,0.022713212828176385,2311.412654685917,823.7728515653318)" style="opacity: 1;"></path><path  d="M 2125 449 L 2318 702 C 2322 707.3333333333333 2324 713.3333333333333 2324 720 L 2321 824" id="v-237" fill="none" style="cursor: default;"></path><g ><g id="v-227"  label-idx="0" cursor="move" transform="matrix(1,0,0,1,2258.9091796875,624.5389404296875)" style="cursor: default; opacity: 1;"><rect joint-selector="rect" id="v-231" fill="transparent" rx="3" ry="3" pointer-events="none" width="156.87509155273438" height="56.662044525146484" transform="matrix(1,0,0,1,-78,-28.3)"></rect><text joint-selector="text" id="v-230" font-size="24px" xml:space="preserve" y="0.8em" fill="#aaaaaa" text-anchor="middle" pointer-events="none" font-family="'DM Sans', DMSans, sans-serif" font-weight="normal" transform="matrix(1,0,0,1,0,-24.7)"><tspan dy="0" >Communiceert</tspan><tspan dy="1.2em" x="0" >via API met</tspan></text></g><g id="v-228"  label-idx="1" cursor="move" transform="matrix(1,0,0,1,2258.9091796875,665.3389282226562)" style="cursor: default; opacity: 1;"><rect joint-selector="rect" id="v-233" fill="transparent" rx="3" ry="3" pointer-events="none" width="105.06295013427734" height="20.2633056640625" transform="matrix(1,0,0,1,-52.4,-10.1)"></rect><text joint-selector="text" id="v-232" font-size="17px" xml:space="preserve" y="0.8em" fill="#aaaaaa" text-anchor="middle" pointer-events="none" font-family="'DM Sans', DMSans, sans-serif" font-weight="normal" transform="matrix(1,0,0,1,0,-8.5)"><tspan dy="0" >[JSON REST]</tspan></text></g><g id="v-229"  label-idx="2" cursor="move" transform="matrix(1,0,0,1,2248.9091796875,673.7389526367188)" style="cursor: default; opacity: 1;"><rect joint-selector="rect" id="v-235" fill="transparent" rx="3" ry="3"  width="0" height="0" transform="matrix(1,0,0,1,0,0)" display="none"></rect><text joint-selector="text" id="v-234" fill="#000000" font-size="14" text-anchor="middle" pointer-events="none"></text></g></g><g  display="none"><g  transform="translate(2324, 710)" id="v-224"><circle  idx="0" r="10"></circle><path  idx="0" d="M16,5.333c-7.732,0-14,4.701-14,10.5c0,1.982,0.741,3.833,2.016,5.414L2,25.667l5.613-1.441c2.339,1.317,5.237,2.107,8.387,2.107c7.732,0,14-4.701,14-10.5C30,10.034,23.732,5.333,16,5.333z" transform="translate(5, -33)"></path><path  idx="0" transform="scale(.8) translate(9.5, -37)" d="M24.778,21.419 19.276,15.917 24.777,10.415 21.949,7.585 16.447,13.087 10.945,7.585 8.117,10.415 13.618,15.917 8.116,21.419 10.946,24.248 16.447,18.746 21.948,24.248z"><title>Remove vertex.</title></path></g></g><g  id="v-240" display="none"><g  id="v-225"><path  end="source" d="M 26 0 L 0 13 L 26 26 z"></path></g><g  id="v-226"><path  end="target" d="M 26 0 L 0 13 L 26 26 z"></path></g></g><g  id="v-239" display="none"><g  id="v-223" transform="translate(2149.26066090978, 480.8028352858776) "><g  event="remove"><circle r="11"></circle><path transform="scale(.8) translate(-16, -16)" d="M24.778,21.419 19.276,15.917 24.777,10.415 21.949,7.585 16.447,13.087 10.945,7.585 8.117,10.415 13.618,15.917 8.116,21.419 10.946,24.248 16.447,18.746 21.948,24.248z"></path><title>Remove link.</title></g><g  event="link:options"><circle r="11" transform="translate(25)"></circle><path fill="white" transform="scale(.55) translate(29, -16)" d="M31.229,17.736c0.064-0.571,0.104-1.148,0.104-1.736s-0.04-1.166-0.104-1.737l-4.377-1.557c-0.218-0.716-0.504-1.401-0.851-2.05l1.993-4.192c-0.725-0.91-1.549-1.734-2.458-2.459l-4.193,1.994c-0.647-0.347-1.334-0.632-2.049-0.849l-1.558-4.378C17.165,0.708,16.588,0.667,16,0.667s-1.166,0.041-1.737,0.105L12.707,5.15c-0.716,0.217-1.401,0.502-2.05,0.849L6.464,4.005C5.554,4.73,4.73,5.554,4.005,6.464l1.994,4.192c-0.347,0.648-0.632,1.334-0.849,2.05l-4.378,1.557C0.708,14.834,0.667,15.412,0.667,16s0.041,1.165,0.105,1.736l4.378,1.558c0.217,0.715,0.502,1.401,0.849,2.049l-1.994,4.193c0.725,0.909,1.549,1.733,2.459,2.458l4.192-1.993c0.648,0.347,1.334,0.633,2.05,0.851l1.557,4.377c0.571,0.064,1.148,0.104,1.737,0.104c0.588,0,1.165-0.04,1.736-0.104l1.558-4.377c0.715-0.218,1.399-0.504,2.049-0.851l4.193,1.993c0.909-0.725,1.733-1.549,2.458-2.458l-1.993-4.193c0.347-0.647,0.633-1.334,0.851-2.049L31.229,17.736zM16,20.871c-2.69,0-4.872-2.182-4.872-4.871c0-2.69,2.182-4.872,4.872-4.872c2.689,0,4.871,2.182,4.871,4.872C20.871,18.689,18.689,20.871,16,20.871z"></path><title>Link options.</title></g></g></g></g><!--z-index:50--><g   id="j_20" ><path  stroke="#aaaaaa" d="M 2235 356 L 3615 707 C 3621.6666666666665 708.3333333333333 3625 712.3333333333333 3625 719 L 3625 824" id="v-257" stroke-width="2" stroke-dasharray="30 30" fill="none" style="opacity: 1;"></path><path  fill="black" stroke="black" d="M 0 0 0 0" transform="matrix(0.9692533704079823,0.2460648368880989,-0.2460648368880989,0.9692533704079823,2235,356.1199951171875)"></path><path  fill="#aaaaaa" stroke="#aaaaaa" d="M 20 0 L 0 10 L 20 20 z" id="v-259" transform="matrix(-1.8369701987210297e-16,-1,1,-1.8369701987210297e-16,3615,824)" style="opacity: 1;"></path><path  d="M 2235 356 L 3615 707 C 3621.6666666666665 708.3333333333333 3625 712.3333333333333 3625 719 L 3625 824" id="v-258" fill="none" style="cursor: default;"></path><g ><g id="v-248"  label-idx="0" cursor="move" transform="matrix(1,0,0,1,2984.224609375,546.5636596679688)" style="cursor: default; opacity: 1;"><rect joint-selector="rect" id="v-252" fill="transparent" rx="3" ry="3" pointer-events="none" width="156.87509155273438" height="56.662044525146484" transform="matrix(1,0,0,1,-78,-28.3)"></rect><text joint-selector="text" id="v-251" font-size="24px" xml:space="preserve" y="0.8em" fill="#aaaaaa" text-anchor="middle" pointer-events="none" font-family="'DM Sans', DMSans, sans-serif" font-weight="normal" transform="matrix(1,0,0,1,0,-24.7)"><tspan dy="0" >Communiceert</tspan><tspan dy="1.2em" x="0" >via API met</tspan></text></g><g id="v-249"  label-idx="1" cursor="move" transform="matrix(1,0,0,1,2984.224609375,587.3636474609375)" style="cursor: default; opacity: 1;"><rect joint-selector="rect" id="v-254" fill="transparent" rx="3" ry="3" pointer-events="none" width="105.06295013427734" height="20.2633056640625" transform="matrix(1,0,0,1,-52.4,-10.1)"></rect><text joint-selector="text" id="v-253" font-size="17px" xml:space="preserve" y="0.8em" fill="#aaaaaa" text-anchor="middle" pointer-events="none" font-family="'DM Sans', DMSans, sans-serif" font-weight="normal" transform="matrix(1,0,0,1,0,-8.5)"><tspan dy="0" >[JSON REST]</tspan></text></g><g id="v-250"  label-idx="2" cursor="move" transform="matrix(1,0,0,1,2974.224609375,595.7636108398438)" style="cursor: default; opacity: 1;"><rect joint-selector="rect" id="v-256" fill="transparent" rx="3" ry="3"  width="0" height="0" transform="matrix(1,0,0,1,0,0)" display="none"></rect><text joint-selector="text" id="v-255" fill="#000000" font-size="14" text-anchor="middle" pointer-events="none"></text></g></g><g  display="none"><g  transform="translate(3625, 709)" id="v-245"><circle  idx="0" r="10"></circle><path  idx="0" d="M16,5.333c-7.732,0-14,4.701-14,10.5c0,1.982,0.741,3.833,2.016,5.414L2,25.667l5.613-1.441c2.339,1.317,5.237,2.107,8.387,2.107c7.732,0,14-4.701,14-10.5C30,10.034,23.732,5.333,16,5.333z" transform="translate(5, -33)"></path><path  idx="0" transform="scale(.8) translate(9.5, -37)" d="M24.778,21.419 19.276,15.917 24.777,10.415 21.949,7.585 16.447,13.087 10.945,7.585 8.117,10.415 13.618,15.917 8.116,21.419 10.946,24.248 16.447,18.746 21.948,24.248z"><title>Remove vertex.</title></path></g></g><g  id="v-261" display="none"><g  id="v-246"><path  end="source" d="M 26 0 L 0 13 L 26 26 z"></path></g><g  id="v-247"><path  end="target" d="M 26 0 L 0 13 L 26 26 z"></path></g></g><g  id="v-260" display="none"><g  id="v-244" transform="translate(2273.7657177486512, 365.85997603607007) "><g  event="remove"><circle r="11"></circle><path transform="scale(.8) translate(-16, -16)" d="M24.778,21.419 19.276,15.917 24.777,10.415 21.949,7.585 16.447,13.087 10.945,7.585 8.117,10.415 13.618,15.917 8.116,21.419 10.946,24.248 16.447,18.746 21.948,24.248z"></path><title>Remove link.</title></g><g  event="link:options"><circle r="11" transform="translate(25)"></circle><path fill="white" transform="scale(.55) translate(29, -16)" d="M31.229,17.736c0.064-0.571,0.104-1.148,0.104-1.736s-0.04-1.166-0.104-1.737l-4.377-1.557c-0.218-0.716-0.504-1.401-0.851-2.05l1.993-4.192c-0.725-0.91-1.549-1.734-2.458-2.459l-4.193,1.994c-0.647-0.347-1.334-0.632-2.049-0.849l-1.558-4.378C17.165,0.708,16.588,0.667,16,0.667s-1.166,0.041-1.737,0.105L12.707,5.15c-0.716,0.217-1.401,0.502-2.05,0.849L6.464,4.005C5.554,4.73,4.73,5.554,4.005,6.464l1.994,4.192c-0.347,0.648-0.632,1.334-0.849,2.05l-4.378,1.557C0.708,14.834,0.667,15.412,0.667,16s0.041,1.165,0.105,1.736l4.378,1.558c0.217,0.715,0.502,1.401,0.849,2.049l-1.994,4.193c0.725,0.909,1.549,1.733,2.459,2.458l4.192-1.993c0.648,0.347,1.334,0.633,2.05,0.851l1.557,4.377c0.571,0.064,1.148,0.104,1.737,0.104c0.588,0,1.165-0.04,1.736-0.104l1.558-4.377c0.715-0.218,1.399-0.504,2.049-0.851l4.193,1.993c0.909-0.725,1.733-1.549,2.458-2.458l-1.993-4.193c0.347-0.647,0.633-1.334,0.851-2.049L31.229,17.736zM16,20.871c-2.69,0-4.872-2.182-4.872-4.871c0-2.69,2.182-4.872,4.872-4.872c2.689,0,4.871,2.182,4.871,4.872C20.871,18.689,18.689,20.871,16,20.871z"></path><title>Link options.</title></g></g></g></g><!--z-index:51--><g   id="j_21" ><path  stroke="#aaaaaa" d="M 1696 1124 L 1696 1325" id="v-274" stroke-width="2" stroke-dasharray="30 30" fill="none" style="opacity: 1;"></path><path  fill="black" stroke="black" d="M 0 0 0 0" transform="matrix(6.123233995736766e-17,1,-1,6.123233995736766e-17,1696,1124)"></path><path  fill="#aaaaaa" stroke="#aaaaaa" d="M 20 0 L 0 10 L 20 20 z" id="v-276" transform="matrix(-1.8369701987210297e-16,-1,1,-1.8369701987210297e-16,1686,1325)" style="opacity: 1;"></path><path  d="M 1696 1124 L 1696 1325" id="v-275" fill="none" style="cursor: default;"></path><g ><g id="v-268"  label-idx="0" cursor="move" transform="matrix(1,0,0,1,1696,1224.5)" style="cursor: default; opacity: 1;"><rect joint-selector="rect" id="v-271" fill="transparent" rx="3" ry="3" pointer-events="none" width="157.35723876953125" height="56.662044525146484" transform="matrix(1,0,0,1,-78.7,-28.3)"></rect><text joint-selector="text" id="v-270" font-size="24px" xml:space="preserve" y="0.8em" fill="#aaaaaa" text-anchor="middle" pointer-events="none" font-family="'DM Sans', DMSans, sans-serif" font-weight="normal" transform="matrix(1,0,0,1,0,-24.7)"><tspan dy="0" >Wordt na</tspan><tspan dy="1.2em" x="0" >dubbele invoer</tspan></text></g><g id="v-269"  label-idx="1" cursor="move" transform="matrix(1,0,0,1,1686,1265.300048828125)" style="cursor: default; opacity: 1;"><rect joint-selector="rect" id="v-273" fill="transparent" rx="3" ry="3"  width="0" height="0" transform="matrix(1,0,0,1,0,0)" display="none"></rect><text joint-selector="text" id="v-272" fill="#000000" font-size="14" text-anchor="middle" pointer-events="none"></text></g></g><g  display="none"></g><g  id="v-278" display="none"><g  id="v-266"><path  end="source" d="M 26 0 L 0 13 L 26 26 z"></path></g><g  id="v-267"><path  end="target" d="M 26 0 L 0 13 L 26 26 z"></path></g></g><g  id="v-277" display="none"><g  id="v-265" transform="translate(1696, 1164) "><g  event="remove"><circle r="11"></circle><path transform="scale(.8) translate(-16, -16)" d="M24.778,21.419 19.276,15.917 24.777,10.415 21.949,7.585 16.447,13.087 10.945,7.585 8.117,10.415 13.618,15.917 8.116,21.419 10.946,24.248 16.447,18.746 21.948,24.248z"></path><title>Remove link.</title></g><g  event="link:options"><circle r="11" transform="translate(25)"></circle><path fill="white" transform="scale(.55) translate(29, -16)" d="M31.229,17.736c0.064-0.571,0.104-1.148,0.104-1.736s-0.04-1.166-0.104-1.737l-4.377-1.557c-0.218-0.716-0.504-1.401-0.851-2.05l1.993-4.192c-0.725-0.91-1.549-1.734-2.458-2.459l-4.193,1.994c-0.647-0.347-1.334-0.632-2.049-0.849l-1.558-4.378C17.165,0.708,16.588,0.667,16,0.667s-1.166,0.041-1.737,0.105L12.707,5.15c-0.716,0.217-1.401,0.502-2.05,0.849L6.464,4.005C5.554,4.73,4.73,5.554,4.005,6.464l1.994,4.192c-0.347,0.648-0.632,1.334-0.849,2.05l-4.378,1.557C0.708,14.834,0.667,15.412,0.667,16s0.041,1.165,0.105,1.736l4.378,1.558c0.217,0.715,0.502,1.401,0.849,2.049l-1.994,4.193c0.725,0.909,1.549,1.733,2.459,2.458l4.192-1.993c0.648,0.347,1.334,0.633,2.05,0.851l1.557,4.377c0.571,0.064,1.148,0.104,1.737,0.104c0.588,0,1.165-0.04,1.736-0.104l1.558-4.377c0.715-0.218,1.399-0.504,2.049-0.851l4.193,1.993c0.909-0.725,1.733-1.549,2.458-2.458l-1.993-4.193c0.347-0.647,0.633-1.334,0.851-2.049L31.229,17.736zM16,20.871c-2.69,0-4.872-2.182-4.872-4.871c0-2.69,2.182-4.872,4.872-4.872c2.689,0,4.871,2.182,4.871,4.872C20.871,18.689,18.689,20.871,16,20.871z"></path><title>Link options.</title></g></g></g></g><!--z-index:52--><g   id="j_22" ><path  stroke="#aaaaaa" d="M 1483 1124 L 1198 1324" id="v-291" stroke-width="2" stroke-dasharray="30 30" fill="none" style="opacity: 1;"></path><path  fill="black" stroke="black" d="M 0 0 0 0" transform="matrix(-0.8179868428145377,0.5752369294319556,-0.5752369294319556,-0.8179868428145377,1482.699951171875,1124)"></path><path  fill="#aaaaaa" stroke="#aaaaaa" d="M 20 0 L 0 10 L 20 20 z" id="v-293" transform="matrix(0.8179869960093699,-0.5752367115888617,0.5752367115888617,0.8179869960093699,1192.5476213224551,1315.8201778198575)" style="opacity: 1;"></path><path  d="M 1483 1124 L 1198 1324" id="v-292" fill="none" style="cursor: default;"></path><g ><g id="v-285"  label-idx="0" cursor="move" transform="matrix(1,0,0,1,1340.5,1224)" style="cursor: default; opacity: 1;"><rect joint-selector="rect" id="v-288" fill="transparent" rx="3" ry="3" pointer-events="none" width="151.30758666992188" height="56.662044525146484" transform="matrix(1,0,0,1,-75.3,-28.3)"></rect><text joint-selector="text" id="v-287" font-size="24px" xml:space="preserve" y="0.8em" fill="#aaaaaa" text-anchor="middle" pointer-events="none" font-family="'DM Sans', DMSans, sans-serif" font-weight="normal" transform="matrix(1,0,0,1,0,-24.7)"><tspan dy="0" >Maakt gebruik</tspan><tspan dy="1.2em" x="0" >van</tspan></text></g><g id="v-286"  label-idx="1" cursor="move" transform="matrix(1,0,0,1,1330.5,1264.800048828125)" style="cursor: default; opacity: 1;"><rect joint-selector="rect" id="v-290" fill="transparent" rx="3" ry="3"  width="0" height="0" transform="matrix(1,0,0,1,0,0)" display="none"></rect><text joint-selector="text" id="v-289" fill="#000000" font-size="14" text-anchor="middle" pointer-events="none"></text></g></g><g  display="none"></g><g  id="v-295" display="none"><g  id="v-283"><path  end="source" d="M 26 0 L 0 13 L 26 26 z"></path></g><g  id="v-284"><path  end="target" d="M 26 0 L 0 13 L 26 26 z"></path></g></g><g  id="v-294" display="none"><g  id="v-282" transform="translate(1450.2577323015037, 1146.9770299638571) "><g  event="remove"><circle r="11"></circle><path transform="scale(.8) translate(-16, -16)" d="M24.778,21.419 19.276,15.917 24.777,10.415 21.949,7.585 16.447,13.087 10.945,7.585 8.117,10.415 13.618,15.917 8.116,21.419 10.946,24.248 16.447,18.746 21.948,24.248z"></path><title>Remove link.</title></g><g  event="link:options"><circle r="11" transform="translate(25)"></circle><path fill="white" transform="scale(.55) translate(29, -16)" d="M31.229,17.736c0.064-0.571,0.104-1.148,0.104-1.736s-0.04-1.166-0.104-1.737l-4.377-1.557c-0.218-0.716-0.504-1.401-0.851-2.05l1.993-4.192c-0.725-0.91-1.549-1.734-2.458-2.459l-4.193,1.994c-0.647-0.347-1.334-0.632-2.049-0.849l-1.558-4.378C17.165,0.708,16.588,0.667,16,0.667s-1.166,0.041-1.737,0.105L12.707,5.15c-0.716,0.217-1.401,0.502-2.05,0.849L6.464,4.005C5.554,4.73,4.73,5.554,4.005,6.464l1.994,4.192c-0.347,0.648-0.632,1.334-0.849,2.05l-4.378,1.557C0.708,14.834,0.667,15.412,0.667,16s0.041,1.165,0.105,1.736l4.378,1.558c0.217,0.715,0.502,1.401,0.849,2.049l-1.994,4.193c0.725,0.909,1.549,1.733,2.459,2.458l4.192-1.993c0.648,0.347,1.334,0.633,2.05,0.851l1.557,4.377c0.571,0.064,1.148,0.104,1.737,0.104c0.588,0,1.165-0.04,1.736-0.104l1.558-4.377c0.715-0.218,1.399-0.504,2.049-0.851l4.193,1.993c0.909-0.725,1.733-1.549,2.458-2.458l-1.993-4.193c0.347-0.647,0.633-1.334,0.851-2.049L31.229,17.736zM16,20.871c-2.69,0-4.872-2.182-4.872-4.871c0-2.69,2.182-4.872,4.872-4.872c2.689,0,4.871,2.182,4.871,4.872C20.871,18.689,18.689,20.871,16,20.871z"></path><title>Link options.</title></g></g></g></g><!--z-index:53--><g   id="j_23" ><path  stroke="#aaaaaa" d="M 2823 974 L 2543 974" id="v-308" stroke-width="2" stroke-dasharray="30 30" fill="none" style="opacity: 1;"></path><path  fill="black" stroke="black" d="M 0 0 0 0" transform="matrix(-1,1.2246467991473532e-16,-1.2246467991473532e-16,-1,2823,974)"></path><path  fill="#aaaaaa" stroke="#aaaaaa" d="M 20 0 L 0 10 L 20 20 z" id="v-310" transform="matrix(1,0,0,1,2543,964)" style="opacity: 1;"></path><path  d="M 2823 974 L 2543 974" id="v-309" fill="none" style="cursor: default;"></path><g ><g id="v-302"  label-idx="0" cursor="move" transform="matrix(1,0,0,1,2683,974)" style="cursor: default; opacity: 1;"><rect joint-selector="rect" id="v-305" fill="transparent" rx="3" ry="3" pointer-events="none" width="181.34075927734375" height="114.26205062866211" transform="matrix(1,0,0,1,-90.7,-57.1)"></rect><text joint-selector="text" id="v-304" font-size="24px" xml:space="preserve" y="0.8em" fill="#aaaaaa" text-anchor="middle" pointer-events="none" font-family="'DM Sans', DMSans, sans-serif" font-weight="normal" transform="matrix(1,0,0,1,0,-53.5)"><tspan dy="0" >Maakt gebruik</tspan><tspan dy="1.2em" x="0" >van</tspan><tspan dy="1.2em" x="0" >zetelverdeling en</tspan><tspan dy="1.2em" x="0" >telresultaten</tspan></text></g><g id="v-303"  label-idx="1" cursor="move" transform="matrix(1,0,0,1,2673,1043.5999755859375)" style="cursor: default; opacity: 1;"><rect joint-selector="rect" id="v-307" fill="transparent" rx="3" ry="3"  width="0" height="0" transform="matrix(1,0,0,1,0,0)" display="none"></rect><text joint-selector="text" id="v-306" fill="#000000" font-size="14" text-anchor="middle" pointer-events="none"></text></g></g><g  display="none"></g><g  id="v-312" display="none"><g  id="v-300"><path  end="source" d="M 26 0 L 0 13 L 26 26 z"></path></g><g  id="v-301"><path  end="target" d="M 26 0 L 0 13 L 26 26 z"></path></g></g><g  id="v-311" display="none"><g  id="v-299" transform="translate(2783, 974) "><g  event="remove"><circle r="11"></circle><path transform="scale(.8) translate(-16, -16)" d="M24.778,21.419 19.276,15.917 24.777,10.415 21.949,7.585 16.447,13.087 10.945,7.585 8.117,10.415 13.618,15.917 8.116,21.419 10.946,24.248 16.447,18.746 21.948,24.248z"></path><title>Remove link.</title></g><g  event="link:options"><circle r="11" transform="translate(25)"></circle><path fill="white" transform="scale(.55) translate(29, -16)" d="M31.229,17.736c0.064-0.571,0.104-1.148,0.104-1.736s-0.04-1.166-0.104-1.737l-4.377-1.557c-0.218-0.716-0.504-1.401-0.851-2.05l1.993-4.192c-0.725-0.91-1.549-1.734-2.458-2.459l-4.193,1.994c-0.647-0.347-1.334-0.632-2.049-0.849l-1.558-4.378C17.165,0.708,16.588,0.667,16,0.667s-1.166,0.041-1.737,0.105L12.707,5.15c-0.716,0.217-1.401,0.502-2.05,0.849L6.464,4.005C5.554,4.73,4.73,5.554,4.005,6.464l1.994,4.192c-0.347,0.648-0.632,1.334-0.849,2.05l-4.378,1.557C0.708,14.834,0.667,15.412,0.667,16s0.041,1.165,0.105,1.736l4.378,1.558c0.217,0.715,0.502,1.401,0.849,2.049l-1.994,4.193c0.725,0.909,1.549,1.733,2.459,2.458l4.192-1.993c0.648,0.347,1.334,0.633,2.05,0.851l1.557,4.377c0.571,0.064,1.148,0.104,1.737,0.104c0.588,0,1.165-0.04,1.736-0.104l1.558-4.377c0.715-0.218,1.399-0.504,2.049-0.851l4.193,1.993c0.909-0.725,1.733-1.549,2.458-2.458l-1.993-4.193c0.347-0.647,0.633-1.334,0.851-2.049L31.229,17.736zM16,20.871c-2.69,0-4.872-2.182-4.872-4.871c0-2.69,2.182-4.872,4.872-4.872c2.689,0,4.871,2.182,4.871,4.872C20.871,18.689,18.689,20.871,16,20.871z"></path><title>Link options.</title></g></g></g></g><!--z-index:54--><g   id="j_24" ><path  stroke="#aaaaaa" d="M 2829 1124 L 2537 1325" id="v-325" stroke-width="2" stroke-dasharray="30 30" fill="none" style="opacity: 1;"></path><path  fill="black" stroke="black" d="M 0 0 0 0" transform="matrix(-0.8245082373613793,0.5658499505374471,-0.5658499505374471,-0.8245082373613793,2829.43994140625,1124)"></path><path  fill="#aaaaaa" stroke="#aaaaaa" d="M 20 0 L 0 10 L 20 20 z" id="v-327" transform="matrix(0.8245082373613796,-0.5658499505374468,0.5658499505374468,0.8245082373613796,2530.9015939022615,1316.7549698661358)" style="opacity: 1;"></path><path  d="M 2829 1124 L 2537 1325" id="v-326" fill="none" style="cursor: default;"></path><g ><g id="v-319"  label-idx="0" cursor="move" transform="matrix(1,0,0,1,2683,1224.5)" style="cursor: default; opacity: 1;"><rect joint-selector="rect" id="v-322" fill="transparent" rx="3" ry="3" pointer-events="none" width="151.30758666992188" height="56.662044525146484" transform="matrix(1,0,0,1,-75.3,-28.3)"></rect><text joint-selector="text" id="v-321" font-size="24px" xml:space="preserve" y="0.8em" fill="#aaaaaa" text-anchor="middle" pointer-events="none" font-family="'DM Sans', DMSans, sans-serif" font-weight="normal" transform="matrix(1,0,0,1,0,-24.7)"><tspan dy="0" >Maakt gebruik</tspan><tspan dy="1.2em" x="0" >van</tspan></text></g><g id="v-320"  label-idx="1" cursor="move" transform="matrix(1,0,0,1,2673,1265.300048828125)" style="cursor: default; opacity: 1;"><rect joint-selector="rect" id="v-324" fill="transparent" rx="3" ry="3"  width="0" height="0" transform="matrix(1,0,0,1,0,0)" display="none"></rect><text joint-selector="text" id="v-323" fill="#000000" font-size="14" text-anchor="middle" pointer-events="none"></text></g></g><g  display="none"></g><g  id="v-329" display="none"><g  id="v-317"><path  end="source" d="M 26 0 L 0 13 L 26 26 z"></path></g><g  id="v-318"><path  end="target" d="M 26 0 L 0 13 L 26 26 z"></path></g></g><g  id="v-328" display="none"><g  id="v-316" transform="translate(2796.0514979422637, 1146.680304498647) "><g  event="remove"><circle r="11"></circle><path transform="scale(.8) translate(-16, -16)" d="M24.778,21.419 19.276,15.917 24.777,10.415 21.949,7.585 16.447,13.087 10.945,7.585 8.117,10.415 13.618,15.917 8.116,21.419 10.946,24.248 16.447,18.746 21.948,24.248z"></path><title>Remove link.</title></g><g  event="link:options"><circle r="11" transform="translate(25)"></circle><path fill="white" transform="scale(.55) translate(29, -16)" d="M31.229,17.736c0.064-0.571,0.104-1.148,0.104-1.736s-0.04-1.166-0.104-1.737l-4.377-1.557c-0.218-0.716-0.504-1.401-0.851-2.05l1.993-4.192c-0.725-0.91-1.549-1.734-2.458-2.459l-4.193,1.994c-0.647-0.347-1.334-0.632-2.049-0.849l-1.558-4.378C17.165,0.708,16.588,0.667,16,0.667s-1.166,0.041-1.737,0.105L12.707,5.15c-0.716,0.217-1.401,0.502-2.05,0.849L6.464,4.005C5.554,4.73,4.73,5.554,4.005,6.464l1.994,4.192c-0.347,0.648-0.632,1.334-0.849,2.05l-4.378,1.557C0.708,14.834,0.667,15.412,0.667,16s0.041,1.165,0.105,1.736l4.378,1.558c0.217,0.715,0.502,1.401,0.849,2.049l-1.994,4.193c0.725,0.909,1.549,1.733,2.459,2.458l4.192-1.993c0.648,0.347,1.334,0.633,2.05,0.851l1.557,4.377c0.571,0.064,1.148,0.104,1.737,0.104c0.588,0,1.165-0.04,1.736-0.104l1.558-4.377c0.715-0.218,1.399-0.504,2.049-0.851l4.193,1.993c0.909-0.725,1.733-1.549,2.458-2.458l-1.993-4.193c0.347-0.647,0.633-1.334,0.851-2.049L31.229,17.736zM16,20.871c-2.69,0-4.872-2.182-4.872-4.871c0-2.69,2.182-4.872,4.872-4.872c2.689,0,4.871,2.182,4.871,4.872C20.871,18.689,18.689,20.871,16,20.871z"></path><title>Link options.</title></g></g></g></g><!--z-index:55--><g   id="j_25" ><path  stroke="#aaaaaa" d="M 3048 1124 L 3048 1325" id="v-342" stroke-width="2" stroke-dasharray="30 30" fill="none" style="opacity: 1;"></path><path  fill="black" stroke="black" d="M 0 0 0 0" transform="matrix(6.123233995736766e-17,1,-1,6.123233995736766e-17,3048,1124)"></path><path  fill="#aaaaaa" stroke="#aaaaaa" d="M 20 0 L 0 10 L 20 20 z" id="v-344" transform="matrix(-1.8369701987210297e-16,-1,1,-1.8369701987210297e-16,3038,1325)" style="opacity: 1;"></path><path  d="M 3048 1124 L 3048 1325" id="v-343" fill="none" style="cursor: default;"></path><g ><g id="v-336"  label-idx="0" cursor="move" transform="matrix(1,0,0,1,3048,1224.5)" style="cursor: default; opacity: 1;"><rect joint-selector="rect" id="v-339" fill="transparent" rx="3" ry="3" pointer-events="none" width="151.30758666992188" height="56.662044525146484" transform="matrix(1,0,0,1,-75.3,-28.3)"></rect><text joint-selector="text" id="v-338" font-size="24px" xml:space="preserve" y="0.8em" fill="#aaaaaa" text-anchor="middle" pointer-events="none" font-family="'DM Sans', DMSans, sans-serif" font-weight="normal" transform="matrix(1,0,0,1,0,-24.7)"><tspan dy="0" >Maakt gebruik</tspan><tspan dy="1.2em" x="0" >van</tspan></text></g><g id="v-337"  label-idx="1" cursor="move" transform="matrix(1,0,0,1,3038,1265.300048828125)" style="cursor: default; opacity: 1;"><rect joint-selector="rect" id="v-341" fill="transparent" rx="3" ry="3"  width="0" height="0" transform="matrix(1,0,0,1,0,0)" display="none"></rect><text joint-selector="text" id="v-340" fill="#000000" font-size="14" text-anchor="middle" pointer-events="none"></text></g></g><g  display="none"></g><g  id="v-346" display="none"><g  id="v-334"><path  end="source" d="M 26 0 L 0 13 L 26 26 z"></path></g><g  id="v-335"><path  end="target" d="M 26 0 L 0 13 L 26 26 z"></path></g></g><g  id="v-345" display="none"><g  id="v-333" transform="translate(3048, 1164) "><g  event="remove"><circle r="11"></circle><path transform="scale(.8) translate(-16, -16)" d="M24.778,21.419 19.276,15.917 24.777,10.415 21.949,7.585 16.447,13.087 10.945,7.585 8.117,10.415 13.618,15.917 8.116,21.419 10.946,24.248 16.447,18.746 21.948,24.248z"></path><title>Remove link.</title></g><g  event="link:options"><circle r="11" transform="translate(25)"></circle><path fill="white" transform="scale(.55) translate(29, -16)" d="M31.229,17.736c0.064-0.571,0.104-1.148,0.104-1.736s-0.04-1.166-0.104-1.737l-4.377-1.557c-0.218-0.716-0.504-1.401-0.851-2.05l1.993-4.192c-0.725-0.91-1.549-1.734-2.458-2.459l-4.193,1.994c-0.647-0.347-1.334-0.632-2.049-0.849l-1.558-4.378C17.165,0.708,16.588,0.667,16,0.667s-1.166,0.041-1.737,0.105L12.707,5.15c-0.716,0.217-1.401,0.502-2.05,0.849L6.464,4.005C5.554,4.73,4.73,5.554,4.005,6.464l1.994,4.192c-0.347,0.648-0.632,1.334-0.849,2.05l-4.378,1.557C0.708,14.834,0.667,15.412,0.667,16s0.041,1.165,0.105,1.736l4.378,1.558c0.217,0.715,0.502,1.401,0.849,2.049l-1.994,4.193c0.725,0.909,1.549,1.733,2.459,2.458l4.192-1.993c0.648,0.347,1.334,0.633,2.05,0.851l1.557,4.377c0.571,0.064,1.148,0.104,1.737,0.104c0.588,0,1.165-0.04,1.736-0.104l1.558-4.377c0.715-0.218,1.399-0.504,2.049-0.851l4.193,1.993c0.909-0.725,1.733-1.549,2.458-2.458l-1.993-4.193c0.347-0.647,0.633-1.334,0.851-2.049L31.229,17.736zM16,20.871c-2.69,0-4.872-2.182-4.872-4.871c0-2.69,2.182-4.872,4.872-4.872c2.689,0,4.871,2.182,4.871,4.872C20.871,18.689,18.689,20.871,16,20.871z"></path><title>Link options.</title></g></g></g></g><!--z-index:56--><g   id="j_26" ><path  stroke="#aaaaaa" d="M 2823 1069 L 2428 1236 C 2422 1238.6666666666665 2415.6666666666665 1240 2409 1240 L 2169 1250 C 2162.333333333333 1250 2156 1251.3333333333333 2150 1254 L 1921 1366" id="v-361" stroke-width="2" stroke-dasharray="30 30" fill="none" style="opacity: 1;"></path><path  fill="black" stroke="black" d="M 0 0 0 0" transform="matrix(-0.9210270241873263,0.3894986787097463,-0.3894986787097463,-0.9210270241873263,2823,1069.1500244140625)"></path><path  fill="#aaaaaa" stroke="#aaaaaa" d="M 20 0 L 0 10 L 20 20 z" id="v-363" transform="matrix(0.8994191179885602,-0.4370872340811161,0.4370872340811161,0.8994191179885602,1916.6290771043032,1356.665865731238)" style="opacity: 1;"></path><path  d="M 2823 1069 L 2428 1236 C 2422 1238.6666666666665 2415.6666666666665 1240 2409 1240 L 2169 1250 C 2162.333333333333 1250 2156 1251.3333333333333 2150 1254 L 1921 1366" id="v-362" fill="none" style="cursor: default;"></path><g ><g id="v-355"  label-idx="0" cursor="move" transform="matrix(1,0,0,1,2375.889892578125,1241.379638671875)" style="cursor: default; opacity: 1;"><rect joint-selector="rect" id="v-358" fill="transparent" rx="3" ry="3" pointer-events="none" width="151.30758666992188" height="56.662044525146484" transform="matrix(1,0,0,1,-75.3,-28.3)"></rect><text joint-selector="text" id="v-357" font-size="24px" xml:space="preserve" y="0.8em" fill="#aaaaaa" text-anchor="middle" pointer-events="none" font-family="'DM Sans', DMSans, sans-serif" font-weight="normal" transform="matrix(1,0,0,1,0,-24.7)"><tspan dy="0" >Maakt gebruik</tspan><tspan dy="1.2em" x="0" >van</tspan></text></g><g id="v-356"  label-idx="1" cursor="move" transform="matrix(1,0,0,1,2365.889892578125,1282.1795654296875)" style="cursor: default; opacity: 1;"><rect joint-selector="rect" id="v-360" fill="transparent" rx="3" ry="3"  width="0" height="0" transform="matrix(1,0,0,1,0,0)" display="none"></rect><text joint-selector="text" id="v-359" fill="#000000" font-size="14" text-anchor="middle" pointer-events="none"></text></g></g><g  display="none"><g  transform="translate(2419, 1240)" id="v-351"><circle  idx="0" r="10"></circle><path  idx="0" d="M16,5.333c-7.732,0-14,4.701-14,10.5c0,1.982,0.741,3.833,2.016,5.414L2,25.667l5.613-1.441c2.339,1.317,5.237,2.107,8.387,2.107c7.732,0,14-4.701,14-10.5C30,10.034,23.732,5.333,16,5.333z" transform="translate(5, -33)"></path><path  idx="0" transform="scale(.8) translate(9.5, -37)" d="M24.778,21.419 19.276,15.917 24.777,10.415 21.949,7.585 16.447,13.087 10.945,7.585 8.117,10.415 13.618,15.917 8.116,21.419 10.946,24.248 16.447,18.746 21.948,24.248z"><title>Remove vertex.</title></path></g><g  transform="translate(2159, 1250)" id="v-352"><circle  idx="1" r="10"></circle><path  idx="1" d="M16,5.333c-7.732,0-14,4.701-14,10.5c0,1.982,0.741,3.833,2.016,5.414L2,25.667l5.613-1.441c2.339,1.317,5.237,2.107,8.387,2.107c7.732,0,14-4.701,14-10.5C30,10.034,23.732,5.333,16,5.333z" transform="translate(5, -33)"></path><path  idx="1" transform="scale(.8) translate(9.5, -37)" d="M24.778,21.419 19.276,15.917 24.777,10.415 21.949,7.585 16.447,13.087 10.945,7.585 8.117,10.415 13.618,15.917 8.116,21.419 10.946,24.248 16.447,18.746 21.948,24.248z"><title>Remove vertex.</title></path></g></g><g  id="v-365" display="none"><g  id="v-353"><path  end="source" d="M 26 0 L 0 13 L 26 26 z"></path></g><g  id="v-354"><path  end="target" d="M 26 0 L 0 13 L 26 26 z"></path></g></g><g  id="v-364" display="none"><g  id="v-350" transform="translate(2786.1574491242645, 1084.5764708765769) "><g  event="remove"><circle r="11"></circle><path transform="scale(.8) translate(-16, -16)" d="M24.778,21.419 19.276,15.917 24.777,10.415 21.949,7.585 16.447,13.087 10.945,7.585 8.117,10.415 13.618,15.917 8.116,21.419 10.946,24.248 16.447,18.746 21.948,24.248z"></path><title>Remove link.</title></g><g  event="link:options"><circle r="11" transform="translate(25)"></circle><path fill="white" transform="scale(.55) translate(29, -16)" d="M31.229,17.736c0.064-0.571,0.104-1.148,0.104-1.736s-0.04-1.166-0.104-1.737l-4.377-1.557c-0.218-0.716-0.504-1.401-0.851-2.05l1.993-4.192c-0.725-0.91-1.549-1.734-2.458-2.459l-4.193,1.994c-0.647-0.347-1.334-0.632-2.049-0.849l-1.558-4.378C17.165,0.708,16.588,0.667,16,0.667s-1.166,0.041-1.737,0.105L12.707,5.15c-0.716,0.217-1.401,0.502-2.05,0.849L6.464,4.005C5.554,4.73,4.73,5.554,4.005,6.464l1.994,4.192c-0.347,0.648-0.632,1.334-0.849,2.05l-4.378,1.557C0.708,14.834,0.667,15.412,0.667,16s0.041,1.165,0.105,1.736l4.378,1.558c0.217,0.715,0.502,1.401,0.849,2.049l-1.994,4.193c0.725,0.909,1.549,1.733,2.459,2.458l4.192-1.993c0.648,0.347,1.334,0.633,2.05,0.851l1.557,4.377c0.571,0.064,1.148,0.104,1.737,0.104c0.588,0,1.165-0.04,1.736-0.104l1.558-4.377c0.715-0.218,1.399-0.504,2.049-0.851l4.193,1.993c0.909-0.725,1.733-1.549,2.458-2.458l-1.993-4.193c0.347-0.647,0.633-1.334,0.851-2.049L31.229,17.736zM16,20.871c-2.69,0-4.872-2.182-4.872-4.871c0-2.69,2.182-4.872,4.872-4.872c2.689,0,4.871,2.182,4.871,4.872C20.871,18.689,18.689,20.871,16,20.871z"></path><title>Link options.</title></g></g></g></g><!--z-index:57--><g   id="j_27" ><path  stroke="#aaaaaa" d="M 2149 1124 L 2031 1228 C 2026.3333333333333 1232.6666666666665 2020.6666666666665 1235 2014 1235 L 1839 1235 C 1832.3333333333333 1235 1827.3333333333333 1238 1824 1244 L 1779 1325" id="v-380" stroke-width="2" stroke-dasharray="30 30" fill="none" style="opacity: 1;"></path><path  fill="black" stroke="black" d="M 0 0 0 0" transform="matrix(-0.7478183530628051,0.6639033896753607,-0.6639033896753607,-0.7478183530628051,2149.030029296875,1124)"></path><path  fill="#aaaaaa" stroke="#aaaaaa" d="M 20 0 L 0 10 L 20 20 z" id="v-382" transform="matrix(0.4846773131199579,-0.8746930330960789,0.8746930330960789,0.4846773131199579,1770.3831031784646,1320.1532089575737)" style="opacity: 1;"></path><path  d="M 2149 1124 L 2031 1228 C 2026.3333333333333 1232.6666666666665 2020.6666666666665 1235 2014 1235 L 1839 1235 C 1832.3333333333333 1235 1827.3333333333333 1238 1824 1244 L 1779 1325" id="v-381" fill="none" style="cursor: default;"></path><g ><g id="v-374"  label-idx="0" cursor="move" transform="matrix(1,0,0,1,1959.0364990234375,1235)" style="cursor: default; opacity: 1;"><rect joint-selector="rect" id="v-377" fill="transparent" rx="3" ry="3" pointer-events="none" width="151.30758666992188" height="56.662044525146484" transform="matrix(1,0,0,1,-75.3,-28.3)"></rect><text joint-selector="text" id="v-376" font-size="24px" xml:space="preserve" y="0.8em" fill="#aaaaaa" text-anchor="middle" pointer-events="none" font-family="'DM Sans', DMSans, sans-serif" font-weight="normal" transform="matrix(1,0,0,1,0,-24.7)"><tspan dy="0" >Maakt gebruik</tspan><tspan dy="1.2em" x="0" >van</tspan></text></g><g id="v-375"  label-idx="1" cursor="move" transform="matrix(1,0,0,1,1949.0364990234375,1275.800048828125)" style="cursor: default; opacity: 1;"><rect joint-selector="rect" id="v-379" fill="transparent" rx="3" ry="3"  width="0" height="0" transform="matrix(1,0,0,1,0,0)" display="none"></rect><text joint-selector="text" id="v-378" fill="#000000" font-size="14" text-anchor="middle" pointer-events="none"></text></g></g><g  display="none"><g  transform="translate(2024, 1235)" id="v-370"><circle  idx="0" r="10"></circle><path  idx="0" d="M16,5.333c-7.732,0-14,4.701-14,10.5c0,1.982,0.741,3.833,2.016,5.414L2,25.667l5.613-1.441c2.339,1.317,5.237,2.107,8.387,2.107c7.732,0,14-4.701,14-10.5C30,10.034,23.732,5.333,16,5.333z" transform="translate(5, -33)"></path><path  idx="0" transform="scale(.8) translate(9.5, -37)" d="M24.778,21.419 19.276,15.917 24.777,10.415 21.949,7.585 16.447,13.087 10.945,7.585 8.117,10.415 13.618,15.917 8.116,21.419 10.946,24.248 16.447,18.746 21.948,24.248z"><title>Remove vertex.</title></path></g><g  transform="translate(1829, 1235)" id="v-371"><circle  idx="1" r="10"></circle><path  idx="1" d="M16,5.333c-7.732,0-14,4.701-14,10.5c0,1.982,0.741,3.833,2.016,5.414L2,25.667l5.613-1.441c2.339,1.317,5.237,2.107,8.387,2.107c7.732,0,14-4.701,14-10.5C30,10.034,23.732,5.333,16,5.333z" transform="translate(5, -33)"></path><path  idx="1" transform="scale(.8) translate(9.5, -37)" d="M24.778,21.419 19.276,15.917 24.777,10.415 21.949,7.585 16.447,13.087 10.945,7.585 8.117,10.415 13.618,15.917 8.116,21.419 10.946,24.248 16.447,18.746 21.948,24.248z"><title>Remove vertex.</title></path></g></g><g  id="v-384" display="none"><g  id="v-372"><path  end="source" d="M 26 0 L 0 13 L 26 26 z"></path></g><g  id="v-373"><path  end="target" d="M 26 0 L 0 13 L 26 26 z"></path></g></g><g  id="v-383" display="none"><g  id="v-369" transform="translate(2118.991647619185, 1150.448039386481) "><g  event="remove"><circle r="11"></circle><path transform="scale(.8) translate(-16, -16)" d="M24.778,21.419 19.276,15.917 24.777,10.415 21.949,7.585 16.447,13.087 10.945,7.585 8.117,10.415 13.618,15.917 8.116,21.419 10.946,24.248 16.447,18.746 21.948,24.248z"></path><title>Remove link.</title></g><g  event="link:options"><circle r="11" transform="translate(25)"></circle><path fill="white" transform="scale(.55) translate(29, -16)" d="M31.229,17.736c0.064-0.571,0.104-1.148,0.104-1.736s-0.04-1.166-0.104-1.737l-4.377-1.557c-0.218-0.716-0.504-1.401-0.851-2.05l1.993-4.192c-0.725-0.91-1.549-1.734-2.458-2.459l-4.193,1.994c-0.647-0.347-1.334-0.632-2.049-0.849l-1.558-4.378C17.165,0.708,16.588,0.667,16,0.667s-1.166,0.041-1.737,0.105L12.707,5.15c-0.716,0.217-1.401,0.502-2.05,0.849L6.464,4.005C5.554,4.73,4.73,5.554,4.005,6.464l1.994,4.192c-0.347,0.648-0.632,1.334-0.849,2.05l-4.378,1.557C0.708,14.834,0.667,15.412,0.667,16s0.041,1.165,0.105,1.736l4.378,1.558c0.217,0.715,0.502,1.401,0.849,2.049l-1.994,4.193c0.725,0.909,1.549,1.733,2.459,2.458l4.192-1.993c0.648,0.347,1.334,0.633,2.05,0.851l1.557,4.377c0.571,0.064,1.148,0.104,1.737,0.104c0.588,0,1.165-0.04,1.736-0.104l1.558-4.377c0.715-0.218,1.399-0.504,2.049-0.851l4.193,1.993c0.909-0.725,1.733-1.549,2.458-2.458l-1.993-4.193c0.347-0.647,0.633-1.334,0.851-2.049L31.229,17.736zM16,20.871c-2.69,0-4.872-2.182-4.872-4.871c0-2.69,2.182-4.872,4.872-4.872c2.689,0,4.871,2.182,4.871,4.872C20.871,18.689,18.689,20.871,16,20.871z"></path><title>Link options.</title></g></g></g></g><!--z-index:58--><g   id="j_28" ><path  stroke="#aaaaaa" d="M 985 1124 L 985 1324" id="v-394" stroke-width="2" stroke-dasharray="30 30" fill="none" style="opacity: 1;"></path><path  fill="black" stroke="black" d="M 0 0 0 0" transform="matrix(6.123233995736766e-17,1,-1,6.123233995736766e-17,985,1124)"></path><path  fill="#aaaaaa" stroke="#aaaaaa" d="M 20 0 L 0 10 L 20 20 z" id="v-396" transform="matrix(-1.8369701987210297e-16,-1,1,-1.8369701987210297e-16,975,1324)" style="opacity: 1;"></path><path  d="M 985 1124 L 985 1324" id="v-395" fill="none" style="cursor: default;"></path><g ><g id="v-388"  label-idx="0" cursor="move" transform="matrix(1,0,0,1,985,1224)" style="cursor: default; opacity: 1;"><rect joint-selector="rect" id="v-391" fill="transparent" rx="3" ry="3" pointer-events="none" width="122.68798065185547" height="27.86204433441162" transform="matrix(1,0,0,1,-61.3,-13.9)"></rect><text joint-selector="text" id="v-390" font-size="24px" xml:space="preserve" y="0.8em" fill="#aaaaaa" text-anchor="middle" pointer-events="none" font-family="'DM Sans', DMSans, sans-serif" font-weight="normal" transform="matrix(1,0,0,1,0,-10.3)"><tspan dy="0" >Beheer van</tspan></text></g><g id="v-389"  label-idx="1" cursor="move" transform="matrix(1,0,0,1,975,1250.4000244140625)" style="cursor: default; opacity: 1;"><rect joint-selector="rect" id="v-393" fill="transparent" rx="3" ry="3"  width="0" height="0" transform="matrix(1,0,0,1,0,0)" display="none"></rect><text joint-selector="text" id="v-392" fill="#000000" font-size="14" text-anchor="middle" pointer-events="none"></text></g></g><g  display="none"></g><g  id="v-398" display="none"><g  id="v-386"><path  end="source" d="M 26 0 L 0 13 L 26 26 z"></path></g><g  id="v-387"><path  end="target" d="M 26 0 L 0 13 L 26 26 z"></path></g></g><g  id="v-397" display="none"><g  id="v-385" transform="translate(985, 1164) "><g  event="remove"><circle r="11"></circle><path transform="scale(.8) translate(-16, -16)" d="M24.778,21.419 19.276,15.917 24.777,10.415 21.949,7.585 16.447,13.087 10.945,7.585 8.117,10.415 13.618,15.917 8.116,21.419 10.946,24.248 16.447,18.746 21.948,24.248z"></path><title>Remove link.</title></g><g  event="link:options"><circle r="11" transform="translate(25)"></circle><path fill="white" transform="scale(.55) translate(29, -16)" d="M31.229,17.736c0.064-0.571,0.104-1.148,0.104-1.736s-0.04-1.166-0.104-1.737l-4.377-1.557c-0.218-0.716-0.504-1.401-0.851-2.05l1.993-4.192c-0.725-0.91-1.549-1.734-2.458-2.459l-4.193,1.994c-0.647-0.347-1.334-0.632-2.049-0.849l-1.558-4.378C17.165,0.708,16.588,0.667,16,0.667s-1.166,0.041-1.737,0.105L12.707,5.15c-0.716,0.217-1.401,0.502-2.05,0.849L6.464,4.005C5.554,4.73,4.73,5.554,4.005,6.464l1.994,4.192c-0.347,0.648-0.632,1.334-0.849,2.05l-4.378,1.557C0.708,14.834,0.667,15.412,0.667,16s0.041,1.165,0.105,1.736l4.378,1.558c0.217,0.715,0.502,1.401,0.849,2.049l-1.994,4.193c0.725,0.909,1.549,1.733,2.459,2.458l4.192-1.993c0.648,0.347,1.334,0.633,2.05,0.851l1.557,4.377c0.571,0.064,1.148,0.104,1.737,0.104c0.588,0,1.165-0.04,1.736-0.104l1.558-4.377c0.715-0.218,1.399-0.504,2.049-0.851l4.193,1.993c0.909-0.725,1.733-1.549,2.458-2.458l-1.993-4.193c0.347-0.647,0.633-1.334,0.851-2.049L31.229,17.736zM16,20.871c-2.69,0-4.872-2.182-4.872-4.871c0-2.69,2.182-4.872,4.872-4.872c2.689,0,4.871,2.182,4.871,4.872C20.871,18.689,18.689,20.871,16,20.871z"></path><title>Link options.</title></g></g></g></g><!--z-index:59--><g   id="j_29" ><path  stroke="#aaaaaa" d="M 1471 1475 L 1210 1474" id="v-411" stroke-width="2" stroke-dasharray="30 30" fill="none" style="opacity: 1;"></path><path  fill="black" stroke="black" d="M 0 0 0 0" transform="matrix(-0.999999048833313,-0.0013792506912528022,0.0013792506912528022,-0.999999048833313,1471,1474.6800537109375)"></path><path  fill="#aaaaaa" stroke="#aaaaaa" d="M 20 0 L 0 10 L 20 20 z" id="v-413" transform="matrix(0.9999990487527814,0.0013793090778832378,-0.0013793090778832378,0.9999990487527814,1210.013802603251,1464.3199566560684)" style="opacity: 1;"></path><path  d="M 1471 1475 L 1210 1474" id="v-412" fill="none" style="cursor: default;"></path><g ><g id="v-405"  label-idx="0" cursor="move" transform="matrix(1,0,0,1,1340.5,1474.5)" style="cursor: default; opacity: 1;"><rect joint-selector="rect" id="v-408" fill="transparent" rx="3" ry="3" pointer-events="none" width="151.30758666992188" height="56.662044525146484" transform="matrix(1,0,0,1,-75.3,-28.3)"></rect><text joint-selector="text" id="v-407" font-size="24px" xml:space="preserve" y="0.8em" fill="#aaaaaa" text-anchor="middle" pointer-events="none" font-family="'DM Sans', DMSans, sans-serif" font-weight="normal" transform="matrix(1,0,0,1,0,-24.7)"><tspan dy="0" >Maakt gebruik</tspan><tspan dy="1.2em" x="0" >van</tspan></text></g><g id="v-406"  label-idx="1" cursor="move" transform="matrix(1,0,0,1,1330.5,1515.300048828125)" style="cursor: default; opacity: 1;"><rect joint-selector="rect" id="v-410" fill="transparent" rx="3" ry="3"  width="0" height="0" transform="matrix(1,0,0,1,0,0)" display="none"></rect><text joint-selector="text" id="v-409" fill="#000000" font-size="14" text-anchor="middle" pointer-events="none"></text></g></g><g  display="none"></g><g  id="v-415" display="none"><g  id="v-403"><path  end="source" d="M 26 0 L 0 13 L 26 26 z"></path></g><g  id="v-404"><path  end="target" d="M 26 0 L 0 13 L 26 26 z"></path></g></g><g  id="v-414" display="none"><g  id="v-402" transform="translate(1431.0002935919879, 1474.8467444198927) "><g  event="remove"><circle r="11"></circle><path transform="scale(.8) translate(-16, -16)" d="M24.778,21.419 19.276,15.917 24.777,10.415 21.949,7.585 16.447,13.087 10.945,7.585 8.117,10.415 13.618,15.917 8.116,21.419 10.946,24.248 16.447,18.746 21.948,24.248z"></path><title>Remove link.</title></g><g  event="link:options"><circle r="11" transform="translate(25)"></circle><path fill="white" transform="scale(.55) translate(29, -16)" d="M31.229,17.736c0.064-0.571,0.104-1.148,0.104-1.736s-0.04-1.166-0.104-1.737l-4.377-1.557c-0.218-0.716-0.504-1.401-0.851-2.05l1.993-4.192c-0.725-0.91-1.549-1.734-2.458-2.459l-4.193,1.994c-0.647-0.347-1.334-0.632-2.049-0.849l-1.558-4.378C17.165,0.708,16.588,0.667,16,0.667s-1.166,0.041-1.737,0.105L12.707,5.15c-0.716,0.217-1.401,0.502-2.05,0.849L6.464,4.005C5.554,4.73,4.73,5.554,4.005,6.464l1.994,4.192c-0.347,0.648-0.632,1.334-0.849,2.05l-4.378,1.557C0.708,14.834,0.667,15.412,0.667,16s0.041,1.165,0.105,1.736l4.378,1.558c0.217,0.715,0.502,1.401,0.849,2.049l-1.994,4.193c0.725,0.909,1.549,1.733,2.459,2.458l4.192-1.993c0.648,0.347,1.334,0.633,2.05,0.851l1.557,4.377c0.571,0.064,1.148,0.104,1.737,0.104c0.588,0,1.165-0.04,1.736-0.104l1.558-4.377c0.715-0.218,1.399-0.504,2.049-0.851l4.193,1.993c0.909-0.725,1.733-1.549,2.458-2.458l-1.993-4.193c0.347-0.647,0.633-1.334,0.851-2.049L31.229,17.736zM16,20.871c-2.69,0-4.872-2.182-4.872-4.871c0-2.69,2.182-4.872,4.872-4.872c2.689,0,4.871,2.182,4.871,4.872C20.871,18.689,18.689,20.871,16,20.871z"></path><title>Link options.</title></g></g></g></g><!--z-index:60--></g><g ></g><g ></g><g ></g></g></svg>