<svg xmlns="http://www.w3.org/2000/svg" xmlns:xlink="http://www.w3.org/1999/xlink" version="1.1" viewBox="0 0 4021 1867" style="background: transparent"><defs joint-selector="defs"></defs><g joint-selector="layers" transform="matrix(1,0,0,1,0,0)" ><g ></g><g ><!--z-index:1--><!--z-index:2--><!--z-index:3--><!--z-index:4--><!--z-index:5--><!--z-index:6--><!--z-index:7--><!--z-index:8--><!--z-index:9--><!--z-index:10--><!--z-index:11--><!--z-index:12--><!--z-index:13--><!--z-index:14--><!--z-index:15--><!--z-index:16--><!--z-index:17--><!--z-index:18--><!--z-index:19--><!--z-index:20--><!--z-index:21--><!--z-index:22--><!--z-index:23--><!--z-index:24--><!--z-index:25--><!--z-index:26--><!--z-index:27--><!--z-index:28--><!--z-index:29--><!--z-index:30--><!--z-index:31--><g   id="j_77"  transform="translate(20,1830.6)"><g id="v-1044"><text  id="v-1045" font-size="22px" xml:space="preserve" y="0.8em" font-weight="normal" text-anchor="start" fill="#aaaaaa" pointer-events="none" display="block" font-family="'DM Sans', DMSans, sans-serif"><tspan dy="0" >Monday 24 June 2024 at 13:16 Central European Summer Time</tspan></text></g></g><!--z-index:32--><g   id="j_76"  transform="translate(20,1787.3999999999999)"><g id="v-1042"><text  id="v-1043" font-size="36px" xml:space="preserve" y="0.8em" font-weight="normal" text-anchor="start" fill="#000000" pointer-events="none" display="block" font-family="'DM Sans', DMSans, sans-serif"><tspan dy="0" >[Component] Abacus - Backend</tspan></text></g></g><!--z-index:33--><g   id="j_78"  transform="translate(1795,149)" style=""><g  id="v-1052" style="opacity: 1;"><rect  id="v-1053" rx="10" ry="10" stroke="#3c7fc0" stroke-width="2" pointer-events="visiblePainted" fill="#3c7fc0" width="450" height="300" style="fill: rgb(60, 127, 192); stroke: rgb(60, 127, 192);"></rect><rect  id="v-1054" rx="10" ry="10" stroke="#3c7fc0" stroke-width="0" pointer-events="visiblePainted" fill="#438dd5" width="430" height="250" x="10" y="40" style="fill: rgb(67, 141, 213);"></rect><ellipse  id="v-1061" fill="#438dd5" cx="20" cy="20" rx="10" ry="10" style="fill: rgb(67, 141, 213);"></ellipse><ellipse  id="v-1062" fill="#438dd5" cx="50" cy="20" rx="10" ry="10" style="fill: rgb(67, 141, 213);"></ellipse><ellipse  id="v-1063" fill="#438dd5" cx="80" cy="20" rx="10" ry="10" style="fill: rgb(67, 141, 213);"></ellipse><rect  id="v-1055" rx="10" ry="10" stroke="#444444" stroke-width="0" pointer-events="visiblePainted" fill="#438dd5" width="340" height="20" x="100" y="10" style="fill: rgb(67, 141, 213);"></rect><text  id="v-1056" font-size="34" xml:space="preserve" y="0.8em" font-weight="bold" text-anchor="middle" pointer-events="visible" font-family="'DM Sans', DMSans, sans-serif" fill="transparent" transform="matrix(1,0,0,1,225,92.9)" style="fill: rgb(255, 255, 255);"><tspan dy="0" >Frontend</tspan></text><text  id="v-1057" font-size="17" xml:space="preserve" y="0.8em" text-anchor="middle" font-family="'DM Sans', DMSans, sans-serif" fill="transparent" transform="matrix(1,0,0,1,225,133.7)" style="fill: rgb(255, 255, 255);"><tspan dy="0" >[Container: Single-Page Application - TypeScript,</tspan><tspan dy="1.2em" x="0" >React]</tspan></text><text  id="v-1058" font-size="24" xml:space="preserve" y="0.8em" text-anchor="middle" font-family="'DM Sans', DMSans, sans-serif" fill="transparent" transform="matrix(1,0,0,1,225,184.5)" style="fill: rgb(255, 255, 255);"><tspan dy="0" >Offers all Abacus functionality via</tspan><tspan dy="1.2em" x="0" >a web browser.</tspan></text><g  id="v-1059" font-weight="normal" text-anchor="middle" color="transparent" transform="matrix(1,0,0,1,222.5,258)" display="none" style="fill: rgb(255, 255, 255);"><g ></g><g ></g><g ></g><g ></g></g><image  id="v-1060"></image></g></g><!--z-index:34--><g   id="j_80"  transform="translate(149,804)" style=""><g id="v-1074"><rect  id="v-1075" width="3721" height="912" rx="0" ry="0" fill="transparent" stroke="#3c7fc0" stroke-width="1" stroke-dasharray="20,20" pointer-events="none"></rect><text  id="v-1076" font-size="24px" xml:space="preserve" y="873" font-weight="normal" fill="#3c7fc0" text-anchor="start" pointer-events="visible" font-family="'DM Sans', DMSans, sans-serif" transform="matrix(1,0,0,1,15,0)"><tspan dy="0" >Backend</tspan></text><text  id="v-1077" font-size="17px" xml:space="preserve" y="897" font-weight="normal" fill="#3c7fc0" text-anchor="start" pointer-events="visible" font-family="'DM Sans', DMSans, sans-serif" transform="matrix(1,0,0,1,15,0)"><tspan dy="0" >[Container]</tspan></text><image  id="v-1078" pointer-events="visible"></image></g></g><!--z-index:35--><g   id="j_79"  transform="translate(760,824)" style=""><g  id="v-1067" style="opacity: 1;"><rect  id="v-1068" rx="1" ry="1" stroke="#78a8d8" stroke-width="2" pointer-events="visiblePainted" fill="#85bbf0" width="450" height="300" style="fill: rgb(133, 187, 240); stroke: rgb(120, 168, 216);"></rect><text  id="v-1069" font-size="34" xml:space="preserve" y="0.8em" font-weight="bold" text-anchor="middle" pointer-events="visible" font-family="'DM Sans', DMSans, sans-serif" fill="#000000" transform="matrix(1,0,0,1,225,88.1)" style="fill: rgb(0, 0, 0);"><tspan dy="0" >Administration</tspan></text><text  id="v-1070" font-size="17" xml:space="preserve" y="0.8em" text-anchor="middle" font-family="'DM Sans', DMSans, sans-serif" fill="#000000" transform="matrix(1,0,0,1,225,128.9)" style="fill: rgb(0, 0, 0);"><tspan dy="0" >[Component]</tspan></text><text  id="v-1071" font-size="24" xml:space="preserve" y="0.8em" text-anchor="middle" font-family="'DM Sans', DMSans, sans-serif" fill="#000000" transform="matrix(1,0,0,1,225,159.3)" style="fill: rgb(0, 0, 0);"><tspan dy="0" >Administration of elections,</tspan><tspan dy="1.2em" x="0" >election data and the session.</tspan></text><g  id="v-1072" color="#000000" transform="matrix(1,0,0,1,222.5,268)" display="none" style="fill: rgb(0, 0, 0);"><g ></g><g ></g><g ></g><g ></g></g><image  id="v-1073"></image></g></g><!--z-index:36--><g   id="j_81"  transform="translate(169,824)" style=""><g  id="v-1082" style="opacity: 1;"><rect  id="v-1083" rx="1" ry="1" stroke="#78a8d8" stroke-width="2" pointer-events="visiblePainted" fill="#85bbf0" width="450" height="300" style="fill: rgb(133, 187, 240); stroke: rgb(120, 168, 216);"></rect><text  id="v-1084" font-size="34" xml:space="preserve" y="0.8em" font-weight="bold" text-anchor="middle" pointer-events="visible" font-family="'DM Sans', DMSans, sans-serif" fill="#000000" transform="matrix(1,0,0,1,225,88.1)" style="fill: rgb(0, 0, 0);"><tspan dy="0" >Users</tspan></text><text  id="v-1085" font-size="17" xml:space="preserve" y="0.8em" text-anchor="middle" font-family="'DM Sans', DMSans, sans-serif" fill="#000000" transform="matrix(1,0,0,1,225,128.9)" style="fill: rgb(0, 0, 0);"><tspan dy="0" >[Component]</tspan></text><text  id="v-1086" font-size="24" xml:space="preserve" y="0.8em" text-anchor="middle" font-family="'DM Sans', DMSans, sans-serif" fill="#000000" transform="matrix(1,0,0,1,225,159.3)" style="fill: rgb(0, 0, 0);"><tspan dy="0" >Users and roles: administration,</tspan><tspan dy="1.2em" x="0" >authentication, authorisation.</tspan></text><g  id="v-1087" color="#000000" transform="matrix(1,0,0,1,222.5,268)" display="none" style="fill: rgb(0, 0, 0);"><g ></g><g ></g><g ></g><g ></g></g><image  id="v-1088"></image></g></g><!--z-index:37--><g   id="j_82"  transform="translate(760,1324)" style=""><g  id="v-1095" style="opacity: 1;"><rect  id="v-1096" rx="1" ry="1" stroke="#78a8d8" stroke-width="2" pointer-events="visiblePainted" fill="#85bbf0" width="450" height="300" style="fill: rgb(133, 187, 240); stroke: rgb(120, 168, 216);"></rect><text  id="v-1097" font-size="34" xml:space="preserve" y="0.8em" font-weight="bold" text-anchor="middle" pointer-events="visible" font-family="'DM Sans', DMSans, sans-serif" fill="#000000" transform="matrix(1,0,0,1,225,73.7)" style="fill: rgb(0, 0, 0);"><tspan dy="0" >Election data</tspan></text><text  id="v-1098" font-size="17" xml:space="preserve" y="0.8em" text-anchor="middle" font-family="'DM Sans', DMSans, sans-serif" fill="#000000" transform="matrix(1,0,0,1,225,114.5)" style="fill: rgb(0, 0, 0);"><tspan dy="0" >[Component]</tspan></text><text  id="v-1099" font-size="24" xml:space="preserve" y="0.8em" text-anchor="middle" font-family="'DM Sans', DMSans, sans-serif" fill="#000000" transform="matrix(1,0,0,1,225,144.9)" style="fill: rgb(0, 0, 0);"><tspan dy="0" >Election data incl. political</tspan><tspan dy="1.2em" x="0" >groupings, candidate lists and</tspan><tspan dy="1.2em" x="0" >polling stations.</tspan></text><g  id="v-1100" color="#000000" transform="matrix(1,0,0,1,222.5,268)" display="none" style="fill: rgb(0, 0, 0);"><g ></g><g ></g><g ></g><g ></g></g><image  id="v-1101"></image></g></g><!--z-index:38--><g   id="j_83"  transform="translate(1471,824)" style=""><g  id="v-1105" style="opacity: 1;"><rect  id="v-1106" rx="1" ry="1" stroke="#78a8d8" stroke-width="2" pointer-events="visiblePainted" fill="#85bbf0" width="450" height="300" style="fill: rgb(133, 187, 240); stroke: rgb(120, 168, 216);"></rect><text  id="v-1107" font-size="34" xml:space="preserve" y="0.8em" font-weight="bold" text-anchor="middle" pointer-events="visible" font-family="'DM Sans', DMSans, sans-serif" fill="#000000" transform="matrix(1,0,0,1,225,88.1)" style="fill: rgb(0, 0, 0);"><tspan dy="0" >Data entry</tspan></text><text  id="v-1108" font-size="17" xml:space="preserve" y="0.8em" text-anchor="middle" font-family="'DM Sans', DMSans, sans-serif" fill="#000000" transform="matrix(1,0,0,1,225,128.9)" style="fill: rgb(0, 0, 0);"><tspan dy="0" >[Component]</tspan></text><text  id="v-1109" font-size="24" xml:space="preserve" y="0.8em" text-anchor="middle" font-family="'DM Sans', DMSans, sans-serif" fill="#000000" transform="matrix(1,0,0,1,225,159.3)" style="fill: rgb(0, 0, 0);"><tspan dy="0" >Entry and validation of vote counts.</tspan></text><g  id="v-1110" color="#000000" transform="matrix(1,0,0,1,222.5,268)" display="none" style="fill: rgb(0, 0, 0);"><g ></g><g ></g><g ></g><g ></g></g><image  id="v-1111"></image></g></g><!--z-index:39--><g   id="j_84"  transform="translate(1471,1325)" style=""><g  id="v-1115" style="opacity: 1;"><rect  id="v-1116" rx="1" ry="1" stroke="#78a8d8" stroke-width="2" pointer-events="visiblePainted" fill="#85bbf0" width="450" height="300" style="fill: rgb(133, 187, 240); stroke: rgb(120, 168, 216);"></rect><text  id="v-1117" font-size="34" xml:space="preserve" y="0.8em" font-weight="bold" text-anchor="middle" pointer-events="visible" font-family="'DM Sans', DMSans, sans-serif" fill="#000000" transform="matrix(1,0,0,1,225,88.1)" style="fill: rgb(0, 0, 0);"><tspan dy="0" >Counting results</tspan></text><text  id="v-1118" font-size="17" xml:space="preserve" y="0.8em" text-anchor="middle" font-family="'DM Sans', DMSans, sans-serif" fill="#000000" transform="matrix(1,0,0,1,225,128.9)" style="fill: rgb(0, 0, 0);"><tspan dy="0" >[Component]</tspan></text><text  id="v-1119" font-size="24" xml:space="preserve" y="0.8em" text-anchor="middle" font-family="'DM Sans', DMSans, sans-serif" fill="#000000" transform="matrix(1,0,0,1,225,159.3)" style="fill: rgb(0, 0, 0);"><tspan dy="0" >Checked counting results of</tspan><tspan dy="1.2em" x="0" >polling stations.</tspan></text><g  id="v-1120" color="#000000" transform="matrix(1,0,0,1,222.5,268)" display="none" style="fill: rgb(0, 0, 0);"><g ></g><g ></g><g ></g><g ></g></g><image  id="v-1121"></image></g></g><!--z-index:40--><g   id="j_85"  transform="translate(2823,824)" style=""><g  id="v-1125" style="opacity: 1;"><rect  id="v-1126" rx="1" ry="1" stroke="#78a8d8" stroke-width="2" pointer-events="visiblePainted" fill="#85bbf0" width="450" height="300" style="fill: rgb(133, 187, 240); stroke: rgb(120, 168, 216);"></rect><text  id="v-1127" font-size="34" xml:space="preserve" y="0.8em" font-weight="bold" text-anchor="middle" pointer-events="visible" font-family="'DM Sans', DMSans, sans-serif" fill="#000000" transform="matrix(1,0,0,1,225,102.5)" style="fill: rgb(0, 0, 0);"><tspan dy="0" >Export</tspan></text><text  id="v-1128" font-size="17" xml:space="preserve" y="0.8em" text-anchor="middle" font-family="'DM Sans', DMSans, sans-serif" fill="#000000" transform="matrix(1,0,0,1,225,143.3)" style="fill: rgb(0, 0, 0);"><tspan dy="0" >[Component]</tspan></text><text  id="v-1129" font-size="24" xml:space="preserve" y="0.8em" text-anchor="middle" font-family="'DM Sans', DMSans, sans-serif" fill="#000000" transform="matrix(1,0,0,1,225,173.7)" style="fill: rgb(0, 0, 0);"><tspan dy="0" >Export of results.</tspan></text><g  id="v-1130" color="#000000" transform="matrix(1,0,0,1,222.5,268)" display="none" style="fill: rgb(0, 0, 0);"><g ></g><g ></g><g ></g><g ></g></g><image  id="v-1131"></image></g></g><!--z-index:41--><g   id="j_86"  transform="translate(2093,1325)" style=""><g  id="v-1138" style="opacity: 1;"><rect  id="v-1139" rx="1" ry="1" stroke="#78a8d8" stroke-width="2" pointer-events="visiblePainted" fill="#85bbf0" width="450" height="300" style="fill: rgb(133, 187, 240); stroke: rgb(120, 168, 216);"></rect><text  id="v-1140" font-size="34" xml:space="preserve" y="0.8em" font-weight="bold" text-anchor="middle" pointer-events="visible" font-family="'DM Sans', DMSans, sans-serif" fill="#000000" transform="matrix(1,0,0,1,225,102.5)" style="fill: rgb(0, 0, 0);"><tspan dy="0" >EML_NL generator</tspan></text><text  id="v-1141" font-size="17" xml:space="preserve" y="0.8em" text-anchor="middle" font-family="'DM Sans', DMSans, sans-serif" fill="#000000" transform="matrix(1,0,0,1,225,143.3)" style="fill: rgb(0, 0, 0);"><tspan dy="0" >[Component]</tspan></text><text  id="v-1142" font-size="24" xml:space="preserve" y="0.8em" text-anchor="middle" font-family="'DM Sans', DMSans, sans-serif" fill="#000000" transform="matrix(1,0,0,1,225,173.7)" style="fill: rgb(0, 0, 0);"><tspan dy="0" >EML_NL file export.</tspan></text><g  id="v-1143" color="#000000" transform="matrix(1,0,0,1,222.5,268)" display="none" style="fill: rgb(0, 0, 0);"><g ></g><g ></g><g ></g><g ></g></g><image  id="v-1144"></image></g></g><!--z-index:42--><g   id="j_87"  transform="translate(2823,1325)" style=""><g  id="v-1148" style="opacity: 1;"><rect  id="v-1149" rx="1" ry="1" stroke="#78a8d8" stroke-width="2" pointer-events="visiblePainted" fill="#85bbf0" width="450" height="300" style="fill: rgb(133, 187, 240); stroke: rgb(120, 168, 216);"></rect><text  id="v-1150" font-size="34" xml:space="preserve" y="0.8em" font-weight="bold" text-anchor="middle" pointer-events="visible" font-family="'DM Sans', DMSans, sans-serif" fill="#000000" transform="matrix(1,0,0,1,225,102.5)" style="fill: rgb(0, 0, 0);"><tspan dy="0" >PDF generator</tspan></text><text  id="v-1151" font-size="17" xml:space="preserve" y="0.8em" text-anchor="middle" font-family="'DM Sans', DMSans, sans-serif" fill="#000000" transform="matrix(1,0,0,1,225,143.3)" style="fill: rgb(0, 0, 0);"><tspan dy="0" >[Component]</tspan></text><text  id="v-1152" font-size="24" xml:space="preserve" y="0.8em" text-anchor="middle" font-family="'DM Sans', DMSans, sans-serif" fill="#000000" transform="matrix(1,0,0,1,225,173.7)" style="fill: rgb(0, 0, 0);"><tspan dy="0" >PDF file export via Typst.</tspan></text><g  id="v-1153" color="#000000" transform="matrix(1,0,0,1,222.5,268)" display="none" style="fill: rgb(0, 0, 0);"><g ></g><g ></g><g ></g><g ></g></g><image  id="v-1154"></image></g></g><!--z-index:43--><g   id="j_88"  transform="translate(2093,824)" style=""><g  id="v-1158" style="opacity: 1;"><rect  id="v-1159" rx="1" ry="1" stroke="#78a8d8" stroke-width="2" pointer-events="visiblePainted" fill="#85bbf0" width="450" height="300" style="fill: rgb(133, 187, 240); stroke: rgb(120, 168, 216);"></rect><text  id="v-1160" font-size="34" xml:space="preserve" y="0.8em" font-weight="bold" text-anchor="middle" pointer-events="visible" font-family="'DM Sans', DMSans, sans-serif" fill="#000000" transform="matrix(1,0,0,1,225,88.1)" style="fill: rgb(0, 0, 0);"><tspan dy="0" >Seat allocation</tspan></text><text  id="v-1161" font-size="17" xml:space="preserve" y="0.8em" text-anchor="middle" font-family="'DM Sans', DMSans, sans-serif" fill="#000000" transform="matrix(1,0,0,1,225,128.9)" style="fill: rgb(0, 0, 0);"><tspan dy="0" >[Component]</tspan></text><text  id="v-1162" font-size="24" xml:space="preserve" y="0.8em" text-anchor="middle" font-family="'DM Sans', DMSans, sans-serif" fill="#000000" transform="matrix(1,0,0,1,225,159.3)" style="fill: rgb(0, 0, 0);"><tspan dy="0" >Seat allocation after entry of all</tspan><tspan dy="1.2em" x="0" >counting results.</tspan></text><g  id="v-1163" color="#000000" transform="matrix(1,0,0,1,222.5,268)" display="none" style="fill: rgb(0, 0, 0);"><g ></g><g ></g><g ></g><g ></g></g><image  id="v-1164"></image></g></g><!--z-index:44--><g   id="j_89"  transform="translate(3400,824)" style=""><g  id="v-1168" style="opacity: 1;"><rect  id="v-1169" rx="1" ry="1" stroke="#78a8d8" stroke-width="2" pointer-events="visiblePainted" fill="#85bbf0" width="450" height="300" style="fill: rgb(133, 187, 240); stroke: rgb(120, 168, 216);"></rect><text  id="v-1170" font-size="34" xml:space="preserve" y="0.8em" font-weight="bold" text-anchor="middle" pointer-events="visible" font-family="'DM Sans', DMSans, sans-serif" fill="#000000" transform="matrix(1,0,0,1,225,88.1)" style="fill: rgb(0, 0, 0);"><tspan dy="0" >Statistics</tspan></text><text  id="v-1171" font-size="17" xml:space="preserve" y="0.8em" text-anchor="middle" font-family="'DM Sans', DMSans, sans-serif" fill="#000000" transform="matrix(1,0,0,1,225,128.9)" style="fill: rgb(0, 0, 0);"><tspan dy="0" >[Component]</tspan></text><text  id="v-1172" font-size="24" xml:space="preserve" y="0.8em" text-anchor="middle" font-family="'DM Sans', DMSans, sans-serif" fill="#000000" transform="matrix(1,0,0,1,225,159.3)" style="fill: rgb(0, 0, 0);"><tspan dy="0" >Statistics of the</tspan><tspan dy="1.2em" x="0" >result determination process.</tspan></text><g  id="v-1173" color="#000000" transform="matrix(1,0,0,1,222.5,268)" display="none" style="fill: rgb(0, 0, 0);"><g ></g><g ></g><g ></g><g ></g></g><image  id="v-1174"></image></g></g><!--z-index:45--><g   id="j_90" ><path  stroke="#707070" d="M 1795 354 L 416 692 C 409.33333333333326 693.3333333333333 405.99999999999994 697.3333333333333 406 704 L 400 824" id="v-1191" stroke-width="2" stroke-dasharray="30 30" fill="none" style="opacity: 1;"></path><path  fill="black" stroke="black" d="M 0 0 0 0" transform="matrix(-0.9713349798279883,0.23771486483297888,-0.23771486483297888,-0.9713349798279883,1795,354.07000732421875)"></path><path  fill="#707070" stroke="#707070" d="M 20 0 L 0 10 L 20 20 z" id="v-1193" transform="matrix(0.04280681774016348,-0.9990833680704331,0.9990833680704331,0.04280681774016348,390.43916088603464,823.5719207767402)" style="opacity: 1;"></path><path  d="M 1795 354 L 416 692 C 409.33333333333326 693.3333333333333 405.99999999999994 697.3333333333333 406 704 L 400 824" id="v-1192" fill="none" style="cursor: default;"></path><g ><g id="v-1182"  label-idx="0" cursor="move" transform="matrix(1,0,0,1,1038.7894287109375,539.35107421875)" style="cursor: default; opacity: 1;"><rect joint-selector="rect" id="v-1186" fill="transparent" rx="3" ry="3" pointer-events="none" width="156.0625" height="55.5" transform="matrix(1,0,0,1,-78,-27.8)"></rect><text joint-selector="text" id="v-1185" font-size="24px" xml:space="preserve" y="0.8em" fill="#707070" text-anchor="middle" pointer-events="none" font-family="'DM Sans', DMSans, sans-serif" font-weight="normal" transform="matrix(1,0,0,1,0,-25.8)"><tspan dy="0" >Communicates</tspan><tspan dy="1.2em" x="0" >via API with</tspan></text></g><g id="v-1183"  label-idx="1" cursor="move" transform="matrix(1,0,0,1,1038.7894287109375,580.151123046875)" style="cursor: default; opacity: 1;"><rect joint-selector="rect" id="v-1188" fill="transparent" rx="3" ry="3" pointer-events="none" width="104.875" height="19.703125" transform="matrix(1,0,0,1,-52.4,-9.9)"></rect><text joint-selector="text" id="v-1187" font-size="17px" xml:space="preserve" y="0.8em" fill="#707070" text-anchor="middle" pointer-events="none" font-family="'DM Sans', DMSans, sans-serif" font-weight="normal" transform="matrix(1,0,0,1,0,-7.7)"><tspan dy="0" >[JSON REST]</tspan></text></g><g id="v-1184"  label-idx="2" cursor="move" transform="matrix(1,0,0,1,1028.7894287109375,588.5510864257812)" style="cursor: default; opacity: 1;"><rect joint-selector="rect" id="v-1190" fill="transparent" rx="3" ry="3"  width="0" height="0" transform="matrix(1,0,0,1,0,0)" display="none"></rect><text joint-selector="text" id="v-1189" fill="#000000" font-size="14" text-anchor="middle" pointer-events="none"></text></g></g><g  display="none"><g  transform="translate(406, 694)" id="v-1179"><circle  idx="0" r="10"></circle><path  idx="0" d="M16,5.333c-7.732,0-14,4.701-14,10.5c0,1.982,0.741,3.833,2.016,5.414L2,25.667l5.613-1.441c2.339,1.317,5.237,2.107,8.387,2.107c7.732,0,14-4.701,14-10.5C30,10.034,23.732,5.333,16,5.333z" transform="translate(5, -33)"></path><path  idx="0" transform="scale(.8) translate(9.5, -37)" d="M24.778,21.419 19.276,15.917 24.777,10.415 21.949,7.585 16.447,13.087 10.945,7.585 8.117,10.415 13.618,15.917 8.116,21.419 10.946,24.248 16.447,18.746 21.948,24.248z"><title>Remove vertex.</title></path></g></g><g  id="v-1195" display="none"><g  id="v-1180"><path  end="source" d="M 26 0 L 0 13 L 26 26 z"></path></g><g  id="v-1181"><path  end="target" d="M 26 0 L 0 13 L 26 26 z"></path></g></g><g  id="v-1194" display="none"><g  id="v-1178" transform="translate(1756.1499680013474, 363.52234286841525) "><g  event="remove"><circle r="11"></circle><path transform="scale(.8) translate(-16, -16)" d="M24.778,21.419 19.276,15.917 24.777,10.415 21.949,7.585 16.447,13.087 10.945,7.585 8.117,10.415 13.618,15.917 8.116,21.419 10.946,24.248 16.447,18.746 21.948,24.248z"></path><title>Remove link.</title></g><g  event="link:options"><circle r="11" transform="translate(25)"></circle><path fill="white" transform="scale(.55) translate(29, -16)" d="M31.229,17.736c0.064-0.571,0.104-1.148,0.104-1.736s-0.04-1.166-0.104-1.737l-4.377-1.557c-0.218-0.716-0.504-1.401-0.851-2.05l1.993-4.192c-0.725-0.91-1.549-1.734-2.458-2.459l-4.193,1.994c-0.647-0.347-1.334-0.632-2.049-0.849l-1.558-4.378C17.165,0.708,16.588,0.667,16,0.667s-1.166,0.041-1.737,0.105L12.707,5.15c-0.716,0.217-1.401,0.502-2.05,0.849L6.464,4.005C5.554,4.73,4.73,5.554,4.005,6.464l1.994,4.192c-0.347,0.648-0.632,1.334-0.849,2.05l-4.378,1.557C0.708,14.834,0.667,15.412,0.667,16s0.041,1.165,0.105,1.736l4.378,1.558c0.217,0.715,0.502,1.401,0.849,2.049l-1.994,4.193c0.725,0.909,1.549,1.733,2.459,2.458l4.192-1.993c0.648,0.347,1.334,0.633,2.05,0.851l1.557,4.377c0.571,0.064,1.148,0.104,1.737,0.104c0.588,0,1.165-0.04,1.736-0.104l1.558-4.377c0.715-0.218,1.399-0.504,2.049-0.851l4.193,1.993c0.909-0.725,1.733-1.549,2.458-2.458l-1.993-4.193c0.347-0.647,0.633-1.334,0.851-2.049L31.229,17.736zM16,20.871c-2.69,0-4.872-2.182-4.872-4.871c0-2.69,2.182-4.872,4.872-4.872c2.689,0,4.871,2.182,4.871,4.872C20.871,18.689,18.689,20.871,16,20.871z"></path><title>Link options.</title></g></g></g></g><!--z-index:46--><g   id="j_91" ><path  stroke="#707070" d="M 1895 449 L 1697 686 C 1693 691.3333333333333 1691 697.3333333333333 1691 704 L 1693 824" id="v-1212" stroke-width="2" stroke-dasharray="30 30" fill="none" style="opacity: 1;"></path><path  fill="black" stroke="black" d="M 0 0 0 0" transform="matrix(-0.6399869684731327,0.7683857626118338,-0.7683857626118338,-0.6399869684731327,1895.06005859375,449)"></path><path  fill="#707070" stroke="#707070" d="M 20 0 L 0 10 L 20 20 z" id="v-1214" transform="matrix(-0.01784329759771581,-0.9998407956924139,0.9998407956924139,-0.01784329759771581,1683.3216265815531,824.1784278469638)" style="opacity: 1;"></path><path  d="M 1895 449 L 1697 686 C 1693 691.3333333333333 1691 697.3333333333333 1691 704 L 1693 824" id="v-1213" fill="none" style="cursor: default;"></path><g ><g id="v-1203"  label-idx="0" cursor="move" transform="matrix(1,0,0,1,1751.334716796875,620.9629516601562)" style="cursor: default; opacity: 1;"><rect joint-selector="rect" id="v-1207" fill="transparent" rx="3" ry="3" pointer-events="none" width="156.0625" height="55.5" transform="matrix(1,0,0,1,-78,-27.8)"></rect><text joint-selector="text" id="v-1206" font-size="24px" xml:space="preserve" y="0.8em" fill="#707070" text-anchor="middle" pointer-events="none" font-family="'DM Sans', DMSans, sans-serif" font-weight="normal" transform="matrix(1,0,0,1,0,-25.8)"><tspan dy="0" >Communicates</tspan><tspan dy="1.2em" x="0" >via API with</tspan></text></g><g id="v-1204"  label-idx="1" cursor="move" transform="matrix(1,0,0,1,1751.334716796875,661.762939453125)" style="cursor: default; opacity: 1;"><rect joint-selector="rect" id="v-1209" fill="transparent" rx="3" ry="3" pointer-events="none" width="104.875" height="19.703125" transform="matrix(1,0,0,1,-52.4,-9.9)"></rect><text joint-selector="text" id="v-1208" font-size="17px" xml:space="preserve" y="0.8em" fill="#707070" text-anchor="middle" pointer-events="none" font-family="'DM Sans', DMSans, sans-serif" font-weight="normal" transform="matrix(1,0,0,1,0,-7.7)"><tspan dy="0" >[JSON REST]</tspan></text></g><g id="v-1205"  label-idx="2" cursor="move" transform="matrix(1,0,0,1,1741.334716796875,670.1629638671875)" style="cursor: default; opacity: 1;"><rect joint-selector="rect" id="v-1211" fill="transparent" rx="3" ry="3"  width="0" height="0" transform="matrix(1,0,0,1,0,0)" display="none"></rect><text joint-selector="text" id="v-1210" fill="#000000" font-size="14" text-anchor="middle" pointer-events="none"></text></g></g><g  display="none"><g  transform="translate(1691, 694)" id="v-1200"><circle  idx="0" r="10"></circle><path  idx="0" d="M16,5.333c-7.732,0-14,4.701-14,10.5c0,1.982,0.741,3.833,2.016,5.414L2,25.667l5.613-1.441c2.339,1.317,5.237,2.107,8.387,2.107c7.732,0,14-4.701,14-10.5C30,10.034,23.732,5.333,16,5.333z" transform="translate(5, -33)"></path><path  idx="0" transform="scale(.8) translate(9.5, -37)" d="M24.778,21.419 19.276,15.917 24.777,10.415 21.949,7.585 16.447,13.087 10.945,7.585 8.117,10.415 13.618,15.917 8.116,21.419 10.946,24.248 16.447,18.746 21.948,24.248z"><title>Remove vertex.</title></path></g></g><g  id="v-1216" display="none"><g  id="v-1201"><path  end="source" d="M 26 0 L 0 13 L 26 26 z"></path></g><g  id="v-1202"><path  end="target" d="M 26 0 L 0 13 L 26 26 z"></path></g></g><g  id="v-1215" display="none"><g  id="v-1199" transform="translate(1869.354423885997, 479.6969774697914) "><g  event="remove"><circle r="11"></circle><path transform="scale(.8) translate(-16, -16)" d="M24.778,21.419 19.276,15.917 24.777,10.415 21.949,7.585 16.447,13.087 10.945,7.585 8.117,10.415 13.618,15.917 8.116,21.419 10.946,24.248 16.447,18.746 21.948,24.248z"></path><title>Remove link.</title></g><g  event="link:options"><circle r="11" transform="translate(25)"></circle><path fill="white" transform="scale(.55) translate(29, -16)" d="M31.229,17.736c0.064-0.571,0.104-1.148,0.104-1.736s-0.04-1.166-0.104-1.737l-4.377-1.557c-0.218-0.716-0.504-1.401-0.851-2.05l1.993-4.192c-0.725-0.91-1.549-1.734-2.458-2.459l-4.193,1.994c-0.647-0.347-1.334-0.632-2.049-0.849l-1.558-4.378C17.165,0.708,16.588,0.667,16,0.667s-1.166,0.041-1.737,0.105L12.707,5.15c-0.716,0.217-1.401,0.502-2.05,0.849L6.464,4.005C5.554,4.73,4.73,5.554,4.005,6.464l1.994,4.192c-0.347,0.648-0.632,1.334-0.849,2.05l-4.378,1.557C0.708,14.834,0.667,15.412,0.667,16s0.041,1.165,0.105,1.736l4.378,1.558c0.217,0.715,0.502,1.401,0.849,2.049l-1.994,4.193c0.725,0.909,1.549,1.733,2.459,2.458l4.192-1.993c0.648,0.347,1.334,0.633,2.05,0.851l1.557,4.377c0.571,0.064,1.148,0.104,1.737,0.104c0.588,0,1.165-0.04,1.736-0.104l1.558-4.377c0.715-0.218,1.399-0.504,2.049-0.851l4.193,1.993c0.909-0.725,1.733-1.549,2.458-2.458l-1.993-4.193c0.347-0.647,0.633-1.334,0.851-2.049L31.229,17.736zM16,20.871c-2.69,0-4.872-2.182-4.872-4.871c0-2.69,2.182-4.872,4.872-4.872c2.689,0,4.871,2.182,4.871,4.872C20.871,18.689,18.689,20.871,16,20.871z"></path><title>Link options.</title></g></g></g></g><!--z-index:47--><g   id="j_92" ><path  stroke="#707070" d="M 1795 383 L 994 681 C 988 683 985 687.3333333333333 985 694 L 985 824" id="v-1233" stroke-width="2" stroke-dasharray="30 30" fill="none" style="opacity: 1;"></path><path  fill="black" stroke="black" d="M 0 0 0 0" transform="matrix(-0.9372578884927177,0.34863684609945095,-0.34863684609945095,-0.9372578884927177,1795,382.70001220703125)"></path><path  fill="#707070" stroke="#707070" d="M 20 0 L 0 10 L 20 20 z" id="v-1235" transform="matrix(-1.8369701987210297e-16,-1,1,-1.8369701987210297e-16,975,824)" style="opacity: 1;"></path><path  d="M 1795 383 L 994 681 C 988 683 985 687.3333333333333 985 694 L 985 824" id="v-1234" fill="none" style="cursor: default;"></path><g ><g id="v-1224"  label-idx="0" cursor="move" transform="matrix(1,0,0,1,1325.57373046875,557.6430053710938)" style="cursor: default; opacity: 1;"><rect joint-selector="rect" id="v-1228" fill="transparent" rx="3" ry="3" pointer-events="none" width="156.0625" height="55.5" transform="matrix(1,0,0,1,-78,-27.8)"></rect><text joint-selector="text" id="v-1227" font-size="24px" xml:space="preserve" y="0.8em" fill="#707070" text-anchor="middle" pointer-events="none" font-family="'DM Sans', DMSans, sans-serif" font-weight="normal" transform="matrix(1,0,0,1,0,-25.8)"><tspan dy="0" >Communicates</tspan><tspan dy="1.2em" x="0" >via API with</tspan></text></g><g id="v-1225"  label-idx="1" cursor="move" transform="matrix(1,0,0,1,1325.57373046875,598.4429931640625)" style="cursor: default; opacity: 1;"><rect joint-selector="rect" id="v-1230" fill="transparent" rx="3" ry="3" pointer-events="none" width="104.875" height="19.703125" transform="matrix(1,0,0,1,-52.4,-9.9)"></rect><text joint-selector="text" id="v-1229" font-size="17px" xml:space="preserve" y="0.8em" fill="#707070" text-anchor="middle" pointer-events="none" font-family="'DM Sans', DMSans, sans-serif" font-weight="normal" transform="matrix(1,0,0,1,0,-7.7)"><tspan dy="0" >[JSON REST]</tspan></text></g><g id="v-1226"  label-idx="2" cursor="move" transform="matrix(1,0,0,1,1315.57373046875,606.8429565429688)" style="cursor: default; opacity: 1;"><rect joint-selector="rect" id="v-1232" fill="transparent" rx="3" ry="3"  width="0" height="0" transform="matrix(1,0,0,1,0,0)" display="none"></rect><text joint-selector="text" id="v-1231" fill="#000000" font-size="14" text-anchor="middle" pointer-events="none"></text></g></g><g  display="none"><g  transform="translate(985, 684)" id="v-1221"><circle  idx="0" r="10"></circle><path  idx="0" d="M16,5.333c-7.732,0-14,4.701-14,10.5c0,1.982,0.741,3.833,2.016,5.414L2,25.667l5.613-1.441c2.339,1.317,5.237,2.107,8.387,2.107c7.732,0,14-4.701,14-10.5C30,10.034,23.732,5.333,16,5.333z" transform="translate(5, -33)"></path><path  idx="0" transform="scale(.8) translate(9.5, -37)" d="M24.778,21.419 19.276,15.917 24.777,10.415 21.949,7.585 16.447,13.087 10.945,7.585 8.117,10.415 13.618,15.917 8.116,21.419 10.946,24.248 16.447,18.746 21.948,24.248z"><title>Remove vertex.</title></path></g></g><g  id="v-1237" display="none"><g  id="v-1222"><path  end="source" d="M 26 0 L 0 13 L 26 26 z"></path></g><g  id="v-1223"><path  end="target" d="M 26 0 L 0 13 L 26 26 z"></path></g></g><g  id="v-1236" display="none"><g  id="v-1220" transform="translate(1757.5104145046676, 396.9474363016344) "><g  event="remove"><circle r="11"></circle><path transform="scale(.8) translate(-16, -16)" d="M24.778,21.419 19.276,15.917 24.777,10.415 21.949,7.585 16.447,13.087 10.945,7.585 8.117,10.415 13.618,15.917 8.116,21.419 10.946,24.248 16.447,18.746 21.948,24.248z"></path><title>Remove link.</title></g><g  event="link:options"><circle r="11" transform="translate(25)"></circle><path fill="white" transform="scale(.55) translate(29, -16)" d="M31.229,17.736c0.064-0.571,0.104-1.148,0.104-1.736s-0.04-1.166-0.104-1.737l-4.377-1.557c-0.218-0.716-0.504-1.401-0.851-2.05l1.993-4.192c-0.725-0.91-1.549-1.734-2.458-2.459l-4.193,1.994c-0.647-0.347-1.334-0.632-2.049-0.849l-1.558-4.378C17.165,0.708,16.588,0.667,16,0.667s-1.166,0.041-1.737,0.105L12.707,5.15c-0.716,0.217-1.401,0.502-2.05,0.849L6.464,4.005C5.554,4.73,4.73,5.554,4.005,6.464l1.994,4.192c-0.347,0.648-0.632,1.334-0.849,2.05l-4.378,1.557C0.708,14.834,0.667,15.412,0.667,16s0.041,1.165,0.105,1.736l4.378,1.558c0.217,0.715,0.502,1.401,0.849,2.049l-1.994,4.193c0.725,0.909,1.549,1.733,2.459,2.458l4.192-1.993c0.648,0.347,1.334,0.633,2.05,0.851l1.557,4.377c0.571,0.064,1.148,0.104,1.737,0.104c0.588,0,1.165-0.04,1.736-0.104l1.558-4.377c0.715-0.218,1.399-0.504,2.049-0.851l4.193,1.993c0.909-0.725,1.733-1.549,2.458-2.458l-1.993-4.193c0.347-0.647,0.633-1.334,0.851-2.049L31.229,17.736zM16,20.871c-2.69,0-4.872-2.182-4.872-4.871c0-2.69,2.182-4.872,4.872-4.872c2.689,0,4.871,2.182,4.871,4.872C20.871,18.689,18.689,20.871,16,20.871z"></path><title>Link options.</title></g></g></g></g><!--z-index:48--><g   id="j_93" ><path  stroke="#707070" d="M 2245 389 L 3030 701 C 3036 703.6666666666666 3039 708.3333333333333 3039 715 L 3043 824" id="v-1254" stroke-width="2" stroke-dasharray="30 30" fill="none" style="opacity: 1;"></path><path  fill="black" stroke="black" d="M 0 0 0 0" transform="matrix(0.9289801430905531,0.37012956345508996,-0.37012956345508996,0.9289801430905531,2245,388.6499938964844)"></path><path  fill="#707070" stroke="#707070" d="M 20 0 L 0 10 L 20 20 z" id="v-1256" transform="matrix(-0.033426563781529195,-0.9994411762749018,0.9994411762749018,-0.033426563781529195,3032.985605828191,824.3342926349393)" style="opacity: 1;"></path><path  d="M 2245 389 L 3030 701 C 3036 703.6666666666666 3039 708.3333333333333 3039 715 L 3043 824" id="v-1255" fill="none" style="cursor: default;"></path><g ><g id="v-1245"  label-idx="0" cursor="move" transform="matrix(1,0,0,1,2696.426025390625,568.4202880859375)" style="cursor: default; opacity: 1;"><rect joint-selector="rect" id="v-1249" fill="transparent" rx="3" ry="3" pointer-events="none" width="156.0625" height="55.5" transform="matrix(1,0,0,1,-78,-27.8)"></rect><text joint-selector="text" id="v-1248" font-size="24px" xml:space="preserve" y="0.8em" fill="#707070" text-anchor="middle" pointer-events="none" font-family="'DM Sans', DMSans, sans-serif" font-weight="normal" transform="matrix(1,0,0,1,0,-25.8)"><tspan dy="0" >Communicates</tspan><tspan dy="1.2em" x="0" >via API with</tspan></text></g><g id="v-1246"  label-idx="1" cursor="move" transform="matrix(1,0,0,1,2696.426025390625,609.2202758789062)" style="cursor: default; opacity: 1;"><rect joint-selector="rect" id="v-1251" fill="transparent" rx="3" ry="3" pointer-events="none" width="104.875" height="19.703125" transform="matrix(1,0,0,1,-52.4,-9.9)"></rect><text joint-selector="text" id="v-1250" font-size="17px" xml:space="preserve" y="0.8em" fill="#707070" text-anchor="middle" pointer-events="none" font-family="'DM Sans', DMSans, sans-serif" font-weight="normal" transform="matrix(1,0,0,1,0,-7.7)"><tspan dy="0" >[JSON REST]</tspan></text></g><g id="v-1247"  label-idx="2" cursor="move" transform="matrix(1,0,0,1,2686.426025390625,617.6203002929688)" style="cursor: default; opacity: 1;"><rect joint-selector="rect" id="v-1253" fill="transparent" rx="3" ry="3"  width="0" height="0" transform="matrix(1,0,0,1,0,0)" display="none"></rect><text joint-selector="text" id="v-1252" fill="#000000" font-size="14" text-anchor="middle" pointer-events="none"></text></g></g><g  display="none"><g  transform="translate(3039, 705)" id="v-1242"><circle  idx="0" r="10"></circle><path  idx="0" d="M16,5.333c-7.732,0-14,4.701-14,10.5c0,1.982,0.741,3.833,2.016,5.414L2,25.667l5.613-1.441c2.339,1.317,5.237,2.107,8.387,2.107c7.732,0,14-4.701,14-10.5C30,10.034,23.732,5.333,16,5.333z" transform="translate(5, -33)"></path><path  idx="0" transform="scale(.8) translate(9.5, -37)" d="M24.778,21.419 19.276,15.917 24.777,10.415 21.949,7.585 16.447,13.087 10.945,7.585 8.117,10.415 13.618,15.917 8.116,21.419 10.946,24.248 16.447,18.746 21.948,24.248z"><title>Remove vertex.</title></path></g></g><g  id="v-1258" display="none"><g  id="v-1243"><path  end="source" d="M 26 0 L 0 13 L 26 26 z"></path></g><g  id="v-1244"><path  end="target" d="M 26 0 L 0 13 L 26 26 z"></path></g></g><g  id="v-1257" display="none"><g  id="v-1241" transform="translate(2282.1716347274605, 403.77394908913084) "><g  event="remove"><circle r="11"></circle><path transform="scale(.8) translate(-16, -16)" d="M24.778,21.419 19.276,15.917 24.777,10.415 21.949,7.585 16.447,13.087 10.945,7.585 8.117,10.415 13.618,15.917 8.116,21.419 10.946,24.248 16.447,18.746 21.948,24.248z"></path><title>Remove link.</title></g><g  event="link:options"><circle r="11" transform="translate(25)"></circle><path fill="white" transform="scale(.55) translate(29, -16)" d="M31.229,17.736c0.064-0.571,0.104-1.148,0.104-1.736s-0.04-1.166-0.104-1.737l-4.377-1.557c-0.218-0.716-0.504-1.401-0.851-2.05l1.993-4.192c-0.725-0.91-1.549-1.734-2.458-2.459l-4.193,1.994c-0.647-0.347-1.334-0.632-2.049-0.849l-1.558-4.378C17.165,0.708,16.588,0.667,16,0.667s-1.166,0.041-1.737,0.105L12.707,5.15c-0.716,0.217-1.401,0.502-2.05,0.849L6.464,4.005C5.554,4.73,4.73,5.554,4.005,6.464l1.994,4.192c-0.347,0.648-0.632,1.334-0.849,2.05l-4.378,1.557C0.708,14.834,0.667,15.412,0.667,16s0.041,1.165,0.105,1.736l4.378,1.558c0.217,0.715,0.502,1.401,0.849,2.049l-1.994,4.193c0.725,0.909,1.549,1.733,2.459,2.458l4.192-1.993c0.648,0.347,1.334,0.633,2.05,0.851l1.557,4.377c0.571,0.064,1.148,0.104,1.737,0.104c0.588,0,1.165-0.04,1.736-0.104l1.558-4.377c0.715-0.218,1.399-0.504,2.049-0.851l4.193,1.993c0.909-0.725,1.733-1.549,2.458-2.458l-1.993-4.193c0.347-0.647,0.633-1.334,0.851-2.049L31.229,17.736zM16,20.871c-2.69,0-4.872-2.182-4.872-4.871c0-2.69,2.182-4.872,4.872-4.872c2.689,0,4.871,2.182,4.871,4.872C20.871,18.689,18.689,20.871,16,20.871z"></path><title>Link options.</title></g></g></g></g><!--z-index:49--><g   id="j_94" ><path  stroke="#707070" d="M 2131 449 L 2318 702 C 2322 707.3333333333333 2324 713.3333333333333 2324 720 L 2321 824" id="v-1275" stroke-width="2" stroke-dasharray="30 30" fill="none" style="opacity: 1;"></path><path  fill="black" stroke="black" d="M 0 0 0 0" transform="matrix(0.5946638742278785,0.8039744253944213,-0.8039744253944213,0.5946638742278785,2130.949951171875,449)"></path><path  fill="#707070" stroke="#707070" d="M 20 0 L 0 10 L 20 20 z" id="v-1277" transform="matrix(0.022713212828176385,-0.9997420217051106,0.9997420217051106,0.022713212828176385,2311.412654685917,823.7728515653318)" style="opacity: 1;"></path><path  d="M 2131 449 L 2318 702 C 2322 707.3333333333333 2324 713.3333333333333 2324 720 L 2321 824" id="v-1276" fill="none" style="cursor: default;"></path><g ><g id="v-1266"  label-idx="0" cursor="move" transform="matrix(1,0,0,1,2261.161376953125,625.1005859375)" style="cursor: default; opacity: 1;"><rect joint-selector="rect" id="v-1270" fill="transparent" rx="3" ry="3" pointer-events="none" width="156.0625" height="55.5" transform="matrix(1,0,0,1,-78,-27.8)"></rect><text joint-selector="text" id="v-1269" font-size="24px" xml:space="preserve" y="0.8em" fill="#707070" text-anchor="middle" pointer-events="none" font-family="'DM Sans', DMSans, sans-serif" font-weight="normal" transform="matrix(1,0,0,1,0,-25.8)"><tspan dy="0" >Communicates</tspan><tspan dy="1.2em" x="0" >via API with</tspan></text></g><g id="v-1267"  label-idx="1" cursor="move" transform="matrix(1,0,0,1,2261.161376953125,665.9005737304688)" style="cursor: default; opacity: 1;"><rect joint-selector="rect" id="v-1272" fill="transparent" rx="3" ry="3" pointer-events="none" width="104.875" height="19.703125" transform="matrix(1,0,0,1,-52.4,-9.9)"></rect><text joint-selector="text" id="v-1271" font-size="17px" xml:space="preserve" y="0.8em" fill="#707070" text-anchor="middle" pointer-events="none" font-family="'DM Sans', DMSans, sans-serif" font-weight="normal" transform="matrix(1,0,0,1,0,-7.7)"><tspan dy="0" >[JSON REST]</tspan></text></g><g id="v-1268"  label-idx="2" cursor="move" transform="matrix(1,0,0,1,2251.161376953125,674.300537109375)" style="cursor: default; opacity: 1;"><rect joint-selector="rect" id="v-1274" fill="transparent" rx="3" ry="3"  width="0" height="0" transform="matrix(1,0,0,1,0,0)" display="none"></rect><text joint-selector="text" id="v-1273" fill="#000000" font-size="14" text-anchor="middle" pointer-events="none"></text></g></g><g  display="none"><g  transform="translate(2324, 710)" id="v-1263"><circle  idx="0" r="10"></circle><path  idx="0" d="M16,5.333c-7.732,0-14,4.701-14,10.5c0,1.982,0.741,3.833,2.016,5.414L2,25.667l5.613-1.441c2.339,1.317,5.237,2.107,8.387,2.107c7.732,0,14-4.701,14-10.5C30,10.034,23.732,5.333,16,5.333z" transform="translate(5, -33)"></path><path  idx="0" transform="scale(.8) translate(9.5, -37)" d="M24.778,21.419 19.276,15.917 24.777,10.415 21.949,7.585 16.447,13.087 10.945,7.585 8.117,10.415 13.618,15.917 8.116,21.419 10.946,24.248 16.447,18.746 21.948,24.248z"><title>Remove vertex.</title></path></g></g><g  id="v-1279" display="none"><g  id="v-1264"><path  end="source" d="M 26 0 L 0 13 L 26 26 z"></path></g><g  id="v-1265"><path  end="target" d="M 26 0 L 0 13 L 26 26 z"></path></g></g><g  id="v-1278" display="none"><g  id="v-1262" transform="translate(2154.7756424433524, 481.167045658653) "><g  event="remove"><circle r="11"></circle><path transform="scale(.8) translate(-16, -16)" d="M24.778,21.419 19.276,15.917 24.777,10.415 21.949,7.585 16.447,13.087 10.945,7.585 8.117,10.415 13.618,15.917 8.116,21.419 10.946,24.248 16.447,18.746 21.948,24.248z"></path><title>Remove link.</title></g><g  event="link:options"><circle r="11" transform="translate(25)"></circle><path fill="white" transform="scale(.55) translate(29, -16)" d="M31.229,17.736c0.064-0.571,0.104-1.148,0.104-1.736s-0.04-1.166-0.104-1.737l-4.377-1.557c-0.218-0.716-0.504-1.401-0.851-2.05l1.993-4.192c-0.725-0.91-1.549-1.734-2.458-2.459l-4.193,1.994c-0.647-0.347-1.334-0.632-2.049-0.849l-1.558-4.378C17.165,0.708,16.588,0.667,16,0.667s-1.166,0.041-1.737,0.105L12.707,5.15c-0.716,0.217-1.401,0.502-2.05,0.849L6.464,4.005C5.554,4.73,4.73,5.554,4.005,6.464l1.994,4.192c-0.347,0.648-0.632,1.334-0.849,2.05l-4.378,1.557C0.708,14.834,0.667,15.412,0.667,16s0.041,1.165,0.105,1.736l4.378,1.558c0.217,0.715,0.502,1.401,0.849,2.049l-1.994,4.193c0.725,0.909,1.549,1.733,2.459,2.458l4.192-1.993c0.648,0.347,1.334,0.633,2.05,0.851l1.557,4.377c0.571,0.064,1.148,0.104,1.737,0.104c0.588,0,1.165-0.04,1.736-0.104l1.558-4.377c0.715-0.218,1.399-0.504,2.049-0.851l4.193,1.993c0.909-0.725,1.733-1.549,2.458-2.458l-1.993-4.193c0.347-0.647,0.633-1.334,0.851-2.049L31.229,17.736zM16,20.871c-2.69,0-4.872-2.182-4.872-4.871c0-2.69,2.182-4.872,4.872-4.872c2.689,0,4.871,2.182,4.871,4.872C20.871,18.689,18.689,20.871,16,20.871z"></path><title>Link options.</title></g></g></g></g><!--z-index:50--><g   id="j_95" ><path  stroke="#707070" d="M 2245 356 L 3615 707 C 3621.6666666666665 708.3333333333333 3625 712.3333333333333 3625 719 L 3625 824" id="v-1296" stroke-width="2" stroke-dasharray="30 30" fill="none" style="opacity: 1;"></path><path  fill="black" stroke="black" d="M 0 0 0 0" transform="matrix(0.968887481706356,0.2475016116972084,-0.2475016116972084,0.968887481706356,2245,356.4800109863281)"></path><path  fill="#707070" stroke="#707070" d="M 20 0 L 0 10 L 20 20 z" id="v-1298" transform="matrix(-1.8369701987210297e-16,-1,1,-1.8369701987210297e-16,3615,824)" style="opacity: 1;"></path><path  d="M 2245 356 L 3615 707 C 3621.6666666666665 708.3333333333333 3625 712.3333333333333 3625 719 L 3625 824" id="v-1297" fill="none" style="cursor: default;"></path><g ><g id="v-1287"  label-idx="0" cursor="move" transform="matrix(1,0,0,1,2989.1982421875,546.6668701171875)" style="cursor: default; opacity: 1;"><rect joint-selector="rect" id="v-1291" fill="transparent" rx="3" ry="3" pointer-events="none" width="156.0625" height="55.5" transform="matrix(1,0,0,1,-78,-27.8)"></rect><text joint-selector="text" id="v-1290" font-size="24px" xml:space="preserve" y="0.8em" fill="#707070" text-anchor="middle" pointer-events="none" font-family="'DM Sans', DMSans, sans-serif" font-weight="normal" transform="matrix(1,0,0,1,0,-25.8)"><tspan dy="0" >Communicates</tspan><tspan dy="1.2em" x="0" >via API with</tspan></text></g><g id="v-1288"  label-idx="1" cursor="move" transform="matrix(1,0,0,1,2989.1982421875,587.4668579101562)" style="cursor: default; opacity: 1;"><rect joint-selector="rect" id="v-1293" fill="transparent" rx="3" ry="3" pointer-events="none" width="104.875" height="19.703125" transform="matrix(1,0,0,1,-52.4,-9.9)"></rect><text joint-selector="text" id="v-1292" font-size="17px" xml:space="preserve" y="0.8em" fill="#707070" text-anchor="middle" pointer-events="none" font-family="'DM Sans', DMSans, sans-serif" font-weight="normal" transform="matrix(1,0,0,1,0,-7.7)"><tspan dy="0" >[JSON REST]</tspan></text></g><g id="v-1289"  label-idx="2" cursor="move" transform="matrix(1,0,0,1,2979.1982421875,595.8668212890625)" style="cursor: default; opacity: 1;"><rect joint-selector="rect" id="v-1295" fill="transparent" rx="3" ry="3"  width="0" height="0" transform="matrix(1,0,0,1,0,0)" display="none"></rect><text joint-selector="text" id="v-1294" fill="#000000" font-size="14" text-anchor="middle" pointer-events="none"></text></g></g><g  display="none"><g  transform="translate(3625, 709)" id="v-1284"><circle  idx="0" r="10"></circle><path  idx="0" d="M16,5.333c-7.732,0-14,4.701-14,10.5c0,1.982,0.741,3.833,2.016,5.414L2,25.667l5.613-1.441c2.339,1.317,5.237,2.107,8.387,2.107c7.732,0,14-4.701,14-10.5C30,10.034,23.732,5.333,16,5.333z" transform="translate(5, -33)"></path><path  idx="0" transform="scale(.8) translate(9.5, -37)" d="M24.778,21.419 19.276,15.917 24.777,10.415 21.949,7.585 16.447,13.087 10.945,7.585 8.117,10.415 13.618,15.917 8.116,21.419 10.946,24.248 16.447,18.746 21.948,24.248z"><title>Remove vertex.</title></path></g></g><g  id="v-1300" display="none"><g  id="v-1285"><path  end="source" d="M 26 0 L 0 13 L 26 26 z"></path></g><g  id="v-1286"><path  end="target" d="M 26 0 L 0 13 L 26 26 z"></path></g></g><g  id="v-1299" display="none"><g  id="v-1283" transform="translate(2283.748473222426, 365.92752854092805) "><g  event="remove"><circle r="11"></circle><path transform="scale(.8) translate(-16, -16)" d="M24.778,21.419 19.276,15.917 24.777,10.415 21.949,7.585 16.447,13.087 10.945,7.585 8.117,10.415 13.618,15.917 8.116,21.419 10.946,24.248 16.447,18.746 21.948,24.248z"></path><title>Remove link.</title></g><g  event="link:options"><circle r="11" transform="translate(25)"></circle><path fill="white" transform="scale(.55) translate(29, -16)" d="M31.229,17.736c0.064-0.571,0.104-1.148,0.104-1.736s-0.04-1.166-0.104-1.737l-4.377-1.557c-0.218-0.716-0.504-1.401-0.851-2.05l1.993-4.192c-0.725-0.91-1.549-1.734-2.458-2.459l-4.193,1.994c-0.647-0.347-1.334-0.632-2.049-0.849l-1.558-4.378C17.165,0.708,16.588,0.667,16,0.667s-1.166,0.041-1.737,0.105L12.707,5.15c-0.716,0.217-1.401,0.502-2.05,0.849L6.464,4.005C5.554,4.73,4.73,5.554,4.005,6.464l1.994,4.192c-0.347,0.648-0.632,1.334-0.849,2.05l-4.378,1.557C0.708,14.834,0.667,15.412,0.667,16s0.041,1.165,0.105,1.736l4.378,1.558c0.217,0.715,0.502,1.401,0.849,2.049l-1.994,4.193c0.725,0.909,1.549,1.733,2.459,2.458l4.192-1.993c0.648,0.347,1.334,0.633,2.05,0.851l1.557,4.377c0.571,0.064,1.148,0.104,1.737,0.104c0.588,0,1.165-0.04,1.736-0.104l1.558-4.377c0.715-0.218,1.399-0.504,2.049-0.851l4.193,1.993c0.909-0.725,1.733-1.549,2.458-2.458l-1.993-4.193c0.347-0.647,0.633-1.334,0.851-2.049L31.229,17.736zM16,20.871c-2.69,0-4.872-2.182-4.872-4.871c0-2.69,2.182-4.872,4.872-4.872c2.689,0,4.871,2.182,4.871,4.872C20.871,18.689,18.689,20.871,16,20.871z"></path><title>Link options.</title></g></g></g></g><!--z-index:51--><g   id="j_96" ><path  stroke="#707070" d="M 1696 1124 L 1696 1325" id="v-1313" stroke-width="2" stroke-dasharray="30 30" fill="none" style="opacity: 1;"></path><path  fill="black" stroke="black" d="M 0 0 0 0" transform="matrix(6.123233995736766e-17,1,-1,6.123233995736766e-17,1696,1124)"></path><path  fill="#707070" stroke="#707070" d="M 20 0 L 0 10 L 20 20 z" id="v-1315" transform="matrix(-1.8369701987210297e-16,-1,1,-1.8369701987210297e-16,1686,1325)" style="opacity: 1;"></path><path  d="M 1696 1124 L 1696 1325" id="v-1314" fill="none" style="cursor: default;"></path><g ><g id="v-1307"  label-idx="0" cursor="move" transform="matrix(1,0,0,1,1696,1224.5)" style="cursor: default; opacity: 1;"><rect joint-selector="rect" id="v-1310" fill="transparent" rx="3" ry="3" pointer-events="none" width="157.46875" height="55.5" transform="matrix(1,0,0,1,-78.7,-27.8)"></rect><text joint-selector="text" id="v-1309" font-size="24px" xml:space="preserve" y="0.8em" fill="#707070" text-anchor="middle" pointer-events="none" font-family="'DM Sans', DMSans, sans-serif" font-weight="normal" transform="matrix(1,0,0,1,0,-25.8)"><tspan dy="0" >Will become</tspan><tspan dy="1.2em" x="0" >after double entry</tspan></text></g><g id="v-1308"  label-idx="1" cursor="move" transform="matrix(1,0,0,1,1686,1265.300048828125)" style="cursor: default; opacity: 1;"><rect joint-selector="rect" id="v-1312" fill="transparent" rx="3" ry="3"  width="0" height="0" transform="matrix(1,0,0,1,0,0)" display="none"></rect><text joint-selector="text" id="v-1311" fill="#000000" font-size="14" text-anchor="middle" pointer-events="none"></text></g></g><g  display="none"></g><g  id="v-1317" display="none"><g  id="v-1305"><path  end="source" d="M 26 0 L 0 13 L 26 26 z"></path></g><g  id="v-1306"><path  end="target" d="M 26 0 L 0 13 L 26 26 z"></path></g></g><g  id="v-1316" display="none"><g  id="v-1304" transform="translate(1696, 1164) "><g  event="remove"><circle r="11"></circle><path transform="scale(.8) translate(-16, -16)" d="M24.778,21.419 19.276,15.917 24.777,10.415 21.949,7.585 16.447,13.087 10.945,7.585 8.117,10.415 13.618,15.917 8.116,21.419 10.946,24.248 16.447,18.746 21.948,24.248z"></path><title>Remove link.</title></g><g  event="link:options"><circle r="11" transform="translate(25)"></circle><path fill="white" transform="scale(.55) translate(29, -16)" d="M31.229,17.736c0.064-0.571,0.104-1.148,0.104-1.736s-0.04-1.166-0.104-1.737l-4.377-1.557c-0.218-0.716-0.504-1.401-0.851-2.05l1.993-4.192c-0.725-0.91-1.549-1.734-2.458-2.459l-4.193,1.994c-0.647-0.347-1.334-0.632-2.049-0.849l-1.558-4.378C17.165,0.708,16.588,0.667,16,0.667s-1.166,0.041-1.737,0.105L12.707,5.15c-0.716,0.217-1.401,0.502-2.05,0.849L6.464,4.005C5.554,4.73,4.73,5.554,4.005,6.464l1.994,4.192c-0.347,0.648-0.632,1.334-0.849,2.05l-4.378,1.557C0.708,14.834,0.667,15.412,0.667,16s0.041,1.165,0.105,1.736l4.378,1.558c0.217,0.715,0.502,1.401,0.849,2.049l-1.994,4.193c0.725,0.909,1.549,1.733,2.459,2.458l4.192-1.993c0.648,0.347,1.334,0.633,2.05,0.851l1.557,4.377c0.571,0.064,1.148,0.104,1.737,0.104c0.588,0,1.165-0.04,1.736-0.104l1.558-4.377c0.715-0.218,1.399-0.504,2.049-0.851l4.193,1.993c0.909-0.725,1.733-1.549,2.458-2.458l-1.993-4.193c0.347-0.647,0.633-1.334,0.851-2.049L31.229,17.736zM16,20.871c-2.69,0-4.872-2.182-4.872-4.871c0-2.69,2.182-4.872,4.872-4.872c2.689,0,4.871,2.182,4.871,4.872C20.871,18.689,18.689,20.871,16,20.871z"></path><title>Link options.</title></g></g></g></g><!--z-index:52--><g   id="j_97" ><path  stroke="#707070" d="M 1483 1124 L 1198 1324" id="v-1330" stroke-width="2" stroke-dasharray="30 30" fill="none" style="opacity: 1;"></path><path  fill="black" stroke="black" d="M 0 0 0 0" transform="matrix(-0.8179868428145377,0.5752369294319556,-0.5752369294319556,-0.8179868428145377,1482.699951171875,1124)"></path><path  fill="#707070" stroke="#707070" d="M 20 0 L 0 10 L 20 20 z" id="v-1332" transform="matrix(0.8179869960093699,-0.5752367115888617,0.5752367115888617,0.8179869960093699,1192.5476213224551,1315.8201778198575)" style="opacity: 1;"></path><path  d="M 1483 1124 L 1198 1324" id="v-1331" fill="none" style="cursor: default;"></path><g ><g id="v-1324"  label-idx="0" cursor="move" transform="matrix(1,0,0,1,1340.5,1224)" style="cursor: default; opacity: 1;"><rect joint-selector="rect" id="v-1327" fill="transparent" rx="3" ry="3" pointer-events="none" width="150.75" height="55.5" transform="matrix(1,0,0,1,-75.4,-27.8)"></rect><text joint-selector="text" id="v-1326" font-size="24px" xml:space="preserve" y="0.8em" fill="#707070" text-anchor="middle" pointer-events="none" font-family="'DM Sans', DMSans, sans-serif" font-weight="normal" transform="matrix(1,0,0,1,0,-25.8)"><tspan dy="0" >Makes use of</tspan></text></g><g id="v-1325"  label-idx="1" cursor="move" transform="matrix(1,0,0,1,1330.5,1264.800048828125)" style="cursor: default; opacity: 1;"><rect joint-selector="rect" id="v-1329" fill="transparent" rx="3" ry="3"  width="0" height="0" transform="matrix(1,0,0,1,0,0)" display="none"></rect><text joint-selector="text" id="v-1328" fill="#000000" font-size="14" text-anchor="middle" pointer-events="none"></text></g></g><g  display="none"></g><g  id="v-1334" display="none"><g  id="v-1322"><path  end="source" d="M 26 0 L 0 13 L 26 26 z"></path></g><g  id="v-1323"><path  end="target" d="M 26 0 L 0 13 L 26 26 z"></path></g></g><g  id="v-1333" display="none"><g  id="v-1321" transform="translate(1450.2577323015037, 1146.9770299638571) "><g  event="remove"><circle r="11"></circle><path transform="scale(.8) translate(-16, -16)" d="M24.778,21.419 19.276,15.917 24.777,10.415 21.949,7.585 16.447,13.087 10.945,7.585 8.117,10.415 13.618,15.917 8.116,21.419 10.946,24.248 16.447,18.746 21.948,24.248z"></path><title>Remove link.</title></g><g  event="link:options"><circle r="11" transform="translate(25)"></circle><path fill="white" transform="scale(.55) translate(29, -16)" d="M31.229,17.736c0.064-0.571,0.104-1.148,0.104-1.736s-0.04-1.166-0.104-1.737l-4.377-1.557c-0.218-0.716-0.504-1.401-0.851-2.05l1.993-4.192c-0.725-0.91-1.549-1.734-2.458-2.459l-4.193,1.994c-0.647-0.347-1.334-0.632-2.049-0.849l-1.558-4.378C17.165,0.708,16.588,0.667,16,0.667s-1.166,0.041-1.737,0.105L12.707,5.15c-0.716,0.217-1.401,0.502-2.05,0.849L6.464,4.005C5.554,4.73,4.73,5.554,4.005,6.464l1.994,4.192c-0.347,0.648-0.632,1.334-0.849,2.05l-4.378,1.557C0.708,14.834,0.667,15.412,0.667,16s0.041,1.165,0.105,1.736l4.378,1.558c0.217,0.715,0.502,1.401,0.849,2.049l-1.994,4.193c0.725,0.909,1.549,1.733,2.459,2.458l4.192-1.993c0.648,0.347,1.334,0.633,2.05,0.851l1.557,4.377c0.571,0.064,1.148,0.104,1.737,0.104c0.588,0,1.165-0.04,1.736-0.104l1.558-4.377c0.715-0.218,1.399-0.504,2.049-0.851l4.193,1.993c0.909-0.725,1.733-1.549,2.458-2.458l-1.993-4.193c0.347-0.647,0.633-1.334,0.851-2.049L31.229,17.736zM16,20.871c-2.69,0-4.872-2.182-4.872-4.871c0-2.69,2.182-4.872,4.872-4.872c2.689,0,4.871,2.182,4.871,4.872C20.871,18.689,18.689,20.871,16,20.871z"></path><title>Link options.</title></g></g></g></g><!--z-index:53--><g   id="j_98" ><path  stroke="#707070" d="M 2823 974 L 2543 974" id="v-1347" stroke-width="2" stroke-dasharray="30 30" fill="none" style="opacity: 1;"></path><path  fill="black" stroke="black" d="M 0 0 0 0" transform="matrix(-1,1.2246467991473532e-16,-1.2246467991473532e-16,-1,2823,974)"></path><path  fill="#707070" stroke="#707070" d="M 20 0 L 0 10 L 20 20 z" id="v-1349" transform="matrix(1,0,0,1,2543,964)" style="opacity: 1;"></path><path  d="M 2823 974 L 2543 974" id="v-1348" fill="none" style="cursor: default;"></path><g ><g id="v-1341"  label-idx="0" cursor="move" transform="matrix(1,0,0,1,2683,974)" style="cursor: default; opacity: 1;"><rect joint-selector="rect" id="v-1344" fill="transparent" rx="3" ry="3" pointer-events="none" width="181.46875" height="113.09375" transform="matrix(1,0,0,1,-90.7,-56.6)"></rect><text joint-selector="text" id="v-1343" font-size="24px" xml:space="preserve" y="0.8em" fill="#707070" text-anchor="middle" pointer-events="none" font-family="'DM Sans', DMSans, sans-serif" font-weight="normal" transform="matrix(1,0,0,1,0,-54.6)"><tspan dy="0" >Makes use of</tspan><tspan dy="1.2em" x="0" >seat division and</tspan><tspan dy="1.2em" x="0" >counting results</tspan></text></g><g id="v-1342"  label-idx="1" cursor="move" transform="matrix(1,0,0,1,2673,1043.5999755859375)" style="cursor: default; opacity: 1;"><rect joint-selector="rect" id="v-1346" fill="transparent" rx="3" ry="3"  width="0" height="0" transform="matrix(1,0,0,1,0,0)" display="none"></rect><text joint-selector="text" id="v-1345" fill="#000000" font-size="14" text-anchor="middle" pointer-events="none"></text></g></g><g  display="none"></g><g  id="v-1351" display="none"><g  id="v-1339"><path  end="source" d="M 26 0 L 0 13 L 26 26 z"></path></g><g  id="v-1340"><path  end="target" d="M 26 0 L 0 13 L 26 26 z"></path></g></g><g  id="v-1350" display="none"><g  id="v-1338" transform="translate(2783, 974) "><g  event="remove"><circle r="11"></circle><path transform="scale(.8) translate(-16, -16)" d="M24.778,21.419 19.276,15.917 24.777,10.415 21.949,7.585 16.447,13.087 10.945,7.585 8.117,10.415 13.618,15.917 8.116,21.419 10.946,24.248 16.447,18.746 21.948,24.248z"></path><title>Remove link.</title></g><g  event="link:options"><circle r="11" transform="translate(25)"></circle><path fill="white" transform="scale(.55) translate(29, -16)" d="M31.229,17.736c0.064-0.571,0.104-1.148,0.104-1.736s-0.04-1.166-0.104-1.737l-4.377-1.557c-0.218-0.716-0.504-1.401-0.851-2.05l1.993-4.192c-0.725-0.91-1.549-1.734-2.458-2.459l-4.193,1.994c-0.647-0.347-1.334-0.632-2.049-0.849l-1.558-4.378C17.165,0.708,16.588,0.667,16,0.667s-1.166,0.041-1.737,0.105L12.707,5.15c-0.716,0.217-1.401,0.502-2.05,0.849L6.464,4.005C5.554,4.73,4.73,5.554,4.005,6.464l1.994,4.192c-0.347,0.648-0.632,1.334-0.849,2.05l-4.378,1.557C0.708,14.834,0.667,15.412,0.667,16s0.041,1.165,0.105,1.736l4.378,1.558c0.217,0.715,0.502,1.401,0.849,2.049l-1.994,4.193c0.725,0.909,1.549,1.733,2.459,2.458l4.192-1.993c0.648,0.347,1.334,0.633,2.05,0.851l1.557,4.377c0.571,0.064,1.148,0.104,1.737,0.104c0.588,0,1.165-0.04,1.736-0.104l1.558-4.377c0.715-0.218,1.399-0.504,2.049-0.851l4.193,1.993c0.909-0.725,1.733-1.549,2.458-2.458l-1.993-4.193c0.347-0.647,0.633-1.334,0.851-2.049L31.229,17.736zM16,20.871c-2.69,0-4.872-2.182-4.872-4.871c0-2.69,2.182-4.872,4.872-4.872c2.689,0,4.871,2.182,4.871,4.872C20.871,18.689,18.689,20.871,16,20.871z"></path><title>Link options.</title></g></g></g></g><!--z-index:54--><g   id="j_99" ><path  stroke="#707070" d="M 2829 1124 L 2537 1325" id="v-1364" stroke-width="2" stroke-dasharray="30 30" fill="none" style="opacity: 1;"></path><path  fill="black" stroke="black" d="M 0 0 0 0" transform="matrix(-0.8245082373613793,0.5658499505374471,-0.5658499505374471,-0.8245082373613793,2829.43994140625,1124)"></path><path  fill="#707070" stroke="#707070" d="M 20 0 L 0 10 L 20 20 z" id="v-1366" transform="matrix(0.8245082373613796,-0.5658499505374468,0.5658499505374468,0.8245082373613796,2530.9015939022615,1316.7549698661358)" style="opacity: 1;"></path><path  d="M 2829 1124 L 2537 1325" id="v-1365" fill="none" style="cursor: default;"></path><g ><g id="v-1358"  label-idx="0" cursor="move" transform="matrix(1,0,0,1,2683,1224.5)" style="cursor: default; opacity: 1;"><rect joint-selector="rect" id="v-1361" fill="transparent" rx="3" ry="3" pointer-events="none" width="150.75" height="55.5" transform="matrix(1,0,0,1,-75.4,-27.8)"></rect><text joint-selector="text" id="v-1360" font-size="24px" xml:space="preserve" y="0.8em" fill="#707070" text-anchor="middle" pointer-events="none" font-family="'DM Sans', DMSans, sans-serif" font-weight="normal" transform="matrix(1,0,0,1,0,-25.8)"><tspan dy="0" >Makes use of</tspan></text></g><g id="v-1359"  label-idx="1" cursor="move" transform="matrix(1,0,0,1,2673,1265.300048828125)" style="cursor: default; opacity: 1;"><rect joint-selector="rect" id="v-1363" fill="transparent" rx="3" ry="3"  width="0" height="0" transform="matrix(1,0,0,1,0,0)" display="none"></rect><text joint-selector="text" id="v-1362" fill="#000000" font-size="14" text-anchor="middle" pointer-events="none"></text></g></g><g  display="none"></g><g  id="v-1368" display="none"><g  id="v-1356"><path  end="source" d="M 26 0 L 0 13 L 26 26 z"></path></g><g  id="v-1357"><path  end="target" d="M 26 0 L 0 13 L 26 26 z"></path></g></g><g  id="v-1367" display="none"><g  id="v-1355" transform="translate(2796.0514979422637, 1146.680304498647) "><g  event="remove"><circle r="11"></circle><path transform="scale(.8) translate(-16, -16)" d="M24.778,21.419 19.276,15.917 24.777,10.415 21.949,7.585 16.447,13.087 10.945,7.585 8.117,10.415 13.618,15.917 8.116,21.419 10.946,24.248 16.447,18.746 21.948,24.248z"></path><title>Remove link.</title></g><g  event="link:options"><circle r="11" transform="translate(25)"></circle><path fill="white" transform="scale(.55) translate(29, -16)" d="M31.229,17.736c0.064-0.571,0.104-1.148,0.104-1.736s-0.04-1.166-0.104-1.737l-4.377-1.557c-0.218-0.716-0.504-1.401-0.851-2.05l1.993-4.192c-0.725-0.91-1.549-1.734-2.458-2.459l-4.193,1.994c-0.647-0.347-1.334-0.632-2.049-0.849l-1.558-4.378C17.165,0.708,16.588,0.667,16,0.667s-1.166,0.041-1.737,0.105L12.707,5.15c-0.716,0.217-1.401,0.502-2.05,0.849L6.464,4.005C5.554,4.73,4.73,5.554,4.005,6.464l1.994,4.192c-0.347,0.648-0.632,1.334-0.849,2.05l-4.378,1.557C0.708,14.834,0.667,15.412,0.667,16s0.041,1.165,0.105,1.736l4.378,1.558c0.217,0.715,0.502,1.401,0.849,2.049l-1.994,4.193c0.725,0.909,1.549,1.733,2.459,2.458l4.192-1.993c0.648,0.347,1.334,0.633,2.05,0.851l1.557,4.377c0.571,0.064,1.148,0.104,1.737,0.104c0.588,0,1.165-0.04,1.736-0.104l1.558-4.377c0.715-0.218,1.399-0.504,2.049-0.851l4.193,1.993c0.909-0.725,1.733-1.549,2.458-2.458l-1.993-4.193c0.347-0.647,0.633-1.334,0.851-2.049L31.229,17.736zM16,20.871c-2.69,0-4.872-2.182-4.872-4.871c0-2.69,2.182-4.872,4.872-4.872c2.689,0,4.871,2.182,4.871,4.872C20.871,18.689,18.689,20.871,16,20.871z"></path><title>Link options.</title></g></g></g></g><!--z-index:55--><g   id="j_100" ><path  stroke="#707070" d="M 3048 1124 L 3048 1325" id="v-1381" stroke-width="2" stroke-dasharray="30 30" fill="none" style="opacity: 1;"></path><path  fill="black" stroke="black" d="M 0 0 0 0" transform="matrix(6.123233995736766e-17,1,-1,6.123233995736766e-17,3048,1124)"></path><path  fill="#707070" stroke="#707070" d="M 20 0 L 0 10 L 20 20 z" id="v-1383" transform="matrix(-1.8369701987210297e-16,-1,1,-1.8369701987210297e-16,3038,1325)" style="opacity: 1;"></path><path  d="M 3048 1124 L 3048 1325" id="v-1382" fill="none" style="cursor: default;"></path><g ><g id="v-1375"  label-idx="0" cursor="move" transform="matrix(1,0,0,1,3048,1224.5)" style="cursor: default; opacity: 1;"><rect joint-selector="rect" id="v-1378" fill="transparent" rx="3" ry="3" pointer-events="none" width="150.75" height="55.5" transform="matrix(1,0,0,1,-75.4,-27.8)"></rect><text joint-selector="text" id="v-1377" font-size="24px" xml:space="preserve" y="0.8em" fill="#707070" text-anchor="middle" pointer-events="none" font-family="'DM Sans', DMSans, sans-serif" font-weight="normal" transform="matrix(1,0,0,1,0,-25.8)"><tspan dy="0" >Makes use of</tspan></text></g><g id="v-1376"  label-idx="1" cursor="move" transform="matrix(1,0,0,1,3038,1265.300048828125)" style="cursor: default; opacity: 1;"><rect joint-selector="rect" id="v-1380" fill="transparent" rx="3" ry="3"  width="0" height="0" transform="matrix(1,0,0,1,0,0)" display="none"></rect><text joint-selector="text" id="v-1379" fill="#000000" font-size="14" text-anchor="middle" pointer-events="none"></text></g></g><g  display="none"></g><g  id="v-1385" display="none"><g  id="v-1373"><path  end="source" d="M 26 0 L 0 13 L 26 26 z"></path></g><g  id="v-1374"><path  end="target" d="M 26 0 L 0 13 L 26 26 z"></path></g></g><g  id="v-1384" display="none"><g  id="v-1372" transform="translate(3048, 1164) "><g  event="remove"><circle r="11"></circle><path transform="scale(.8) translate(-16, -16)" d="M24.778,21.419 19.276,15.917 24.777,10.415 21.949,7.585 16.447,13.087 10.945,7.585 8.117,10.415 13.618,15.917 8.116,21.419 10.946,24.248 16.447,18.746 21.948,24.248z"></path><title>Remove link.</title></g><g  event="link:options"><circle r="11" transform="translate(25)"></circle><path fill="white" transform="scale(.55) translate(29, -16)" d="M31.229,17.736c0.064-0.571,0.104-1.148,0.104-1.736s-0.04-1.166-0.104-1.737l-4.377-1.557c-0.218-0.716-0.504-1.401-0.851-2.05l1.993-4.192c-0.725-0.91-1.549-1.734-2.458-2.459l-4.193,1.994c-0.647-0.347-1.334-0.632-2.049-0.849l-1.558-4.378C17.165,0.708,16.588,0.667,16,0.667s-1.166,0.041-1.737,0.105L12.707,5.15c-0.716,0.217-1.401,0.502-2.05,0.849L6.464,4.005C5.554,4.73,4.73,5.554,4.005,6.464l1.994,4.192c-0.347,0.648-0.632,1.334-0.849,2.05l-4.378,1.557C0.708,14.834,0.667,15.412,0.667,16s0.041,1.165,0.105,1.736l4.378,1.558c0.217,0.715,0.502,1.401,0.849,2.049l-1.994,4.193c0.725,0.909,1.549,1.733,2.459,2.458l4.192-1.993c0.648,0.347,1.334,0.633,2.05,0.851l1.557,4.377c0.571,0.064,1.148,0.104,1.737,0.104c0.588,0,1.165-0.04,1.736-0.104l1.558-4.377c0.715-0.218,1.399-0.504,2.049-0.851l4.193,1.993c0.909-0.725,1.733-1.549,2.458-2.458l-1.993-4.193c0.347-0.647,0.633-1.334,0.851-2.049L31.229,17.736zM16,20.871c-2.69,0-4.872-2.182-4.872-4.871c0-2.69,2.182-4.872,4.872-4.872c2.689,0,4.871,2.182,4.871,4.872C20.871,18.689,18.689,20.871,16,20.871z"></path><title>Link options.</title></g></g></g></g><!--z-index:56--><g   id="j_101" ><path  stroke="#707070" d="M 2823 1069 L 2428 1236 C 2422 1238.6666666666665 2415.6666666666665 1240 2409 1240 L 2169 1250 C 2162.333333333333 1250 2156 1251.3333333333333 2150 1254 L 1921 1366" id="v-1400" stroke-width="2" stroke-dasharray="30 30" fill="none" style="opacity: 1;"></path><path  fill="black" stroke="black" d="M 0 0 0 0" transform="matrix(-0.9210270241873263,0.3894986787097463,-0.3894986787097463,-0.9210270241873263,2823,1069.1500244140625)"></path><path  fill="#707070" stroke="#707070" d="M 20 0 L 0 10 L 20 20 z" id="v-1402" transform="matrix(0.8994191179885602,-0.4370872340811161,0.4370872340811161,0.8994191179885602,1916.6290771043032,1356.665865731238)" style="opacity: 1;"></path><path  d="M 2823 1069 L 2428 1236 C 2422 1238.6666666666665 2415.6666666666665 1240 2409 1240 L 2169 1250 C 2162.333333333333 1250 2156 1251.3333333333333 2150 1254 L 1921 1366" id="v-1401" fill="none" style="cursor: default;"></path><g ><g id="v-1394"  label-idx="0" cursor="move" transform="matrix(1,0,0,1,2375.889892578125,1241.379638671875)" style="cursor: default; opacity: 1;"><rect joint-selector="rect" id="v-1397" fill="transparent" rx="3" ry="3" pointer-events="none" width="150.75" height="55.5" transform="matrix(1,0,0,1,-75.4,-27.8)"></rect><text joint-selector="text" id="v-1396" font-size="24px" xml:space="preserve" y="0.8em" fill="#707070" text-anchor="middle" pointer-events="none" font-family="'DM Sans', DMSans, sans-serif" font-weight="normal" transform="matrix(1,0,0,1,0,-25.8)"><tspan dy="0" >Makes use of</tspan></text></g><g id="v-1395"  label-idx="1" cursor="move" transform="matrix(1,0,0,1,2365.889892578125,1282.1795654296875)" style="cursor: default; opacity: 1;"><rect joint-selector="rect" id="v-1399" fill="transparent" rx="3" ry="3"  width="0" height="0" transform="matrix(1,0,0,1,0,0)" display="none"></rect><text joint-selector="text" id="v-1398" fill="#000000" font-size="14" text-anchor="middle" pointer-events="none"></text></g></g><g  display="none"><g  transform="translate(2419, 1240)" id="v-1390"><circle  idx="0" r="10"></circle><path  idx="0" d="M16,5.333c-7.732,0-14,4.701-14,10.5c0,1.982,0.741,3.833,2.016,5.414L2,25.667l5.613-1.441c2.339,1.317,5.237,2.107,8.387,2.107c7.732,0,14-4.701,14-10.5C30,10.034,23.732,5.333,16,5.333z" transform="translate(5, -33)"></path><path  idx="0" transform="scale(.8) translate(9.5, -37)" d="M24.778,21.419 19.276,15.917 24.777,10.415 21.949,7.585 16.447,13.087 10.945,7.585 8.117,10.415 13.618,15.917 8.116,21.419 10.946,24.248 16.447,18.746 21.948,24.248z"><title>Remove vertex.</title></path></g><g  transform="translate(2159, 1250)" id="v-1391"><circle  idx="1" r="10"></circle><path  idx="1" d="M16,5.333c-7.732,0-14,4.701-14,10.5c0,1.982,0.741,3.833,2.016,5.414L2,25.667l5.613-1.441c2.339,1.317,5.237,2.107,8.387,2.107c7.732,0,14-4.701,14-10.5C30,10.034,23.732,5.333,16,5.333z" transform="translate(5, -33)"></path><path  idx="1" transform="scale(.8) translate(9.5, -37)" d="M24.778,21.419 19.276,15.917 24.777,10.415 21.949,7.585 16.447,13.087 10.945,7.585 8.117,10.415 13.618,15.917 8.116,21.419 10.946,24.248 16.447,18.746 21.948,24.248z"><title>Remove vertex.</title></path></g></g><g  id="v-1404" display="none"><g  id="v-1392"><path  end="source" d="M 26 0 L 0 13 L 26 26 z"></path></g><g  id="v-1393"><path  end="target" d="M 26 0 L 0 13 L 26 26 z"></path></g></g><g  id="v-1403" display="none"><g  id="v-1389" transform="translate(2786.1574491242645, 1084.5764708765769) "><g  event="remove"><circle r="11"></circle><path transform="scale(.8) translate(-16, -16)" d="M24.778,21.419 19.276,15.917 24.777,10.415 21.949,7.585 16.447,13.087 10.945,7.585 8.117,10.415 13.618,15.917 8.116,21.419 10.946,24.248 16.447,18.746 21.948,24.248z"></path><title>Remove link.</title></g><g  event="link:options"><circle r="11" transform="translate(25)"></circle><path fill="white" transform="scale(.55) translate(29, -16)" d="M31.229,17.736c0.064-0.571,0.104-1.148,0.104-1.736s-0.04-1.166-0.104-1.737l-4.377-1.557c-0.218-0.716-0.504-1.401-0.851-2.05l1.993-4.192c-0.725-0.91-1.549-1.734-2.458-2.459l-4.193,1.994c-0.647-0.347-1.334-0.632-2.049-0.849l-1.558-4.378C17.165,0.708,16.588,0.667,16,0.667s-1.166,0.041-1.737,0.105L12.707,5.15c-0.716,0.217-1.401,0.502-2.05,0.849L6.464,4.005C5.554,4.73,4.73,5.554,4.005,6.464l1.994,4.192c-0.347,0.648-0.632,1.334-0.849,2.05l-4.378,1.557C0.708,14.834,0.667,15.412,0.667,16s0.041,1.165,0.105,1.736l4.378,1.558c0.217,0.715,0.502,1.401,0.849,2.049l-1.994,4.193c0.725,0.909,1.549,1.733,2.459,2.458l4.192-1.993c0.648,0.347,1.334,0.633,2.05,0.851l1.557,4.377c0.571,0.064,1.148,0.104,1.737,0.104c0.588,0,1.165-0.04,1.736-0.104l1.558-4.377c0.715-0.218,1.399-0.504,2.049-0.851l4.193,1.993c0.909-0.725,1.733-1.549,2.458-2.458l-1.993-4.193c0.347-0.647,0.633-1.334,0.851-2.049L31.229,17.736zM16,20.871c-2.69,0-4.872-2.182-4.872-4.871c0-2.69,2.182-4.872,4.872-4.872c2.689,0,4.871,2.182,4.871,4.872C20.871,18.689,18.689,20.871,16,20.871z"></path><title>Link options.</title></g></g></g></g><!--z-index:57--><g   id="j_102" ><path  stroke="#707070" d="M 2149 1124 L 2031 1228 C 2026.3333333333333 1232.6666666666665 2020.6666666666665 1235 2014 1235 L 1839 1235 C 1832.3333333333333 1235 1827.3333333333333 1238 1824 1244 L 1779 1325" id="v-1419" stroke-width="2" stroke-dasharray="30 30" fill="none" style="opacity: 1;"></path><path  fill="black" stroke="black" d="M 0 0 0 0" transform="matrix(-0.7478183530628051,0.6639033896753607,-0.6639033896753607,-0.7478183530628051,2149.030029296875,1124)"></path><path  fill="#707070" stroke="#707070" d="M 20 0 L 0 10 L 20 20 z" id="v-1421" transform="matrix(0.4846773131199579,-0.8746930330960789,0.8746930330960789,0.4846773131199579,1770.3831031784646,1320.1532089575737)" style="opacity: 1;"></path><path  d="M 2149 1124 L 2031 1228 C 2026.3333333333333 1232.6666666666665 2020.6666666666665 1235 2014 1235 L 1839 1235 C 1832.3333333333333 1235 1827.3333333333333 1238 1824 1244 L 1779 1325" id="v-1420" fill="none" style="cursor: default;"></path><g ><g id="v-1413"  label-idx="0" cursor="move" transform="matrix(1,0,0,1,1959.0364990234375,1235)" style="cursor: default; opacity: 1;"><rect joint-selector="rect" id="v-1416" fill="transparent" rx="3" ry="3" pointer-events="none" width="150.75" height="55.5" transform="matrix(1,0,0,1,-75.4,-27.8)"></rect><text joint-selector="text" id="v-1415" font-size="24px" xml:space="preserve" y="0.8em" fill="#707070" text-anchor="middle" pointer-events="none" font-family="'DM Sans', DMSans, sans-serif" font-weight="normal" transform="matrix(1,0,0,1,0,-25.8)"><tspan dy="0" >Makes use of</tspan></text></g><g id="v-1414"  label-idx="1" cursor="move" transform="matrix(1,0,0,1,1949.0364990234375,1275.800048828125)" style="cursor: default; opacity: 1;"><rect joint-selector="rect" id="v-1418" fill="transparent" rx="3" ry="3"  width="0" height="0" transform="matrix(1,0,0,1,0,0)" display="none"></rect><text joint-selector="text" id="v-1417" fill="#000000" font-size="14" text-anchor="middle" pointer-events="none"></text></g></g><g  display="none"><g  transform="translate(2024, 1235)" id="v-1409"><circle  idx="0" r="10"></circle><path  idx="0" d="M16,5.333c-7.732,0-14,4.701-14,10.5c0,1.982,0.741,3.833,2.016,5.414L2,25.667l5.613-1.441c2.339,1.317,5.237,2.107,8.387,2.107c7.732,0,14-4.701,14-10.5C30,10.034,23.732,5.333,16,5.333z" transform="translate(5, -33)"></path><path  idx="0" transform="scale(.8) translate(9.5, -37)" d="M24.778,21.419 19.276,15.917 24.777,10.415 21.949,7.585 16.447,13.087 10.945,7.585 8.117,10.415 13.618,15.917 8.116,21.419 10.946,24.248 16.447,18.746 21.948,24.248z"><title>Remove vertex.</title></path></g><g  transform="translate(1829, 1235)" id="v-1410"><circle  idx="1" r="10"></circle><path  idx="1" d="M16,5.333c-7.732,0-14,4.701-14,10.5c0,1.982,0.741,3.833,2.016,5.414L2,25.667l5.613-1.441c2.339,1.317,5.237,2.107,8.387,2.107c7.732,0,14-4.701,14-10.5C30,10.034,23.732,5.333,16,5.333z" transform="translate(5, -33)"></path><path  idx="1" transform="scale(.8) translate(9.5, -37)" d="M24.778,21.419 19.276,15.917 24.777,10.415 21.949,7.585 16.447,13.087 10.945,7.585 8.117,10.415 13.618,15.917 8.116,21.419 10.946,24.248 16.447,18.746 21.948,24.248z"><title>Remove vertex.</title></path></g></g><g  id="v-1423" display="none"><g  id="v-1411"><path  end="source" d="M 26 0 L 0 13 L 26 26 z"></path></g><g  id="v-1412"><path  end="target" d="M 26 0 L 0 13 L 26 26 z"></path></g></g><g  id="v-1422" display="none"><g  id="v-1408" transform="translate(2118.991647619185, 1150.448039386481) "><g  event="remove"><circle r="11"></circle><path transform="scale(.8) translate(-16, -16)" d="M24.778,21.419 19.276,15.917 24.777,10.415 21.949,7.585 16.447,13.087 10.945,7.585 8.117,10.415 13.618,15.917 8.116,21.419 10.946,24.248 16.447,18.746 21.948,24.248z"></path><title>Remove link.</title></g><g  event="link:options"><circle r="11" transform="translate(25)"></circle><path fill="white" transform="scale(.55) translate(29, -16)" d="M31.229,17.736c0.064-0.571,0.104-1.148,0.104-1.736s-0.04-1.166-0.104-1.737l-4.377-1.557c-0.218-0.716-0.504-1.401-0.851-2.05l1.993-4.192c-0.725-0.91-1.549-1.734-2.458-2.459l-4.193,1.994c-0.647-0.347-1.334-0.632-2.049-0.849l-1.558-4.378C17.165,0.708,16.588,0.667,16,0.667s-1.166,0.041-1.737,0.105L12.707,5.15c-0.716,0.217-1.401,0.502-2.05,0.849L6.464,4.005C5.554,4.73,4.73,5.554,4.005,6.464l1.994,4.192c-0.347,0.648-0.632,1.334-0.849,2.05l-4.378,1.557C0.708,14.834,0.667,15.412,0.667,16s0.041,1.165,0.105,1.736l4.378,1.558c0.217,0.715,0.502,1.401,0.849,2.049l-1.994,4.193c0.725,0.909,1.549,1.733,2.459,2.458l4.192-1.993c0.648,0.347,1.334,0.633,2.05,0.851l1.557,4.377c0.571,0.064,1.148,0.104,1.737,0.104c0.588,0,1.165-0.04,1.736-0.104l1.558-4.377c0.715-0.218,1.399-0.504,2.049-0.851l4.193,1.993c0.909-0.725,1.733-1.549,2.458-2.458l-1.993-4.193c0.347-0.647,0.633-1.334,0.851-2.049L31.229,17.736zM16,20.871c-2.69,0-4.872-2.182-4.872-4.871c0-2.69,2.182-4.872,4.872-4.872c2.689,0,4.871,2.182,4.871,4.872C20.871,18.689,18.689,20.871,16,20.871z"></path><title>Link options.</title></g></g></g></g><!--z-index:58--><g   id="j_103" ><path  stroke="#707070" d="M 985 1124 L 985 1324" id="v-1433" stroke-width="2" stroke-dasharray="30 30" fill="none" style="opacity: 1;"></path><path  fill="black" stroke="black" d="M 0 0 0 0" transform="matrix(6.123233995736766e-17,1,-1,6.123233995736766e-17,985,1124)"></path><path  fill="#707070" stroke="#707070" d="M 20 0 L 0 10 L 20 20 z" id="v-1435" transform="matrix(-1.8369701987210297e-16,-1,1,-1.8369701987210297e-16,975,1324)" style="opacity: 1;"></path><path  d="M 985 1124 L 985 1324" id="v-1434" fill="none" style="cursor: default;"></path><g ><g id="v-1427"  label-idx="0" cursor="move" transform="matrix(1,0,0,1,985,1224)" style="cursor: default; opacity: 1;"><rect joint-selector="rect" id="v-1430" fill="transparent" rx="3" ry="3" pointer-events="none" width="122.78125" height="26.703125" transform="matrix(1,0,0,1,-61.4,-13.4)"></rect><text joint-selector="text" id="v-1429" font-size="24px" xml:space="preserve" y="0.8em" fill="#707070" text-anchor="middle" pointer-events="none" font-family="'DM Sans', DMSans, sans-serif" font-weight="normal" transform="matrix(1,0,0,1,0,-11.4)"><tspan dy="0" >Administration of</tspan></text></g><g id="v-1428"  label-idx="1" cursor="move" transform="matrix(1,0,0,1,975,1250.4000244140625)" style="cursor: default; opacity: 1;"><rect joint-selector="rect" id="v-1432" fill="transparent" rx="3" ry="3"  width="0" height="0" transform="matrix(1,0,0,1,0,0)" display="none"></rect><text joint-selector="text" id="v-1431" fill="#000000" font-size="14" text-anchor="middle" pointer-events="none"></text></g></g><g  display="none"></g><g  id="v-1437" display="none"><g  id="v-1425"><path  end="source" d="M 26 0 L 0 13 L 26 26 z"></path></g><g  id="v-1426"><path  end="target" d="M 26 0 L 0 13 L 26 26 z"></path></g></g><g  id="v-1436" display="none"><g  id="v-1424" transform="translate(985, 1164) "><g  event="remove"><circle r="11"></circle><path transform="scale(.8) translate(-16, -16)" d="M24.778,21.419 19.276,15.917 24.777,10.415 21.949,7.585 16.447,13.087 10.945,7.585 8.117,10.415 13.618,15.917 8.116,21.419 10.946,24.248 16.447,18.746 21.948,24.248z"></path><title>Remove link.</title></g><g  event="link:options"><circle r="11" transform="translate(25)"></circle><path fill="white" transform="scale(.55) translate(29, -16)" d="M31.229,17.736c0.064-0.571,0.104-1.148,0.104-1.736s-0.04-1.166-0.104-1.737l-4.377-1.557c-0.218-0.716-0.504-1.401-0.851-2.05l1.993-4.192c-0.725-0.91-1.549-1.734-2.458-2.459l-4.193,1.994c-0.647-0.347-1.334-0.632-2.049-0.849l-1.558-4.378C17.165,0.708,16.588,0.667,16,0.667s-1.166,0.041-1.737,0.105L12.707,5.15c-0.716,0.217-1.401,0.502-2.05,0.849L6.464,4.005C5.554,4.73,4.73,5.554,4.005,6.464l1.994,4.192c-0.347,0.648-0.632,1.334-0.849,2.05l-4.378,1.557C0.708,14.834,0.667,15.412,0.667,16s0.041,1.165,0.105,1.736l4.378,1.558c0.217,0.715,0.502,1.401,0.849,2.049l-1.994,4.193c0.725,0.909,1.549,1.733,2.459,2.458l4.192-1.993c0.648,0.347,1.334,0.633,2.05,0.851l1.557,4.377c0.571,0.064,1.148,0.104,1.737,0.104c0.588,0,1.165-0.04,1.736-0.104l1.558-4.377c0.715-0.218,1.399-0.504,2.049-0.851l4.193,1.993c0.909-0.725,1.733-1.549,2.458-2.458l-1.993-4.193c0.347-0.647,0.633-1.334,0.851-2.049L31.229,17.736zM16,20.871c-2.69,0-4.872-2.182-4.872-4.871c0-2.69,2.182-4.872,4.872-4.872c2.689,0,4.871,2.182,4.871,4.872C20.871,18.689,18.689,20.871,16,20.871z"></path><title>Link options.</title></g></g></g></g><!--z-index:59--><g   id="j_104" ><path  stroke="#707070" d="M 1471 1475 L 1210 1474" id="v-1450" stroke-width="2" stroke-dasharray="30 30" fill="none" style="opacity: 1;"></path><path  fill="black" stroke="black" d="M 0 0 0 0" transform="matrix(-0.999999048833313,-0.0013792506912528022,0.0013792506912528022,-0.999999048833313,1471,1474.6800537109375)"></path><path  fill="#707070" stroke="#707070" d="M 20 0 L 0 10 L 20 20 z" id="v-1452" transform="matrix(0.9999990487527814,0.0013793090778832378,-0.0013793090778832378,0.9999990487527814,1210.013802603251,1464.3199566560684)" style="opacity: 1;"></path><path  d="M 1471 1475 L 1210 1474" id="v-1451" fill="none" style="cursor: default;"></path><g ><g id="v-1444"  label-idx="0" cursor="move" transform="matrix(1,0,0,1,1340.5,1474.5)" style="cursor: default; opacity: 1;"><rect joint-selector="rect" id="v-1447" fill="transparent" rx="3" ry="3" pointer-events="none" width="150.75" height="55.5" transform="matrix(1,0,0,1,-75.4,-27.8)"></rect><text joint-selector="text" id="v-1446" font-size="24px" xml:space="preserve" y="0.8em" fill="#707070" text-anchor="middle" pointer-events="none" font-family="'DM Sans', DMSans, sans-serif" font-weight="normal" transform="matrix(1,0,0,1,0,-25.8)"><tspan dy="0" >Makes use of</tspan></text></g><g id="v-1445"  label-idx="1" cursor="move" transform="matrix(1,0,0,1,1330.5,1515.300048828125)" style="cursor: default; opacity: 1;"><rect joint-selector="rect" id="v-1449" fill="transparent" rx="3" ry="3"  width="0" height="0" transform="matrix(1,0,0,1,0,0)" display="none"></rect><text joint-selector="text" id="v-1448" fill="#000000" font-size="14" text-anchor="middle" pointer-events="none"></text></g></g><g  display="none"></g><g  id="v-1454" display="none"><g  id="v-1442"><path  end="source" d="M 26 0 L 0 13 L 26 26 z"></path></g><g  id="v-1443"><path  end="target" d="M 26 0 L 0 13 L 26 26 z"></path></g></g><g  id="v-1453" display="none"><g  id="v-1441" transform="translate(1431.0002935919879, 1474.8467444198927) "><g  event="remove"><circle r="11"></circle><path transform="scale(.8) translate(-16, -16)" d="M24.778,21.419 19.276,15.917 24.777,10.415 21.949,7.585 16.447,13.087 10.945,7.585 8.117,10.415 13.618,15.917 8.116,21.419 10.946,24.248 16.447,18.746 21.948,24.248z"></path><title>Remove link.</title></g><g  event="link:options"><circle r="11" transform="translate(25)"></circle><path fill="white" transform="scale(.55) translate(29, -16)" d="M31.229,17.736c0.064-0.571,0.104-1.148,0.104-1.736s-0.04-1.166-0.104-1.737l-4.377-1.557c-0.218-0.716-0.504-1.401-0.851-2.05l1.993-4.192c-0.725-0.91-1.549-1.734-2.458-2.459l-4.193,1.994c-0.647-0.347-1.334-0.632-2.049-0.849l-1.558-4.378C17.165,0.708,16.588,0.667,16,0.667s-1.166,0.041-1.737,0.105L12.707,5.15c-0.716,0.217-1.401,0.502-2.05,0.849L6.464,4.005C5.554,4.73,4.73,5.554,4.005,6.464l1.994,4.192c-0.347,0.648-0.632,1.334-0.849,2.05l-4.378,1.557C0.708,14.834,0.667,15.412,0.667,16s0.041,1.165,0.105,1.736l4.378,1.558c0.217,0.715,0.502,1.401,0.849,2.049l-1.994,4.193c0.725,0.909,1.549,1.733,2.459,2.458l4.192-1.993c0.648,0.347,1.334,0.633,2.05,0.851l1.557,4.377c0.571,0.064,1.148,0.104,1.737,0.104c0.588,0,1.165-0.04,1.736-0.104l1.558-4.377c0.715-0.218,1.399-0.504,2.049-0.851l4.193,1.993c0.909-0.725,1.733-1.549,2.458-2.458l-1.993-4.193c0.347-0.647,0.633-1.334,0.851-2.049L31.229,17.736zM16,20.871c-2.69,0-4.872-2.182-4.872-4.871c0-2.69,2.182-4.872,4.872-4.872c2.689,0,4.871,2.182,4.871,4.872C20.871,18.689,18.689,20.871,16,20.871z"></path><title>Link options.</title></g></g></g></g><!--z-index:60--></g><g ></g><g ></g><g ></g></g></svg>