<svg xmlns="http://www.w3.org/2000/svg" xmlns:xlink="http://www.w3.org/1999/xlink" version="1.1" viewBox="0 0 3101 1886" style="background: #ffffff"><defs joint-selector="defs"></defs><g joint-selector="layers" transform="matrix(1,0,0,1,0,0)" ><g ></g><g ><!--z-index:1--><!--z-index:2--><!--z-index:3--><!--z-index:4--><!--z-index:5--><!--z-index:6--><!--z-index:7--><!--z-index:8--><!--z-index:9--><!--z-index:10--><!--z-index:11--><!--z-index:12--><!--z-index:13--><!--z-index:14--><!--z-index:15--><!--z-index:16--><!--z-index:17--><!--z-index:18--><!--z-index:19--><!--z-index:20--><!--z-index:21--><!--z-index:22--><!--z-index:23--><!--z-index:24--><!--z-index:25--><!--z-index:26--><!--z-index:27--><g   id="j_42"  transform="translate(20,1849.6)"><g id="v-504"><text  id="v-505" font-size="22px" xml:space="preserve" y="0.8em" font-weight="normal" text-anchor="start" fill="#aaaaaa" pointer-events="none" display="block" font-family="'DM Sans', DMSans, sans-serif"><tspan dy="0" >Friday 21 June 2024 at 17:00 Central European Summer Time</tspan></text></g></g><!--z-index:28--><g   id="j_41"  transform="translate(20,1806.3999999999999)"><g id="v-502"><text  id="v-503" font-size="36px" xml:space="preserve" y="0.8em" font-weight="normal" text-anchor="start" fill="#000000" pointer-events="none" display="block" font-family="'DM Sans', DMSans, sans-serif"><tspan dy="0" >[Component] Abacus - Backend</tspan></text></g></g><!--z-index:29--><g   id="j_43"  transform="translate(1335,199)" style=""><g  id="v-512" style="opacity: 1;"><rect  id="v-513" rx="10" ry="10" stroke="#3c7fc0" stroke-width="2" pointer-events="visiblePainted" fill="#3c7fc0" width="450" height="300" style="fill: rgb(60, 127, 192); stroke: rgb(60, 127, 192);"></rect><rect  id="v-514" rx="10" ry="10" stroke="#3c7fc0" stroke-width="0" pointer-events="visiblePainted" fill="#438dd5" width="430" height="250" x="10" y="40" style="fill: rgb(67, 141, 213);"></rect><ellipse  id="v-521" fill="#438dd5" cx="20" cy="20" rx="10" ry="10" style="fill: rgb(67, 141, 213);"></ellipse><ellipse  id="v-522" fill="#438dd5" cx="50" cy="20" rx="10" ry="10" style="fill: rgb(67, 141, 213);"></ellipse><ellipse  id="v-523" fill="#438dd5" cx="80" cy="20" rx="10" ry="10" style="fill: rgb(67, 141, 213);"></ellipse><rect  id="v-515" rx="10" ry="10" stroke="#444444" stroke-width="0" pointer-events="visiblePainted" fill="#438dd5" width="340" height="20" x="100" y="10" style="fill: rgb(67, 141, 213);"></rect><text  id="v-516" font-size="34" xml:space="preserve" y="0.8em" font-weight="bold" text-anchor="middle" pointer-events="visible" font-family="'DM Sans', DMSans, sans-serif" fill="#ffffff" transform="matrix(1,0,0,1,225,92.9)" style="fill: rgb(255, 255, 255);"><tspan dy="0" >Frontend</tspan></text><text  id="v-517" font-size="17" xml:space="preserve" y="0.8em" text-anchor="middle" font-family="'DM Sans', DMSans, sans-serif" fill="#ffffff" transform="matrix(1,0,0,1,225,133.7)" style="fill: rgb(255, 255, 255);"><tspan dy="0" >[Container: Single-Page Application - TypeScript,</tspan><tspan dy="1.2em" x="0" >React]</tspan></text><text  id="v-518" font-size="24" xml:space="preserve" y="0.8em" text-anchor="middle" font-family="'DM Sans', DMSans, sans-serif" fill="#ffffff" transform="matrix(1,0,0,1,225,184.5)" style="fill: rgb(255, 255, 255);"><tspan dy="0" >Biedt alle Abacus functionaliteit via</tspan><tspan dy="1.2em" x="0" >een webbrowser</tspan></text><g  id="v-519" font-weight="normal" text-anchor="middle" color="#ffffff" transform="matrix(1,0,0,1,222.5,258)" display="none" style="fill: rgb(255, 255, 255);"><g ></g><g ></g><g ></g><g ></g></g><image  id="v-520"></image></g></g><!--z-index:30--><g   id="j_45"  transform="translate(199,789)" style=""><g id="v-534"><rect  id="v-535" width="2771" height="896" rx="0" ry="0" fill="#ffffff" stroke="#3c7fc0" stroke-width="1" stroke-dasharray="20,20" pointer-events="none"></rect><text  id="v-536" font-size="24px" xml:space="preserve" y="857" font-weight="normal" fill="#3c7fc0" text-anchor="start" pointer-events="visible" font-family="'DM Sans', DMSans, sans-serif" transform="matrix(1,0,0,1,15,0)"><tspan dy="0" >Backend</tspan></text><text  id="v-537" font-size="17px" xml:space="preserve" y="881" font-weight="normal" fill="#3c7fc0" text-anchor="start" pointer-events="visible" font-family="'DM Sans', DMSans, sans-serif" transform="matrix(1,0,0,1,15,0)"><tspan dy="0" >[Container]</tspan></text><image  id="v-538" pointer-events="visible"></image></g></g><!--z-index:31--><g   id="j_44"  transform="translate(2500,809)" style=""><g  id="v-527" style="opacity: 1;"><rect  id="v-528" rx="1" ry="1" stroke="#78a8d8" stroke-width="2" pointer-events="visiblePainted" fill="#85bbf0" width="450" height="300" style="fill: rgb(133, 187, 240); stroke: rgb(120, 168, 216);"></rect><text  id="v-529" font-size="34" xml:space="preserve" y="0.8em" font-weight="bold" text-anchor="middle" pointer-events="visible" font-family="'DM Sans', DMSans, sans-serif" fill="#000000" transform="matrix(1,0,0,1,225,102.5)" style="fill: rgb(0, 0, 0);"><tspan dy="0" >Importeren</tspan></text><text  id="v-530" font-size="17" xml:space="preserve" y="0.8em" text-anchor="middle" font-family="'DM Sans', DMSans, sans-serif" fill="#000000" transform="matrix(1,0,0,1,225,143.3)" style="fill: rgb(0, 0, 0);"><tspan dy="0" >[Component]</tspan></text><text  id="v-531" font-size="24" xml:space="preserve" y="0.8em" text-anchor="middle" font-family="'DM Sans', DMSans, sans-serif" fill="#000000" transform="matrix(1,0,0,1,225,173.7)" style="fill: rgb(0, 0, 0);"><tspan dy="0" >Importeren van bestanden.</tspan></text><g  id="v-532" color="#000000" transform="matrix(1,0,0,1,222.5,268)" display="none" style="fill: rgb(0, 0, 0);"><g ></g><g ></g><g ></g><g ></g></g><image  id="v-533"></image></g></g><!--z-index:32--><g   id="j_46"  transform="translate(1220,809)" style=""><g  id="v-539" style="opacity: 1;"><rect  id="v-540" rx="1" ry="1" stroke="#78a8d8" stroke-width="2" pointer-events="visiblePainted" fill="#85bbf0" width="450" height="300" style="fill: rgb(133, 187, 240); stroke: rgb(120, 168, 216);"></rect><text  id="v-541" font-size="34" xml:space="preserve" y="0.8em" font-weight="bold" text-anchor="middle" pointer-events="visible" font-family="'DM Sans', DMSans, sans-serif" fill="#000000" transform="matrix(1,0,0,1,225,102.5)" style="fill: rgb(0, 0, 0);"><tspan dy="0" >Gebruikers</tspan></text><text  id="v-542" font-size="17" xml:space="preserve" y="0.8em" text-anchor="middle" font-family="'DM Sans', DMSans, sans-serif" fill="#000000" transform="matrix(1,0,0,1,225,143.3)" style="fill: rgb(0, 0, 0);"><tspan dy="0" >[Component]</tspan></text><text  id="v-543" font-size="24" xml:space="preserve" y="0.8em" text-anchor="middle" font-family="'DM Sans', DMSans, sans-serif" fill="#000000" transform="matrix(1,0,0,1,225,173.7)" style="fill: rgb(0, 0, 0);"><tspan dy="0" >Gebruikers en rollen.</tspan></text><g  id="v-544" color="#000000" transform="matrix(1,0,0,1,222.5,268)" display="none" style="fill: rgb(0, 0, 0);"><g ></g><g ></g><g ></g><g ></g></g><image  id="v-545"></image></g></g><!--z-index:33--><g   id="j_47"  transform="translate(2500,1294)" style=""><g  id="v-552" style="opacity: 1;"><rect  id="v-553" rx="1" ry="1" stroke="#78a8d8" stroke-width="2" pointer-events="visiblePainted" fill="#85bbf0" width="450" height="300" style="fill: rgb(133, 187, 240); stroke: rgb(120, 168, 216);"></rect><text  id="v-554" font-size="34" xml:space="preserve" y="0.8em" font-weight="bold" text-anchor="middle" pointer-events="visible" font-family="'DM Sans', DMSans, sans-serif" fill="#000000" transform="matrix(1,0,0,1,225,73.7)" style="fill: rgb(0, 0, 0);"><tspan dy="0" >Verkiezingsgegevens</tspan></text><text  id="v-555" font-size="17" xml:space="preserve" y="0.8em" text-anchor="middle" font-family="'DM Sans', DMSans, sans-serif" fill="#000000" transform="matrix(1,0,0,1,225,114.5)" style="fill: rgb(0, 0, 0);"><tspan dy="0" >[Component]</tspan></text><text  id="v-556" font-size="24" xml:space="preserve" y="0.8em" text-anchor="middle" font-family="'DM Sans', DMSans, sans-serif" fill="#000000" transform="matrix(1,0,0,1,225,144.9)" style="fill: rgb(0, 0, 0);"><tspan dy="0" >Verkiezingsgegevens incl. politieke</tspan><tspan dy="1.2em" x="0" >groeperingen, kandidatenlijsten en</tspan><tspan dy="1.2em" x="0" >stembureau's.</tspan></text><g  id="v-557" color="#000000" transform="matrix(1,0,0,1,222.5,268)" display="none" style="fill: rgb(0, 0, 0);"><g ></g><g ></g><g ></g><g ></g></g><image  id="v-558"></image></g></g><!--z-index:34--><g   id="j_48"  transform="translate(1870,809)" style=""><g  id="v-562" style="opacity: 1;"><rect  id="v-563" rx="1" ry="1" stroke="#78a8d8" stroke-width="2" pointer-events="visiblePainted" fill="#85bbf0" width="450" height="300" style="fill: rgb(133, 187, 240); stroke: rgb(120, 168, 216);"></rect><text  id="v-564" font-size="34" xml:space="preserve" y="0.8em" font-weight="bold" text-anchor="middle" pointer-events="visible" font-family="'DM Sans', DMSans, sans-serif" fill="#000000" transform="matrix(1,0,0,1,225,88.1)" style="fill: rgb(0, 0, 0);"><tspan dy="0" >Invoer</tspan></text><text  id="v-565" font-size="17" xml:space="preserve" y="0.8em" text-anchor="middle" font-family="'DM Sans', DMSans, sans-serif" fill="#000000" transform="matrix(1,0,0,1,225,128.9)" style="fill: rgb(0, 0, 0);"><tspan dy="0" >[Component]</tspan></text><text  id="v-566" font-size="24" xml:space="preserve" y="0.8em" text-anchor="middle" font-family="'DM Sans', DMSans, sans-serif" fill="#000000" transform="matrix(1,0,0,1,225,159.3)" style="fill: rgb(0, 0, 0);"><tspan dy="0" >Invoeren en validatie van</tspan><tspan dy="1.2em" x="0" >telresultaten.</tspan></text><g  id="v-567" color="#000000" transform="matrix(1,0,0,1,222.5,268)" display="none" style="fill: rgb(0, 0, 0);"><g ></g><g ></g><g ></g><g ></g></g><image  id="v-568"></image></g></g><!--z-index:35--><g   id="j_49"  transform="translate(1870,1294)" style=""><g  id="v-572" style="opacity: 1;"><rect  id="v-573" rx="1" ry="1" stroke="#78a8d8" stroke-width="2" pointer-events="visiblePainted" fill="#85bbf0" width="450" height="300" style="fill: rgb(133, 187, 240); stroke: rgb(120, 168, 216);"></rect><text  id="v-574" font-size="34" xml:space="preserve" y="0.8em" font-weight="bold" text-anchor="middle" pointer-events="visible" font-family="'DM Sans', DMSans, sans-serif" fill="#000000" transform="matrix(1,0,0,1,225,88.1)" style="fill: rgb(0, 0, 0);"><tspan dy="0" >Telresultaten</tspan></text><text  id="v-575" font-size="17" xml:space="preserve" y="0.8em" text-anchor="middle" font-family="'DM Sans', DMSans, sans-serif" fill="#000000" transform="matrix(1,0,0,1,225,128.9)" style="fill: rgb(0, 0, 0);"><tspan dy="0" >[Component]</tspan></text><text  id="v-576" font-size="24" xml:space="preserve" y="0.8em" text-anchor="middle" font-family="'DM Sans', DMSans, sans-serif" fill="#000000" transform="matrix(1,0,0,1,225,159.3)" style="fill: rgb(0, 0, 0);"><tspan dy="0" >Gecontroleerde telresultaten van</tspan><tspan dy="1.2em" x="0" >stembureau's.</tspan></text><g  id="v-577" color="#000000" transform="matrix(1,0,0,1,222.5,268)" display="none" style="fill: rgb(0, 0, 0);"><g ></g><g ></g><g ></g><g ></g></g><image  id="v-578"></image></g></g><!--z-index:36--><g   id="j_50"  transform="translate(480,809)" style=""><g  id="v-582" style="opacity: 1;"><rect  id="v-583" rx="1" ry="1" stroke="#78a8d8" stroke-width="2" pointer-events="visiblePainted" fill="#85bbf0" width="450" height="300" style="fill: rgb(133, 187, 240); stroke: rgb(120, 168, 216);"></rect><text  id="v-584" font-size="34" xml:space="preserve" y="0.8em" font-weight="bold" text-anchor="middle" pointer-events="visible" font-family="'DM Sans', DMSans, sans-serif" fill="#000000" transform="matrix(1,0,0,1,225,102.5)" style="fill: rgb(0, 0, 0);"><tspan dy="0" >Exporteren</tspan></text><text  id="v-585" font-size="17" xml:space="preserve" y="0.8em" text-anchor="middle" font-family="'DM Sans', DMSans, sans-serif" fill="#000000" transform="matrix(1,0,0,1,225,143.3)" style="fill: rgb(0, 0, 0);"><tspan dy="0" >[Component]</tspan></text><text  id="v-586" font-size="24" xml:space="preserve" y="0.8em" text-anchor="middle" font-family="'DM Sans', DMSans, sans-serif" fill="#000000" transform="matrix(1,0,0,1,225,173.7)" style="fill: rgb(0, 0, 0);"><tspan dy="0" >Exporteren van resultaten.</tspan></text><g  id="v-587" color="#000000" transform="matrix(1,0,0,1,222.5,268)" display="none" style="fill: rgb(0, 0, 0);"><g ></g><g ></g><g ></g><g ></g></g><image  id="v-588"></image></g></g><!--z-index:37--><g   id="j_51"  transform="translate(219,1294)" style=""><g  id="v-595" style="opacity: 1;"><rect  id="v-596" rx="1" ry="1" stroke="#78a8d8" stroke-width="2" pointer-events="visiblePainted" fill="#85bbf0" width="450" height="300" style="fill: rgb(133, 187, 240); stroke: rgb(120, 168, 216);"></rect><text  id="v-597" font-size="34" xml:space="preserve" y="0.8em" font-weight="bold" text-anchor="middle" pointer-events="visible" font-family="'DM Sans', DMSans, sans-serif" fill="#000000" transform="matrix(1,0,0,1,225,102.5)" style="fill: rgb(0, 0, 0);"><tspan dy="0" >EML_NL generator</tspan></text><text  id="v-598" font-size="17" xml:space="preserve" y="0.8em" text-anchor="middle" font-family="'DM Sans', DMSans, sans-serif" fill="#000000" transform="matrix(1,0,0,1,225,143.3)" style="fill: rgb(0, 0, 0);"><tspan dy="0" >[Component]</tspan></text><text  id="v-599" font-size="24" xml:space="preserve" y="0.8em" text-anchor="middle" font-family="'DM Sans', DMSans, sans-serif" fill="#000000" transform="matrix(1,0,0,1,225,173.7)" style="fill: rgb(0, 0, 0);"><tspan dy="0" >EML_NL-bestandenexport.</tspan></text><g  id="v-600" color="#000000" transform="matrix(1,0,0,1,222.5,268)" display="none" style="fill: rgb(0, 0, 0);"><g ></g><g ></g><g ></g><g ></g></g><image  id="v-601"></image></g></g><!--z-index:38--><g   id="j_52"  transform="translate(715,1294)" style=""><g  id="v-605" style="opacity: 1;"><rect  id="v-606" rx="1" ry="1" stroke="#78a8d8" stroke-width="2" pointer-events="visiblePainted" fill="#85bbf0" width="450" height="300" style="fill: rgb(133, 187, 240); stroke: rgb(120, 168, 216);"></rect><text  id="v-607" font-size="34" xml:space="preserve" y="0.8em" font-weight="bold" text-anchor="middle" pointer-events="visible" font-family="'DM Sans', DMSans, sans-serif" fill="#000000" transform="matrix(1,0,0,1,225,102.5)" style="fill: rgb(0, 0, 0);"><tspan dy="0" >PDF generator</tspan></text><text  id="v-608" font-size="17" xml:space="preserve" y="0.8em" text-anchor="middle" font-family="'DM Sans', DMSans, sans-serif" fill="#000000" transform="matrix(1,0,0,1,225,143.3)" style="fill: rgb(0, 0, 0);"><tspan dy="0" >[Component]</tspan></text><text  id="v-609" font-size="24" xml:space="preserve" y="0.8em" text-anchor="middle" font-family="'DM Sans', DMSans, sans-serif" fill="#000000" transform="matrix(1,0,0,1,225,173.7)" style="fill: rgb(0, 0, 0);"><tspan dy="0" >PDF-bestandenexport via Typst.</tspan></text><g  id="v-610" color="#000000" transform="matrix(1,0,0,1,222.5,268)" display="none" style="fill: rgb(0, 0, 0);"><g ></g><g ></g><g ></g><g ></g></g><image  id="v-611"></image></g></g><!--z-index:39--><g   id="j_53"  transform="translate(1220,1294)" style=""><g  id="v-615" style="opacity: 1;"><rect  id="v-616" rx="1" ry="1" stroke="#78a8d8" stroke-width="2" pointer-events="visiblePainted" fill="#85bbf0" width="450" height="300" style="fill: rgb(133, 187, 240); stroke: rgb(120, 168, 216);"></rect><text  id="v-617" font-size="34" xml:space="preserve" y="0.8em" font-weight="bold" text-anchor="middle" pointer-events="visible" font-family="'DM Sans', DMSans, sans-serif" fill="#000000" transform="matrix(1,0,0,1,225,88.1)" style="fill: rgb(0, 0, 0);"><tspan dy="0" >Zetelverdeling</tspan></text><text  id="v-618" font-size="17" xml:space="preserve" y="0.8em" text-anchor="middle" font-family="'DM Sans', DMSans, sans-serif" fill="#000000" transform="matrix(1,0,0,1,225,128.9)" style="fill: rgb(0, 0, 0);"><tspan dy="0" >[Component]</tspan></text><text  id="v-619" font-size="24" xml:space="preserve" y="0.8em" text-anchor="middle" font-family="'DM Sans', DMSans, sans-serif" fill="#000000" transform="matrix(1,0,0,1,225,159.3)" style="fill: rgb(0, 0, 0);"><tspan dy="0" >Zetelverdeling na invoer van alle</tspan><tspan dy="1.2em" x="0" >telresultaten.</tspan></text><g  id="v-620" color="#000000" transform="matrix(1,0,0,1,222.5,268)" display="none" style="fill: rgb(0, 0, 0);"><g ></g><g ></g><g ></g><g ></g></g><image  id="v-621"></image></g></g><!--z-index:40--><g   id="j_54" ><path  stroke="#707070" d="M 1532 499 L 1473 809" id="v-637" stroke-width="2" stroke-dasharray="30 30" fill="none" style="opacity: 1;"></path><path  fill="black" stroke="black" d="M 0 0 0 0" transform="matrix(-0.1852530833455784,0.9826908441167833,-0.9826908441167833,-0.1852530833455784,1531.719970703125,499)"></path><path  fill="#707070" stroke="#707070" d="M 20 0 L 0 10 L 20 20 z" id="v-639" transform="matrix(0.18525282163917026,-0.9826908934526287,0.9826908934526287,0.18525282163917026,1463.453131208457,807.1474764212597)" style="opacity: 1;"></path><path  d="M 1532 499 L 1473 809" id="v-638" fill="none" style="cursor: default;"></path><g ><g id="v-628"  label-idx="0" cursor="move" transform="matrix(1,0,0,1,1502.5,654)" style="cursor: default; opacity: 1;"><rect joint-selector="rect" id="v-632" fill="#ffffff" rx="3" ry="3" pointer-events="none" width="177.46875" height="85.4375" transform="matrix(1,0,0,1,-88.7,-42.7)"></rect><text joint-selector="text" id="v-631" font-size="24px" xml:space="preserve" y="0.8em" fill="#707070" text-anchor="middle" pointer-events="none" font-family="'DM Sans', DMSans, sans-serif" font-weight="normal" transform="matrix(1,0,0,1,0,-39.6)"><tspan dy="0" >Roept API aan</tspan><tspan dy="1.2em" x="0" >voor inloggen en</tspan><tspan dy="1.2em" x="0" >beheer van</tspan></text></g><g id="v-629"  label-idx="1" cursor="move" transform="matrix(1,0,0,1,1502.5,709.2000122070312)" style="cursor: default; opacity: 1;"><rect joint-selector="rect" id="v-634" fill="#ffffff" rx="3" ry="3" pointer-events="none" width="104.875" height="19.3125" transform="matrix(1,0,0,1,-52.4,-9.7)"></rect><text joint-selector="text" id="v-633" font-size="17px" xml:space="preserve" y="0.8em" fill="#707070" text-anchor="middle" pointer-events="none" font-family="'DM Sans', DMSans, sans-serif" font-weight="normal" transform="matrix(1,0,0,1,0,-7.9)"><tspan dy="0" >[JSON REST]</tspan></text></g><g id="v-630"  label-idx="2" cursor="move" transform="matrix(1,0,0,1,1492.5,717.5999755859375)" style="cursor: default; opacity: 1;"><rect joint-selector="rect" id="v-636" fill="#ffffff" rx="3" ry="3"  width="0" height="0" transform="matrix(1,0,0,1,0,0)" display="none"></rect><text joint-selector="text" id="v-635" fill="#000000" font-size="14" text-anchor="middle" pointer-events="none"></text></g></g><g  display="none"></g><g  id="v-641" display="none"><g  id="v-626"><path  end="source" d="M 26 0 L 0 13 L 26 26 z"></path></g><g  id="v-627"><path  end="target" d="M 26 0 L 0 13 L 26 26 z"></path></g></g><g  id="v-640" display="none"><g  id="v-625" transform="translate(1524.521340483831, 538.2946516951253) "><g  event="remove"><circle r="11"></circle><path transform="scale(.8) translate(-16, -16)" d="M24.778,21.419 19.276,15.917 24.777,10.415 21.949,7.585 16.447,13.087 10.945,7.585 8.117,10.415 13.618,15.917 8.116,21.419 10.946,24.248 16.447,18.746 21.948,24.248z"></path><title>Remove link.</title></g><g  event="link:options"><circle r="11" transform="translate(25)"></circle><path fill="white" transform="scale(.55) translate(29, -16)" d="M31.229,17.736c0.064-0.571,0.104-1.148,0.104-1.736s-0.04-1.166-0.104-1.737l-4.377-1.557c-0.218-0.716-0.504-1.401-0.851-2.05l1.993-4.192c-0.725-0.91-1.549-1.734-2.458-2.459l-4.193,1.994c-0.647-0.347-1.334-0.632-2.049-0.849l-1.558-4.378C17.165,0.708,16.588,0.667,16,0.667s-1.166,0.041-1.737,0.105L12.707,5.15c-0.716,0.217-1.401,0.502-2.05,0.849L6.464,4.005C5.554,4.73,4.73,5.554,4.005,6.464l1.994,4.192c-0.347,0.648-0.632,1.334-0.849,2.05l-4.378,1.557C0.708,14.834,0.667,15.412,0.667,16s0.041,1.165,0.105,1.736l4.378,1.558c0.217,0.715,0.502,1.401,0.849,2.049l-1.994,4.193c0.725,0.909,1.549,1.733,2.459,2.458l4.192-1.993c0.648,0.347,1.334,0.633,2.05,0.851l1.557,4.377c0.571,0.064,1.148,0.104,1.737,0.104c0.588,0,1.165-0.04,1.736-0.104l1.558-4.377c0.715-0.218,1.399-0.504,2.049-0.851l4.193,1.993c0.909-0.725,1.733-1.549,2.458-2.458l-1.993-4.193c0.347-0.647,0.633-1.334,0.851-2.049L31.229,17.736zM16,20.871c-2.69,0-4.872-2.182-4.872-4.871c0-2.69,2.182-4.872,4.872-4.872c2.689,0,4.871,2.182,4.871,4.872C20.871,18.689,18.689,20.871,16,20.871z"></path><title>Link options.</title></g></g></g></g><!--z-index:41--><g   id="j_55" ><path  stroke="#707070" d="M 1692 499 L 1963 809" id="v-657" stroke-width="2" stroke-dasharray="30 30" fill="none" style="opacity: 1;"></path><path  fill="black" stroke="black" d="M 0 0 0 0" transform="matrix(0.6593695416774086,0.7518189991667703,-0.7518189991667703,0.6593695416774086,1691.56005859375,499)"></path><path  fill="#707070" stroke="#707070" d="M 20 0 L 0 10 L 20 20 z" id="v-659" transform="matrix(-0.6593694415666476,-0.751819086967129,0.751819086967129,-0.6593694415666476,1955.9218170225577,815.5936968087753)" style="opacity: 1;"></path><path  d="M 1692 499 L 1963 809" id="v-658" fill="none" style="cursor: default;"></path><g ><g id="v-648"  label-idx="0" cursor="move" transform="matrix(1,0,0,1,1827.5,654)" style="cursor: default; opacity: 1;"><rect joint-selector="rect" id="v-652" fill="#ffffff" rx="3" ry="3" pointer-events="none" width="156.125" height="56.640625" transform="matrix(1,0,0,1,-78.1,-28.3)"></rect><text joint-selector="text" id="v-651" font-size="24px" xml:space="preserve" y="0.8em" fill="#707070" text-anchor="middle" pointer-events="none" font-family="'DM Sans', DMSans, sans-serif" font-weight="normal" transform="matrix(1,0,0,1,0,-25.2)"><tspan dy="0" >Roept API aan</tspan><tspan dy="1.2em" x="0" >voor</tspan></text></g><g id="v-649"  label-idx="1" cursor="move" transform="matrix(1,0,0,1,1827.5,694.7999877929688)" style="cursor: default; opacity: 1;"><rect joint-selector="rect" id="v-654" fill="#ffffff" rx="3" ry="3" pointer-events="none" width="104.875" height="19.3125" transform="matrix(1,0,0,1,-52.4,-9.7)"></rect><text joint-selector="text" id="v-653" font-size="17px" xml:space="preserve" y="0.8em" fill="#707070" text-anchor="middle" pointer-events="none" font-family="'DM Sans', DMSans, sans-serif" font-weight="normal" transform="matrix(1,0,0,1,0,-7.9)"><tspan dy="0" >[JSON REST]</tspan></text></g><g id="v-650"  label-idx="2" cursor="move" transform="matrix(1,0,0,1,1817.5,703.2000122070312)" style="cursor: default; opacity: 1;"><rect joint-selector="rect" id="v-656" fill="#ffffff" rx="3" ry="3"  width="0" height="0" transform="matrix(1,0,0,1,0,0)" display="none"></rect><text joint-selector="text" id="v-655" fill="#000000" font-size="14" text-anchor="middle" pointer-events="none"></text></g></g><g  display="none"></g><g  id="v-661" display="none"><g  id="v-646"><path  end="source" d="M 26 0 L 0 13 L 26 26 z"></path></g><g  id="v-647"><path  end="target" d="M 26 0 L 0 13 L 26 26 z"></path></g></g><g  id="v-660" display="none"><g  id="v-645" transform="translate(1718.3264264520462, 529.1151003694993) "><g  event="remove"><circle r="11"></circle><path transform="scale(.8) translate(-16, -16)" d="M24.778,21.419 19.276,15.917 24.777,10.415 21.949,7.585 16.447,13.087 10.945,7.585 8.117,10.415 13.618,15.917 8.116,21.419 10.946,24.248 16.447,18.746 21.948,24.248z"></path><title>Remove link.</title></g><g  event="link:options"><circle r="11" transform="translate(25)"></circle><path fill="white" transform="scale(.55) translate(29, -16)" d="M31.229,17.736c0.064-0.571,0.104-1.148,0.104-1.736s-0.04-1.166-0.104-1.737l-4.377-1.557c-0.218-0.716-0.504-1.401-0.851-2.05l1.993-4.192c-0.725-0.91-1.549-1.734-2.458-2.459l-4.193,1.994c-0.647-0.347-1.334-0.632-2.049-0.849l-1.558-4.378C17.165,0.708,16.588,0.667,16,0.667s-1.166,0.041-1.737,0.105L12.707,5.15c-0.716,0.217-1.401,0.502-2.05,0.849L6.464,4.005C5.554,4.73,4.73,5.554,4.005,6.464l1.994,4.192c-0.347,0.648-0.632,1.334-0.849,2.05l-4.378,1.557C0.708,14.834,0.667,15.412,0.667,16s0.041,1.165,0.105,1.736l4.378,1.558c0.217,0.715,0.502,1.401,0.849,2.049l-1.994,4.193c0.725,0.909,1.549,1.733,2.459,2.458l4.192-1.993c0.648,0.347,1.334,0.633,2.05,0.851l1.557,4.377c0.571,0.064,1.148,0.104,1.737,0.104c0.588,0,1.165-0.04,1.736-0.104l1.558-4.377c0.715-0.218,1.399-0.504,2.049-0.851l4.193,1.993c0.909-0.725,1.733-1.549,2.458-2.458l-1.993-4.193c0.347-0.647,0.633-1.334,0.851-2.049L31.229,17.736zM16,20.871c-2.69,0-4.872-2.182-4.872-4.871c0-2.69,2.182-4.872,4.872-4.872c2.689,0,4.871,2.182,4.871,4.872C20.871,18.689,18.689,20.871,16,20.871z"></path><title>Link options.</title></g></g></g></g><!--z-index:42--><g   id="j_56" ><path  stroke="#707070" d="M 1785 462 L 2161 651 C 2167 653.6666666666666 2173 656.6666666666666 2179 660 L 2500 836" id="v-678" stroke-width="2" stroke-dasharray="30 30" fill="none" style="opacity: 1;"></path><path  fill="black" stroke="black" d="M 0 0 0 0" transform="matrix(0.8938413692218873,0.44838332559043914,-0.44838332559043914,0.8938413692218873,1785,461.8699951171875)"></path><path  fill="#707070" stroke="#707070" d="M 20 0 L 0 10 L 20 20 z" id="v-680" transform="matrix(-0.8770451357913834,-0.48040798264045714,0.48040798264045714,-0.8770451357913834,2495.195863719009,844.530463801506)" style="opacity: 1;"></path><path  d="M 1785 462 L 2161 651 C 2167 653.6666666666666 2173 656.6666666666666 2179 660 L 2500 836" id="v-679" fill="none" style="cursor: default;"></path><g ><g id="v-669"  label-idx="0" cursor="move" transform="matrix(1,0,0,1,2145.536376953125,643.2269897460938)" style="cursor: default; opacity: 1;"><rect joint-selector="rect" id="v-673" fill="#ffffff" rx="3" ry="3" pointer-events="none" width="156.125" height="56.640625" transform="matrix(1,0,0,1,-78.1,-28.3)"></rect><text joint-selector="text" id="v-672" font-size="24px" xml:space="preserve" y="0.8em" fill="#707070" text-anchor="middle" pointer-events="none" font-family="'DM Sans', DMSans, sans-serif" font-weight="normal" transform="matrix(1,0,0,1,0,-25.2)"><tspan dy="0" >Roept API aan</tspan><tspan dy="1.2em" x="0" >voor</tspan></text></g><g id="v-670"  label-idx="1" cursor="move" transform="matrix(1,0,0,1,2145.536376953125,684.0270385742188)" style="cursor: default; opacity: 1;"><rect joint-selector="rect" id="v-675" fill="#ffffff" rx="3" ry="3" pointer-events="none" width="104.875" height="19.3125" transform="matrix(1,0,0,1,-52.4,-9.7)"></rect><text joint-selector="text" id="v-674" font-size="17px" xml:space="preserve" y="0.8em" fill="#707070" text-anchor="middle" pointer-events="none" font-family="'DM Sans', DMSans, sans-serif" font-weight="normal" transform="matrix(1,0,0,1,0,-7.9)"><tspan dy="0" >[JSON REST]</tspan></text></g><g id="v-671"  label-idx="2" cursor="move" transform="matrix(1,0,0,1,2135.536376953125,692.427001953125)" style="cursor: default; opacity: 1;"><rect joint-selector="rect" id="v-677" fill="#ffffff" rx="3" ry="3"  width="0" height="0" transform="matrix(1,0,0,1,0,0)" display="none"></rect><text joint-selector="text" id="v-676" fill="#000000" font-size="14" text-anchor="middle" pointer-events="none"></text></g></g><g  display="none"><g  transform="translate(2170, 655)" id="v-666"><circle  idx="0" r="10"></circle><path  idx="0" d="M16,5.333c-7.732,0-14,4.701-14,10.5c0,1.982,0.741,3.833,2.016,5.414L2,25.667l5.613-1.441c2.339,1.317,5.237,2.107,8.387,2.107c7.732,0,14-4.701,14-10.5C30,10.034,23.732,5.333,16,5.333z" transform="translate(5, -33)"></path><path  idx="0" transform="scale(.8) translate(9.5, -37)" d="M24.778,21.419 19.276,15.917 24.777,10.415 21.949,7.585 16.447,13.087 10.945,7.585 8.117,10.415 13.618,15.917 8.116,21.419 10.946,24.248 16.447,18.746 21.948,24.248z"><title>Remove vertex.</title></path></g></g><g  id="v-682" display="none"><g  id="v-667"><path  end="source" d="M 26 0 L 0 13 L 26 26 z"></path></g><g  id="v-668"><path  end="target" d="M 26 0 L 0 13 L 26 26 z"></path></g></g><g  id="v-681" display="none"><g  id="v-665" transform="translate(1820.7389866334681, 479.9645438130997) "><g  event="remove"><circle r="11"></circle><path transform="scale(.8) translate(-16, -16)" d="M24.778,21.419 19.276,15.917 24.777,10.415 21.949,7.585 16.447,13.087 10.945,7.585 8.117,10.415 13.618,15.917 8.116,21.419 10.946,24.248 16.447,18.746 21.948,24.248z"></path><title>Remove link.</title></g><g  event="link:options"><circle r="11" transform="translate(25)"></circle><path fill="white" transform="scale(.55) translate(29, -16)" d="M31.229,17.736c0.064-0.571,0.104-1.148,0.104-1.736s-0.04-1.166-0.104-1.737l-4.377-1.557c-0.218-0.716-0.504-1.401-0.851-2.05l1.993-4.192c-0.725-0.91-1.549-1.734-2.458-2.459l-4.193,1.994c-0.647-0.347-1.334-0.632-2.049-0.849l-1.558-4.378C17.165,0.708,16.588,0.667,16,0.667s-1.166,0.041-1.737,0.105L12.707,5.15c-0.716,0.217-1.401,0.502-2.05,0.849L6.464,4.005C5.554,4.73,4.73,5.554,4.005,6.464l1.994,4.192c-0.347,0.648-0.632,1.334-0.849,2.05l-4.378,1.557C0.708,14.834,0.667,15.412,0.667,16s0.041,1.165,0.105,1.736l4.378,1.558c0.217,0.715,0.502,1.401,0.849,2.049l-1.994,4.193c0.725,0.909,1.549,1.733,2.459,2.458l4.192-1.993c0.648,0.347,1.334,0.633,2.05,0.851l1.557,4.377c0.571,0.064,1.148,0.104,1.737,0.104c0.588,0,1.165-0.04,1.736-0.104l1.558-4.377c0.715-0.218,1.399-0.504,2.049-0.851l4.193,1.993c0.909-0.725,1.733-1.549,2.458-2.458l-1.993-4.193c0.347-0.647,0.633-1.334,0.851-2.049L31.229,17.736zM16,20.871c-2.69,0-4.872-2.182-4.872-4.871c0-2.69,2.182-4.872,4.872-4.872c2.689,0,4.871,2.182,4.871,4.872C20.871,18.689,18.689,20.871,16,20.871z"></path><title>Link options.</title></g></g></g></g><!--z-index:43--><g   id="j_57" ><path  stroke="#707070" d="M 1336 499 L 1193 594 C 1187.6666666666665 598 1183 602.6666666666666 1179 608 L 1125 674 C 1121 679.3333333333333 1116.3333333333333 684 1111 688 L 929 809" id="v-700" stroke-width="2" stroke-dasharray="30 30" fill="none" style="opacity: 1;"></path><path  fill="black" stroke="black" d="M 0 0 0 0" transform="matrix(-0.8310321410483338,0.5562243976531615,-0.5562243976531615,-0.8310321410483338,1335.9000244140625,499)"></path><path  fill="#707070" stroke="#707070" d="M 20 0 L 0 10 L 20 20 z" id="v-702" transform="matrix(0.8311193802878541,-0.5560940349526627,0.5560940349526627,0.8311193802878541,923.6290865507198,800.6888334607106)" style="opacity: 1;"></path><path  d="M 1336 499 L 1193 594 C 1187.6666666666665 598 1183 602.6666666666666 1179 608 L 1125 674 C 1121 679.3333333333333 1116.3333333333333 684 1111 688 L 929 809" id="v-701" fill="none" style="cursor: default;"></path><g ><g id="v-691"  label-idx="0" cursor="move" transform="matrix(1,0,0,1,1137.159423828125,659.1384887695312)" style="cursor: default; opacity: 1;"><rect joint-selector="rect" id="v-695" fill="#ffffff" rx="3" ry="3" pointer-events="none" width="156.125" height="56.640625" transform="matrix(1,0,0,1,-78.1,-28.3)"></rect><text joint-selector="text" id="v-694" font-size="24px" xml:space="preserve" y="0.8em" fill="#707070" text-anchor="middle" pointer-events="none" font-family="'DM Sans', DMSans, sans-serif" font-weight="normal" transform="matrix(1,0,0,1,0,-25.2)"><tspan dy="0" >Roept API aan</tspan><tspan dy="1.2em" x="0" >voor</tspan></text></g><g id="v-692"  label-idx="1" cursor="move" transform="matrix(1,0,0,1,1137.159423828125,699.9385375976562)" style="cursor: default; opacity: 1;"><rect joint-selector="rect" id="v-697" fill="#ffffff" rx="3" ry="3" pointer-events="none" width="104.875" height="19.3125" transform="matrix(1,0,0,1,-52.4,-9.7)"></rect><text joint-selector="text" id="v-696" font-size="17px" xml:space="preserve" y="0.8em" fill="#707070" text-anchor="middle" pointer-events="none" font-family="'DM Sans', DMSans, sans-serif" font-weight="normal" transform="matrix(1,0,0,1,0,-7.9)"><tspan dy="0" >[JSON REST]</tspan></text></g><g id="v-693"  label-idx="2" cursor="move" transform="matrix(1,0,0,1,1127.159423828125,708.3385009765625)" style="cursor: default; opacity: 1;"><rect joint-selector="rect" id="v-699" fill="#ffffff" rx="3" ry="3"  width="0" height="0" transform="matrix(1,0,0,1,0,0)" display="none"></rect><text joint-selector="text" id="v-698" fill="#000000" font-size="14" text-anchor="middle" pointer-events="none"></text></g></g><g  display="none"><g  transform="translate(1185, 600)" id="v-687"><circle  idx="0" r="10"></circle><path  idx="0" d="M16,5.333c-7.732,0-14,4.701-14,10.5c0,1.982,0.741,3.833,2.016,5.414L2,25.667l5.613-1.441c2.339,1.317,5.237,2.107,8.387,2.107c7.732,0,14-4.701,14-10.5C30,10.034,23.732,5.333,16,5.333z" transform="translate(5, -33)"></path><path  idx="0" transform="scale(.8) translate(9.5, -37)" d="M24.778,21.419 19.276,15.917 24.777,10.415 21.949,7.585 16.447,13.087 10.945,7.585 8.117,10.415 13.618,15.917 8.116,21.419 10.946,24.248 16.447,18.746 21.948,24.248z"><title>Remove vertex.</title></path></g><g  transform="translate(1119, 682)" id="v-688"><circle  idx="1" r="10"></circle><path  idx="1" d="M16,5.333c-7.732,0-14,4.701-14,10.5c0,1.982,0.741,3.833,2.016,5.414L2,25.667l5.613-1.441c2.339,1.317,5.237,2.107,8.387,2.107c7.732,0,14-4.701,14-10.5C30,10.034,23.732,5.333,16,5.333z" transform="translate(5, -33)"></path><path  idx="1" transform="scale(.8) translate(9.5, -37)" d="M24.778,21.419 19.276,15.917 24.777,10.415 21.949,7.585 16.447,13.087 10.945,7.585 8.117,10.415 13.618,15.917 8.116,21.419 10.946,24.248 16.447,18.746 21.948,24.248z"><title>Remove vertex.</title></path></g></g><g  id="v-704" display="none"><g  id="v-689"><path  end="source" d="M 26 0 L 0 13 L 26 26 z"></path></g><g  id="v-690"><path  end="target" d="M 26 0 L 0 13 L 26 26 z"></path></g></g><g  id="v-703" display="none"><g  id="v-686" transform="translate(1302.6821867801941, 521.1342115795914) "><g  event="remove"><circle r="11"></circle><path transform="scale(.8) translate(-16, -16)" d="M24.778,21.419 19.276,15.917 24.777,10.415 21.949,7.585 16.447,13.087 10.945,7.585 8.117,10.415 13.618,15.917 8.116,21.419 10.946,24.248 16.447,18.746 21.948,24.248z"></path><title>Remove link.</title></g><g  event="link:options"><circle r="11" transform="translate(25)"></circle><path fill="white" transform="scale(.55) translate(29, -16)" d="M31.229,17.736c0.064-0.571,0.104-1.148,0.104-1.736s-0.04-1.166-0.104-1.737l-4.377-1.557c-0.218-0.716-0.504-1.401-0.851-2.05l1.993-4.192c-0.725-0.91-1.549-1.734-2.458-2.459l-4.193,1.994c-0.647-0.347-1.334-0.632-2.049-0.849l-1.558-4.378C17.165,0.708,16.588,0.667,16,0.667s-1.166,0.041-1.737,0.105L12.707,5.15c-0.716,0.217-1.401,0.502-2.05,0.849L6.464,4.005C5.554,4.73,4.73,5.554,4.005,6.464l1.994,4.192c-0.347,0.648-0.632,1.334-0.849,2.05l-4.378,1.557C0.708,14.834,0.667,15.412,0.667,16s0.041,1.165,0.105,1.736l4.378,1.558c0.217,0.715,0.502,1.401,0.849,2.049l-1.994,4.193c0.725,0.909,1.549,1.733,2.459,2.458l4.192-1.993c0.648,0.347,1.334,0.633,2.05,0.851l1.557,4.377c0.571,0.064,1.148,0.104,1.737,0.104c0.588,0,1.165-0.04,1.736-0.104l1.558-4.377c0.715-0.218,1.399-0.504,2.049-0.851l4.193,1.993c0.909-0.725,1.733-1.549,2.458-2.458l-1.993-4.193c0.347-0.647,0.633-1.334,0.851-2.049L31.229,17.736zM16,20.871c-2.69,0-4.872-2.182-4.872-4.871c0-2.69,2.182-4.872,4.872-4.872c2.689,0,4.871,2.182,4.871,4.872C20.871,18.689,18.689,20.871,16,20.871z"></path><title>Link options.</title></g></g></g></g><!--z-index:44--><g   id="j_58" ><path  stroke="#707070" d="M 2095 1109 L 2095 1294" id="v-717" stroke-width="2" stroke-dasharray="30 30" fill="none" style="opacity: 1;"></path><path  fill="black" stroke="black" d="M 0 0 0 0" transform="matrix(6.123233995736766e-17,1,-1,6.123233995736766e-17,2095,1109)"></path><path  fill="#707070" stroke="#707070" d="M 20 0 L 0 10 L 20 20 z" id="v-719" transform="matrix(-1.8369701987210297e-16,-1,1,-1.8369701987210297e-16,2085,1294.0000000000002)" style="opacity: 1;"></path><path  d="M 2095 1109 L 2095 1294" id="v-718" fill="none" style="cursor: default;"></path><g ><g id="v-711"  label-idx="0" cursor="move" transform="matrix(1,0,0,1,2095,1201.5)" style="cursor: default; opacity: 1;"><rect joint-selector="rect" id="v-714" fill="#ffffff" rx="3" ry="3" pointer-events="none" width="157.46875" height="85.4375" transform="matrix(1,0,0,1,-78.7,-42.7)"></rect><text joint-selector="text" id="v-713" font-size="24px" xml:space="preserve" y="0.8em" fill="#707070" text-anchor="middle" pointer-events="none" font-family="'DM Sans', DMSans, sans-serif" font-weight="normal" transform="matrix(1,0,0,1,0,-39.6)"><tspan dy="0" >Wordt</tspan><tspan dy="1.2em" x="0" >telresultaat na</tspan><tspan dy="1.2em" x="0" >dubbele invoer</tspan></text></g><g id="v-712"  label-idx="1" cursor="move" transform="matrix(1,0,0,1,2085,1256.699951171875)" style="cursor: default; opacity: 1;"><rect joint-selector="rect" id="v-716" fill="#ffffff" rx="3" ry="3"  width="0" height="0" transform="matrix(1,0,0,1,0,0)" display="none"></rect><text joint-selector="text" id="v-715" fill="#000000" font-size="14" text-anchor="middle" pointer-events="none"></text></g></g><g  display="none"></g><g  id="v-721" display="none"><g  id="v-709"><path  end="source" d="M 26 0 L 0 13 L 26 26 z"></path></g><g  id="v-710"><path  end="target" d="M 26 0 L 0 13 L 26 26 z"></path></g></g><g  id="v-720" display="none"><g  id="v-708" transform="translate(2095, 1149) "><g  event="remove"><circle r="11"></circle><path transform="scale(.8) translate(-16, -16)" d="M24.778,21.419 19.276,15.917 24.777,10.415 21.949,7.585 16.447,13.087 10.945,7.585 8.117,10.415 13.618,15.917 8.116,21.419 10.946,24.248 16.447,18.746 21.948,24.248z"></path><title>Remove link.</title></g><g  event="link:options"><circle r="11" transform="translate(25)"></circle><path fill="white" transform="scale(.55) translate(29, -16)" d="M31.229,17.736c0.064-0.571,0.104-1.148,0.104-1.736s-0.04-1.166-0.104-1.737l-4.377-1.557c-0.218-0.716-0.504-1.401-0.851-2.05l1.993-4.192c-0.725-0.91-1.549-1.734-2.458-2.459l-4.193,1.994c-0.647-0.347-1.334-0.632-2.049-0.849l-1.558-4.378C17.165,0.708,16.588,0.667,16,0.667s-1.166,0.041-1.737,0.105L12.707,5.15c-0.716,0.217-1.401,0.502-2.05,0.849L6.464,4.005C5.554,4.73,4.73,5.554,4.005,6.464l1.994,4.192c-0.347,0.648-0.632,1.334-0.849,2.05l-4.378,1.557C0.708,14.834,0.667,15.412,0.667,16s0.041,1.165,0.105,1.736l4.378,1.558c0.217,0.715,0.502,1.401,0.849,2.049l-1.994,4.193c0.725,0.909,1.549,1.733,2.459,2.458l4.192-1.993c0.648,0.347,1.334,0.633,2.05,0.851l1.557,4.377c0.571,0.064,1.148,0.104,1.737,0.104c0.588,0,1.165-0.04,1.736-0.104l1.558-4.377c0.715-0.218,1.399-0.504,2.049-0.851l4.193,1.993c0.909-0.725,1.733-1.549,2.458-2.458l-1.993-4.193c0.347-0.647,0.633-1.334,0.851-2.049L31.229,17.736zM16,20.871c-2.69,0-4.872-2.182-4.872-4.871c0-2.69,2.182-4.872,4.872-4.872c2.689,0,4.871,2.182,4.871,4.872C20.871,18.689,18.689,20.871,16,20.871z"></path><title>Link options.</title></g></g></g></g><!--z-index:45--><g   id="j_59" ><path  stroke="#707070" d="M 2290 1109 L 2530 1294" id="v-734" stroke-width="2" stroke-dasharray="30 30" fill="none" style="opacity: 1;"></path><path  fill="black" stroke="black" d="M 0 0 0 0" transform="matrix(0.7923787777281701,0.6100294030667793,-0.6100294030667793,0.7923787777281701,2289.85009765625,1109)"></path><path  fill="#707070" stroke="#707070" d="M 20 0 L 0 10 L 20 20 z" id="v-736" transform="matrix(-0.7923787777281701,-0.6100294030667794,0.6100294030667794,-0.7923787777281701,2524.049812105989,1301.9237400110746)" style="opacity: 1;"></path><path  d="M 2290 1109 L 2530 1294" id="v-735" fill="none" style="cursor: default;"></path><g ><g id="v-728"  label-idx="0" cursor="move" transform="matrix(1,0,0,1,2410,1201.5)" style="cursor: default; opacity: 1;"><rect joint-selector="rect" id="v-731" fill="#ffffff" rx="3" ry="3" pointer-events="none" width="149.46875" height="56.640625" transform="matrix(1,0,0,1,-74.7,-28.3)"></rect><text joint-selector="text" id="v-730" font-size="24px" xml:space="preserve" y="0.8em" fill="#707070" text-anchor="middle" pointer-events="none" font-family="'DM Sans', DMSans, sans-serif" font-weight="normal" transform="matrix(1,0,0,1,0,-25.2)"><tspan dy="0" >Gebruikt</tspan><tspan dy="1.2em" x="0" >gegevens van</tspan></text></g><g id="v-729"  label-idx="1" cursor="move" transform="matrix(1,0,0,1,2400,1242.300048828125)" style="cursor: default; opacity: 1;"><rect joint-selector="rect" id="v-733" fill="#ffffff" rx="3" ry="3"  width="0" height="0" transform="matrix(1,0,0,1,0,0)" display="none"></rect><text joint-selector="text" id="v-732" fill="#000000" font-size="14" text-anchor="middle" pointer-events="none"></text></g></g><g  display="none"></g><g  id="v-738" display="none"><g  id="v-726"><path  end="source" d="M 26 0 L 0 13 L 26 26 z"></path></g><g  id="v-727"><path  end="target" d="M 26 0 L 0 13 L 26 26 z"></path></g></g><g  id="v-737" display="none"><g  id="v-725" transform="translate(2321.680407887877, 1133.4203144135722) "><g  event="remove"><circle r="11"></circle><path transform="scale(.8) translate(-16, -16)" d="M24.778,21.419 19.276,15.917 24.777,10.415 21.949,7.585 16.447,13.087 10.945,7.585 8.117,10.415 13.618,15.917 8.116,21.419 10.946,24.248 16.447,18.746 21.948,24.248z"></path><title>Remove link.</title></g><g  event="link:options"><circle r="11" transform="translate(25)"></circle><path fill="white" transform="scale(.55) translate(29, -16)" d="M31.229,17.736c0.064-0.571,0.104-1.148,0.104-1.736s-0.04-1.166-0.104-1.737l-4.377-1.557c-0.218-0.716-0.504-1.401-0.851-2.05l1.993-4.192c-0.725-0.91-1.549-1.734-2.458-2.459l-4.193,1.994c-0.647-0.347-1.334-0.632-2.049-0.849l-1.558-4.378C17.165,0.708,16.588,0.667,16,0.667s-1.166,0.041-1.737,0.105L12.707,5.15c-0.716,0.217-1.401,0.502-2.05,0.849L6.464,4.005C5.554,4.73,4.73,5.554,4.005,6.464l1.994,4.192c-0.347,0.648-0.632,1.334-0.849,2.05l-4.378,1.557C0.708,14.834,0.667,15.412,0.667,16s0.041,1.165,0.105,1.736l4.378,1.558c0.217,0.715,0.502,1.401,0.849,2.049l-1.994,4.193c0.725,0.909,1.549,1.733,2.459,2.458l4.192-1.993c0.648,0.347,1.334,0.633,2.05,0.851l1.557,4.377c0.571,0.064,1.148,0.104,1.737,0.104c0.588,0,1.165-0.04,1.736-0.104l1.558-4.377c0.715-0.218,1.399-0.504,2.049-0.851l4.193,1.993c0.909-0.725,1.733-1.549,2.458-2.458l-1.993-4.193c0.347-0.647,0.633-1.334,0.851-2.049L31.229,17.736zM16,20.871c-2.69,0-4.872-2.182-4.872-4.871c0-2.69,2.182-4.872,4.872-4.872c2.689,0,4.871,2.182,4.871,4.872C20.871,18.689,18.689,20.871,16,20.871z"></path><title>Link options.</title></g></g></g></g><!--z-index:46--><g   id="j_60" ><path  stroke="#707070" d="M 930 1106 L 1220 1297" id="v-751" stroke-width="2" stroke-dasharray="30 30" fill="none" style="opacity: 1;"></path><path  fill="black" stroke="black" d="M 0 0 0 0" transform="matrix(0.8363817857781579,0.5481473418876894,-0.5481473418876894,0.8363817857781579,930,1106.469970703125)"></path><path  fill="#707070" stroke="#707070" d="M 20 0 L 0 10 L 20 20 z" id="v-753" transform="matrix(-0.8363817857781579,-0.5481473418876895,0.5481473418876895,-0.8363817857781579,1214.5185749076547,1304.8938752610336)" style="opacity: 1;"></path><path  d="M 930 1106 L 1220 1297" id="v-752" fill="none" style="cursor: default;"></path><g ><g id="v-745"  label-idx="0" cursor="move" transform="matrix(1,0,0,1,1075,1201.5)" style="cursor: default; opacity: 1;"><rect joint-selector="rect" id="v-748" fill="#ffffff" rx="3" ry="3" pointer-events="none" width="181.46875" height="85.4375" transform="matrix(1,0,0,1,-90.7,-42.7)"></rect><text joint-selector="text" id="v-747" font-size="24px" xml:space="preserve" y="0.8em" fill="#707070" text-anchor="middle" pointer-events="none" font-family="'DM Sans', DMSans, sans-serif" font-weight="normal" transform="matrix(1,0,0,1,0,-39.6)"><tspan dy="0" >Gebruikt</tspan><tspan dy="1.2em" x="0" >zetelverdeling en</tspan><tspan dy="1.2em" x="0" >telresultaten</tspan></text></g><g id="v-746"  label-idx="1" cursor="move" transform="matrix(1,0,0,1,1065,1256.699951171875)" style="cursor: default; opacity: 1;"><rect joint-selector="rect" id="v-750" fill="#ffffff" rx="3" ry="3"  width="0" height="0" transform="matrix(1,0,0,1,0,0)" display="none"></rect><text joint-selector="text" id="v-749" fill="#000000" font-size="14" text-anchor="middle" pointer-events="none"></text></g></g><g  display="none"></g><g  id="v-755" display="none"><g  id="v-743"><path  end="source" d="M 26 0 L 0 13 L 26 26 z"></path></g><g  id="v-744"><path  end="target" d="M 26 0 L 0 13 L 26 26 z"></path></g></g><g  id="v-754" display="none"><g  id="v-742" transform="translate(963.4055440077897, 1128.0015824327168) "><g  event="remove"><circle r="11"></circle><path transform="scale(.8) translate(-16, -16)" d="M24.778,21.419 19.276,15.917 24.777,10.415 21.949,7.585 16.447,13.087 10.945,7.585 8.117,10.415 13.618,15.917 8.116,21.419 10.946,24.248 16.447,18.746 21.948,24.248z"></path><title>Remove link.</title></g><g  event="link:options"><circle r="11" transform="translate(25)"></circle><path fill="white" transform="scale(.55) translate(29, -16)" d="M31.229,17.736c0.064-0.571,0.104-1.148,0.104-1.736s-0.04-1.166-0.104-1.737l-4.377-1.557c-0.218-0.716-0.504-1.401-0.851-2.05l1.993-4.192c-0.725-0.91-1.549-1.734-2.458-2.459l-4.193,1.994c-0.647-0.347-1.334-0.632-2.049-0.849l-1.558-4.378C17.165,0.708,16.588,0.667,16,0.667s-1.166,0.041-1.737,0.105L12.707,5.15c-0.716,0.217-1.401,0.502-2.05,0.849L6.464,4.005C5.554,4.73,4.73,5.554,4.005,6.464l1.994,4.192c-0.347,0.648-0.632,1.334-0.849,2.05l-4.378,1.557C0.708,14.834,0.667,15.412,0.667,16s0.041,1.165,0.105,1.736l4.378,1.558c0.217,0.715,0.502,1.401,0.849,2.049l-1.994,4.193c0.725,0.909,1.549,1.733,2.459,2.458l4.192-1.993c0.648,0.347,1.334,0.633,2.05,0.851l1.557,4.377c0.571,0.064,1.148,0.104,1.737,0.104c0.588,0,1.165-0.04,1.736-0.104l1.558-4.377c0.715-0.218,1.399-0.504,2.049-0.851l4.193,1.993c0.909-0.725,1.733-1.549,2.458-2.458l-1.993-4.193c0.347-0.647,0.633-1.334,0.851-2.049L31.229,17.736zM16,20.871c-2.69,0-4.872-2.182-4.872-4.871c0-2.69,2.182-4.872,4.872-4.872c2.689,0,4.871,2.182,4.871,4.872C20.871,18.689,18.689,20.871,16,20.871z"></path><title>Link options.</title></g></g></g></g><!--z-index:47--><g   id="j_61" ><path  stroke="#707070" d="M 624 1109 L 525 1294" id="v-765" stroke-width="2" stroke-dasharray="30 30" fill="none" style="opacity: 1;"></path><path  fill="black" stroke="black" d="M 0 0 0 0" transform="matrix(-0.4738954976725737,0.8805810906927674,-0.8805810906927674,-0.4738954976725737,624.280029296875,1109)"></path><path  fill="#707070" stroke="#707070" d="M 20 0 L 0 10 L 20 20 z" id="v-767" transform="matrix(0.47389526315962727,-0.880581216898741,0.880581216898741,0.47389526315962727,515.9142195744163,1289.2610734045788)" style="opacity: 1;"></path><path  d="M 624 1109 L 525 1294" id="v-766" fill="none" style="cursor: default;"></path><g ><g id="v-759"  label-idx="0" cursor="move" transform="matrix(1,0,0,1,574.5,1201.5)" style="cursor: default; opacity: 1;"><rect joint-selector="rect" id="v-762" fill="#ffffff" rx="3" ry="3" pointer-events="none" width="90.71875" height="27.84375" transform="matrix(1,0,0,1,-45.4,-13.9)"></rect><text joint-selector="text" id="v-761" font-size="24px" xml:space="preserve" y="0.8em" fill="#707070" text-anchor="middle" pointer-events="none" font-family="'DM Sans', DMSans, sans-serif" font-weight="normal" transform="matrix(1,0,0,1,0,-10.8)"><tspan dy="0" >Gebruikt</tspan></text></g><g id="v-760"  label-idx="1" cursor="move" transform="matrix(1,0,0,1,564.5,1227.9000244140625)" style="cursor: default; opacity: 1;"><rect joint-selector="rect" id="v-764" fill="#ffffff" rx="3" ry="3"  width="0" height="0" transform="matrix(1,0,0,1,0,0)" display="none"></rect><text joint-selector="text" id="v-763" fill="#000000" font-size="14" text-anchor="middle" pointer-events="none"></text></g></g><g  display="none"></g><g  id="v-769" display="none"><g  id="v-757"><path  end="source" d="M 26 0 L 0 13 L 26 26 z"></path></g><g  id="v-758"><path  end="target" d="M 26 0 L 0 13 L 26 26 z"></path></g></g><g  id="v-768" display="none"><g  id="v-756" transform="translate(605.1270160183409, 1144.2676973394641) "><g  event="remove"><circle r="11"></circle><path transform="scale(.8) translate(-16, -16)" d="M24.778,21.419 19.276,15.917 24.777,10.415 21.949,7.585 16.447,13.087 10.945,7.585 8.117,10.415 13.618,15.917 8.116,21.419 10.946,24.248 16.447,18.746 21.948,24.248z"></path><title>Remove link.</title></g><g  event="link:options"><circle r="11" transform="translate(25)"></circle><path fill="white" transform="scale(.55) translate(29, -16)" d="M31.229,17.736c0.064-0.571,0.104-1.148,0.104-1.736s-0.04-1.166-0.104-1.737l-4.377-1.557c-0.218-0.716-0.504-1.401-0.851-2.05l1.993-4.192c-0.725-0.91-1.549-1.734-2.458-2.459l-4.193,1.994c-0.647-0.347-1.334-0.632-2.049-0.849l-1.558-4.378C17.165,0.708,16.588,0.667,16,0.667s-1.166,0.041-1.737,0.105L12.707,5.15c-0.716,0.217-1.401,0.502-2.05,0.849L6.464,4.005C5.554,4.73,4.73,5.554,4.005,6.464l1.994,4.192c-0.347,0.648-0.632,1.334-0.849,2.05l-4.378,1.557C0.708,14.834,0.667,15.412,0.667,16s0.041,1.165,0.105,1.736l4.378,1.558c0.217,0.715,0.502,1.401,0.849,2.049l-1.994,4.193c0.725,0.909,1.549,1.733,2.459,2.458l4.192-1.993c0.648,0.347,1.334,0.633,2.05,0.851l1.557,4.377c0.571,0.064,1.148,0.104,1.737,0.104c0.588,0,1.165-0.04,1.736-0.104l1.558-4.377c0.715-0.218,1.399-0.504,2.049-0.851l4.193,1.993c0.909-0.725,1.733-1.549,2.458-2.458l-1.993-4.193c0.347-0.647,0.633-1.334,0.851-2.049L31.229,17.736zM16,20.871c-2.69,0-4.872-2.182-4.872-4.871c0-2.69,2.182-4.872,4.872-4.872c2.689,0,4.871,2.182,4.871,4.872C20.871,18.689,18.689,20.871,16,20.871z"></path><title>Link options.</title></g></g></g></g><!--z-index:48--><g   id="j_62" ><path  stroke="#707070" d="M 778 1109 L 867 1294" id="v-779" stroke-width="2" stroke-dasharray="30 30" fill="none" style="opacity: 1;"></path><path  fill="black" stroke="black" d="M 0 0 0 0" transform="matrix(0.4360490606769993,0.8999228948541684,-0.8999228948541684,0.4360490606769993,777.6799926757812,1109)"></path><path  fill="#707070" stroke="#707070" d="M 20 0 L 0 10 L 20 20 z" id="v-781" transform="matrix(-0.4360490606769994,-0.8999228948541683,0.8999228948541683,-0.4360490606769994,858.3207953496346,1298.3604519771868)" style="opacity: 1;"></path><path  d="M 778 1109 L 867 1294" id="v-780" fill="none" style="cursor: default;"></path><g ><g id="v-773"  label-idx="0" cursor="move" transform="matrix(1,0,0,1,822.5,1201.5)" style="cursor: default; opacity: 1;"><rect joint-selector="rect" id="v-776" fill="#ffffff" rx="3" ry="3" pointer-events="none" width="90.71875" height="27.84375" transform="matrix(1,0,0,1,-45.4,-13.9)"></rect><text joint-selector="text" id="v-775" font-size="24px" xml:space="preserve" y="0.8em" fill="#707070" text-anchor="middle" pointer-events="none" font-family="'DM Sans', DMSans, sans-serif" font-weight="normal" transform="matrix(1,0,0,1,0,-10.8)"><tspan dy="0" >Gebruikt</tspan></text></g><g id="v-774"  label-idx="1" cursor="move" transform="matrix(1,0,0,1,812.5,1227.9000244140625)" style="cursor: default; opacity: 1;"><rect joint-selector="rect" id="v-778" fill="#ffffff" rx="3" ry="3"  width="0" height="0" transform="matrix(1,0,0,1,0,0)" display="none"></rect><text joint-selector="text" id="v-777" fill="#000000" font-size="14" text-anchor="middle" pointer-events="none"></text></g></g><g  display="none"></g><g  id="v-783" display="none"><g  id="v-771"><path  end="source" d="M 26 0 L 0 13 L 26 26 z"></path></g><g  id="v-772"><path  end="target" d="M 26 0 L 0 13 L 26 26 z"></path></g></g><g  id="v-782" display="none"><g  id="v-770" transform="translate(795.3409072978817, 1145.0457061809902) "><g  event="remove"><circle r="11"></circle><path transform="scale(.8) translate(-16, -16)" d="M24.778,21.419 19.276,15.917 24.777,10.415 21.949,7.585 16.447,13.087 10.945,7.585 8.117,10.415 13.618,15.917 8.116,21.419 10.946,24.248 16.447,18.746 21.948,24.248z"></path><title>Remove link.</title></g><g  event="link:options"><circle r="11" transform="translate(25)"></circle><path fill="white" transform="scale(.55) translate(29, -16)" d="M31.229,17.736c0.064-0.571,0.104-1.148,0.104-1.736s-0.04-1.166-0.104-1.737l-4.377-1.557c-0.218-0.716-0.504-1.401-0.851-2.05l1.993-4.192c-0.725-0.91-1.549-1.734-2.458-2.459l-4.193,1.994c-0.647-0.347-1.334-0.632-2.049-0.849l-1.558-4.378C17.165,0.708,16.588,0.667,16,0.667s-1.166,0.041-1.737,0.105L12.707,5.15c-0.716,0.217-1.401,0.502-2.05,0.849L6.464,4.005C5.554,4.73,4.73,5.554,4.005,6.464l1.994,4.192c-0.347,0.648-0.632,1.334-0.849,2.05l-4.378,1.557C0.708,14.834,0.667,15.412,0.667,16s0.041,1.165,0.105,1.736l4.378,1.558c0.217,0.715,0.502,1.401,0.849,2.049l-1.994,4.193c0.725,0.909,1.549,1.733,2.459,2.458l4.192-1.993c0.648,0.347,1.334,0.633,2.05,0.851l1.557,4.377c0.571,0.064,1.148,0.104,1.737,0.104c0.588,0,1.165-0.04,1.736-0.104l1.558-4.377c0.715-0.218,1.399-0.504,2.049-0.851l4.193,1.993c0.909-0.725,1.733-1.549,2.458-2.458l-1.993-4.193c0.347-0.647,0.633-1.334,0.851-2.049L31.229,17.736zM16,20.871c-2.69,0-4.872-2.182-4.872-4.871c0-2.69,2.182-4.872,4.872-4.872c2.689,0,4.871,2.182,4.871,4.872C20.871,18.689,18.689,20.871,16,20.871z"></path><title>Link options.</title></g></g></g></g><!--z-index:49--><g   id="j_63" ><path  stroke="#707070" d="M 1670 1444 L 1870 1444" id="v-793" stroke-width="2" stroke-dasharray="30 30" fill="none" style="opacity: 1;"></path><path  fill="black" stroke="black" d="M 0 0 0 0" transform="matrix(1,0,0,1,1670,1444)"></path><path  fill="#707070" stroke="#707070" d="M 20 0 L 0 10 L 20 20 z" id="v-795" transform="matrix(-1,1.2246467991473532e-16,-1.2246467991473532e-16,-1,1870.0000000000002,1454)" style="opacity: 1;"></path><path  d="M 1670 1444 L 1870 1444" id="v-794" fill="none" style="cursor: default;"></path><g ><g id="v-787"  label-idx="0" cursor="move" transform="matrix(1,0,0,1,1770,1444)" style="cursor: default; opacity: 1;"><rect joint-selector="rect" id="v-790" fill="#ffffff" rx="3" ry="3" pointer-events="none" width="90.71875" height="27.84375" transform="matrix(1,0,0,1,-45.4,-13.9)"></rect><text joint-selector="text" id="v-789" font-size="24px" xml:space="preserve" y="0.8em" fill="#707070" text-anchor="middle" pointer-events="none" font-family="'DM Sans', DMSans, sans-serif" font-weight="normal" transform="matrix(1,0,0,1,0,-10.8)"><tspan dy="0" >Gebruikt</tspan></text></g><g id="v-788"  label-idx="1" cursor="move" transform="matrix(1,0,0,1,1760,1470.4000244140625)" style="cursor: default; opacity: 1;"><rect joint-selector="rect" id="v-792" fill="#ffffff" rx="3" ry="3"  width="0" height="0" transform="matrix(1,0,0,1,0,0)" display="none"></rect><text joint-selector="text" id="v-791" fill="#000000" font-size="14" text-anchor="middle" pointer-events="none"></text></g></g><g  display="none"></g><g  id="v-797" display="none"><g  id="v-785"><path  end="source" d="M 26 0 L 0 13 L 26 26 z"></path></g><g  id="v-786"><path  end="target" d="M 26 0 L 0 13 L 26 26 z"></path></g></g><g  id="v-796" display="none"><g  id="v-784" transform="translate(1710, 1444) "><g  event="remove"><circle r="11"></circle><path transform="scale(.8) translate(-16, -16)" d="M24.778,21.419 19.276,15.917 24.777,10.415 21.949,7.585 16.447,13.087 10.945,7.585 8.117,10.415 13.618,15.917 8.116,21.419 10.946,24.248 16.447,18.746 21.948,24.248z"></path><title>Remove link.</title></g><g  event="link:options"><circle r="11" transform="translate(25)"></circle><path fill="white" transform="scale(.55) translate(29, -16)" d="M31.229,17.736c0.064-0.571,0.104-1.148,0.104-1.736s-0.04-1.166-0.104-1.737l-4.377-1.557c-0.218-0.716-0.504-1.401-0.851-2.05l1.993-4.192c-0.725-0.91-1.549-1.734-2.458-2.459l-4.193,1.994c-0.647-0.347-1.334-0.632-2.049-0.849l-1.558-4.378C17.165,0.708,16.588,0.667,16,0.667s-1.166,0.041-1.737,0.105L12.707,5.15c-0.716,0.217-1.401,0.502-2.05,0.849L6.464,4.005C5.554,4.73,4.73,5.554,4.005,6.464l1.994,4.192c-0.347,0.648-0.632,1.334-0.849,2.05l-4.378,1.557C0.708,14.834,0.667,15.412,0.667,16s0.041,1.165,0.105,1.736l4.378,1.558c0.217,0.715,0.502,1.401,0.849,2.049l-1.994,4.193c0.725,0.909,1.549,1.733,2.459,2.458l4.192-1.993c0.648,0.347,1.334,0.633,2.05,0.851l1.557,4.377c0.571,0.064,1.148,0.104,1.737,0.104c0.588,0,1.165-0.04,1.736-0.104l1.558-4.377c0.715-0.218,1.399-0.504,2.049-0.851l4.193,1.993c0.909-0.725,1.733-1.549,2.458-2.458l-1.993-4.193c0.347-0.647,0.633-1.334,0.851-2.049L31.229,17.736zM16,20.871c-2.69,0-4.872-2.182-4.872-4.871c0-2.69,2.182-4.872,4.872-4.872c2.689,0,4.871,2.182,4.871,4.872C20.871,18.689,18.689,20.871,16,20.871z"></path><title>Link options.</title></g></g></g></g><!--z-index:50--><g   id="j_64" ><path  stroke="#707070" d="M 2725 1109 L 2725 1294" id="v-807" stroke-width="2" stroke-dasharray="30 30" fill="none" style="opacity: 1;"></path><path  fill="black" stroke="black" d="M 0 0 0 0" transform="matrix(6.123233995736766e-17,1,-1,6.123233995736766e-17,2725,1109)"></path><path  fill="#707070" stroke="#707070" d="M 20 0 L 0 10 L 20 20 z" id="v-809" transform="matrix(-1.8369701987210297e-16,-1,1,-1.8369701987210297e-16,2715,1294.0000000000002)" style="opacity: 1;"></path><path  d="M 2725 1109 L 2725 1294" id="v-808" fill="none" style="cursor: default;"></path><g ><g id="v-801"  label-idx="0" cursor="move" transform="matrix(1,0,0,1,2725,1201.5)" style="cursor: default; opacity: 1;"><rect joint-selector="rect" id="v-804" fill="#ffffff" rx="3" ry="3" pointer-events="none" width="65.375" height="27.84375" transform="matrix(1,0,0,1,-32.7,-13.9)"></rect><text joint-selector="text" id="v-803" font-size="24px" xml:space="preserve" y="0.8em" fill="#707070" text-anchor="middle" pointer-events="none" font-family="'DM Sans', DMSans, sans-serif" font-weight="normal" transform="matrix(1,0,0,1,0,-10.8)"><tspan dy="0" >Maakt</tspan></text></g><g id="v-802"  label-idx="1" cursor="move" transform="matrix(1,0,0,1,2715,1227.9000244140625)" style="cursor: default; opacity: 1;"><rect joint-selector="rect" id="v-806" fill="#ffffff" rx="3" ry="3"  width="0" height="0" transform="matrix(1,0,0,1,0,0)" display="none"></rect><text joint-selector="text" id="v-805" fill="#000000" font-size="14" text-anchor="middle" pointer-events="none"></text></g></g><g  display="none"></g><g  id="v-811" display="none"><g  id="v-799"><path  end="source" d="M 26 0 L 0 13 L 26 26 z"></path></g><g  id="v-800"><path  end="target" d="M 26 0 L 0 13 L 26 26 z"></path></g></g><g  id="v-810" display="none"><g  id="v-798" transform="translate(2725, 1149) "><g  event="remove"><circle r="11"></circle><path transform="scale(.8) translate(-16, -16)" d="M24.778,21.419 19.276,15.917 24.777,10.415 21.949,7.585 16.447,13.087 10.945,7.585 8.117,10.415 13.618,15.917 8.116,21.419 10.946,24.248 16.447,18.746 21.948,24.248z"></path><title>Remove link.</title></g><g  event="link:options"><circle r="11" transform="translate(25)"></circle><path fill="white" transform="scale(.55) translate(29, -16)" d="M31.229,17.736c0.064-0.571,0.104-1.148,0.104-1.736s-0.04-1.166-0.104-1.737l-4.377-1.557c-0.218-0.716-0.504-1.401-0.851-2.05l1.993-4.192c-0.725-0.91-1.549-1.734-2.458-2.459l-4.193,1.994c-0.647-0.347-1.334-0.632-2.049-0.849l-1.558-4.378C17.165,0.708,16.588,0.667,16,0.667s-1.166,0.041-1.737,0.105L12.707,5.15c-0.716,0.217-1.401,0.502-2.05,0.849L6.464,4.005C5.554,4.73,4.73,5.554,4.005,6.464l1.994,4.192c-0.347,0.648-0.632,1.334-0.849,2.05l-4.378,1.557C0.708,14.834,0.667,15.412,0.667,16s0.041,1.165,0.105,1.736l4.378,1.558c0.217,0.715,0.502,1.401,0.849,2.049l-1.994,4.193c0.725,0.909,1.549,1.733,2.459,2.458l4.192-1.993c0.648,0.347,1.334,0.633,2.05,0.851l1.557,4.377c0.571,0.064,1.148,0.104,1.737,0.104c0.588,0,1.165-0.04,1.736-0.104l1.558-4.377c0.715-0.218,1.399-0.504,2.049-0.851l4.193,1.993c0.909-0.725,1.733-1.549,2.458-2.458l-1.993-4.193c0.347-0.647,0.633-1.334,0.851-2.049L31.229,17.736zM16,20.871c-2.69,0-4.872-2.182-4.872-4.871c0-2.69,2.182-4.872,4.872-4.872c2.689,0,4.871,2.182,4.871,4.872C20.871,18.689,18.689,20.871,16,20.871z"></path><title>Link options.</title></g></g></g></g><!--z-index:51--><g   id="j_65" ><path  stroke="#707070" d="M 2320 1444 L 2500 1444" id="v-821" stroke-width="2" stroke-dasharray="30 30" fill="none" style="opacity: 1;"></path><path  fill="black" stroke="black" d="M 0 0 0 0" transform="matrix(1,0,0,1,2320,1444)"></path><path  fill="#707070" stroke="#707070" d="M 20 0 L 0 10 L 20 20 z" id="v-823" transform="matrix(-1,1.2246467991473532e-16,-1.2246467991473532e-16,-1,2500,1454)" style="opacity: 1;"></path><path  d="M 2320 1444 L 2500 1444" id="v-822" fill="none" style="cursor: default;"></path><g ><g id="v-815"  label-idx="0" cursor="move" transform="matrix(1,0,0,1,2410,1444)" style="cursor: default; opacity: 1;"><rect joint-selector="rect" id="v-818" fill="#ffffff" rx="3" ry="3" pointer-events="none" width="90.71875" height="27.84375" transform="matrix(1,0,0,1,-45.4,-13.9)"></rect><text joint-selector="text" id="v-817" font-size="24px" xml:space="preserve" y="0.8em" fill="#707070" text-anchor="middle" pointer-events="none" font-family="'DM Sans', DMSans, sans-serif" font-weight="normal" transform="matrix(1,0,0,1,0,-10.8)"><tspan dy="0" >Gebruikt</tspan></text></g><g id="v-816"  label-idx="1" cursor="move" transform="matrix(1,0,0,1,2400,1470.4000244140625)" style="cursor: default; opacity: 1;"><rect joint-selector="rect" id="v-820" fill="#ffffff" rx="3" ry="3"  width="0" height="0" transform="matrix(1,0,0,1,0,0)" display="none"></rect><text joint-selector="text" id="v-819" fill="#000000" font-size="14" text-anchor="middle" pointer-events="none"></text></g></g><g  display="none"></g><g  id="v-825" display="none"><g  id="v-813"><path  end="source" d="M 26 0 L 0 13 L 26 26 z"></path></g><g  id="v-814"><path  end="target" d="M 26 0 L 0 13 L 26 26 z"></path></g></g><g  id="v-824" display="none"><g  id="v-812" transform="translate(2360, 1444) "><g  event="remove"><circle r="11"></circle><path transform="scale(.8) translate(-16, -16)" d="M24.778,21.419 19.276,15.917 24.777,10.415 21.949,7.585 16.447,13.087 10.945,7.585 8.117,10.415 13.618,15.917 8.116,21.419 10.946,24.248 16.447,18.746 21.948,24.248z"></path><title>Remove link.</title></g><g  event="link:options"><circle r="11" transform="translate(25)"></circle><path fill="white" transform="scale(.55) translate(29, -16)" d="M31.229,17.736c0.064-0.571,0.104-1.148,0.104-1.736s-0.04-1.166-0.104-1.737l-4.377-1.557c-0.218-0.716-0.504-1.401-0.851-2.05l1.993-4.192c-0.725-0.91-1.549-1.734-2.458-2.459l-4.193,1.994c-0.647-0.347-1.334-0.632-2.049-0.849l-1.558-4.378C17.165,0.708,16.588,0.667,16,0.667s-1.166,0.041-1.737,0.105L12.707,5.15c-0.716,0.217-1.401,0.502-2.05,0.849L6.464,4.005C5.554,4.73,4.73,5.554,4.005,6.464l1.994,4.192c-0.347,0.648-0.632,1.334-0.849,2.05l-4.378,1.557C0.708,14.834,0.667,15.412,0.667,16s0.041,1.165,0.105,1.736l4.378,1.558c0.217,0.715,0.502,1.401,0.849,2.049l-1.994,4.193c0.725,0.909,1.549,1.733,2.459,2.458l4.192-1.993c0.648,0.347,1.334,0.633,2.05,0.851l1.557,4.377c0.571,0.064,1.148,0.104,1.737,0.104c0.588,0,1.165-0.04,1.736-0.104l1.558-4.377c0.715-0.218,1.399-0.504,2.049-0.851l4.193,1.993c0.909-0.725,1.733-1.549,2.458-2.458l-1.993-4.193c0.347-0.647,0.633-1.334,0.851-2.049L31.229,17.736zM16,20.871c-2.69,0-4.872-2.182-4.872-4.871c0-2.69,2.182-4.872,4.872-4.872c2.689,0,4.871,2.182,4.871,4.872C20.871,18.689,18.689,20.871,16,20.871z"></path><title>Link options.</title></g></g></g></g><!--z-index:52--></g><g ></g><g ></g><g ></g></g></svg>