<svg xmlns="http://www.w3.org/2000/svg" xmlns:xlink="http://www.w3.org/1999/xlink" version="1.1" viewBox="0 0 2200 2691" style="background: #ffffff"><defs joint-selector="defs"></defs><g joint-selector="layers" transform="matrix(1,0,0,1,0,0)" ><g ></g><g ><!--z-index:1--><!--z-index:2--><!--z-index:3--><!--z-index:4--><!--z-index:5--><!--z-index:6--><!--z-index:7--><!--z-index:8--><!--z-index:9--><!--z-index:10--><!--z-index:11--><!--z-index:12--><!--z-index:13--><!--z-index:14--><!--z-index:15--><!--z-index:16--><g   id="j_63"  transform="translate(20,2654.6)"><g id="v-863"><text  id="v-864" font-size="22px" xml:space="preserve" y="0.8em" font-weight="normal" text-anchor="start" fill="#aaaaaa" pointer-events="none" display="block" font-family="'DM Sans', DMSans, sans-serif"><tspan dy="0" >Monday 24 June 2024 at 13:16 Central European Summer Time</tspan></text></g></g><!--z-index:17--><g   id="j_62"  transform="translate(20,2611.4)"><g id="v-861"><text  id="v-862" font-size="36px" xml:space="preserve" y="0.8em" font-weight="normal" text-anchor="start" fill="#000000" pointer-events="none" display="block" font-family="'DM Sans', DMSans, sans-serif"><tspan dy="0" >[Container] Abacus</tspan></text></g></g><!--z-index:18--><g   id="j_64"  transform="translate(200,199)" style=""><g  id="v-865" style="opacity: 1;"><rect  x="0" y="160" width="400" height="240" rx="70" id="v-867" stroke="#c7c7c7" stroke-width="2" pointer-events="visiblePainted" fill="#dddddd" style="fill: rgb(221, 221, 221); stroke: rgb(199, 199, 199);"></rect><circle  cx="200" cy="88.88888888888889" r="88.88888888888889" id="v-866" stroke="#c7c7c7" stroke-width="2" pointer-events="visiblePainted" fill="#dddddd" style="fill: rgb(221, 221, 221); stroke: rgb(199, 199, 199);"></circle><line  x1="80" y1="266.6666666666667" x2="80" y2="400" id="v-873" stroke="#c7c7c7" stroke-width="2" style="stroke: rgb(199, 199, 199);"></line><line  x1="320" y1="266.6666666666667" x2="320" y2="400" id="v-874" stroke="#c7c7c7" stroke-width="2" style="stroke: rgb(199, 199, 199);"></line><text  id="v-868" font-size="40" xml:space="preserve" y="0.8em" font-weight="bold" text-anchor="middle" pointer-events="visible" font-family="'DM Sans', DMSans, sans-serif" fill="#000000" transform="matrix(1,0,0,1,200,244.7)" style="fill: rgb(0, 0, 0);"><tspan dy="0" >Coördinator</tspan></text><text  id="v-869" font-size="23" xml:space="preserve" y="0.8em" text-anchor="middle" font-family="'DM Sans', DMSans, sans-serif" fill="#000000" transform="matrix(1,0,0,1,200,292.7)" style="fill: rgb(0, 0, 0);"><tspan dy="0" >[Person]</tspan></text><text  id="v-870" font-size="30" xml:space="preserve" display="none" y="0.8em" text-anchor="middle" font-family="'DM Sans', DMSans, sans-serif" fill="#000000" transform="matrix(1,0,0,1,200,320.3)" style="fill: rgb(0, 0, 0);"><tspan dy="0" style="fill-opacity: 0; stroke-opacity: 0;" >-</tspan></text><g  id="v-871" font-weight="normal" text-anchor="middle" color="#000000" transform="matrix(1,0,0,1,197.5,368)" display="none" style="fill: rgb(0, 0, 0);"><g ></g><g ></g><g ></g><g ></g></g><image  id="v-872"></image></g></g><!--z-index:19--><g   id="j_65"  transform="translate(900,199)" style=""><g  id="v-875" style="opacity: 1;"><rect  x="0" y="160" width="400" height="240" rx="70" id="v-877" stroke="#c7c7c7" stroke-width="2" pointer-events="visiblePainted" fill="#dddddd" style="fill: rgb(221, 221, 221); stroke: rgb(199, 199, 199);"></rect><circle  cx="200" cy="88.88888888888889" r="88.88888888888889" id="v-876" stroke="#c7c7c7" stroke-width="2" pointer-events="visiblePainted" fill="#dddddd" style="fill: rgb(221, 221, 221); stroke: rgb(199, 199, 199);"></circle><line  x1="80" y1="266.6666666666667" x2="80" y2="400" id="v-883" stroke="#c7c7c7" stroke-width="2" style="stroke: rgb(199, 199, 199);"></line><line  x1="320" y1="266.6666666666667" x2="320" y2="400" id="v-884" stroke="#c7c7c7" stroke-width="2" style="stroke: rgb(199, 199, 199);"></line><text  id="v-878" font-size="40" xml:space="preserve" y="0.8em" font-weight="bold" text-anchor="middle" pointer-events="visible" font-family="'DM Sans', DMSans, sans-serif" fill="#000000" transform="matrix(1,0,0,1,200,244.7)" style="fill: rgb(0, 0, 0);"><tspan dy="0" >Beheerder</tspan></text><text  id="v-879" font-size="23" xml:space="preserve" y="0.8em" text-anchor="middle" font-family="'DM Sans', DMSans, sans-serif" fill="#000000" transform="matrix(1,0,0,1,200,292.7)" style="fill: rgb(0, 0, 0);"><tspan dy="0" >[Person]</tspan></text><text  id="v-880" font-size="30" xml:space="preserve" display="none" y="0.8em" text-anchor="middle" font-family="'DM Sans', DMSans, sans-serif" fill="#000000" transform="matrix(1,0,0,1,200,320.3)" style="fill: rgb(0, 0, 0);"><tspan dy="0" style="fill-opacity: 0; stroke-opacity: 0;" >-</tspan></text><g  id="v-881" font-weight="normal" text-anchor="middle" color="#000000" transform="matrix(1,0,0,1,197.5,368)" display="none" style="fill: rgb(0, 0, 0);"><g ></g><g ></g><g ></g><g ></g></g><image  id="v-882"></image></g></g><!--z-index:20--><g   id="j_66"  transform="translate(1600,199)" style=""><g  id="v-885" style="opacity: 1;"><rect  x="0" y="160" width="400" height="240" rx="70" id="v-887" stroke="#c7c7c7" stroke-width="2" pointer-events="visiblePainted" fill="#dddddd" style="fill: rgb(221, 221, 221); stroke: rgb(199, 199, 199);"></rect><circle  cx="200" cy="88.88888888888889" r="88.88888888888889" id="v-886" stroke="#c7c7c7" stroke-width="2" pointer-events="visiblePainted" fill="#dddddd" style="fill: rgb(221, 221, 221); stroke: rgb(199, 199, 199);"></circle><line  x1="80" y1="266.6666666666667" x2="80" y2="400" id="v-893" stroke="#c7c7c7" stroke-width="2" style="stroke: rgb(199, 199, 199);"></line><line  x1="320" y1="266.6666666666667" x2="320" y2="400" id="v-894" stroke="#c7c7c7" stroke-width="2" style="stroke: rgb(199, 199, 199);"></line><text  id="v-888" font-size="40" xml:space="preserve" y="0.8em" font-weight="bold" text-anchor="middle" pointer-events="visible" font-family="'DM Sans', DMSans, sans-serif" fill="#000000" transform="matrix(1,0,0,1,200,244.7)" style="fill: rgb(0, 0, 0);"><tspan dy="0" >Invoerder</tspan></text><text  id="v-889" font-size="23" xml:space="preserve" y="0.8em" text-anchor="middle" font-family="'DM Sans', DMSans, sans-serif" fill="#000000" transform="matrix(1,0,0,1,200,292.7)" style="fill: rgb(0, 0, 0);"><tspan dy="0" >[Person]</tspan></text><text  id="v-890" font-size="30" xml:space="preserve" display="none" y="0.8em" text-anchor="middle" font-family="'DM Sans', DMSans, sans-serif" fill="#000000" transform="matrix(1,0,0,1,200,320.3)" style="fill: rgb(0, 0, 0);"><tspan dy="0" style="fill-opacity: 0; stroke-opacity: 0;" >-</tspan></text><g  id="v-891" font-weight="normal" text-anchor="middle" color="#000000" transform="matrix(1,0,0,1,197.5,368)" display="none" style="fill: rgb(0, 0, 0);"><g ></g><g ></g><g ></g><g ></g></g><image  id="v-892"></image></g></g><!--z-index:21--><g   id="j_68"  transform="translate(855,879)" style=""><g id="v-913"><rect  id="v-914" width="490" height="1611" rx="0" ry="0" fill="#ffffff" stroke="#0f5eaa" stroke-width="1" stroke-dasharray="20,20" pointer-events="none"></rect><text  id="v-915" font-size="24px" xml:space="preserve" y="1572" font-weight="normal" fill="#0f5eaa" text-anchor="start" pointer-events="visible" font-family="'DM Sans', DMSans, sans-serif" transform="matrix(1,0,0,1,15,0)"><tspan dy="0" >Abacus</tspan></text><text  id="v-916" font-size="17px" xml:space="preserve" y="1596" font-weight="normal" fill="#0f5eaa" text-anchor="start" pointer-events="visible" font-family="'DM Sans', DMSans, sans-serif" transform="matrix(1,0,0,1,15,0)"><tspan dy="0" >[Software System]</tspan></text><image  id="v-917" pointer-events="visible"></image></g></g><!--z-index:22--><g   id="j_67"  transform="translate(875,899)" style=""><g  id="v-901" style="opacity: 1;"><rect  id="v-902" rx="10" ry="10" stroke="#3c7fc0" stroke-width="2" pointer-events="visiblePainted" fill="#3c7fc0" width="450" height="300" style="fill: rgb(60, 127, 192); stroke: rgb(60, 127, 192);"></rect><rect  id="v-903" rx="10" ry="10" stroke="#3c7fc0" stroke-width="0" pointer-events="visiblePainted" fill="#438dd5" width="430" height="250" x="10" y="40" style="fill: rgb(67, 141, 213);"></rect><ellipse  id="v-910" fill="#438dd5" cx="20" cy="20" rx="10" ry="10" style="fill: rgb(67, 141, 213);"></ellipse><ellipse  id="v-911" fill="#438dd5" cx="50" cy="20" rx="10" ry="10" style="fill: rgb(67, 141, 213);"></ellipse><ellipse  id="v-912" fill="#438dd5" cx="80" cy="20" rx="10" ry="10" style="fill: rgb(67, 141, 213);"></ellipse><rect  id="v-904" rx="10" ry="10" stroke="#444444" stroke-width="0" pointer-events="visiblePainted" fill="#438dd5" width="340" height="20" x="100" y="10" style="fill: rgb(67, 141, 213);"></rect><text  id="v-905" font-size="34" xml:space="preserve" y="0.8em" font-weight="bold" text-anchor="middle" pointer-events="visible" font-family="'DM Sans', DMSans, sans-serif" fill="#ffffff" transform="matrix(1,0,0,1,225,92.9)" style="fill: rgb(255, 255, 255);"><tspan dy="0" >Frontend</tspan></text><text  id="v-906" font-size="17" xml:space="preserve" y="0.8em" text-anchor="middle" font-family="'DM Sans', DMSans, sans-serif" fill="#ffffff" transform="matrix(1,0,0,1,225,133.7)" style="fill: rgb(255, 255, 255);"><tspan dy="0" >[Container: Single-Page Application - TypeScript,</tspan><tspan dy="1.2em" x="0" >React]</tspan></text><text  id="v-907" font-size="24" xml:space="preserve" y="0.8em" text-anchor="middle" font-family="'DM Sans', DMSans, sans-serif" fill="#ffffff" transform="matrix(1,0,0,1,225,184.5)" style="fill: rgb(255, 255, 255);"><tspan dy="0" >Biedt alle Abacus functionaliteit via</tspan><tspan dy="1.2em" x="0" >een webbrowser.</tspan></text><g  id="v-908" font-weight="normal" text-anchor="middle" color="#ffffff" transform="matrix(1,0,0,1,222.5,258)" display="none" style="fill: rgb(255, 255, 255);"><g ></g><g ></g><g ></g><g ></g></g><image  id="v-909"></image></g></g><!--z-index:23--><g   id="j_69"  transform="translate(875,1499)" style=""><g  id="v-918" style="opacity: 1;"><rect  id="v-919" rx="1" ry="1" stroke="#3c7fc0" stroke-width="2" pointer-events="visiblePainted" fill="#438dd5" width="450" height="300" style="fill: rgb(67, 141, 213); stroke: rgb(60, 127, 192);"></rect><text  id="v-920" font-size="34" xml:space="preserve" y="0.8em" font-weight="bold" text-anchor="middle" pointer-events="visible" font-family="'DM Sans', DMSans, sans-serif" fill="#ffffff" transform="matrix(1,0,0,1,225,102.5)" style="fill: rgb(255, 255, 255);"><tspan dy="0" >Backend</tspan></text><text  id="v-921" font-size="17" xml:space="preserve" y="0.8em" text-anchor="middle" font-family="'DM Sans', DMSans, sans-serif" fill="#ffffff" transform="matrix(1,0,0,1,225,143.3)" style="fill: rgb(255, 255, 255);"><tspan dy="0" >[Container: Rust]</tspan></text><text  id="v-922" font-size="24" xml:space="preserve" y="0.8em" text-anchor="middle" font-family="'DM Sans', DMSans, sans-serif" fill="#ffffff" transform="matrix(1,0,0,1,225,173.7)" style="fill: rgb(255, 255, 255);"><tspan dy="0" >Biedt Abacus API</tspan></text><g  id="v-923" color="#ffffff" transform="matrix(1,0,0,1,210,268)" display="none" style="fill: rgb(255, 255, 255);"><g  transform="translate(5 0)"><svg xmlns="http://www.w3.org/2000/svg" width="20" height="20" fill="currentColor" viewBox="0 0 16 16"><path fill-rule="evenodd" d="M6.5 12a5.5 5.5 0 1 0 0-11 5.5 5.5 0 0 0 0 11zM13 6.5a6.5 6.5 0 1 1-13 0 6.5 6.5 0 0 1 13 0z"></path><path d="M10.344 11.742c.03.04.062.078.098.115l3.85 3.85a1 1 0 0 0 1.415-1.414l-3.85-3.85a1.007 1.007 0 0 0-.115-.1 6.538 6.538 0 0 1-1.398 1.4z"></path><path fill-rule="evenodd" d="M6.5 3a.5.5 0 0 1 .5.5V6h2.5a.5.5 0 0 1 0 1H7v2.5a.5.5 0 0 1-1 0V7H3.5a.5.5 0 0 1 0-1H6V3.5a.5.5 0 0 1 .5-.5z"></path></svg></g><g ></g><g ></g><g ></g></g><image  id="v-924"></image></g></g><!--z-index:24--><g   id="j_70"  transform="translate(875,2099)" style=""><g  id="v-928" style="opacity: 1;"><path  d="M 0,30 a 225,30 0,0,0 450 0 a 225,30 0,0,0 -450 0 l 0,240 a 225,30 0,0,0 450 0 l 0,-240" id="v-929" stroke="#3c7fc0" stroke-width="2" pointer-events="visiblePainted" fill="#438dd5" style="fill: rgb(67, 141, 213); stroke: rgb(60, 127, 192);"></path><rect  id="v-930" stroke-width="0" pointer-events="visiblePainted" fill="none" stroke="none" width="450" height="270" x="0" y="30"></rect><text  id="v-931" font-size="34" xml:space="preserve" y="0.8em" font-weight="bold" text-anchor="middle" pointer-events="visible" font-family="'DM Sans', DMSans, sans-serif" fill="#ffffff" transform="matrix(1,0,0,1,225,125)" style="fill: rgb(255, 255, 255);"><tspan dy="0" >Database</tspan></text><text  id="v-932" font-size="17" xml:space="preserve" y="0.8em" text-anchor="middle" font-family="'DM Sans', DMSans, sans-serif" fill="#ffffff" transform="matrix(1,0,0,1,225,165.8)" style="fill: rgb(255, 255, 255);"><tspan dy="0" >[Container: Bewaart ingevoerde gegevens]</tspan></text><text  id="v-933" font-size="24" xml:space="preserve" y="0.8em" text-anchor="middle" font-family="'DM Sans', DMSans, sans-serif" fill="#ffffff" transform="matrix(1,0,0,1,225,196.2)" style="fill: rgb(255, 255, 255);"><tspan dy="0" >SQLite</tspan></text><g  id="v-934" font-weight="normal" text-anchor="middle" color="#ffffff" transform="matrix(1,0,0,1,222.5,268)" display="none" style="fill: rgb(255, 255, 255);"><g ></g><g ></g><g ></g><g ></g></g><image  id="v-935"></image></g></g><!--z-index:25--><g   id="j_71" ><path  stroke="#707070" d="M 600 585 L 938 899" id="v-951" stroke-width="2" stroke-dasharray="30 30" fill="none" style="opacity: 1;"></path><path  fill="black" stroke="black" d="M 0 0 0 0" transform="matrix(0.7327873441550872,0.6804577196609162,-0.6804577196609162,0.7327873441550872,600,584.7100219726562)"></path><path  fill="#707070" stroke="#707070" d="M 20 0 L 0 10 L 20 20 z" id="v-953" transform="matrix(-0.7327872988508725,-0.6804577684491832,0.6804577684491832,-0.7327872988508725,931.6554364172978,906.3278852433127)" style="opacity: 1;"></path><path  d="M 600 585 L 938 899" id="v-952" fill="none" style="cursor: auto; pointer-events: visiblepainted;"></path><g ><g id="v-942"  label-idx="0" cursor="move" transform="matrix(1,0,0,1,769,742)" style="cursor: default; opacity: 1;"><rect joint-selector="rect" id="v-946" fill="#ffffff" rx="3" ry="3" pointer-events="none" width="137.40625" height="84.796875" transform="matrix(1,0,0,1,-68.7,-42.4)"></rect><text joint-selector="text" id="v-945" font-size="24px" xml:space="preserve" y="0.8em" fill="#707070" text-anchor="middle" pointer-events="none" font-family="'DM Sans', DMSans, sans-serif" font-weight="normal" transform="matrix(1,0,0,1,0,-39.9)"><tspan dy="0" >Coördineert</tspan><tspan dy="1.2em" x="0" >zitting en</tspan><tspan dy="1.2em" x="0" >invoerproces</tspan></text></g><g id="v-943"  label-idx="1" cursor="move" transform="matrix(1,0,0,1,769,797.2000122070312)" style="cursor: default; opacity: 1;"><rect joint-selector="rect" id="v-948" fill="#ffffff" rx="3" ry="3" pointer-events="none" width="65.1875" height="20.1875" transform="matrix(1,0,0,1,-32.6,-10.1)"></rect><text joint-selector="text" id="v-947" font-size="17px" xml:space="preserve" y="0.8em" fill="#707070" text-anchor="middle" pointer-events="none" font-family="'DM Sans', DMSans, sans-serif" font-weight="normal" transform="matrix(1,0,0,1,0,-7.4)"><tspan dy="0" >[HTTPS]</tspan></text></g><g id="v-944"  label-idx="2" cursor="move" transform="matrix(1,0,0,1,759,805.5999755859375)" style="cursor: default; opacity: 1;"><rect joint-selector="rect" id="v-950" fill="#ffffff" rx="3" ry="3"  width="0" height="0" transform="matrix(1,0,0,1,0,0)" display="none"></rect><text joint-selector="text" id="v-949" fill="#000000" font-size="14" text-anchor="middle" pointer-events="none"></text></g></g><g  display="none" style="display: none;"></g><g  id="v-955" display="none"><g  id="v-940"><path  end="source" d="M 26 0 L 0 13 L 26 26 z"></path></g><g  id="v-941"><path  end="target" d="M 26 0 L 0 13 L 26 26 z"></path></g></g><g  id="v-954" display="none"><g  id="v-939" transform="translate(629.305562817114, 612.2246944514018) "><g  event="remove"><circle r="11"></circle><path transform="scale(.8) translate(-16, -16)" d="M24.778,21.419 19.276,15.917 24.777,10.415 21.949,7.585 16.447,13.087 10.945,7.585 8.117,10.415 13.618,15.917 8.116,21.419 10.946,24.248 16.447,18.746 21.948,24.248z"></path><title>Remove link.</title></g><g  event="link:options"><circle r="11" transform="translate(25)"></circle><path fill="white" transform="scale(.55) translate(29, -16)" d="M31.229,17.736c0.064-0.571,0.104-1.148,0.104-1.736s-0.04-1.166-0.104-1.737l-4.377-1.557c-0.218-0.716-0.504-1.401-0.851-2.05l1.993-4.192c-0.725-0.91-1.549-1.734-2.458-2.459l-4.193,1.994c-0.647-0.347-1.334-0.632-2.049-0.849l-1.558-4.378C17.165,0.708,16.588,0.667,16,0.667s-1.166,0.041-1.737,0.105L12.707,5.15c-0.716,0.217-1.401,0.502-2.05,0.849L6.464,4.005C5.554,4.73,4.73,5.554,4.005,6.464l1.994,4.192c-0.347,0.648-0.632,1.334-0.849,2.05l-4.378,1.557C0.708,14.834,0.667,15.412,0.667,16s0.041,1.165,0.105,1.736l4.378,1.558c0.217,0.715,0.502,1.401,0.849,2.049l-1.994,4.193c0.725,0.909,1.549,1.733,2.459,2.458l4.192-1.993c0.648,0.347,1.334,0.633,2.05,0.851l1.557,4.377c0.571,0.064,1.148,0.104,1.737,0.104c0.588,0,1.165-0.04,1.736-0.104l1.558-4.377c0.715-0.218,1.399-0.504,2.049-0.851l4.193,1.993c0.909-0.725,1.733-1.549,2.458-2.458l-1.993-4.193c0.347-0.647,0.633-1.334,0.851-2.049L31.229,17.736zM16,20.871c-2.69,0-4.872-2.182-4.872-4.871c0-2.69,2.182-4.872,4.872-4.872c2.689,0,4.871,2.182,4.871,4.872C20.871,18.689,18.689,20.871,16,20.871z"></path><title>Link options.</title></g></g></g></g><!--z-index:26--><g   id="j_72" ><path  stroke="#707070" d="M 1600 585 L 1262 899" id="v-971" stroke-width="2" stroke-dasharray="30 30" fill="none" style="opacity: 1;"></path><path  fill="black" stroke="black" d="M 0 0 0 0" transform="matrix(-0.7327872988508723,0.6804577684491833,-0.6804577684491833,-0.7327872988508723,1600,584.7100219726562)"></path><path  fill="#707070" stroke="#707070" d="M 20 0 L 0 10 L 20 20 z" id="v-973" transform="matrix(0.7327872988508726,-0.680457768449183,0.680457768449183,0.7327872988508726,1254.7354692488748,891.6721392662953)" style="opacity: 1;"></path><path  d="M 1600 585 L 1262 899" id="v-972" fill="none" style="cursor: auto; pointer-events: visiblepainted;"></path><g ><g id="v-962"  label-idx="0" cursor="move" transform="matrix(1,0,0,1,1431,742)" style="cursor: default; opacity: 1;"><rect joint-selector="rect" id="v-966" fill="#ffffff" rx="3" ry="3" pointer-events="none" width="178.78125" height="27.203125" transform="matrix(1,0,0,1,-89.4,-13.6)"></rect><text joint-selector="text" id="v-965" font-size="24px" xml:space="preserve" y="0.8em" fill="#707070" text-anchor="middle" pointer-events="none" font-family="'DM Sans', DMSans, sans-serif" font-weight="normal" transform="matrix(1,0,0,1,0,-11.1)"><tspan dy="0" >Voert tellingen in</tspan></text></g><g id="v-963"  label-idx="1" cursor="move" transform="matrix(1,0,0,1,1431,768.4000244140625)" style="cursor: default; opacity: 1;"><rect joint-selector="rect" id="v-968" fill="#ffffff" rx="3" ry="3" pointer-events="none" width="65.1875" height="20.1875" transform="matrix(1,0,0,1,-32.6,-10.1)"></rect><text joint-selector="text" id="v-967" font-size="17px" xml:space="preserve" y="0.8em" fill="#707070" text-anchor="middle" pointer-events="none" font-family="'DM Sans', DMSans, sans-serif" font-weight="normal" transform="matrix(1,0,0,1,0,-7.4)"><tspan dy="0" >[HTTPS]</tspan></text></g><g id="v-964"  label-idx="2" cursor="move" transform="matrix(1,0,0,1,1421,776.7999877929688)" style="cursor: default; opacity: 1;"><rect joint-selector="rect" id="v-970" fill="#ffffff" rx="3" ry="3"  width="0" height="0" transform="matrix(1,0,0,1,0,0)" display="none"></rect><text joint-selector="text" id="v-969" fill="#000000" font-size="14" text-anchor="middle" pointer-events="none"></text></g></g><g  display="none" style="display: none;"></g><g  id="v-975" display="none"><g  id="v-960"><path  end="source" d="M 26 0 L 0 13 L 26 26 z"></path></g><g  id="v-961"><path  end="target" d="M 26 0 L 0 13 L 26 26 z"></path></g></g><g  id="v-974" display="none"><g  id="v-959" transform="translate(1570.694437182886, 612.2246944514018) "><g  event="remove"><circle r="11"></circle><path transform="scale(.8) translate(-16, -16)" d="M24.778,21.419 19.276,15.917 24.777,10.415 21.949,7.585 16.447,13.087 10.945,7.585 8.117,10.415 13.618,15.917 8.116,21.419 10.946,24.248 16.447,18.746 21.948,24.248z"></path><title>Remove link.</title></g><g  event="link:options"><circle r="11" transform="translate(25)"></circle><path fill="white" transform="scale(.55) translate(29, -16)" d="M31.229,17.736c0.064-0.571,0.104-1.148,0.104-1.736s-0.04-1.166-0.104-1.737l-4.377-1.557c-0.218-0.716-0.504-1.401-0.851-2.05l1.993-4.192c-0.725-0.91-1.549-1.734-2.458-2.459l-4.193,1.994c-0.647-0.347-1.334-0.632-2.049-0.849l-1.558-4.378C17.165,0.708,16.588,0.667,16,0.667s-1.166,0.041-1.737,0.105L12.707,5.15c-0.716,0.217-1.401,0.502-2.05,0.849L6.464,4.005C5.554,4.73,4.73,5.554,4.005,6.464l1.994,4.192c-0.347,0.648-0.632,1.334-0.849,2.05l-4.378,1.557C0.708,14.834,0.667,15.412,0.667,16s0.041,1.165,0.105,1.736l4.378,1.558c0.217,0.715,0.502,1.401,0.849,2.049l-1.994,4.193c0.725,0.909,1.549,1.733,2.459,2.458l4.192-1.993c0.648,0.347,1.334,0.633,2.05,0.851l1.557,4.377c0.571,0.064,1.148,0.104,1.737,0.104c0.588,0,1.165-0.04,1.736-0.104l1.558-4.377c0.715-0.218,1.399-0.504,2.049-0.851l4.193,1.993c0.909-0.725,1.733-1.549,2.458-2.458l-1.993-4.193c0.347-0.647,0.633-1.334,0.851-2.049L31.229,17.736zM16,20.871c-2.69,0-4.872-2.182-4.872-4.871c0-2.69,2.182-4.872,4.872-4.872c2.689,0,4.871,2.182,4.871,4.872C20.871,18.689,18.689,20.871,16,20.871z"></path><title>Link options.</title></g></g></g></g><!--z-index:27--><g   id="j_73" ><path  stroke="#707070" d="M 1100 599 L 1100 899" id="v-991" stroke-width="2" stroke-dasharray="30 30" fill="none" style="opacity: 1;"></path><path  fill="black" stroke="black" d="M 0 0 0 0" transform="matrix(6.123233995736766e-17,1,-1,6.123233995736766e-17,1100,599)"></path><path  fill="#707070" stroke="#707070" d="M 20 0 L 0 10 L 20 20 z" id="v-993" transform="matrix(-1.8369701987210297e-16,-1,1,-1.8369701987210297e-16,1090,898.9999999999995)" style="opacity: 1;"></path><path  d="M 1100 599 L 1100 899" id="v-992" fill="none" style="cursor: auto; pointer-events: visiblepainted;"></path><g ><g id="v-982"  label-idx="0" cursor="move" transform="matrix(1,0,0,1,1100,749)" style="cursor: default; opacity: 1;"><rect joint-selector="rect" id="v-986" fill="#ffffff" rx="3" ry="3" pointer-events="none" width="141.4375" height="84.796875" transform="matrix(1,0,0,1,-70.7,-42.4)"></rect><text joint-selector="text" id="v-985" font-size="24px" xml:space="preserve" y="0.8em" fill="#707070" text-anchor="middle" pointer-events="none" font-family="'DM Sans', DMSans, sans-serif" font-weight="normal" transform="matrix(1,0,0,1,0,-39.9)"><tspan dy="0" >Beheert</tspan><tspan dy="1.2em" x="0" >verkiezing en</tspan><tspan dy="1.2em" x="0" >gebruikers</tspan></text></g><g id="v-983"  label-idx="1" cursor="move" transform="matrix(1,0,0,1,1100,804.2000122070312)" style="cursor: default; opacity: 1;"><rect joint-selector="rect" id="v-988" fill="#ffffff" rx="3" ry="3" pointer-events="none" width="65.1875" height="20.1875" transform="matrix(1,0,0,1,-32.6,-10.1)"></rect><text joint-selector="text" id="v-987" font-size="17px" xml:space="preserve" y="0.8em" fill="#707070" text-anchor="middle" pointer-events="none" font-family="'DM Sans', DMSans, sans-serif" font-weight="normal" transform="matrix(1,0,0,1,0,-7.4)"><tspan dy="0" >[HTTPS]</tspan></text></g><g id="v-984"  label-idx="2" cursor="move" transform="matrix(1,0,0,1,1090,812.5999755859375)" style="cursor: default; opacity: 1;"><rect joint-selector="rect" id="v-990" fill="#ffffff" rx="3" ry="3"  width="0" height="0" transform="matrix(1,0,0,1,0,0)" display="none"></rect><text joint-selector="text" id="v-989" fill="#000000" font-size="14" text-anchor="middle" pointer-events="none"></text></g></g><g  display="none" style="display: none;"></g><g  id="v-995" display="none"><g  id="v-980"><path  end="source" d="M 26 0 L 0 13 L 26 26 z"></path></g><g  id="v-981"><path  end="target" d="M 26 0 L 0 13 L 26 26 z"></path></g></g><g  id="v-994" display="none"><g  id="v-979" transform="translate(1100, 639) "><g  event="remove"><circle r="11"></circle><path transform="scale(.8) translate(-16, -16)" d="M24.778,21.419 19.276,15.917 24.777,10.415 21.949,7.585 16.447,13.087 10.945,7.585 8.117,10.415 13.618,15.917 8.116,21.419 10.946,24.248 16.447,18.746 21.948,24.248z"></path><title>Remove link.</title></g><g  event="link:options"><circle r="11" transform="translate(25)"></circle><path fill="white" transform="scale(.55) translate(29, -16)" d="M31.229,17.736c0.064-0.571,0.104-1.148,0.104-1.736s-0.04-1.166-0.104-1.737l-4.377-1.557c-0.218-0.716-0.504-1.401-0.851-2.05l1.993-4.192c-0.725-0.91-1.549-1.734-2.458-2.459l-4.193,1.994c-0.647-0.347-1.334-0.632-2.049-0.849l-1.558-4.378C17.165,0.708,16.588,0.667,16,0.667s-1.166,0.041-1.737,0.105L12.707,5.15c-0.716,0.217-1.401,0.502-2.05,0.849L6.464,4.005C5.554,4.73,4.73,5.554,4.005,6.464l1.994,4.192c-0.347,0.648-0.632,1.334-0.849,2.05l-4.378,1.557C0.708,14.834,0.667,15.412,0.667,16s0.041,1.165,0.105,1.736l4.378,1.558c0.217,0.715,0.502,1.401,0.849,2.049l-1.994,4.193c0.725,0.909,1.549,1.733,2.459,2.458l4.192-1.993c0.648,0.347,1.334,0.633,2.05,0.851l1.557,4.377c0.571,0.064,1.148,0.104,1.737,0.104c0.588,0,1.165-0.04,1.736-0.104l1.558-4.377c0.715-0.218,1.399-0.504,2.049-0.851l4.193,1.993c0.909-0.725,1.733-1.549,2.458-2.458l-1.993-4.193c0.347-0.647,0.633-1.334,0.851-2.049L31.229,17.736zM16,20.871c-2.69,0-4.872-2.182-4.872-4.871c0-2.69,2.182-4.872,4.872-4.872c2.689,0,4.871,2.182,4.871,4.872C20.871,18.689,18.689,20.871,16,20.871z"></path><title>Link options.</title></g></g></g></g><!--z-index:28--><g   id="j_74" ><path  stroke="#707070" d="M 1100 1199 L 1100 1499" id="v-1011" stroke-width="2" stroke-dasharray="30 30" fill="none" style="opacity: 1;"></path><path  fill="black" stroke="black" d="M 0 0 0 0" transform="matrix(6.123233995736766e-17,1,-1,6.123233995736766e-17,1100,1199)"></path><path  fill="#707070" stroke="#707070" d="M 20 0 L 0 10 L 20 20 z" id="v-1013" transform="matrix(-1.8369701987210297e-16,-1,1,-1.8369701987210297e-16,1090,1498.9999999999995)" style="opacity: 1;"></path><path  d="M 1100 1199 L 1100 1499" id="v-1012" fill="none" style="cursor: auto; pointer-events: visiblepainted;"></path><g ><g id="v-1002"  label-idx="0" cursor="move" transform="matrix(1,0,0,1,1100,1349)" style="cursor: default; opacity: 1;"><rect joint-selector="rect" id="v-1006" fill="#ffffff" rx="3" ry="3" pointer-events="none" width="156.0625" height="56" transform="matrix(1,0,0,1,-78,-28)"></rect><text joint-selector="text" id="v-1005" font-size="24px" xml:space="preserve" y="0.8em" fill="#707070" text-anchor="middle" pointer-events="none" font-family="'DM Sans', DMSans, sans-serif" font-weight="normal" transform="matrix(1,0,0,1,0,-25.5)"><tspan dy="0" >Communiceert</tspan><tspan dy="1.2em" x="0" >met</tspan></text></g><g id="v-1003"  label-idx="1" cursor="move" transform="matrix(1,0,0,1,1100,1389.800048828125)" style="cursor: default; opacity: 1;"><rect joint-selector="rect" id="v-1008" fill="#ffffff" rx="3" ry="3" pointer-events="none" width="104.875" height="20.1875" transform="matrix(1,0,0,1,-52.4,-10.1)"></rect><text joint-selector="text" id="v-1007" font-size="17px" xml:space="preserve" y="0.8em" fill="#707070" text-anchor="middle" pointer-events="none" font-family="'DM Sans', DMSans, sans-serif" font-weight="normal" transform="matrix(1,0,0,1,0,-7.4)"><tspan dy="0" >[JSON REST]</tspan></text></g><g id="v-1004"  label-idx="2" cursor="move" transform="matrix(1,0,0,1,1090,1398.199951171875)" style="cursor: default; opacity: 1;"><rect joint-selector="rect" id="v-1010" fill="#ffffff" rx="3" ry="3"  width="0" height="0" transform="matrix(1,0,0,1,0,0)" display="none"></rect><text joint-selector="text" id="v-1009" fill="#000000" font-size="14" text-anchor="middle" pointer-events="none"></text></g></g><g  display="none" style="display: none;"></g><g  id="v-1015" display="none"><g  id="v-1000"><path  end="source" d="M 26 0 L 0 13 L 26 26 z"></path></g><g  id="v-1001"><path  end="target" d="M 26 0 L 0 13 L 26 26 z"></path></g></g><g  id="v-1014" display="none"><g  id="v-999" transform="translate(1100, 1239) "><g  event="remove"><circle r="11"></circle><path transform="scale(.8) translate(-16, -16)" d="M24.778,21.419 19.276,15.917 24.777,10.415 21.949,7.585 16.447,13.087 10.945,7.585 8.117,10.415 13.618,15.917 8.116,21.419 10.946,24.248 16.447,18.746 21.948,24.248z"></path><title>Remove link.</title></g><g  event="link:options"><circle r="11" transform="translate(25)"></circle><path fill="white" transform="scale(.55) translate(29, -16)" d="M31.229,17.736c0.064-0.571,0.104-1.148,0.104-1.736s-0.04-1.166-0.104-1.737l-4.377-1.557c-0.218-0.716-0.504-1.401-0.851-2.05l1.993-4.192c-0.725-0.91-1.549-1.734-2.458-2.459l-4.193,1.994c-0.647-0.347-1.334-0.632-2.049-0.849l-1.558-4.378C17.165,0.708,16.588,0.667,16,0.667s-1.166,0.041-1.737,0.105L12.707,5.15c-0.716,0.217-1.401,0.502-2.05,0.849L6.464,4.005C5.554,4.73,4.73,5.554,4.005,6.464l1.994,4.192c-0.347,0.648-0.632,1.334-0.849,2.05l-4.378,1.557C0.708,14.834,0.667,15.412,0.667,16s0.041,1.165,0.105,1.736l4.378,1.558c0.217,0.715,0.502,1.401,0.849,2.049l-1.994,4.193c0.725,0.909,1.549,1.733,2.459,2.458l4.192-1.993c0.648,0.347,1.334,0.633,2.05,0.851l1.557,4.377c0.571,0.064,1.148,0.104,1.737,0.104c0.588,0,1.165-0.04,1.736-0.104l1.558-4.377c0.715-0.218,1.399-0.504,2.049-0.851l4.193,1.993c0.909-0.725,1.733-1.549,2.458-2.458l-1.993-4.193c0.347-0.647,0.633-1.334,0.851-2.049L31.229,17.736zM16,20.871c-2.69,0-4.872-2.182-4.872-4.871c0-2.69,2.182-4.872,4.872-4.872c2.689,0,4.871,2.182,4.871,4.872C20.871,18.689,18.689,20.871,16,20.871z"></path><title>Link options.</title></g></g></g></g><!--z-index:29--><g   id="j_75" ><path  stroke="#707070" d="M 1100 1799 L 1100 2099" id="v-1031" stroke-width="2" stroke-dasharray="30 30" fill="none" style="opacity: 1;"></path><path  fill="black" stroke="black" d="M 0 0 0 0" transform="matrix(6.123233995736766e-17,1,-1,6.123233995736766e-17,1100,1799)"></path><path  fill="#707070" stroke="#707070" d="M 20 0 L 0 10 L 20 20 z" id="v-1033" transform="matrix(-1.8369701987210297e-16,-1,1,-1.8369701987210297e-16,1090,2098.9999999999995)" style="opacity: 1;"></path><path  d="M 1100 1799 L 1100 2099" id="v-1032" fill="none" style="cursor: auto; pointer-events: visiblepainted;"></path><g ><g id="v-1022"  label-idx="0" cursor="move" transform="matrix(1,0,0,1,1100,1949)" style="cursor: default; opacity: 1;"><rect joint-selector="rect" id="v-1026" fill="#ffffff" rx="3" ry="3" pointer-events="none" width="137.4375" height="56" transform="matrix(1,0,0,1,-68.7,-28)"></rect><text joint-selector="text" id="v-1025" font-size="24px" xml:space="preserve" y="0.8em" fill="#707070" text-anchor="middle" pointer-events="none" font-family="'DM Sans', DMSans, sans-serif" font-weight="normal" transform="matrix(1,0,0,1,0,-25.5)"><tspan dy="0" >Leest van en</tspan><tspan dy="1.2em" x="0" >schrijft naar</tspan></text></g><g id="v-1023"  label-idx="1" cursor="move" transform="matrix(1,0,0,1,1100,1989.800048828125)" style="cursor: default; opacity: 1;"><rect joint-selector="rect" id="v-1028" fill="#ffffff" rx="3" ry="3" pointer-events="none" width="43.46875" height="20.1875" transform="matrix(1,0,0,1,-21.7,-10.1)"></rect><text joint-selector="text" id="v-1027" font-size="17px" xml:space="preserve" y="0.8em" fill="#707070" text-anchor="middle" pointer-events="none" font-family="'DM Sans', DMSans, sans-serif" font-weight="normal" transform="matrix(1,0,0,1,0,-7.4)"><tspan dy="0" >[SQL]</tspan></text></g><g id="v-1024"  label-idx="2" cursor="move" transform="matrix(1,0,0,1,1090,1998.199951171875)" style="cursor: default; opacity: 1;"><rect joint-selector="rect" id="v-1030" fill="#ffffff" rx="3" ry="3"  width="0" height="0" transform="matrix(1,0,0,1,0,0)" display="none"></rect><text joint-selector="text" id="v-1029" fill="#000000" font-size="14" text-anchor="middle" pointer-events="none"></text></g></g><g  display="none" style="display: none;"></g><g  id="v-1035" display="none"><g  id="v-1020"><path  end="source" d="M 26 0 L 0 13 L 26 26 z"></path></g><g  id="v-1021"><path  end="target" d="M 26 0 L 0 13 L 26 26 z"></path></g></g><g  id="v-1034" display="none"><g  id="v-1019" transform="translate(1100, 1839) "><g  event="remove"><circle r="11"></circle><path transform="scale(.8) translate(-16, -16)" d="M24.778,21.419 19.276,15.917 24.777,10.415 21.949,7.585 16.447,13.087 10.945,7.585 8.117,10.415 13.618,15.917 8.116,21.419 10.946,24.248 16.447,18.746 21.948,24.248z"></path><title>Remove link.</title></g><g  event="link:options"><circle r="11" transform="translate(25)"></circle><path fill="white" transform="scale(.55) translate(29, -16)" d="M31.229,17.736c0.064-0.571,0.104-1.148,0.104-1.736s-0.04-1.166-0.104-1.737l-4.377-1.557c-0.218-0.716-0.504-1.401-0.851-2.05l1.993-4.192c-0.725-0.91-1.549-1.734-2.458-2.459l-4.193,1.994c-0.647-0.347-1.334-0.632-2.049-0.849l-1.558-4.378C17.165,0.708,16.588,0.667,16,0.667s-1.166,0.041-1.737,0.105L12.707,5.15c-0.716,0.217-1.401,0.502-2.05,0.849L6.464,4.005C5.554,4.73,4.73,5.554,4.005,6.464l1.994,4.192c-0.347,0.648-0.632,1.334-0.849,2.05l-4.378,1.557C0.708,14.834,0.667,15.412,0.667,16s0.041,1.165,0.105,1.736l4.378,1.558c0.217,0.715,0.502,1.401,0.849,2.049l-1.994,4.193c0.725,0.909,1.549,1.733,2.459,2.458l4.192-1.993c0.648,0.347,1.334,0.633,2.05,0.851l1.557,4.377c0.571,0.064,1.148,0.104,1.737,0.104c0.588,0,1.165-0.04,1.736-0.104l1.558-4.377c0.715-0.218,1.399-0.504,2.049-0.851l4.193,1.993c0.909-0.725,1.733-1.549,2.458-2.458l-1.993-4.193c0.347-0.647,0.633-1.334,0.851-2.049L31.229,17.736zM16,20.871c-2.69,0-4.872-2.182-4.872-4.871c0-2.69,2.182-4.872,4.872-4.872c2.689,0,4.871,2.182,4.871,4.872C20.871,18.689,18.689,20.871,16,20.871z"></path><title>Link options.</title></g></g></g></g><!--z-index:30--><!--z-index:31--><!--z-index:32--><!--z-index:33--><!--z-index:34--><!--z-index:35--><!--z-index:36--><!--z-index:37--><!--z-index:38--><!--z-index:39--><!--z-index:40--><!--z-index:41--><!--z-index:42--><!--z-index:43--><!--z-index:44--><!--z-index:45--><!--z-index:46--><!--z-index:47--><!--z-index:48--><!--z-index:49--><!--z-index:50--><!--z-index:51--><!--z-index:52--><!--z-index:53--><!--z-index:54--><!--z-index:55--><!--z-index:56--><!--z-index:57--><!--z-index:58--><!--z-index:59--><!--z-index:60--></g><g ></g><g ></g><g ></g></g></svg>