<svg xmlns="http://www.w3.org/2000/svg" xmlns:xlink="http://www.w3.org/1999/xlink" version="1.1" viewBox="0 0 2200 2691" style="background: transparent"><defs joint-selector="defs"></defs><g joint-selector="layers"  transform="matrix(1,0,0,1,0,0)"><g ></g><g ><!--z-index:1--><!--z-index:2--><!--z-index:3--><!--z-index:4--><!--z-index:5--><!--z-index:6--><!--z-index:7--><!--z-index:8--><!--z-index:9--><!--z-index:10--><!--z-index:11--><!--z-index:12--><!--z-index:13--><!--z-index:14--><!--z-index:15--><!--z-index:16--><g   id="j_2"  transform="translate(20,2654.6)"><g id="v-5"><text  id="v-6" font-size="22px" xml:space="preserve" y="0.8em" font-weight="normal" text-anchor="start" fill="#777777" pointer-events="none" display="block" font-family="'DM Sans', DMSans, sans-serif"><tspan dy="0"  display="block">Monday, October 21, 2024 at 10:40 PM Central European Summer Time</tspan></text></g></g><!--z-index:17--><g   id="j_1"  transform="translate(20,2611.4)"><g id="v-3"><text  id="v-4" font-size="36px" xml:space="preserve" y="0.8em" font-weight="normal" text-anchor="start" fill="#bbbbbb" pointer-events="none" display="block" font-family="'DM Sans', DMSans, sans-serif"><tspan dy="0"  display="block">[Container] Abacus</tspan></text></g></g><!--z-index:18--><g   id="j_3"  transform="translate(199,200)" style=""><g  id="v-7" style="opacity: 1;"><rect  x="0" y="160" width="400" height="240" rx="70" id="v-9" stroke="#c7c7c7" stroke-width="2" pointer-events="visiblePainted" fill="#dddddd" style="fill: rgb(221, 221, 221); stroke: rgb(199, 199, 199);"></rect><circle  cx="200" cy="88.88888888888889" r="88.88888888888889" id="v-8" stroke="#c7c7c7" stroke-width="2" pointer-events="visiblePainted" fill="#dddddd" style="fill: rgb(221, 221, 221); stroke: rgb(199, 199, 199);"></circle><line  x1="80" y1="266.6666666666667" x2="80" y2="400" id="v-15" stroke="#c7c7c7" stroke-width="2" style="stroke: rgb(199, 199, 199);"></line><line  x1="320" y1="266.6666666666667" x2="320" y2="400" id="v-16" stroke="#c7c7c7" stroke-width="2" style="stroke: rgb(199, 199, 199);"></line><text  id="v-10" font-size="40" xml:space="preserve" y="0.8em" font-weight="bold" text-anchor="middle" pointer-events="visible" font-family="'DM Sans', DMSans, sans-serif" fill="#000000" transform="matrix(1,0,0,1,200,244.7)" style="fill: rgb(0, 0, 0);"><tspan dy="0" >Coordinator</tspan></text><text  id="v-11" font-size="23" xml:space="preserve" y="0.8em" text-anchor="middle" font-family="'DM Sans', DMSans, sans-serif" fill="#000000" transform="matrix(1,0,0,1,200,292.7)" style="fill: rgb(0, 0, 0);"><tspan dy="0" >[Person]</tspan></text><text  id="v-12" font-size="30" xml:space="preserve" display="none" y="0.8em" text-anchor="middle" font-family="'DM Sans', DMSans, sans-serif" fill="#000000" transform="matrix(1,0,0,1,200,320.3)" style="fill: rgb(0, 0, 0);"><tspan dy="0" style="fill-opacity: 0; stroke-opacity: 0;" >-</tspan></text><g  id="v-13" font-weight="normal" text-anchor="middle" color="#000000" transform="matrix(1,0,0,1,197.5,368)" display="none" style="fill: rgb(0, 0, 0);"><g ></g><g ></g><g ></g><g ></g></g><image  id="v-14"></image></g></g><!--z-index:19--><g   id="j_4"  transform="translate(899,200)" style=""><g  id="v-17" style="opacity: 1;"><rect  x="0" y="160" width="400" height="240" rx="70" id="v-19" stroke="#c7c7c7" stroke-width="2" pointer-events="visiblePainted" fill="#dddddd" style="fill: rgb(221, 221, 221); stroke: rgb(199, 199, 199);"></rect><circle  cx="200" cy="88.88888888888889" r="88.88888888888889" id="v-18" stroke="#c7c7c7" stroke-width="2" pointer-events="visiblePainted" fill="#dddddd" style="fill: rgb(221, 221, 221); stroke: rgb(199, 199, 199);"></circle><line  x1="80" y1="266.6666666666667" x2="80" y2="400" id="v-25" stroke="#c7c7c7" stroke-width="2" style="stroke: rgb(199, 199, 199);"></line><line  x1="320" y1="266.6666666666667" x2="320" y2="400" id="v-26" stroke="#c7c7c7" stroke-width="2" style="stroke: rgb(199, 199, 199);"></line><text  id="v-20" font-size="40" xml:space="preserve" y="0.8em" font-weight="bold" text-anchor="middle" pointer-events="visible" font-family="'DM Sans', DMSans, sans-serif" fill="#000000" transform="matrix(1,0,0,1,200,244.7)" style="fill: rgb(0, 0, 0);"><tspan dy="0" >Administrator</tspan></text><text  id="v-21" font-size="23" xml:space="preserve" y="0.8em" text-anchor="middle" font-family="'DM Sans', DMSans, sans-serif" fill="#000000" transform="matrix(1,0,0,1,200,292.7)" style="fill: rgb(0, 0, 0);"><tspan dy="0" >[Person]</tspan></text><text  id="v-22" font-size="30" xml:space="preserve" display="none" y="0.8em" text-anchor="middle" font-family="'DM Sans', DMSans, sans-serif" fill="#000000" transform="matrix(1,0,0,1,200,320.3)" style="fill: rgb(0, 0, 0);"><tspan dy="0" style="fill-opacity: 0; stroke-opacity: 0;" >-</tspan></text><g  id="v-23" font-weight="normal" text-anchor="middle" color="#000000" transform="matrix(1,0,0,1,197.5,368)" display="none" style="fill: rgb(0, 0, 0);"><g ></g><g ></g><g ></g><g ></g></g><image  id="v-24"></image></g></g><!--z-index:20--><g   id="j_5"  transform="translate(1599,200)" style=""><g  id="v-27" style="opacity: 1;"><rect  x="0" y="160" width="400" height="240" rx="70" id="v-29" stroke="#c7c7c7" stroke-width="2" pointer-events="visiblePainted" fill="#dddddd" style="fill: rgb(221, 221, 221); stroke: rgb(199, 199, 199);"></rect><circle  cx="200" cy="88.88888888888889" r="88.88888888888889" id="v-28" stroke="#c7c7c7" stroke-width="2" pointer-events="visiblePainted" fill="#dddddd" style="fill: rgb(221, 221, 221); stroke: rgb(199, 199, 199);"></circle><line  x1="80" y1="266.6666666666667" x2="80" y2="400" id="v-35" stroke="#c7c7c7" stroke-width="2" style="stroke: rgb(199, 199, 199);"></line><line  x1="320" y1="266.6666666666667" x2="320" y2="400" id="v-36" stroke="#c7c7c7" stroke-width="2" style="stroke: rgb(199, 199, 199);"></line><text  id="v-30" font-size="40" xml:space="preserve" y="0.8em" font-weight="bold" text-anchor="middle" pointer-events="visible" font-family="'DM Sans', DMSans, sans-serif" fill="#000000" transform="matrix(1,0,0,1,200,244.7)" style="fill: rgb(0, 0, 0);"><tspan dy="0" >Typist</tspan></text><text  id="v-31" font-size="23" xml:space="preserve" y="0.8em" text-anchor="middle" font-family="'DM Sans', DMSans, sans-serif" fill="#000000" transform="matrix(1,0,0,1,200,292.7)" style="fill: rgb(0, 0, 0);"><tspan dy="0" >[Person]</tspan></text><text  id="v-32" font-size="30" xml:space="preserve" display="none" y="0.8em" text-anchor="middle" font-family="'DM Sans', DMSans, sans-serif" fill="#000000" transform="matrix(1,0,0,1,200,320.3)" style="fill: rgb(0, 0, 0);"><tspan dy="0" style="fill-opacity: 0; stroke-opacity: 0;" >-</tspan></text><g  id="v-33" font-weight="normal" text-anchor="middle" color="#000000" transform="matrix(1,0,0,1,197.5,368)" display="none" style="fill: rgb(0, 0, 0);"><g ></g><g ></g><g ></g><g ></g></g><image  id="v-34"></image></g></g><!--z-index:21--><g   id="j_7"  transform="translate(854,880)" style=""><g id="v-55"><rect  id="v-56" width="490" height="1611" rx="0" ry="0" fill="transparent" stroke="#0f5eaa" stroke-width="1" stroke-dasharray="20,20" pointer-events="none"></rect><text  id="v-57" font-size="24px" xml:space="preserve" y="1572" font-weight="normal" fill="#0f5eaa" text-anchor="start" pointer-events="visible" font-family="'DM Sans', DMSans, sans-serif" transform="matrix(1,0,0,1,15,0)"><tspan dy="0" >Abacus</tspan></text><text  id="v-58" font-size="17px" xml:space="preserve" y="1596" font-weight="normal" fill="#0f5eaa" text-anchor="start" pointer-events="visible" font-family="'DM Sans', DMSans, sans-serif" transform="matrix(1,0,0,1,15,0)"><tspan dy="0" >[Software System]</tspan></text><image  id="v-59" pointer-events="visible"></image></g></g><!--z-index:22--><g   id="j_6"  transform="translate(874,900)" style=""><g  id="v-43" style="opacity: 1;"><rect  id="v-44" rx="10" ry="10" stroke="#3c7fc0" stroke-width="2" pointer-events="visiblePainted" fill="#3c7fc0" width="450" height="300" style="fill: rgb(60, 127, 192); stroke: rgb(60, 127, 192);"></rect><rect  id="v-45" rx="10" ry="10" stroke="#3c7fc0" stroke-width="0" pointer-events="visiblePainted" fill="#438dd5" width="430" height="250" x="10" y="40" style="fill: rgb(67, 141, 213);"></rect><ellipse  id="v-52" fill="#438dd5" cx="20" cy="20" rx="10" ry="10" style="fill: rgb(67, 141, 213);"></ellipse><ellipse  id="v-53" fill="#438dd5" cx="50" cy="20" rx="10" ry="10" style="fill: rgb(67, 141, 213);"></ellipse><ellipse  id="v-54" fill="#438dd5" cx="80" cy="20" rx="10" ry="10" style="fill: rgb(67, 141, 213);"></ellipse><rect  id="v-46" rx="10" ry="10" stroke="#444444" stroke-width="0" pointer-events="visiblePainted" fill="#438dd5" width="340" height="20" x="100" y="10" style="fill: rgb(67, 141, 213);"></rect><text  id="v-47" font-size="34" xml:space="preserve" y="0.8em" font-weight="bold" text-anchor="middle" pointer-events="visible" font-family="'DM Sans', DMSans, sans-serif" fill="transparent" transform="matrix(1,0,0,1,225,92.9)" style="fill: rgb(255, 255, 255);"><tspan dy="0" >Frontend</tspan></text><text  id="v-48" font-size="17" xml:space="preserve" y="0.8em" text-anchor="middle" font-family="'DM Sans', DMSans, sans-serif" fill="transparent" transform="matrix(1,0,0,1,225,133.7)" style="fill: rgb(255, 255, 255);"><tspan dy="0" >[Container: Single-Page Application - TypeScript,</tspan><tspan dy="1.2em" x="0" >React]</tspan></text><text  id="v-49" font-size="24" xml:space="preserve" y="0.8em" text-anchor="middle" font-family="'DM Sans', DMSans, sans-serif" fill="transparent" transform="matrix(1,0,0,1,225,184.5)" style="fill: rgb(255, 255, 255);"><tspan dy="0" >Offers all Abacus functionality via</tspan><tspan dy="1.2em" x="0" >a web browser.</tspan></text><g  id="v-50" font-weight="normal" text-anchor="middle" color="transparent" transform="matrix(1,0,0,1,222.5,258)" display="none" style="fill: rgb(255, 255, 255);"><g ></g><g ></g><g ></g><g ></g></g><image  id="v-51"></image></g></g><!--z-index:23--><g   id="j_8"  transform="translate(874,1500)" style=""><g  id="v-60" style="opacity: 1;"><rect  id="v-61" rx="1" ry="1" stroke="#3c7fc0" stroke-width="2" pointer-events="visiblePainted" fill="#438dd5" width="450" height="300" style="fill: rgb(67, 141, 213); stroke: rgb(60, 127, 192);"></rect><text  id="v-62" font-size="34" xml:space="preserve" y="0.8em" font-weight="bold" text-anchor="middle" pointer-events="visible" font-family="'DM Sans', DMSans, sans-serif" fill="transparent" transform="matrix(1,0,0,1,225,102.5)" style="fill: rgb(255, 255, 255);"><tspan dy="0" >Backend</tspan></text><text  id="v-63" font-size="17" xml:space="preserve" y="0.8em" text-anchor="middle" font-family="'DM Sans', DMSans, sans-serif" fill="transparent" transform="matrix(1,0,0,1,225,143.3)" style="fill: rgb(255, 255, 255);"><tspan dy="0" >[Container: Rust]</tspan></text><text  id="v-64" font-size="24" xml:space="preserve" y="0.8em" text-anchor="middle" font-family="'DM Sans', DMSans, sans-serif" fill="transparent" transform="matrix(1,0,0,1,225,173.7)" style="fill: rgb(255, 255, 255);"><tspan dy="0" >Offers Abacus API</tspan></text><g  id="v-65" color="transparent" transform="matrix(1,0,0,1,210,268)" display="none" style="fill: rgb(255, 255, 255);"><g  transform="translate(5 0)"><svg xmlns="http://www.w3.org/2000/svg" width="20" height="20" fill="currentColor" viewBox="0 0 16 16"><path fill-rule="evenodd" d="M6.5 12a5.5 5.5 0 1 0 0-11 5.5 5.5 0 0 0 0 11zM13 6.5a6.5 6.5 0 1 1-13 0 6.5 6.5 0 0 1 13 0z"></path><path d="M10.344 11.742c.03.04.062.078.098.115l3.85 3.85a1 1 0 0 0 1.415-1.414l-3.85-3.85a1.007 1.007 0 0 0-.115-.1 6.538 6.538 0 0 1-1.398 1.4z"></path><path fill-rule="evenodd" d="M6.5 3a.5.5 0 0 1 .5.5V6h2.5a.5.5 0 0 1 0 1H7v2.5a.5.5 0 0 1-1 0V7H3.5a.5.5 0 0 1 0-1H6V3.5a.5.5 0 0 1 .5-.5z"></path></svg></g><g ></g><g ></g><g ></g></g><image  id="v-66"></image></g></g><!--z-index:24--><g   id="j_9"  transform="translate(874,2100)" style=""><g  id="v-70" style="opacity: 1;"><path  d="M 0,30 a 225,30 0,0,0 450 0 a 225,30 0,0,0 -450 0 l 0,240 a 225,30 0,0,0 450 0 l 0,-240" id="v-71" stroke="#3c7fc0" stroke-width="2" pointer-events="visiblePainted" fill="#438dd5" style="fill: rgb(67, 141, 213); stroke: rgb(60, 127, 192);"></path><rect  id="v-72" stroke-width="0" pointer-events="visiblePainted" fill="none" stroke="none" width="450" height="270" x="0" y="30"></rect><text  id="v-73" font-size="34" xml:space="preserve" y="0.8em" font-weight="bold" text-anchor="middle" pointer-events="visible" font-family="'DM Sans', DMSans, sans-serif" fill="transparent" transform="matrix(1,0,0,1,225,125)" style="fill: rgb(255, 255, 255);"><tspan dy="0" >Database</tspan></text><text  id="v-74" font-size="17" xml:space="preserve" y="0.8em" text-anchor="middle" font-family="'DM Sans', DMSans, sans-serif" fill="transparent" transform="matrix(1,0,0,1,225,165.8)" style="fill: rgb(255, 255, 255);"><tspan dy="0" >[Container: SQLite]</tspan></text><text  id="v-75" font-size="24" xml:space="preserve" y="0.8em" text-anchor="middle" font-family="'DM Sans', DMSans, sans-serif" fill="transparent" transform="matrix(1,0,0,1,225,196.2)" style="fill: rgb(255, 255, 255);"><tspan dy="0" >Stores entered data</tspan></text><g  id="v-76" font-weight="normal" text-anchor="middle" color="transparent" transform="matrix(1,0,0,1,222.5,268)" display="none" style="fill: rgb(255, 255, 255);"><g ></g><g ></g><g ></g><g ></g></g><image  id="v-77"></image></g></g><!--z-index:25--><g   id="j_10" ><path  stroke="#aaaaaa" d="M 599 586 L 937 900" id="v-93" stroke-width="2" stroke-dasharray="30 30" fill="none" style="opacity: 1;"></path><path  fill="black" stroke="black" d="M 0 0 0 0" transform="matrix(0.7327873441550871,0.6804577196609162,-0.6804577196609162,0.7327873441550871,599,585.7100219726562)"></path><path  fill="#aaaaaa" stroke="#aaaaaa" d="M 20 0 L 0 10 L 20 20 z" id="v-95" transform="matrix(-0.7327872988508725,-0.6804577684491832,0.6804577684491832,-0.7327872988508725,930.6554364172981,907.3278852433131)" style="opacity: 1;"></path><path  d="M 599 586 L 937 900" id="v-94" fill="none" style="cursor: auto; pointer-events: visiblepainted;"></path><g ><g id="v-84"  label-idx="0" cursor="move" transform="matrix(1,0,0,1,768,743)" style="cursor: default; opacity: 1;"><rect joint-selector="rect" id="v-88" fill="transparent" rx="3" ry="3" pointer-events="none" width="137.09963989257812" height="85.97768020629883" transform="matrix(1,0,0,1,-68.5,-43)"></rect><text joint-selector="text" id="v-87" font-size="24px" xml:space="preserve" y="0.8em" fill="#aaaaaa" text-anchor="middle" pointer-events="none" font-family="'DM Sans', DMSans, sans-serif" font-weight="normal" transform="matrix(1,0,0,1,0,-39.5)"><tspan dy="0" >Coordinates</tspan><tspan dy="1.2em" x="0" >session and</tspan><tspan dy="1.2em" x="0" >data entry process</tspan></text></g><g id="v-85"  label-idx="1" cursor="move" transform="matrix(1,0,0,1,768,798.2000122070312)" style="cursor: default; opacity: 1;"><rect joint-selector="rect" id="v-90" fill="transparent" rx="3" ry="3" pointer-events="none" width="66.05884552001953" height="17.02660369873047" transform="matrix(1,0,0,1,-32.6,-8.5)"></rect><text joint-selector="text" id="v-89" font-size="17px" xml:space="preserve" y="0.8em" fill="#aaaaaa" text-anchor="middle" pointer-events="none" font-family="'DM Sans', DMSans, sans-serif" font-weight="normal" transform="matrix(1,0,0,1,0,-7.9)"><tspan dy="0" >[HTTPS]</tspan></text></g><g id="v-86"  label-idx="2" cursor="move" transform="matrix(1,0,0,1,758,806.5999755859375)" style="cursor: default; opacity: 1;"><rect joint-selector="rect" id="v-92" fill="transparent" rx="3" ry="3"  width="0" height="0" transform="matrix(1,0,0,1,0,0)" display="none"></rect><text joint-selector="text" id="v-91" fill="#000000" font-size="14" text-anchor="middle" pointer-events="none"></text></g></g><g  display="none" style="display: none;"></g><g  id="v-97" display="none"><g  id="v-82"><path  end="source" d="M 26 0 L 0 13 L 26 26 z"></path></g><g  id="v-83"><path  end="target" d="M 26 0 L 0 13 L 26 26 z"></path></g></g><g  id="v-96" display="none"><g  id="v-81" transform="translate(628.305562817114, 613.2246944514018) "><g  event="remove"><circle r="11"></circle><path transform="scale(.8) translate(-16, -16)" d="M24.778,21.419 19.276,15.917 24.777,10.415 21.949,7.585 16.447,13.087 10.945,7.585 8.117,10.415 13.618,15.917 8.116,21.419 10.946,24.248 16.447,18.746 21.948,24.248z"></path><title>Remove link.</title></g><g  event="link:options"><circle r="11" transform="translate(25)"></circle><path fill="white" transform="scale(.55) translate(29, -16)" d="M31.229,17.736c0.064-0.571,0.104-1.148,0.104-1.736s-0.04-1.166-0.104-1.737l-4.377-1.557c-0.218-0.716-0.504-1.401-0.851-2.05l1.993-4.192c-0.725-0.91-1.549-1.734-2.458-2.459l-4.193,1.994c-0.647-0.347-1.334-0.632-2.049-0.849l-1.558-4.378C17.165,0.708,16.588,0.667,16,0.667s-1.166,0.041-1.737,0.105L12.707,5.15c-0.716,0.217-1.401,0.502-2.05,0.849L6.464,4.005C5.554,4.73,4.73,5.554,4.005,6.464l1.994,4.192c-0.347,0.648-0.632,1.334-0.849,2.05l-4.378,1.557C0.708,14.834,0.667,15.412,0.667,16s0.041,1.165,0.105,1.736l4.378,1.558c0.217,0.715,0.502,1.401,0.849,2.049l-1.994,4.193c0.725,0.909,1.549,1.733,2.459,2.458l4.192-1.993c0.648,0.347,1.334,0.633,2.05,0.851l1.557,4.377c0.571,0.064,1.148,0.104,1.737,0.104c0.588,0,1.165-0.04,1.736-0.104l1.558-4.377c0.715-0.218,1.399-0.504,2.049-0.851l4.193,1.993c0.909-0.725,1.733-1.549,2.458-2.458l-1.993-4.193c0.347-0.647,0.633-1.334,0.851-2.049L31.229,17.736zM16,20.871c-2.69,0-4.872-2.182-4.872-4.871c0-2.69,2.182-4.872,4.872-4.872c2.689,0,4.871,2.182,4.871,4.872C20.871,18.689,18.689,20.871,16,20.871z"></path><title>Link options.</title></g></g></g></g><!--z-index:26--><g   id="j_11" ><path  stroke="#aaaaaa" d="M 1599 586 L 1261 900" id="v-113" stroke-width="2" stroke-dasharray="30 30" fill="none" style="opacity: 1;"></path><path  fill="black" stroke="black" d="M 0 0 0 0" transform="matrix(-0.7327872988508723,0.6804577684491833,-0.6804577684491833,-0.7327872988508723,1599,585.7100219726562)"></path><path  fill="#aaaaaa" stroke="#aaaaaa" d="M 20 0 L 0 10 L 20 20 z" id="v-115" transform="matrix(0.7327872988508726,-0.680457768449183,0.680457768449183,0.7327872988508726,1253.7354692488746,892.6721392662956)" style="opacity: 1;"></path><path  d="M 1599 586 L 1261 900" id="v-114" fill="none" style="cursor: auto; pointer-events: visiblepainted;"></path><g ><g id="v-104"  label-idx="0" cursor="move" transform="matrix(1,0,0,1,1430,743)" style="cursor: default; opacity: 1;"><rect joint-selector="rect" id="v-108" fill="transparent" rx="3" ry="3" pointer-events="none" width="177.91102600097656" height="28.377674102783203" transform="matrix(1,0,0,1,-88.5,-14.2)"></rect><text joint-selector="text" id="v-107" font-size="24px" xml:space="preserve" y="0.8em" fill="#aaaaaa" text-anchor="middle" pointer-events="none" font-family="'DM Sans', DMSans, sans-serif" font-weight="normal" transform="matrix(1,0,0,1,0,-10.7)"><tspan dy="0" >Performs data entry</tspan></text></g><g id="v-105"  label-idx="1" cursor="move" transform="matrix(1,0,0,1,1430,769.4000244140625)" style="cursor: default; opacity: 1;"><rect joint-selector="rect" id="v-110" fill="transparent" rx="3" ry="3" pointer-events="none" width="66.05884552001953" height="17.02660369873047" transform="matrix(1,0,0,1,-32.6,-8.5)"></rect><text joint-selector="text" id="v-109" font-size="17px" xml:space="preserve" y="0.8em" fill="#aaaaaa" text-anchor="middle" pointer-events="none" font-family="'DM Sans', DMSans, sans-serif" font-weight="normal" transform="matrix(1,0,0,1,0,-7.9)"><tspan dy="0" >[HTTPS]</tspan></text></g><g id="v-106"  label-idx="2" cursor="move" transform="matrix(1,0,0,1,1420,777.7999877929688)" style="cursor: default; opacity: 1;"><rect joint-selector="rect" id="v-112" fill="transparent" rx="3" ry="3"  width="0" height="0" transform="matrix(1,0,0,1,0,0)" display="none"></rect><text joint-selector="text" id="v-111" fill="#000000" font-size="14" text-anchor="middle" pointer-events="none"></text></g></g><g  display="none" style="display: none;"></g><g  id="v-117" display="none"><g  id="v-102"><path  end="source" d="M 26 0 L 0 13 L 26 26 z"></path></g><g  id="v-103"><path  end="target" d="M 26 0 L 0 13 L 26 26 z"></path></g></g><g  id="v-116" display="none"><g  id="v-101" transform="translate(1569.694437182886, 613.2246944514018) "><g  event="remove"><circle r="11"></circle><path transform="scale(.8) translate(-16, -16)" d="M24.778,21.419 19.276,15.917 24.777,10.415 21.949,7.585 16.447,13.087 10.945,7.585 8.117,10.415 13.618,15.917 8.116,21.419 10.946,24.248 16.447,18.746 21.948,24.248z"></path><title>Remove link.</title></g><g  event="link:options"><circle r="11" transform="translate(25)"></circle><path fill="white" transform="scale(.55) translate(29, -16)" d="M31.229,17.736c0.064-0.571,0.104-1.148,0.104-1.736s-0.04-1.166-0.104-1.737l-4.377-1.557c-0.218-0.716-0.504-1.401-0.851-2.05l1.993-4.192c-0.725-0.91-1.549-1.734-2.458-2.459l-4.193,1.994c-0.647-0.347-1.334-0.632-2.049-0.849l-1.558-4.378C17.165,0.708,16.588,0.667,16,0.667s-1.166,0.041-1.737,0.105L12.707,5.15c-0.716,0.217-1.401,0.502-2.05,0.849L6.464,4.005C5.554,4.73,4.73,5.554,4.005,6.464l1.994,4.192c-0.347,0.648-0.632,1.334-0.849,2.05l-4.378,1.557C0.708,14.834,0.667,15.412,0.667,16s0.041,1.165,0.105,1.736l4.378,1.558c0.217,0.715,0.502,1.401,0.849,2.049l-1.994,4.193c0.725,0.909,1.549,1.733,2.459,2.458l4.192-1.993c0.648,0.347,1.334,0.633,2.05,0.851l1.557,4.377c0.571,0.064,1.148,0.104,1.737,0.104c0.588,0,1.165-0.04,1.736-0.104l1.558-4.377c0.715-0.218,1.399-0.504,2.049-0.851l4.193,1.993c0.909-0.725,1.733-1.549,2.458-2.458l-1.993-4.193c0.347-0.647,0.633-1.334,0.851-2.049L31.229,17.736zM16,20.871c-2.69,0-4.872-2.182-4.872-4.871c0-2.69,2.182-4.872,4.872-4.872c2.689,0,4.871,2.182,4.871,4.872C20.871,18.689,18.689,20.871,16,20.871z"></path><title>Link options.</title></g></g></g></g><!--z-index:27--><g   id="j_12" ><path  stroke="#aaaaaa" d="M 1099 600 L 1099 900" id="v-133" stroke-width="2" stroke-dasharray="30 30" fill="none" style="opacity: 1;"></path><path  fill="black" stroke="black" d="M 0 0 0 0" transform="matrix(6.123233995736766e-17,1,-1,6.123233995736766e-17,1099,600)"></path><path  fill="#aaaaaa" stroke="#aaaaaa" d="M 20 0 L 0 10 L 20 20 z" id="v-135" transform="matrix(-1.8369701987210297e-16,-1,1,-1.8369701987210297e-16,1089,900)" style="opacity: 1;"></path><path  d="M 1099 600 L 1099 900" id="v-134" fill="none" style="cursor: auto; pointer-events: visiblepainted;"></path><g ><g id="v-124"  label-idx="0" cursor="move" transform="matrix(1,0,0,1,1099,750)" style="cursor: default; opacity: 1;"><rect joint-selector="rect" id="v-128" fill="transparent" rx="3" ry="3" pointer-events="none" width="141.95071411132812" height="85.97768020629883" transform="matrix(1,0,0,1,-70.5,-43)"></rect><text joint-selector="text" id="v-127" font-size="24px" xml:space="preserve" y="0.8em" fill="#aaaaaa" text-anchor="middle" pointer-events="none" font-family="'DM Sans', DMSans, sans-serif" font-weight="normal" transform="matrix(1,0,0,1,0,-39.5)"><tspan dy="0" >Administrates</tspan><tspan dy="1.2em" x="0" >election and</tspan><tspan dy="1.2em" x="0" >users</tspan></text></g><g id="v-125"  label-idx="1" cursor="move" transform="matrix(1,0,0,1,1099,805.2000122070312)" style="cursor: default; opacity: 1;"><rect joint-selector="rect" id="v-130" fill="transparent" rx="3" ry="3" pointer-events="none" width="66.05884552001953" height="17.02660369873047" transform="matrix(1,0,0,1,-32.6,-8.5)"></rect><text joint-selector="text" id="v-129" font-size="17px" xml:space="preserve" y="0.8em" fill="#aaaaaa" text-anchor="middle" pointer-events="none" font-family="'DM Sans', DMSans, sans-serif" font-weight="normal" transform="matrix(1,0,0,1,0,-7.9)"><tspan dy="0" >[HTTPS]</tspan></text></g><g id="v-126"  label-idx="2" cursor="move" transform="matrix(1,0,0,1,1089,813.5999755859375)" style="cursor: default; opacity: 1;"><rect joint-selector="rect" id="v-132" fill="transparent" rx="3" ry="3"  width="0" height="0" transform="matrix(1,0,0,1,0,0)" display="none"></rect><text joint-selector="text" id="v-131" fill="#000000" font-size="14" text-anchor="middle" pointer-events="none"></text></g></g><g  display="none" style="display: none;"></g><g  id="v-137" display="none"><g  id="v-122"><path  end="source" d="M 26 0 L 0 13 L 26 26 z"></path></g><g  id="v-123"><path  end="target" d="M 26 0 L 0 13 L 26 26 z"></path></g></g><g  id="v-136" display="none"><g  id="v-121" transform="translate(1099, 640) "><g  event="remove"><circle r="11"></circle><path transform="scale(.8) translate(-16, -16)" d="M24.778,21.419 19.276,15.917 24.777,10.415 21.949,7.585 16.447,13.087 10.945,7.585 8.117,10.415 13.618,15.917 8.116,21.419 10.946,24.248 16.447,18.746 21.948,24.248z"></path><title>Remove link.</title></g><g  event="link:options"><circle r="11" transform="translate(25)"></circle><path fill="white" transform="scale(.55) translate(29, -16)" d="M31.229,17.736c0.064-0.571,0.104-1.148,0.104-1.736s-0.04-1.166-0.104-1.737l-4.377-1.557c-0.218-0.716-0.504-1.401-0.851-2.05l1.993-4.192c-0.725-0.91-1.549-1.734-2.458-2.459l-4.193,1.994c-0.647-0.347-1.334-0.632-2.049-0.849l-1.558-4.378C17.165,0.708,16.588,0.667,16,0.667s-1.166,0.041-1.737,0.105L12.707,5.15c-0.716,0.217-1.401,0.502-2.05,0.849L6.464,4.005C5.554,4.73,4.73,5.554,4.005,6.464l1.994,4.192c-0.347,0.648-0.632,1.334-0.849,2.05l-4.378,1.557C0.708,14.834,0.667,15.412,0.667,16s0.041,1.165,0.105,1.736l4.378,1.558c0.217,0.715,0.502,1.401,0.849,2.049l-1.994,4.193c0.725,0.909,1.549,1.733,2.459,2.458l4.192-1.993c0.648,0.347,1.334,0.633,2.05,0.851l1.557,4.377c0.571,0.064,1.148,0.104,1.737,0.104c0.588,0,1.165-0.04,1.736-0.104l1.558-4.377c0.715-0.218,1.399-0.504,2.049-0.851l4.193,1.993c0.909-0.725,1.733-1.549,2.458-2.458l-1.993-4.193c0.347-0.647,0.633-1.334,0.851-2.049L31.229,17.736zM16,20.871c-2.69,0-4.872-2.182-4.872-4.871c0-2.69,2.182-4.872,4.872-4.872c2.689,0,4.871,2.182,4.871,4.872C20.871,18.689,18.689,20.871,16,20.871z"></path><title>Link options.</title></g></g></g></g><!--z-index:28--><g   id="j_13" ><path  stroke="#aaaaaa" d="M 1099 1200 L 1099 1500" id="v-153" stroke-width="2" stroke-dasharray="30 30" fill="none" style="opacity: 1;"></path><path  fill="black" stroke="black" d="M 0 0 0 0" transform="matrix(6.123233995736766e-17,1,-1,6.123233995736766e-17,1099,1200)"></path><path  fill="#aaaaaa" stroke="#aaaaaa" d="M 20 0 L 0 10 L 20 20 z" id="v-155" transform="matrix(-1.8369701987210297e-16,-1,1,-1.8369701987210297e-16,1089,1500)" style="opacity: 1;"></path><path  d="M 1099 1200 L 1099 1500" id="v-154" fill="none" style="cursor: auto; pointer-events: visiblepainted;"></path><g ><g id="v-144"  label-idx="0" cursor="move" transform="matrix(1,0,0,1,1099,1350)" style="cursor: default; opacity: 1;"><rect joint-selector="rect" id="v-148" fill="transparent" rx="3" ry="3" pointer-events="none" width="157.5415496826172" height="57.17767524719238" transform="matrix(1,0,0,1,-77.9,-28.6)"></rect><text joint-selector="text" id="v-147" font-size="24px" xml:space="preserve" y="0.8em" fill="#aaaaaa" text-anchor="middle" pointer-events="none" font-family="'DM Sans', DMSans, sans-serif" font-weight="normal" transform="matrix(1,0,0,1,0,-25.1)"><tspan dy="0" >Communicates</tspan><tspan dy="1.2em" x="0" >with</tspan></text></g><g id="v-145"  label-idx="1" cursor="move" transform="matrix(1,0,0,1,1099,1390.800048828125)" style="cursor: default; opacity: 1;"><rect joint-selector="rect" id="v-150" fill="transparent" rx="3" ry="3" pointer-events="none" width="105.69522857666016" height="17.02660369873047" transform="matrix(1,0,0,1,-52.4,-8.5)"></rect><text joint-selector="text" id="v-149" font-size="17px" xml:space="preserve" y="0.8em" fill="#aaaaaa" text-anchor="middle" pointer-events="none" font-family="'DM Sans', DMSans, sans-serif" font-weight="normal" transform="matrix(1,0,0,1,0,-7.9)"><tspan dy="0" >[JSON REST]</tspan></text></g><g id="v-146"  label-idx="2" cursor="move" transform="matrix(1,0,0,1,1089,1399.199951171875)" style="cursor: default; opacity: 1;"><rect joint-selector="rect" id="v-152" fill="transparent" rx="3" ry="3"  width="0" height="0" transform="matrix(1,0,0,1,0,0)" display="none"></rect><text joint-selector="text" id="v-151" fill="#000000" font-size="14" text-anchor="middle" pointer-events="none"></text></g></g><g  display="none" style="display: none;"></g><g  id="v-157" display="none"><g  id="v-142"><path  end="source" d="M 26 0 L 0 13 L 26 26 z"></path></g><g  id="v-143"><path  end="target" d="M 26 0 L 0 13 L 26 26 z"></path></g></g><g  id="v-156" display="none"><g  id="v-141" transform="translate(1099, 1240) "><g  event="remove"><circle r="11"></circle><path transform="scale(.8) translate(-16, -16)" d="M24.778,21.419 19.276,15.917 24.777,10.415 21.949,7.585 16.447,13.087 10.945,7.585 8.117,10.415 13.618,15.917 8.116,21.419 10.946,24.248 16.447,18.746 21.948,24.248z"></path><title>Remove link.</title></g><g  event="link:options"><circle r="11" transform="translate(25)"></circle><path fill="white" transform="scale(.55) translate(29, -16)" d="M31.229,17.736c0.064-0.571,0.104-1.148,0.104-1.736s-0.04-1.166-0.104-1.737l-4.377-1.557c-0.218-0.716-0.504-1.401-0.851-2.05l1.993-4.192c-0.725-0.91-1.549-1.734-2.458-2.459l-4.193,1.994c-0.647-0.347-1.334-0.632-2.049-0.849l-1.558-4.378C17.165,0.708,16.588,0.667,16,0.667s-1.166,0.041-1.737,0.105L12.707,5.15c-0.716,0.217-1.401,0.502-2.05,0.849L6.464,4.005C5.554,4.73,4.73,5.554,4.005,6.464l1.994,4.192c-0.347,0.648-0.632,1.334-0.849,2.05l-4.378,1.557C0.708,14.834,0.667,15.412,0.667,16s0.041,1.165,0.105,1.736l4.378,1.558c0.217,0.715,0.502,1.401,0.849,2.049l-1.994,4.193c0.725,0.909,1.549,1.733,2.459,2.458l4.192-1.993c0.648,0.347,1.334,0.633,2.05,0.851l1.557,4.377c0.571,0.064,1.148,0.104,1.737,0.104c0.588,0,1.165-0.04,1.736-0.104l1.558-4.377c0.715-0.218,1.399-0.504,2.049-0.851l4.193,1.993c0.909-0.725,1.733-1.549,2.458-2.458l-1.993-4.193c0.347-0.647,0.633-1.334,0.851-2.049L31.229,17.736zM16,20.871c-2.69,0-4.872-2.182-4.872-4.871c0-2.69,2.182-4.872,4.872-4.872c2.689,0,4.871,2.182,4.871,4.872C20.871,18.689,18.689,20.871,16,20.871z"></path><title>Link options.</title></g></g></g></g><!--z-index:29--><g   id="j_14" ><path  stroke="#aaaaaa" d="M 1099 1800 L 1099 2100" id="v-173" stroke-width="2" stroke-dasharray="30 30" fill="none" style="opacity: 1;"></path><path  fill="black" stroke="black" d="M 0 0 0 0" transform="matrix(6.123233995736766e-17,1,-1,6.123233995736766e-17,1099,1800)"></path><path  fill="#aaaaaa" stroke="#aaaaaa" d="M 20 0 L 0 10 L 20 20 z" id="v-175" transform="matrix(-1.8369701987210297e-16,-1,1,-1.8369701987210297e-16,1089,2100)" style="opacity: 1;"></path><path  d="M 1099 1800 L 1099 2100" id="v-174" fill="none" style="cursor: auto; pointer-events: visiblepainted;"></path><g ><g id="v-164"  label-idx="0" cursor="move" transform="matrix(1,0,0,1,1099,1950)" style="cursor: default; opacity: 1;"><rect joint-selector="rect" id="v-168" fill="transparent" rx="3" ry="3" pointer-events="none" width="137.98739624023438" height="57.17767524719238" transform="matrix(1,0,0,1,-68.6,-28.6)"></rect><text joint-selector="text" id="v-167" font-size="24px" xml:space="preserve" y="0.8em" fill="#aaaaaa" text-anchor="middle" pointer-events="none" font-family="'DM Sans', DMSans, sans-serif" font-weight="normal" transform="matrix(1,0,0,1,0,-25.1)"><tspan dy="0" >Reads from and</tspan><tspan dy="1.2em" x="0" >writes to</tspan></text></g><g id="v-165"  label-idx="1" cursor="move" transform="matrix(1,0,0,1,1099,1990.800048828125)" style="cursor: default; opacity: 1;"><rect joint-selector="rect" id="v-170" fill="transparent" rx="3" ry="3" pointer-events="none" width="44.37492752075195" height="17.02660369873047" transform="matrix(1,0,0,1,-21.7,-8.5)"></rect><text joint-selector="text" id="v-169" font-size="17px" xml:space="preserve" y="0.8em" fill="#aaaaaa" text-anchor="middle" pointer-events="none" font-family="'DM Sans', DMSans, sans-serif" font-weight="normal" transform="matrix(1,0,0,1,0,-7.9)"><tspan dy="0" >[SQL]</tspan></text></g><g id="v-166"  label-idx="2" cursor="move" transform="matrix(1,0,0,1,1089,1999.199951171875)" style="cursor: default; opacity: 1;"><rect joint-selector="rect" id="v-172" fill="transparent" rx="3" ry="3"  width="0" height="0" transform="matrix(1,0,0,1,0,0)" display="none"></rect><text joint-selector="text" id="v-171" fill="#000000" font-size="14" text-anchor="middle" pointer-events="none"></text></g></g><g  display="none" style="display: none;"></g><g  id="v-177" display="none"><g  id="v-162"><path  end="source" d="M 26 0 L 0 13 L 26 26 z"></path></g><g  id="v-163"><path  end="target" d="M 26 0 L 0 13 L 26 26 z"></path></g></g><g  id="v-176" display="none"><g  id="v-161" transform="translate(1099, 1840) "><g  event="remove"><circle r="11"></circle><path transform="scale(.8) translate(-16, -16)" d="M24.778,21.419 19.276,15.917 24.777,10.415 21.949,7.585 16.447,13.087 10.945,7.585 8.117,10.415 13.618,15.917 8.116,21.419 10.946,24.248 16.447,18.746 21.948,24.248z"></path><title>Remove link.</title></g><g  event="link:options"><circle r="11" transform="translate(25)"></circle><path fill="white" transform="scale(.55) translate(29, -16)" d="M31.229,17.736c0.064-0.571,0.104-1.148,0.104-1.736s-0.04-1.166-0.104-1.737l-4.377-1.557c-0.218-0.716-0.504-1.401-0.851-2.05l1.993-4.192c-0.725-0.91-1.549-1.734-2.458-2.459l-4.193,1.994c-0.647-0.347-1.334-0.632-2.049-0.849l-1.558-4.378C17.165,0.708,16.588,0.667,16,0.667s-1.166,0.041-1.737,0.105L12.707,5.15c-0.716,0.217-1.401,0.502-2.05,0.849L6.464,4.005C5.554,4.73,4.73,5.554,4.005,6.464l1.994,4.192c-0.347,0.648-0.632,1.334-0.849,2.05l-4.378,1.557C0.708,14.834,0.667,15.412,0.667,16s0.041,1.165,0.105,1.736l4.378,1.558c0.217,0.715,0.502,1.401,0.849,2.049l-1.994,4.193c0.725,0.909,1.549,1.733,2.459,2.458l4.192-1.993c0.648,0.347,1.334,0.633,2.05,0.851l1.557,4.377c0.571,0.064,1.148,0.104,1.737,0.104c0.588,0,1.165-0.04,1.736-0.104l1.558-4.377c0.715-0.218,1.399-0.504,2.049-0.851l4.193,1.993c0.909-0.725,1.733-1.549,2.458-2.458l-1.993-4.193c0.347-0.647,0.633-1.334,0.851-2.049L31.229,17.736zM16,20.871c-2.69,0-4.872-2.182-4.872-4.871c0-2.69,2.182-4.872,4.872-4.872c2.689,0,4.871,2.182,4.871,4.872C20.871,18.689,18.689,20.871,16,20.871z"></path><title>Link options.</title></g></g></g></g><!--z-index:30--></g><g ></g><g ></g><g ></g></g></svg>