<svg xmlns="http://www.w3.org/2000/svg" xmlns:xlink="http://www.w3.org/1999/xlink" version="1.1" viewBox="0 0 3063 2000" style="background: #ffffff"><defs joint-selector="defs"></defs><g joint-selector="layers" transform="matrix(1,0,0,1,0,0)" ><g ></g><g ><!--z-index:1--><!--z-index:2--><!--z-index:3--><!--z-index:4--><!--z-index:5--><!--z-index:6--><!--z-index:7--><!--z-index:8--><!--z-index:9--><!--z-index:10--><!--z-index:11--><!--z-index:12--><!--z-index:13--><!--z-index:14--><!--z-index:15--><!--z-index:16--><!--z-index:17--><g   id="j_2"  transform="translate(20,1963.6)"><g id="v-5"><text  id="v-6" font-size="22px" xml:space="preserve" y="0.8em" font-weight="normal" text-anchor="start" fill="#aaaaaa" pointer-events="none" display="block" font-family="'DM Sans', DMSans, sans-serif"><tspan dy="0"  display="block">Friday 21 June 2024 at 17:00 Central European Summer Time</tspan></text></g></g><!--z-index:18--><g   id="j_1"  transform="translate(20,1920.3999999999999)"><g id="v-3"><text  id="v-4" font-size="36px" xml:space="preserve" y="0.8em" font-weight="normal" text-anchor="start" fill="#000000" pointer-events="none" display="block" font-family="'DM Sans', DMSans, sans-serif"><tspan dy="0"  display="block">[System Landscape]</tspan></text></g></g><!--z-index:19--><g   id="j_3"  transform="translate(975,799)" style=""><g  id="v-7" style="opacity: 1;"><rect  x="0" y="160" width="400" height="240" rx="70" id="v-9" stroke="#c7c7c7" stroke-width="2" pointer-events="visiblePainted" fill="#dddddd" style="fill: rgb(221, 221, 221); stroke: rgb(199, 199, 199);"></rect><circle  cx="200" cy="88.88888888888889" r="88.88888888888889" id="v-8" stroke="#c7c7c7" stroke-width="2" pointer-events="visiblePainted" fill="#dddddd" style="fill: rgb(221, 221, 221); stroke: rgb(199, 199, 199);"></circle><line  x1="80" y1="266.6666666666667" x2="80" y2="400" id="v-15" stroke="#c7c7c7" stroke-width="2" style="stroke: rgb(199, 199, 199);"></line><line  x1="320" y1="266.6666666666667" x2="320" y2="400" id="v-16" stroke="#c7c7c7" stroke-width="2" style="stroke: rgb(199, 199, 199);"></line><text  id="v-10" font-size="32" xml:space="preserve" y="0.8em" font-weight="bold" text-anchor="middle" pointer-events="visible" font-family="'DM Sans', DMSans, sans-serif" fill="#000000" transform="matrix(1,0,0,1,200,254.3)" style="fill: rgb(0, 0, 0);"><tspan dy="0" >Coördinator</tspan></text><text  id="v-11" font-size="15" xml:space="preserve" y="0.8em" text-anchor="middle" font-family="'DM Sans', DMSans, sans-serif" fill="#000000" transform="matrix(1,0,0,1,200,292.7)" style="fill: rgb(0, 0, 0);"><tspan dy="0" >[Person]</tspan></text><text  id="v-12" font-size="22" xml:space="preserve" display="none" y="0.8em" text-anchor="middle" font-family="'DM Sans', DMSans, sans-serif" fill="#000000" transform="matrix(1,0,0,1,200,310.7)" style="fill: rgb(0, 0, 0);"><tspan dy="0" style="fill-opacity: 0; stroke-opacity: 0;" >-</tspan></text><g  id="v-13" font-weight="normal" text-anchor="middle" color="#000000" transform="matrix(1,0,0,1,197.5,368)" display="none" style="fill: rgb(0, 0, 0);"><g ></g><g ></g><g ></g><g ></g></g><image  id="v-14"></image></g></g><!--z-index:20--><g   id="j_4"  transform="translate(1700,799)" style=""><g  id="v-17" style="opacity: 1;"><rect  x="0" y="160" width="400" height="240" rx="70" id="v-19" stroke="#c7c7c7" stroke-width="2" pointer-events="visiblePainted" fill="#dddddd" style="fill: rgb(221, 221, 221); stroke: rgb(199, 199, 199);"></rect><circle  cx="200" cy="88.88888888888889" r="88.88888888888889" id="v-18" stroke="#c7c7c7" stroke-width="2" pointer-events="visiblePainted" fill="#dddddd" style="fill: rgb(221, 221, 221); stroke: rgb(199, 199, 199);"></circle><line  x1="80" y1="266.6666666666667" x2="80" y2="400" id="v-25" stroke="#c7c7c7" stroke-width="2" style="stroke: rgb(199, 199, 199);"></line><line  x1="320" y1="266.6666666666667" x2="320" y2="400" id="v-26" stroke="#c7c7c7" stroke-width="2" style="stroke: rgb(199, 199, 199);"></line><text  id="v-20" font-size="32" xml:space="preserve" y="0.8em" font-weight="bold" text-anchor="middle" pointer-events="visible" font-family="'DM Sans', DMSans, sans-serif" fill="#000000" transform="matrix(1,0,0,1,200,254.3)" style="fill: rgb(0, 0, 0);"><tspan dy="0" >Beheerder</tspan></text><text  id="v-21" font-size="15" xml:space="preserve" y="0.8em" text-anchor="middle" font-family="'DM Sans', DMSans, sans-serif" fill="#000000" transform="matrix(1,0,0,1,200,292.7)" style="fill: rgb(0, 0, 0);"><tspan dy="0" >[Person]</tspan></text><text  id="v-22" font-size="22" xml:space="preserve" display="none" y="0.8em" text-anchor="middle" font-family="'DM Sans', DMSans, sans-serif" fill="#000000" transform="matrix(1,0,0,1,200,310.7)" style="fill: rgb(0, 0, 0);"><tspan dy="0" style="fill-opacity: 0; stroke-opacity: 0;" >-</tspan></text><g  id="v-23" font-weight="normal" text-anchor="middle" color="#000000" transform="matrix(1,0,0,1,197.5,368)" display="none" style="fill: rgb(0, 0, 0);"><g ></g><g ></g><g ></g><g ></g></g><image  id="v-24"></image></g></g><!--z-index:21--><g   id="j_5"  transform="translate(2413,799)" style=""><g  id="v-27" style="opacity: 1;"><rect  x="0" y="160" width="400" height="240" rx="70" id="v-29" stroke="#c7c7c7" stroke-width="2" pointer-events="visiblePainted" fill="#dddddd" style="fill: rgb(221, 221, 221); stroke: rgb(199, 199, 199);"></rect><circle  cx="200" cy="88.88888888888889" r="88.88888888888889" id="v-28" stroke="#c7c7c7" stroke-width="2" pointer-events="visiblePainted" fill="#dddddd" style="fill: rgb(221, 221, 221); stroke: rgb(199, 199, 199);"></circle><line  x1="80" y1="266.6666666666667" x2="80" y2="400" id="v-35" stroke="#c7c7c7" stroke-width="2" style="stroke: rgb(199, 199, 199);"></line><line  x1="320" y1="266.6666666666667" x2="320" y2="400" id="v-36" stroke="#c7c7c7" stroke-width="2" style="stroke: rgb(199, 199, 199);"></line><text  id="v-30" font-size="32" xml:space="preserve" y="0.8em" font-weight="bold" text-anchor="middle" pointer-events="visible" font-family="'DM Sans', DMSans, sans-serif" fill="#000000" transform="matrix(1,0,0,1,200,254.3)" style="fill: rgb(0, 0, 0);"><tspan dy="0" >Invoerder</tspan></text><text  id="v-31" font-size="15" xml:space="preserve" y="0.8em" text-anchor="middle" font-family="'DM Sans', DMSans, sans-serif" fill="#000000" transform="matrix(1,0,0,1,200,292.7)" style="fill: rgb(0, 0, 0);"><tspan dy="0" >[Person]</tspan></text><text  id="v-32" font-size="22" xml:space="preserve" display="none" y="0.8em" text-anchor="middle" font-family="'DM Sans', DMSans, sans-serif" fill="#000000" transform="matrix(1,0,0,1,200,310.7)" style="fill: rgb(0, 0, 0);"><tspan dy="0" style="fill-opacity: 0; stroke-opacity: 0;" >-</tspan></text><g  id="v-33" font-weight="normal" text-anchor="middle" color="#000000" transform="matrix(1,0,0,1,197.5,368)" display="none" style="fill: rgb(0, 0, 0);"><g ></g><g ></g><g ></g><g ></g></g><image  id="v-34"></image></g></g><!--z-index:22--><g   id="j_6"  transform="translate(2413,199)" style=""><g  id="v-40" style="opacity: 1;"><rect  id="v-41" rx="10" ry="10" stroke="#e6e6cc" stroke-width="2" pointer-events="visiblePainted" fill="#ffffe3" x="10" y="0" width="150" height="75" style="fill: rgb(255, 255, 227); stroke: rgb(230, 230, 204);"></rect><rect  id="v-42" rx="5" ry="5" stroke="#e6e6cc" stroke-width="2" pointer-events="visiblePainted" fill="#ffffe3" x="0" y="37.5" width="450" height="262.5" style="fill: rgb(255, 255, 227); stroke: rgb(230, 230, 204);"></rect><text  id="v-43" font-size="34" xml:space="preserve" y="0.8em" font-weight="bold" text-anchor="middle" pointer-events="visible" font-family="'DM Sans', DMSans, sans-serif" fill="#000000" transform="matrix(1,0,0,1,225,106.9)" style="fill: rgb(0, 0, 0);"><tspan dy="0" >Tellingen</tspan></text><text  id="v-44" font-size="17" xml:space="preserve" y="0.8em" text-anchor="middle" font-family="'DM Sans', DMSans, sans-serif" fill="#000000" transform="matrix(1,0,0,1,225,147.7)" style="fill: rgb(0, 0, 0);"><tspan dy="0" >[Tellingen]</tspan></text><text  id="v-45" font-size="24" xml:space="preserve" y="0.8em" text-anchor="middle" font-family="'DM Sans', DMSans, sans-serif" fill="#000000" transform="matrix(1,0,0,1,225,178.1)" style="fill: rgb(0, 0, 0);"><tspan dy="0" >Papiren tellingen van de</tspan><tspan dy="1.2em" x="0" >stembureau's.</tspan></text><g  id="v-46" font-weight="normal" text-anchor="middle" color="#000000" transform="matrix(1,0,0,1,222.5,268)" display="none" style="fill: rgb(0, 0, 0);"><g ></g><g ></g><g ></g><g ></g></g><image  id="v-47"></image></g></g><!--z-index:23--><g   id="j_7"  transform="translate(200,1499)" style=""><g  id="v-51" style="opacity: 1;"><rect  id="v-52" rx="10" ry="10" stroke="#e6e6cc" stroke-width="2" pointer-events="visiblePainted" fill="#ffffe3" x="10" y="0" width="150" height="75" style="fill: rgb(255, 255, 227); stroke: rgb(230, 230, 204);"></rect><rect  id="v-53" rx="5" ry="5" stroke="#e6e6cc" stroke-width="2" pointer-events="visiblePainted" fill="#ffffe3" x="0" y="37.5" width="450" height="262.5" style="fill: rgb(255, 255, 227); stroke: rgb(230, 230, 204);"></rect><text  id="v-54" font-size="34" xml:space="preserve" y="0.8em" font-weight="bold" text-anchor="middle" pointer-events="visible" font-family="'DM Sans', DMSans, sans-serif" fill="#000000" transform="matrix(1,0,0,1,225,106.9)" style="fill: rgb(0, 0, 0);"><tspan dy="0" >Proces-verbaal</tspan></text><text  id="v-55" font-size="17" xml:space="preserve" y="0.8em" text-anchor="middle" font-family="'DM Sans', DMSans, sans-serif" fill="#000000" transform="matrix(1,0,0,1,225,147.7)" style="fill: rgb(0, 0, 0);"><tspan dy="0" >[Proces-verbaal]</tspan></text><text  id="v-56" font-size="24" xml:space="preserve" y="0.8em" text-anchor="middle" font-family="'DM Sans', DMSans, sans-serif" fill="#000000" transform="matrix(1,0,0,1,225,178.1)" style="fill: rgb(0, 0, 0);"><tspan dy="0" >Geprint proces-verbaal van de</tspan><tspan dy="1.2em" x="0" >uitslagziting.</tspan></text><g  id="v-57" font-weight="normal" text-anchor="middle" color="#000000" transform="matrix(1,0,0,1,222.5,268)" display="none" style="fill: rgb(0, 0, 0);"><g ></g><g ></g><g ></g><g ></g></g><image  id="v-58"></image></g></g><!--z-index:24--><g   id="j_8"  transform="translate(950,1499)" style=""><g  id="v-65" style="opacity: 1;"><rect  id="v-66" rx="1" ry="1" stroke="#8a8a8a" stroke-width="2" pointer-events="visiblePainted" fill="#999999" width="450" height="300" style="fill: rgb(153, 153, 153); stroke: rgb(138, 138, 138);"></rect><text  id="v-67" font-size="34" xml:space="preserve" y="0.8em" font-weight="bold" text-anchor="middle" pointer-events="visible" font-family="'DM Sans', DMSans, sans-serif" fill="#ffffff" transform="matrix(1,0,0,1,225,88.1)" style="fill: rgb(255, 255, 255);"><tspan dy="0" >Platform Teluitslagen</tspan></text><text  id="v-68" font-size="17" xml:space="preserve" y="0.8em" text-anchor="middle" font-family="'DM Sans', DMSans, sans-serif" fill="#ffffff" transform="matrix(1,0,0,1,225,128.9)" style="fill: rgb(255, 255, 255);"><tspan dy="0" >[Software System]</tspan></text><text  id="v-69" font-size="24" xml:space="preserve" y="0.8em" text-anchor="middle" font-family="'DM Sans', DMSans, sans-serif" fill="#ffffff" transform="matrix(1,0,0,1,225,159.3)" style="fill: rgb(255, 255, 255);"><tspan dy="0" >Bewaart resultaten voor</tspan><tspan dy="1.2em" x="0" >uitwisseling met HSB en CSB.</tspan></text><g  id="v-70" color="#ffffff" transform="matrix(1,0,0,1,222.5,268)" display="none" style="fill: rgb(255, 255, 255);"><g ></g><g ></g><g ></g><g ></g></g><image  id="v-71"></image></g></g><!--z-index:25--><g   id="j_9"  transform="translate(1663,199)" style=""><g  id="v-78" style="opacity: 1;"><rect  id="v-79" rx="1" ry="1" stroke="#8a8a8a" stroke-width="2" pointer-events="visiblePainted" fill="#999999" width="450" height="300" style="fill: rgb(153, 153, 153); stroke: rgb(138, 138, 138);"></rect><text  id="v-80" font-size="34" xml:space="preserve" y="0.8em" font-weight="bold" text-anchor="middle" pointer-events="visible" font-family="'DM Sans', DMSans, sans-serif" fill="#ffffff" transform="matrix(1,0,0,1,225,73.7)" style="fill: rgb(255, 255, 255);"><tspan dy="0" >Uitwisselingsplatform</tspan></text><text  id="v-81" font-size="17" xml:space="preserve" y="0.8em" text-anchor="middle" font-family="'DM Sans', DMSans, sans-serif" fill="#ffffff" transform="matrix(1,0,0,1,225,114.5)" style="fill: rgb(255, 255, 255);"><tspan dy="0" >[Software System]</tspan></text><text  id="v-82" font-size="24" xml:space="preserve" y="0.8em" text-anchor="middle" font-family="'DM Sans', DMSans, sans-serif" fill="#ffffff" transform="matrix(1,0,0,1,225,144.9)" style="fill: rgb(255, 255, 255);"><tspan dy="0" >Installatiebestand,</tspan><tspan dy="1.2em" x="0" >verkiezingsdefinitie en</tspan><tspan dy="1.2em" x="0" >kandidatenlijst in EML_NL formaat.</tspan></text><g  id="v-83" color="#ffffff" transform="matrix(1,0,0,1,222.5,268)" display="none" style="fill: rgb(255, 255, 255);"><g ></g><g ></g><g ></g><g ></g></g><image  id="v-84"></image></g></g><!--z-index:26--><g   id="j_10"  transform="translate(1700,1499)" style=""><g  id="v-85" style="opacity: 1;"><rect  id="v-86" rx="1" ry="1" stroke="#0f5eaa" stroke-width="2" pointer-events="visiblePainted" fill="#1168bd" width="450" height="300" style="fill: rgb(17, 104, 189); stroke: rgb(15, 94, 170);"></rect><text  id="v-87" font-size="34" xml:space="preserve" y="0.8em" font-weight="bold" text-anchor="middle" pointer-events="visible" font-family="'DM Sans', DMSans, sans-serif" fill="#ffffff" transform="matrix(1,0,0,1,225,121.9)" style="fill: rgb(255, 255, 255);"><tspan dy="0" >Abacus</tspan></text><text  id="v-88" font-size="17" xml:space="preserve" y="0.8em" text-anchor="middle" font-family="'DM Sans', DMSans, sans-serif" fill="#ffffff" transform="matrix(1,0,0,1,225,162.7)" style="fill: rgb(255, 255, 255);"><tspan dy="0" >[Software System]</tspan></text><text  id="v-89" font-size="24" xml:space="preserve" display="none" y="0.8em" text-anchor="middle" font-family="'DM Sans', DMSans, sans-serif" fill="#ffffff" transform="matrix(1,0,0,1,225,183.1)" style="fill: rgb(255, 255, 255);"><tspan dy="0" style="fill-opacity: 0; stroke-opacity: 0;" >-</tspan></text><g  id="v-90" color="#ffffff" transform="matrix(1,0,0,1,210,268)" display="none" style="fill: rgb(255, 255, 255);"><g  transform="translate(5 0)"><svg xmlns="http://www.w3.org/2000/svg" width="20" height="20" fill="currentColor" viewBox="0 0 16 16"><path fill-rule="evenodd" d="M6.5 12a5.5 5.5 0 1 0 0-11 5.5 5.5 0 0 0 0 11zM13 6.5a6.5 6.5 0 1 1-13 0 6.5 6.5 0 0 1 13 0z"></path><path d="M10.344 11.742c.03.04.062.078.098.115l3.85 3.85a1 1 0 0 0 1.415-1.414l-3.85-3.85a1.007 1.007 0 0 0-.115-.1 6.538 6.538 0 0 1-1.398 1.4z"></path><path fill-rule="evenodd" d="M6.5 3a.5.5 0 0 1 .5.5V6h2.5a.5.5 0 0 1 0 1H7v2.5a.5.5 0 0 1-1 0V7H3.5a.5.5 0 0 1 0-1H6V3.5a.5.5 0 0 1 .5-.5z"></path></svg></g><g ></g><g ></g><g ></g></g><image  id="v-91"></image></g></g><!--z-index:27--><g   id="j_11" ><path  stroke="#707070" d="M 2632 499 L 2621 799" id="v-104" stroke-width="2" stroke-dasharray="30 30" fill="none" style="opacity: 1;"></path><path  fill="black" stroke="black" d="M 0 0 0 0" transform="matrix(-0.03843818551908556,0.9992609798716251,-0.9992609798716251,-0.03843818551908556,2632.22998046875,499)"></path><path  fill="#707070" stroke="#707070" d="M 20 0 L 0 10 L 20 20 z" id="v-106" transform="matrix(0.038438052459436774,-0.9992609849899703,0.9992609849899703,0.038438052459436774,2610.697472516131,798.6156145792116)" style="opacity: 1;"></path><path  d="M 2632 499 L 2621 799" id="v-105" fill="none" style="cursor: auto; pointer-events: visiblepainted;"></path><g ><g id="v-98"  label-idx="0" cursor="move" transform="matrix(1,0,0,1,2626.5,649)" style="cursor: default; opacity: 1;"><rect joint-selector="rect" id="v-101" fill="#ffffff" rx="3" ry="3" pointer-events="none" width="145.40625" height="27.9375" transform="matrix(1,0,0,1,-72.7,-14)"></rect><text joint-selector="text" id="v-100" font-size="24px" xml:space="preserve" y="0.8em" fill="#707070" text-anchor="middle" pointer-events="none" font-family="'DM Sans', DMSans, sans-serif" font-weight="normal" transform="matrix(1,0,0,1,0,-10.8)"><tspan dy="0" >Gebruikt door</tspan></text></g><g id="v-99"  label-idx="1" cursor="move" transform="matrix(1,0,0,1,2616.5,675.4000244140625)" style="cursor: default; opacity: 1;"><rect joint-selector="rect" id="v-103" fill="#ffffff" rx="3" ry="3"  width="0" height="0" transform="matrix(1,0,0,1,0,0)" display="none"></rect><text joint-selector="text" id="v-102" fill="#000000" font-size="14" text-anchor="middle" pointer-events="none"></text></g></g><g  display="none" style="display: none;"></g><g  id="v-108" display="none"><g  id="v-96"><path  end="source" d="M 26 0 L 0 13 L 26 26 z"></path></g><g  id="v-97"><path  end="target" d="M 26 0 L 0 13 L 26 26 z"></path></g></g><g  id="v-107" display="none"><g  id="v-95" transform="translate(2630.5343182662295, 538.9731381937332) "><g  event="remove"><circle r="11"></circle><path transform="scale(.8) translate(-16, -16)" d="M24.778,21.419 19.276,15.917 24.777,10.415 21.949,7.585 16.447,13.087 10.945,7.585 8.117,10.415 13.618,15.917 8.116,21.419 10.946,24.248 16.447,18.746 21.948,24.248z"></path><title>Remove link.</title></g><g  event="link:options"><circle r="11" transform="translate(25)"></circle><path fill="white" transform="scale(.55) translate(29, -16)" d="M31.229,17.736c0.064-0.571,0.104-1.148,0.104-1.736s-0.04-1.166-0.104-1.737l-4.377-1.557c-0.218-0.716-0.504-1.401-0.851-2.05l1.993-4.192c-0.725-0.91-1.549-1.734-2.458-2.459l-4.193,1.994c-0.647-0.347-1.334-0.632-2.049-0.849l-1.558-4.378C17.165,0.708,16.588,0.667,16,0.667s-1.166,0.041-1.737,0.105L12.707,5.15c-0.716,0.217-1.401,0.502-2.05,0.849L6.464,4.005C5.554,4.73,4.73,5.554,4.005,6.464l1.994,4.192c-0.347,0.648-0.632,1.334-0.849,2.05l-4.378,1.557C0.708,14.834,0.667,15.412,0.667,16s0.041,1.165,0.105,1.736l4.378,1.558c0.217,0.715,0.502,1.401,0.849,2.049l-1.994,4.193c0.725,0.909,1.549,1.733,2.459,2.458l4.192-1.993c0.648,0.347,1.334,0.633,2.05,0.851l1.557,4.377c0.571,0.064,1.148,0.104,1.737,0.104c0.588,0,1.165-0.04,1.736-0.104l1.558-4.377c0.715-0.218,1.399-0.504,2.049-0.851l4.193,1.993c0.909-0.725,1.733-1.549,2.458-2.458l-1.993-4.193c0.347-0.647,0.633-1.334,0.851-2.049L31.229,17.736zM16,20.871c-2.69,0-4.872-2.182-4.872-4.871c0-2.69,2.182-4.872,4.872-4.872c2.689,0,4.871,2.182,4.871,4.872C20.871,18.689,18.689,20.871,16,20.871z"></path><title>Link options.</title></g></g></g></g><!--z-index:28--><g   id="j_12" ><path  stroke="#707070" d="M 1175 1199 L 1175 1499" id="v-121" stroke-width="2" stroke-dasharray="30 30" fill="none" style="opacity: 1;"></path><path  fill="black" stroke="black" d="M 0 0 0 0" transform="matrix(6.123233995736766e-17,1,-1,6.123233995736766e-17,1175,1199)"></path><path  fill="#707070" stroke="#707070" d="M 20 0 L 0 10 L 20 20 z" id="v-123" transform="matrix(-1.8369701987210297e-16,-1,1,-1.8369701987210297e-16,1165,1499)" style="opacity: 1;"></path><path  d="M 1175 1199 L 1175 1499" id="v-122" fill="none" style="cursor: auto; pointer-events: visiblepainted;"></path><g ><g id="v-115"  label-idx="0" cursor="move" transform="matrix(1,0,0,1,1175,1349)" style="cursor: default; opacity: 1;"><rect joint-selector="rect" id="v-118" fill="#ffffff" rx="3" ry="3" pointer-events="none" width="105.40625" height="56.734375" transform="matrix(1,0,0,1,-52.7,-28.4)"></rect><text joint-selector="text" id="v-117" font-size="24px" xml:space="preserve" y="0.8em" fill="#707070" text-anchor="middle" pointer-events="none" font-family="'DM Sans', DMSans, sans-serif" font-weight="normal" transform="matrix(1,0,0,1,0,-25.2)"><tspan dy="0" >Uploadt</tspan><tspan dy="1.2em" x="0" >resultaten</tspan></text></g><g id="v-116"  label-idx="1" cursor="move" transform="matrix(1,0,0,1,1165,1389.800048828125)" style="cursor: default; opacity: 1;"><rect joint-selector="rect" id="v-120" fill="#ffffff" rx="3" ry="3"  width="0" height="0" transform="matrix(1,0,0,1,0,0)" display="none"></rect><text joint-selector="text" id="v-119" fill="#000000" font-size="14" text-anchor="middle" pointer-events="none"></text></g></g><g  display="none" style="display: none;"></g><g  id="v-125" display="none"><g  id="v-113"><path  end="source" d="M 26 0 L 0 13 L 26 26 z"></path></g><g  id="v-114"><path  end="target" d="M 26 0 L 0 13 L 26 26 z"></path></g></g><g  id="v-124" display="none"><g  id="v-112" transform="translate(1175, 1239) "><g  event="remove"><circle r="11"></circle><path transform="scale(.8) translate(-16, -16)" d="M24.778,21.419 19.276,15.917 24.777,10.415 21.949,7.585 16.447,13.087 10.945,7.585 8.117,10.415 13.618,15.917 8.116,21.419 10.946,24.248 16.447,18.746 21.948,24.248z"></path><title>Remove link.</title></g><g  event="link:options"><circle r="11" transform="translate(25)"></circle><path fill="white" transform="scale(.55) translate(29, -16)" d="M31.229,17.736c0.064-0.571,0.104-1.148,0.104-1.736s-0.04-1.166-0.104-1.737l-4.377-1.557c-0.218-0.716-0.504-1.401-0.851-2.05l1.993-4.192c-0.725-0.91-1.549-1.734-2.458-2.459l-4.193,1.994c-0.647-0.347-1.334-0.632-2.049-0.849l-1.558-4.378C17.165,0.708,16.588,0.667,16,0.667s-1.166,0.041-1.737,0.105L12.707,5.15c-0.716,0.217-1.401,0.502-2.05,0.849L6.464,4.005C5.554,4.73,4.73,5.554,4.005,6.464l1.994,4.192c-0.347,0.648-0.632,1.334-0.849,2.05l-4.378,1.557C0.708,14.834,0.667,15.412,0.667,16s0.041,1.165,0.105,1.736l4.378,1.558c0.217,0.715,0.502,1.401,0.849,2.049l-1.994,4.193c0.725,0.909,1.549,1.733,2.459,2.458l4.192-1.993c0.648,0.347,1.334,0.633,2.05,0.851l1.557,4.377c0.571,0.064,1.148,0.104,1.737,0.104c0.588,0,1.165-0.04,1.736-0.104l1.558-4.377c0.715-0.218,1.399-0.504,2.049-0.851l4.193,1.993c0.909-0.725,1.733-1.549,2.458-2.458l-1.993-4.193c0.347-0.647,0.633-1.334,0.851-2.049L31.229,17.736zM16,20.871c-2.69,0-4.872-2.182-4.872-4.871c0-2.69,2.182-4.872,4.872-4.872c2.689,0,4.871,2.182,4.871,4.872C20.871,18.689,18.689,20.871,16,20.871z"></path><title>Link options.</title></g></g></g></g><!--z-index:29--><g   id="j_13" ><path  stroke="#707070" d="M 975 1172 L 598 1499" id="v-138" stroke-width="2" stroke-dasharray="30 30" fill="none" style="opacity: 1;"></path><path  fill="black" stroke="black" d="M 0 0 0 0" transform="matrix(-0.7556831557910288,0.6549373772000737,-0.6549373772000737,-0.7556831557910288,975,1172.3299560546875)"></path><path  fill="#707070" stroke="#707070" d="M 20 0 L 0 10 L 20 20 z" id="v-140" transform="matrix(0.755682981370628,-0.6549375784506484,0.6549375784506484,0.755682981370628,591.5306352220997,1491.4432295645502)" style="opacity: 1;"></path><path  d="M 975 1172 L 598 1499" id="v-139" fill="none" style="cursor: auto; pointer-events: visiblepainted;"></path><g ><g id="v-132"  label-idx="0" cursor="move" transform="matrix(1,0,0,1,786.5,1335.5)" style="cursor: default; opacity: 1;"><rect joint-selector="rect" id="v-135" fill="#ffffff" rx="3" ry="3" pointer-events="none" width="158.75" height="56.734375" transform="matrix(1,0,0,1,-79.4,-28.4)"></rect><text joint-selector="text" id="v-134" font-size="24px" xml:space="preserve" y="0.8em" fill="#707070" text-anchor="middle" pointer-events="none" font-family="'DM Sans', DMSans, sans-serif" font-weight="normal" transform="matrix(1,0,0,1,0,-25.2)"><tspan dy="0" >Print</tspan><tspan dy="1.2em" x="0" >proces-verbaal</tspan></text></g><g id="v-133"  label-idx="1" cursor="move" transform="matrix(1,0,0,1,776.5,1376.300048828125)" style="cursor: default; opacity: 1;"><rect joint-selector="rect" id="v-137" fill="#ffffff" rx="3" ry="3"  width="0" height="0" transform="matrix(1,0,0,1,0,0)" display="none"></rect><text joint-selector="text" id="v-136" fill="#000000" font-size="14" text-anchor="middle" pointer-events="none"></text></g></g><g  display="none" style="display: none;"></g><g  id="v-142" display="none"><g  id="v-130"><path  end="source" d="M 26 0 L 0 13 L 26 26 z"></path></g><g  id="v-131"><path  end="target" d="M 26 0 L 0 13 L 26 26 z"></path></g></g><g  id="v-141" display="none"><g  id="v-129" transform="translate(944.7830174767295, 1198.2094251594415) "><g  event="remove"><circle r="11"></circle><path transform="scale(.8) translate(-16, -16)" d="M24.778,21.419 19.276,15.917 24.777,10.415 21.949,7.585 16.447,13.087 10.945,7.585 8.117,10.415 13.618,15.917 8.116,21.419 10.946,24.248 16.447,18.746 21.948,24.248z"></path><title>Remove link.</title></g><g  event="link:options"><circle r="11" transform="translate(25)"></circle><path fill="white" transform="scale(.55) translate(29, -16)" d="M31.229,17.736c0.064-0.571,0.104-1.148,0.104-1.736s-0.04-1.166-0.104-1.737l-4.377-1.557c-0.218-0.716-0.504-1.401-0.851-2.05l1.993-4.192c-0.725-0.91-1.549-1.734-2.458-2.459l-4.193,1.994c-0.647-0.347-1.334-0.632-2.049-0.849l-1.558-4.378C17.165,0.708,16.588,0.667,16,0.667s-1.166,0.041-1.737,0.105L12.707,5.15c-0.716,0.217-1.401,0.502-2.05,0.849L6.464,4.005C5.554,4.73,4.73,5.554,4.005,6.464l1.994,4.192c-0.347,0.648-0.632,1.334-0.849,2.05l-4.378,1.557C0.708,14.834,0.667,15.412,0.667,16s0.041,1.165,0.105,1.736l4.378,1.558c0.217,0.715,0.502,1.401,0.849,2.049l-1.994,4.193c0.725,0.909,1.549,1.733,2.459,2.458l4.192-1.993c0.648,0.347,1.334,0.633,2.05,0.851l1.557,4.377c0.571,0.064,1.148,0.104,1.737,0.104c0.588,0,1.165-0.04,1.736-0.104l1.558-4.377c0.715-0.218,1.399-0.504,2.049-0.851l4.193,1.993c0.909-0.725,1.733-1.549,2.458-2.458l-1.993-4.193c0.347-0.647,0.633-1.334,0.851-2.049L31.229,17.736zM16,20.871c-2.69,0-4.872-2.182-4.872-4.871c0-2.69,2.182-4.872,4.872-4.872c2.689,0,4.871,2.182,4.871,4.872C20.871,18.689,18.689,20.871,16,20.871z"></path><title>Link options.</title></g></g></g></g><!--z-index:30--><g   id="j_14" ><path  stroke="#707070" d="M 1891 499 L 1896 799" id="v-155" stroke-width="2" stroke-dasharray="30 30" fill="none" style="opacity: 1;"></path><path  fill="black" stroke="black" d="M 0 0 0 0" transform="matrix(0.018463578732430878,0.9998295336007991,-0.9998295336007991,0.018463578732430878,1890.77001953125,499)"></path><path  fill="#707070" stroke="#707070" d="M 20 0 L 0 10 L 20 20 z" id="v-157" transform="matrix(-0.018463711867786444,-0.999829531142216,0.999829531142216,-0.018463711867786444,1886.3117080181933,799.184641414475)" style="opacity: 1;"></path><path  d="M 1891 499 L 1896 799" id="v-156" fill="none" style="cursor: auto; pointer-events: visiblepainted;"></path><g ><g id="v-149"  label-idx="0" cursor="move" transform="matrix(1,0,0,1,1893.5,649)" style="cursor: default; opacity: 1;"><rect joint-selector="rect" id="v-152" fill="#ffffff" rx="3" ry="3" pointer-events="none" width="113.40625" height="56.734375" transform="matrix(1,0,0,1,-56.7,-28.4)"></rect><text joint-selector="text" id="v-151" font-size="24px" xml:space="preserve" y="0.8em" fill="#707070" text-anchor="middle" pointer-events="none" font-family="'DM Sans', DMSans, sans-serif" font-weight="normal" transform="matrix(1,0,0,1,0,-25.2)"><tspan dy="0" >Downloadt</tspan><tspan dy="1.2em" x="0" >bestanden</tspan></text></g><g id="v-150"  label-idx="1" cursor="move" transform="matrix(1,0,0,1,1883.5,689.7999877929688)" style="cursor: default; opacity: 1;"><rect joint-selector="rect" id="v-154" fill="#ffffff" rx="3" ry="3"  width="0" height="0" transform="matrix(1,0,0,1,0,0)" display="none"></rect><text joint-selector="text" id="v-153" fill="#000000" font-size="14" text-anchor="middle" pointer-events="none"></text></g></g><g  display="none" style="display: none;"></g><g  id="v-159" display="none"><g  id="v-147"><path  end="source" d="M 26 0 L 0 13 L 26 26 z"></path></g><g  id="v-148"><path  end="target" d="M 26 0 L 0 13 L 26 26 z"></path></g></g><g  id="v-158" display="none"><g  id="v-146" transform="translate(1891.66657409336, 538.9944456015841) "><g  event="remove"><circle r="11"></circle><path transform="scale(.8) translate(-16, -16)" d="M24.778,21.419 19.276,15.917 24.777,10.415 21.949,7.585 16.447,13.087 10.945,7.585 8.117,10.415 13.618,15.917 8.116,21.419 10.946,24.248 16.447,18.746 21.948,24.248z"></path><title>Remove link.</title></g><g  event="link:options"><circle r="11" transform="translate(25)"></circle><path fill="white" transform="scale(.55) translate(29, -16)" d="M31.229,17.736c0.064-0.571,0.104-1.148,0.104-1.736s-0.04-1.166-0.104-1.737l-4.377-1.557c-0.218-0.716-0.504-1.401-0.851-2.05l1.993-4.192c-0.725-0.91-1.549-1.734-2.458-2.459l-4.193,1.994c-0.647-0.347-1.334-0.632-2.049-0.849l-1.558-4.378C17.165,0.708,16.588,0.667,16,0.667s-1.166,0.041-1.737,0.105L12.707,5.15c-0.716,0.217-1.401,0.502-2.05,0.849L6.464,4.005C5.554,4.73,4.73,5.554,4.005,6.464l1.994,4.192c-0.347,0.648-0.632,1.334-0.849,2.05l-4.378,1.557C0.708,14.834,0.667,15.412,0.667,16s0.041,1.165,0.105,1.736l4.378,1.558c0.217,0.715,0.502,1.401,0.849,2.049l-1.994,4.193c0.725,0.909,1.549,1.733,2.459,2.458l4.192-1.993c0.648,0.347,1.334,0.633,2.05,0.851l1.557,4.377c0.571,0.064,1.148,0.104,1.737,0.104c0.588,0,1.165-0.04,1.736-0.104l1.558-4.377c0.715-0.218,1.399-0.504,2.049-0.851l4.193,1.993c0.909-0.725,1.733-1.549,2.458-2.458l-1.993-4.193c0.347-0.647,0.633-1.334,0.851-2.049L31.229,17.736zM16,20.871c-2.69,0-4.872-2.182-4.872-4.871c0-2.69,2.182-4.872,4.872-4.872c2.689,0,4.871,2.182,4.871,4.872C20.871,18.689,18.689,20.871,16,20.871z"></path><title>Link options.</title></g></g></g></g><!--z-index:31--><g   id="j_15" ><path  stroke="#707070" d="M 1375 1172 L 1752 1499" id="v-175" stroke-width="2" stroke-dasharray="30 30" fill="none" style="opacity: 1;"></path><path  fill="black" stroke="black" d="M 0 0 0 0" transform="matrix(0.7556831121859338,0.6549374275127215,-0.6549374275127215,0.7556831121859338,1375,1172.3299560546875)"></path><path  fill="#707070" stroke="#707070" d="M 20 0 L 0 10 L 20 20 z" id="v-177" transform="matrix(-0.755683155791029,-0.6549373772000735,0.6549373772000735,-0.755683155791029,1745.370616965597,1506.556888923661)" style="opacity: 1;"></path><path  d="M 1375 1172 L 1752 1499" id="v-176" fill="none" style="cursor: auto; pointer-events: visiblepainted;"></path><g ><g id="v-166"  label-idx="0" cursor="move" transform="matrix(1,0,0,1,1563.5,1335.5)" style="cursor: default; opacity: 1;"><rect joint-selector="rect" id="v-170" fill="#ffffff" rx="3" ry="3" pointer-events="none" width="137.40625" height="85.53125" transform="matrix(1,0,0,1,-68.7,-42.8)"></rect><text joint-selector="text" id="v-169" font-size="24px" xml:space="preserve" y="0.8em" fill="#707070" text-anchor="middle" pointer-events="none" font-family="'DM Sans', DMSans, sans-serif" font-weight="normal" transform="matrix(1,0,0,1,0,-39.6)"><tspan dy="0" >Coördineert</tspan><tspan dy="1.2em" x="0" >zitting en</tspan><tspan dy="1.2em" x="0" >invoerproces</tspan></text></g><g id="v-167"  label-idx="1" cursor="move" transform="matrix(1,0,0,1,1563.5,1390.699951171875)" style="cursor: default; opacity: 1;"><rect joint-selector="rect" id="v-172" fill="#ffffff" rx="3" ry="3" pointer-events="none" width="65.1875" height="19.359375" transform="matrix(1,0,0,1,-32.6,-9.6)"></rect><text joint-selector="text" id="v-171" font-size="17px" xml:space="preserve" y="0.8em" fill="#707070" text-anchor="middle" pointer-events="none" font-family="'DM Sans', DMSans, sans-serif" font-weight="normal" transform="matrix(1,0,0,1,0,-7.8)"><tspan dy="0" >[HTTPS]</tspan></text></g><g id="v-168"  label-idx="2" cursor="move" transform="matrix(1,0,0,1,1553.5,1399.0999755859375)" style="cursor: default; opacity: 1;"><rect joint-selector="rect" id="v-174" fill="#ffffff" rx="3" ry="3"  width="0" height="0" transform="matrix(1,0,0,1,0,0)" display="none"></rect><text joint-selector="text" id="v-173" fill="#000000" font-size="14" text-anchor="middle" pointer-events="none"></text></g></g><g  display="none" style="display: none;"></g><g  id="v-179" display="none"><g  id="v-164"><path  end="source" d="M 26 0 L 0 13 L 26 26 z"></path></g><g  id="v-165"><path  end="target" d="M 26 0 L 0 13 L 26 26 z"></path></g></g><g  id="v-178" display="none"><g  id="v-163" transform="translate(1405.2169825232704, 1198.2094251594415) "><g  event="remove"><circle r="11"></circle><path transform="scale(.8) translate(-16, -16)" d="M24.778,21.419 19.276,15.917 24.777,10.415 21.949,7.585 16.447,13.087 10.945,7.585 8.117,10.415 13.618,15.917 8.116,21.419 10.946,24.248 16.447,18.746 21.948,24.248z"></path><title>Remove link.</title></g><g  event="link:options"><circle r="11" transform="translate(25)"></circle><path fill="white" transform="scale(.55) translate(29, -16)" d="M31.229,17.736c0.064-0.571,0.104-1.148,0.104-1.736s-0.04-1.166-0.104-1.737l-4.377-1.557c-0.218-0.716-0.504-1.401-0.851-2.05l1.993-4.192c-0.725-0.91-1.549-1.734-2.458-2.459l-4.193,1.994c-0.647-0.347-1.334-0.632-2.049-0.849l-1.558-4.378C17.165,0.708,16.588,0.667,16,0.667s-1.166,0.041-1.737,0.105L12.707,5.15c-0.716,0.217-1.401,0.502-2.05,0.849L6.464,4.005C5.554,4.73,4.73,5.554,4.005,6.464l1.994,4.192c-0.347,0.648-0.632,1.334-0.849,2.05l-4.378,1.557C0.708,14.834,0.667,15.412,0.667,16s0.041,1.165,0.105,1.736l4.378,1.558c0.217,0.715,0.502,1.401,0.849,2.049l-1.994,4.193c0.725,0.909,1.549,1.733,2.459,2.458l4.192-1.993c0.648,0.347,1.334,0.633,2.05,0.851l1.557,4.377c0.571,0.064,1.148,0.104,1.737,0.104c0.588,0,1.165-0.04,1.736-0.104l1.558-4.377c0.715-0.218,1.399-0.504,2.049-0.851l4.193,1.993c0.909-0.725,1.733-1.549,2.458-2.458l-1.993-4.193c0.347-0.647,0.633-1.334,0.851-2.049L31.229,17.736zM16,20.871c-2.69,0-4.872-2.182-4.872-4.871c0-2.69,2.182-4.872,4.872-4.872c2.689,0,4.871,2.182,4.871,4.872C20.871,18.689,18.689,20.871,16,20.871z"></path><title>Link options.</title></g></g></g></g><!--z-index:32--><g   id="j_16" ><path  stroke="#707070" d="M 2413 1188 L 2084 1499" id="v-195" stroke-width="2" stroke-dasharray="30 30" fill="none" style="opacity: 1;"></path><path  fill="black" stroke="black" d="M 0 0 0 0" transform="matrix(-0.7268912266796614,0.6867526079864109,-0.6867526079864109,-0.7268912266796614,2413,1187.949951171875)"></path><path  fill="#707070" stroke="#707070" d="M 20 0 L 0 10 L 20 20 z" id="v-197" transform="matrix(0.7268912266796613,-0.686752607986411,0.686752607986411,0.7268912266796613,2076.9023800127143,1491.73106010213)" style="opacity: 1;"></path><path  d="M 2413 1188 L 2084 1499" id="v-196" fill="none" style="cursor: auto; pointer-events: visiblepainted;"></path><g ><g id="v-186"  label-idx="0" cursor="move" transform="matrix(1,0,0,1,2248.5,1343.5)" style="cursor: default; opacity: 1;"><rect joint-selector="rect" id="v-190" fill="#ffffff" rx="3" ry="3" pointer-events="none" width="178.78125" height="27.9375" transform="matrix(1,0,0,1,-89.4,-14)"></rect><text joint-selector="text" id="v-189" font-size="24px" xml:space="preserve" y="0.8em" fill="#707070" text-anchor="middle" pointer-events="none" font-family="'DM Sans', DMSans, sans-serif" font-weight="normal" transform="matrix(1,0,0,1,0,-10.8)"><tspan dy="0" >Voert tellingen in</tspan></text></g><g id="v-187"  label-idx="1" cursor="move" transform="matrix(1,0,0,1,2248.5,1369.9000244140625)" style="cursor: default; opacity: 1;"><rect joint-selector="rect" id="v-192" fill="#ffffff" rx="3" ry="3" pointer-events="none" width="65.1875" height="19.359375" transform="matrix(1,0,0,1,-32.6,-9.6)"></rect><text joint-selector="text" id="v-191" font-size="17px" xml:space="preserve" y="0.8em" fill="#707070" text-anchor="middle" pointer-events="none" font-family="'DM Sans', DMSans, sans-serif" font-weight="normal" transform="matrix(1,0,0,1,0,-7.8)"><tspan dy="0" >[HTTPS]</tspan></text></g><g id="v-188"  label-idx="2" cursor="move" transform="matrix(1,0,0,1,2238.5,1378.300048828125)" style="cursor: default; opacity: 1;"><rect joint-selector="rect" id="v-194" fill="#ffffff" rx="3" ry="3"  width="0" height="0" transform="matrix(1,0,0,1,0,0)" display="none"></rect><text joint-selector="text" id="v-193" fill="#000000" font-size="14" text-anchor="middle" pointer-events="none"></text></g></g><g  display="none" style="display: none;"></g><g  id="v-199" display="none"><g  id="v-184"><path  end="source" d="M 26 0 L 0 13 L 26 26 z"></path></g><g  id="v-185"><path  end="target" d="M 26 0 L 0 13 L 26 26 z"></path></g></g><g  id="v-198" display="none"><g  id="v-183" transform="translate(2383.9317280797195, 1215.477910538624) "><g  event="remove"><circle r="11"></circle><path transform="scale(.8) translate(-16, -16)" d="M24.778,21.419 19.276,15.917 24.777,10.415 21.949,7.585 16.447,13.087 10.945,7.585 8.117,10.415 13.618,15.917 8.116,21.419 10.946,24.248 16.447,18.746 21.948,24.248z"></path><title>Remove link.</title></g><g  event="link:options"><circle r="11" transform="translate(25)"></circle><path fill="white" transform="scale(.55) translate(29, -16)" d="M31.229,17.736c0.064-0.571,0.104-1.148,0.104-1.736s-0.04-1.166-0.104-1.737l-4.377-1.557c-0.218-0.716-0.504-1.401-0.851-2.05l1.993-4.192c-0.725-0.91-1.549-1.734-2.458-2.459l-4.193,1.994c-0.647-0.347-1.334-0.632-2.049-0.849l-1.558-4.378C17.165,0.708,16.588,0.667,16,0.667s-1.166,0.041-1.737,0.105L12.707,5.15c-0.716,0.217-1.401,0.502-2.05,0.849L6.464,4.005C5.554,4.73,4.73,5.554,4.005,6.464l1.994,4.192c-0.347,0.648-0.632,1.334-0.849,2.05l-4.378,1.557C0.708,14.834,0.667,15.412,0.667,16s0.041,1.165,0.105,1.736l4.378,1.558c0.217,0.715,0.502,1.401,0.849,2.049l-1.994,4.193c0.725,0.909,1.549,1.733,2.459,2.458l4.192-1.993c0.648,0.347,1.334,0.633,2.05,0.851l1.557,4.377c0.571,0.064,1.148,0.104,1.737,0.104c0.588,0,1.165-0.04,1.736-0.104l1.558-4.377c0.715-0.218,1.399-0.504,2.049-0.851l4.193,1.993c0.909-0.725,1.733-1.549,2.458-2.458l-1.993-4.193c0.347-0.647,0.633-1.334,0.851-2.049L31.229,17.736zM16,20.871c-2.69,0-4.872-2.182-4.872-4.871c0-2.69,2.182-4.872,4.872-4.872c2.689,0,4.871,2.182,4.871,4.872C20.871,18.689,18.689,20.871,16,20.871z"></path><title>Link options.</title></g></g></g></g><!--z-index:33--><g   id="j_17" ><path  stroke="#707070" d="M 1908 1199 L 1919 1499" id="v-215" stroke-width="2" stroke-dasharray="30 30" fill="none" style="opacity: 1;"></path><path  fill="black" stroke="black" d="M 0 0 0 0" transform="matrix(0.038438185519085455,0.9992609798716251,-0.9992609798716251,0.038438185519085455,1907.68994140625,1199)"></path><path  fill="#707070" stroke="#707070" d="M 20 0 L 0 10 L 20 20 z" id="v-217" transform="matrix(-0.03843805245943714,-0.9992609849899703,0.9992609849899703,-0.03843805245943714,1909.2373517293822,1499.3844366635565)" style="opacity: 1;"></path><path  d="M 1908 1199 L 1919 1499" id="v-216" fill="none" style="cursor: auto; pointer-events: visiblepainted;"></path><g ><g id="v-206"  label-idx="0" cursor="move" transform="matrix(1,0,0,1,1913.5,1349)" style="cursor: default; opacity: 1;"><rect joint-selector="rect" id="v-210" fill="#ffffff" rx="3" ry="3" pointer-events="none" width="141.4375" height="85.53125" transform="matrix(1,0,0,1,-70.7,-42.8)"></rect><text joint-selector="text" id="v-209" font-size="24px" xml:space="preserve" y="0.8em" fill="#707070" text-anchor="middle" pointer-events="none" font-family="'DM Sans', DMSans, sans-serif" font-weight="normal" transform="matrix(1,0,0,1,0,-39.6)"><tspan dy="0" >Beheert</tspan><tspan dy="1.2em" x="0" >verkiezing en</tspan><tspan dy="1.2em" x="0" >gebruikers</tspan></text></g><g id="v-207"  label-idx="1" cursor="move" transform="matrix(1,0,0,1,1913.5,1404.199951171875)" style="cursor: default; opacity: 1;"><rect joint-selector="rect" id="v-212" fill="#ffffff" rx="3" ry="3" pointer-events="none" width="65.1875" height="19.359375" transform="matrix(1,0,0,1,-32.6,-9.6)"></rect><text joint-selector="text" id="v-211" font-size="17px" xml:space="preserve" y="0.8em" fill="#707070" text-anchor="middle" pointer-events="none" font-family="'DM Sans', DMSans, sans-serif" font-weight="normal" transform="matrix(1,0,0,1,0,-7.8)"><tspan dy="0" >[HTTPS]</tspan></text></g><g id="v-208"  label-idx="2" cursor="move" transform="matrix(1,0,0,1,1903.5,1412.5999755859375)" style="cursor: default; opacity: 1;"><rect joint-selector="rect" id="v-214" fill="#ffffff" rx="3" ry="3"  width="0" height="0" transform="matrix(1,0,0,1,0,0)" display="none"></rect><text joint-selector="text" id="v-213" fill="#000000" font-size="14" text-anchor="middle" pointer-events="none"></text></g></g><g  display="none" style="display: none;"></g><g  id="v-219" display="none"><g  id="v-204"><path  end="source" d="M 26 0 L 0 13 L 26 26 z"></path></g><g  id="v-205"><path  end="target" d="M 26 0 L 0 13 L 26 26 z"></path></g></g><g  id="v-218" display="none"><g  id="v-203" transform="translate(1909.4656817337702, 1238.9731381937333) "><g  event="remove"><circle r="11"></circle><path transform="scale(.8) translate(-16, -16)" d="M24.778,21.419 19.276,15.917 24.777,10.415 21.949,7.585 16.447,13.087 10.945,7.585 8.117,10.415 13.618,15.917 8.116,21.419 10.946,24.248 16.447,18.746 21.948,24.248z"></path><title>Remove link.</title></g><g  event="link:options"><circle r="11" transform="translate(25)"></circle><path fill="white" transform="scale(.55) translate(29, -16)" d="M31.229,17.736c0.064-0.571,0.104-1.148,0.104-1.736s-0.04-1.166-0.104-1.737l-4.377-1.557c-0.218-0.716-0.504-1.401-0.851-2.05l1.993-4.192c-0.725-0.91-1.549-1.734-2.458-2.459l-4.193,1.994c-0.647-0.347-1.334-0.632-2.049-0.849l-1.558-4.378C17.165,0.708,16.588,0.667,16,0.667s-1.166,0.041-1.737,0.105L12.707,5.15c-0.716,0.217-1.401,0.502-2.05,0.849L6.464,4.005C5.554,4.73,4.73,5.554,4.005,6.464l1.994,4.192c-0.347,0.648-0.632,1.334-0.849,2.05l-4.378,1.557C0.708,14.834,0.667,15.412,0.667,16s0.041,1.165,0.105,1.736l4.378,1.558c0.217,0.715,0.502,1.401,0.849,2.049l-1.994,4.193c0.725,0.909,1.549,1.733,2.459,2.458l4.192-1.993c0.648,0.347,1.334,0.633,2.05,0.851l1.557,4.377c0.571,0.064,1.148,0.104,1.737,0.104c0.588,0,1.165-0.04,1.736-0.104l1.558-4.377c0.715-0.218,1.399-0.504,2.049-0.851l4.193,1.993c0.909-0.725,1.733-1.549,2.458-2.458l-1.993-4.193c0.347-0.647,0.633-1.334,0.851-2.049L31.229,17.736zM16,20.871c-2.69,0-4.872-2.182-4.872-4.871c0-2.69,2.182-4.872,4.872-4.872c2.689,0,4.871,2.182,4.871,4.872C20.871,18.689,18.689,20.871,16,20.871z"></path><title>Link options.</title></g></g></g></g><!--z-index:34--></g><g ></g><g ></g><g ></g></g></svg>