<svg xmlns="http://www.w3.org/2000/svg" xmlns:xlink="http://www.w3.org/1999/xlink" version="1.1" viewBox="0 0 2200 1400" style="background: #ffffff"><defs joint-selector="defs"></defs><g joint-selector="layers" transform="matrix(1,0,0,1,0,0)" ><g ></g><g ><!--z-index:1--><!--z-index:2--><!--z-index:3--><!--z-index:4--><!--z-index:5--><!--z-index:6--><!--z-index:7--><!--z-index:8--><!--z-index:9--><g   id="j_19"  transform="translate(20,1363.6)"><g id="v-225"><text  id="v-226" font-size="22px" xml:space="preserve" y="0.8em" font-weight="normal" text-anchor="start" fill="#aaaaaa" pointer-events="none" display="block" font-family="'DM Sans', DMSans, sans-serif"><tspan dy="0" >Friday 21 June 2024 at 17:00 Central European Summer Time</tspan></text></g></g><!--z-index:10--><g   id="j_18"  transform="translate(20,1320.3999999999999)"><g id="v-223"><text  id="v-224" font-size="36px" xml:space="preserve" y="0.8em" font-weight="normal" text-anchor="start" fill="#000000" pointer-events="none" display="block" font-family="'DM Sans', DMSans, sans-serif"><tspan dy="0" >[System Context] Abacus</tspan></text></g></g><!--z-index:11--><g   id="j_20"  transform="translate(200,200)" style=""><g  id="v-227" style="opacity: 1;"><rect  x="0" y="160" width="400" height="240" rx="70" id="v-229" stroke="#c7c7c7" stroke-width="2" pointer-events="visiblePainted" fill="#dddddd" style="fill: rgb(221, 221, 221); stroke: rgb(199, 199, 199);"></rect><circle  cx="200" cy="88.88888888888889" r="88.88888888888889" id="v-228" stroke="#c7c7c7" stroke-width="2" pointer-events="visiblePainted" fill="#dddddd" style="fill: rgb(221, 221, 221); stroke: rgb(199, 199, 199);"></circle><line  x1="80" y1="266.6666666666667" x2="80" y2="400" id="v-235" stroke="#c7c7c7" stroke-width="2" style="stroke: rgb(199, 199, 199);"></line><line  x1="320" y1="266.6666666666667" x2="320" y2="400" id="v-236" stroke="#c7c7c7" stroke-width="2" style="stroke: rgb(199, 199, 199);"></line><text  id="v-230" font-size="32" xml:space="preserve" y="0.8em" font-weight="bold" text-anchor="middle" pointer-events="visible" font-family="'DM Sans', DMSans, sans-serif" fill="#000000" transform="matrix(1,0,0,1,200,254.3)" style="fill: rgb(0, 0, 0);"><tspan dy="0" >Coördinator</tspan></text><text  id="v-231" font-size="15" xml:space="preserve" y="0.8em" text-anchor="middle" font-family="'DM Sans', DMSans, sans-serif" fill="#000000" transform="matrix(1,0,0,1,200,292.7)" style="fill: rgb(0, 0, 0);"><tspan dy="0" >[Person]</tspan></text><text  id="v-232" font-size="22" xml:space="preserve" display="none" y="0.8em" text-anchor="middle" font-family="'DM Sans', DMSans, sans-serif" fill="#000000" transform="matrix(1,0,0,1,200,310.7)" style="fill: rgb(0, 0, 0);"><tspan dy="0" style="fill-opacity: 0; stroke-opacity: 0;" >-</tspan></text><g  id="v-233" font-weight="normal" text-anchor="middle" color="#000000" transform="matrix(1,0,0,1,197.5,368)" display="none" style="fill: rgb(0, 0, 0);"><g ></g><g ></g><g ></g><g ></g></g><image  id="v-234"></image></g></g><!--z-index:12--><g   id="j_21"  transform="translate(900,200)" style=""><g  id="v-237" style="opacity: 1;"><rect  x="0" y="160" width="400" height="240" rx="70" id="v-239" stroke="#c7c7c7" stroke-width="2" pointer-events="visiblePainted" fill="#dddddd" style="fill: rgb(221, 221, 221); stroke: rgb(199, 199, 199);"></rect><circle  cx="200" cy="88.88888888888889" r="88.88888888888889" id="v-238" stroke="#c7c7c7" stroke-width="2" pointer-events="visiblePainted" fill="#dddddd" style="fill: rgb(221, 221, 221); stroke: rgb(199, 199, 199);"></circle><line  x1="80" y1="266.6666666666667" x2="80" y2="400" id="v-245" stroke="#c7c7c7" stroke-width="2" style="stroke: rgb(199, 199, 199);"></line><line  x1="320" y1="266.6666666666667" x2="320" y2="400" id="v-246" stroke="#c7c7c7" stroke-width="2" style="stroke: rgb(199, 199, 199);"></line><text  id="v-240" font-size="32" xml:space="preserve" y="0.8em" font-weight="bold" text-anchor="middle" pointer-events="visible" font-family="'DM Sans', DMSans, sans-serif" fill="#000000" transform="matrix(1,0,0,1,200,254.3)" style="fill: rgb(0, 0, 0);"><tspan dy="0" >Beheerder</tspan></text><text  id="v-241" font-size="15" xml:space="preserve" y="0.8em" text-anchor="middle" font-family="'DM Sans', DMSans, sans-serif" fill="#000000" transform="matrix(1,0,0,1,200,292.7)" style="fill: rgb(0, 0, 0);"><tspan dy="0" >[Person]</tspan></text><text  id="v-242" font-size="22" xml:space="preserve" display="none" y="0.8em" text-anchor="middle" font-family="'DM Sans', DMSans, sans-serif" fill="#000000" transform="matrix(1,0,0,1,200,310.7)" style="fill: rgb(0, 0, 0);"><tspan dy="0" style="fill-opacity: 0; stroke-opacity: 0;" >-</tspan></text><g  id="v-243" font-weight="normal" text-anchor="middle" color="#000000" transform="matrix(1,0,0,1,197.5,368)" display="none" style="fill: rgb(0, 0, 0);"><g ></g><g ></g><g ></g><g ></g></g><image  id="v-244"></image></g></g><!--z-index:13--><g   id="j_22"  transform="translate(1600,200)" style=""><g  id="v-247" style="opacity: 1;"><rect  x="0" y="160" width="400" height="240" rx="70" id="v-249" stroke="#c7c7c7" stroke-width="2" pointer-events="visiblePainted" fill="#dddddd" style="fill: rgb(221, 221, 221); stroke: rgb(199, 199, 199);"></rect><circle  cx="200" cy="88.88888888888889" r="88.88888888888889" id="v-248" stroke="#c7c7c7" stroke-width="2" pointer-events="visiblePainted" fill="#dddddd" style="fill: rgb(221, 221, 221); stroke: rgb(199, 199, 199);"></circle><line  x1="80" y1="266.6666666666667" x2="80" y2="400" id="v-255" stroke="#c7c7c7" stroke-width="2" style="stroke: rgb(199, 199, 199);"></line><line  x1="320" y1="266.6666666666667" x2="320" y2="400" id="v-256" stroke="#c7c7c7" stroke-width="2" style="stroke: rgb(199, 199, 199);"></line><text  id="v-250" font-size="32" xml:space="preserve" y="0.8em" font-weight="bold" text-anchor="middle" pointer-events="visible" font-family="'DM Sans', DMSans, sans-serif" fill="#000000" transform="matrix(1,0,0,1,200,254.3)" style="fill: rgb(0, 0, 0);"><tspan dy="0" >Invoerder</tspan></text><text  id="v-251" font-size="15" xml:space="preserve" y="0.8em" text-anchor="middle" font-family="'DM Sans', DMSans, sans-serif" fill="#000000" transform="matrix(1,0,0,1,200,292.7)" style="fill: rgb(0, 0, 0);"><tspan dy="0" >[Person]</tspan></text><text  id="v-252" font-size="22" xml:space="preserve" display="none" y="0.8em" text-anchor="middle" font-family="'DM Sans', DMSans, sans-serif" fill="#000000" transform="matrix(1,0,0,1,200,310.7)" style="fill: rgb(0, 0, 0);"><tspan dy="0" style="fill-opacity: 0; stroke-opacity: 0;" >-</tspan></text><g  id="v-253" font-weight="normal" text-anchor="middle" color="#000000" transform="matrix(1,0,0,1,197.5,368)" display="none" style="fill: rgb(0, 0, 0);"><g ></g><g ></g><g ></g><g ></g></g><image  id="v-254"></image></g></g><!--z-index:14--><g   id="j_23"  transform="translate(875,900)" style=""><g  id="v-257" style="opacity: 1;"><rect  id="v-258" rx="1" ry="1" stroke="#0f5eaa" stroke-width="2" pointer-events="visiblePainted" fill="#1168bd" width="450" height="300" style="fill: rgb(17, 104, 189); stroke: rgb(15, 94, 170);"></rect><text  id="v-259" font-size="34" xml:space="preserve" y="0.8em" font-weight="bold" text-anchor="middle" pointer-events="visible" font-family="'DM Sans', DMSans, sans-serif" fill="#ffffff" transform="matrix(1,0,0,1,225,121.9)" style="fill: rgb(255, 255, 255);"><tspan dy="0" >Abacus</tspan></text><text  id="v-260" font-size="17" xml:space="preserve" y="0.8em" text-anchor="middle" font-family="'DM Sans', DMSans, sans-serif" fill="#ffffff" transform="matrix(1,0,0,1,225,162.7)" style="fill: rgb(255, 255, 255);"><tspan dy="0" >[Software System]</tspan></text><text  id="v-261" font-size="24" xml:space="preserve" display="none" y="0.8em" text-anchor="middle" font-family="'DM Sans', DMSans, sans-serif" fill="#ffffff" transform="matrix(1,0,0,1,225,183.1)" style="fill: rgb(255, 255, 255);"><tspan dy="0" style="fill-opacity: 0; stroke-opacity: 0;" >-</tspan></text><g  id="v-262" color="#ffffff" transform="matrix(1,0,0,1,210,268)" display="none" style="fill: rgb(255, 255, 255);"><g  transform="translate(5 0)"><svg xmlns="http://www.w3.org/2000/svg" width="20" height="20" fill="currentColor" viewBox="0 0 16 16"><path fill-rule="evenodd" d="M6.5 12a5.5 5.5 0 1 0 0-11 5.5 5.5 0 0 0 0 11zM13 6.5a6.5 6.5 0 1 1-13 0 6.5 6.5 0 0 1 13 0z"></path><path d="M10.344 11.742c.03.04.062.078.098.115l3.85 3.85a1 1 0 0 0 1.415-1.414l-3.85-3.85a1.007 1.007 0 0 0-.115-.1 6.538 6.538 0 0 1-1.398 1.4z"></path><path fill-rule="evenodd" d="M6.5 3a.5.5 0 0 1 .5.5V6h2.5a.5.5 0 0 1 0 1H7v2.5a.5.5 0 0 1-1 0V7H3.5a.5.5 0 0 1 0-1H6V3.5a.5.5 0 0 1 .5-.5z"></path></svg></g><g ></g><g ></g><g ></g></g><image  id="v-263"></image></g></g><!--z-index:15--><g   id="j_24" ><path  stroke="#707070" d="M 600 586 L 938 900" id="v-279" stroke-width="2" stroke-dasharray="30 30" fill="none" style="opacity: 1;"></path><path  fill="black" stroke="black" d="M 0 0 0 0" transform="matrix(0.7327873441550872,0.6804577196609162,-0.6804577196609162,0.7327873441550872,600,585.7100219726562)"></path><path  fill="#707070" stroke="#707070" d="M 20 0 L 0 10 L 20 20 z" id="v-281" transform="matrix(-0.7327872988508725,-0.6804577684491832,0.6804577684491832,-0.7327872988508725,931.6554364172981,907.3278852433131)" style="opacity: 1;"></path><path  d="M 600 586 L 938 900" id="v-280" fill="none" style="cursor: auto; pointer-events: visiblepainted;"></path><g ><g id="v-270"  label-idx="0" cursor="move" transform="matrix(1,0,0,1,769,743)" style="cursor: default; opacity: 1;"><rect joint-selector="rect" id="v-274" fill="#ffffff" rx="3" ry="3" pointer-events="none" width="137.40625" height="85.4375" transform="matrix(1,0,0,1,-68.7,-42.7)"></rect><text joint-selector="text" id="v-273" font-size="24px" xml:space="preserve" y="0.8em" fill="#707070" text-anchor="middle" pointer-events="none" font-family="'DM Sans', DMSans, sans-serif" font-weight="normal" transform="matrix(1,0,0,1,0,-39.6)"><tspan dy="0" >Coördineert</tspan><tspan dy="1.2em" x="0" >zitting en</tspan><tspan dy="1.2em" x="0" >invoerproces</tspan></text></g><g id="v-271"  label-idx="1" cursor="move" transform="matrix(1,0,0,1,769,798.2000122070312)" style="cursor: default; opacity: 1;"><rect joint-selector="rect" id="v-276" fill="#ffffff" rx="3" ry="3" pointer-events="none" width="65.1875" height="19.75" transform="matrix(1,0,0,1,-32.6,-9.8)"></rect><text joint-selector="text" id="v-275" font-size="17px" xml:space="preserve" y="0.8em" fill="#707070" text-anchor="middle" pointer-events="none" font-family="'DM Sans', DMSans, sans-serif" font-weight="normal" transform="matrix(1,0,0,1,0,-7.6)"><tspan dy="0" >[HTTPS]</tspan></text></g><g id="v-272"  label-idx="2" cursor="move" transform="matrix(1,0,0,1,759,806.5999755859375)" style="cursor: default; opacity: 1;"><rect joint-selector="rect" id="v-278" fill="#ffffff" rx="3" ry="3"  width="0" height="0" transform="matrix(1,0,0,1,0,0)" display="none"></rect><text joint-selector="text" id="v-277" fill="#000000" font-size="14" text-anchor="middle" pointer-events="none"></text></g></g><g  display="none" style="display: none;"></g><g  id="v-283" display="none"><g  id="v-268"><path  end="source" d="M 26 0 L 0 13 L 26 26 z"></path></g><g  id="v-269"><path  end="target" d="M 26 0 L 0 13 L 26 26 z"></path></g></g><g  id="v-282" display="none"><g  id="v-267" transform="translate(629.305562817114, 613.2246944514018) "><g  event="remove"><circle r="11"></circle><path transform="scale(.8) translate(-16, -16)" d="M24.778,21.419 19.276,15.917 24.777,10.415 21.949,7.585 16.447,13.087 10.945,7.585 8.117,10.415 13.618,15.917 8.116,21.419 10.946,24.248 16.447,18.746 21.948,24.248z"></path><title>Remove link.</title></g><g  event="link:options"><circle r="11" transform="translate(25)"></circle><path fill="white" transform="scale(.55) translate(29, -16)" d="M31.229,17.736c0.064-0.571,0.104-1.148,0.104-1.736s-0.04-1.166-0.104-1.737l-4.377-1.557c-0.218-0.716-0.504-1.401-0.851-2.05l1.993-4.192c-0.725-0.91-1.549-1.734-2.458-2.459l-4.193,1.994c-0.647-0.347-1.334-0.632-2.049-0.849l-1.558-4.378C17.165,0.708,16.588,0.667,16,0.667s-1.166,0.041-1.737,0.105L12.707,5.15c-0.716,0.217-1.401,0.502-2.05,0.849L6.464,4.005C5.554,4.73,4.73,5.554,4.005,6.464l1.994,4.192c-0.347,0.648-0.632,1.334-0.849,2.05l-4.378,1.557C0.708,14.834,0.667,15.412,0.667,16s0.041,1.165,0.105,1.736l4.378,1.558c0.217,0.715,0.502,1.401,0.849,2.049l-1.994,4.193c0.725,0.909,1.549,1.733,2.459,2.458l4.192-1.993c0.648,0.347,1.334,0.633,2.05,0.851l1.557,4.377c0.571,0.064,1.148,0.104,1.737,0.104c0.588,0,1.165-0.04,1.736-0.104l1.558-4.377c0.715-0.218,1.399-0.504,2.049-0.851l4.193,1.993c0.909-0.725,1.733-1.549,2.458-2.458l-1.993-4.193c0.347-0.647,0.633-1.334,0.851-2.049L31.229,17.736zM16,20.871c-2.69,0-4.872-2.182-4.872-4.871c0-2.69,2.182-4.872,4.872-4.872c2.689,0,4.871,2.182,4.871,4.872C20.871,18.689,18.689,20.871,16,20.871z"></path><title>Link options.</title></g></g></g></g><!--z-index:16--><g   id="j_25" ><path  stroke="#707070" d="M 1600 586 L 1262 900" id="v-299" stroke-width="2" stroke-dasharray="30 30" fill="none" style="opacity: 1;"></path><path  fill="black" stroke="black" d="M 0 0 0 0" transform="matrix(-0.7327872988508723,0.6804577684491833,-0.6804577684491833,-0.7327872988508723,1600,585.7100219726562)"></path><path  fill="#707070" stroke="#707070" d="M 20 0 L 0 10 L 20 20 z" id="v-301" transform="matrix(0.7327872988508726,-0.680457768449183,0.680457768449183,0.7327872988508726,1254.7354692488746,892.6721392662955)" style="opacity: 1;"></path><path  d="M 1600 586 L 1262 900" id="v-300" fill="none" style="cursor: auto; pointer-events: visiblepainted;"></path><g ><g id="v-290"  label-idx="0" cursor="move" transform="matrix(1,0,0,1,1431,743)" style="cursor: default; opacity: 1;"><rect joint-selector="rect" id="v-294" fill="#ffffff" rx="3" ry="3" pointer-events="none" width="178.78125" height="27.84375" transform="matrix(1,0,0,1,-89.4,-13.9)"></rect><text joint-selector="text" id="v-293" font-size="24px" xml:space="preserve" y="0.8em" fill="#707070" text-anchor="middle" pointer-events="none" font-family="'DM Sans', DMSans, sans-serif" font-weight="normal" transform="matrix(1,0,0,1,0,-10.8)"><tspan dy="0" >Voert tellingen in</tspan></text></g><g id="v-291"  label-idx="1" cursor="move" transform="matrix(1,0,0,1,1431,769.4000244140625)" style="cursor: default; opacity: 1;"><rect joint-selector="rect" id="v-296" fill="#ffffff" rx="3" ry="3" pointer-events="none" width="65.1875" height="19.75" transform="matrix(1,0,0,1,-32.6,-9.8)"></rect><text joint-selector="text" id="v-295" font-size="17px" xml:space="preserve" y="0.8em" fill="#707070" text-anchor="middle" pointer-events="none" font-family="'DM Sans', DMSans, sans-serif" font-weight="normal" transform="matrix(1,0,0,1,0,-7.6)"><tspan dy="0" >[HTTPS]</tspan></text></g><g id="v-292"  label-idx="2" cursor="move" transform="matrix(1,0,0,1,1421,777.7999877929688)" style="cursor: default; opacity: 1;"><rect joint-selector="rect" id="v-298" fill="#ffffff" rx="3" ry="3"  width="0" height="0" transform="matrix(1,0,0,1,0,0)" display="none"></rect><text joint-selector="text" id="v-297" fill="#000000" font-size="14" text-anchor="middle" pointer-events="none"></text></g></g><g  display="none" style="display: none;"></g><g  id="v-303" display="none"><g  id="v-288"><path  end="source" d="M 26 0 L 0 13 L 26 26 z"></path></g><g  id="v-289"><path  end="target" d="M 26 0 L 0 13 L 26 26 z"></path></g></g><g  id="v-302" display="none"><g  id="v-287" transform="translate(1570.694437182886, 613.2246944514018) "><g  event="remove"><circle r="11"></circle><path transform="scale(.8) translate(-16, -16)" d="M24.778,21.419 19.276,15.917 24.777,10.415 21.949,7.585 16.447,13.087 10.945,7.585 8.117,10.415 13.618,15.917 8.116,21.419 10.946,24.248 16.447,18.746 21.948,24.248z"></path><title>Remove link.</title></g><g  event="link:options"><circle r="11" transform="translate(25)"></circle><path fill="white" transform="scale(.55) translate(29, -16)" d="M31.229,17.736c0.064-0.571,0.104-1.148,0.104-1.736s-0.04-1.166-0.104-1.737l-4.377-1.557c-0.218-0.716-0.504-1.401-0.851-2.05l1.993-4.192c-0.725-0.91-1.549-1.734-2.458-2.459l-4.193,1.994c-0.647-0.347-1.334-0.632-2.049-0.849l-1.558-4.378C17.165,0.708,16.588,0.667,16,0.667s-1.166,0.041-1.737,0.105L12.707,5.15c-0.716,0.217-1.401,0.502-2.05,0.849L6.464,4.005C5.554,4.73,4.73,5.554,4.005,6.464l1.994,4.192c-0.347,0.648-0.632,1.334-0.849,2.05l-4.378,1.557C0.708,14.834,0.667,15.412,0.667,16s0.041,1.165,0.105,1.736l4.378,1.558c0.217,0.715,0.502,1.401,0.849,2.049l-1.994,4.193c0.725,0.909,1.549,1.733,2.459,2.458l4.192-1.993c0.648,0.347,1.334,0.633,2.05,0.851l1.557,4.377c0.571,0.064,1.148,0.104,1.737,0.104c0.588,0,1.165-0.04,1.736-0.104l1.558-4.377c0.715-0.218,1.399-0.504,2.049-0.851l4.193,1.993c0.909-0.725,1.733-1.549,2.458-2.458l-1.993-4.193c0.347-0.647,0.633-1.334,0.851-2.049L31.229,17.736zM16,20.871c-2.69,0-4.872-2.182-4.872-4.871c0-2.69,2.182-4.872,4.872-4.872c2.689,0,4.871,2.182,4.871,4.872C20.871,18.689,18.689,20.871,16,20.871z"></path><title>Link options.</title></g></g></g></g><!--z-index:17--><g   id="j_26" ><path  stroke="#707070" d="M 1100 600 L 1100 900" id="v-319" stroke-width="2" stroke-dasharray="30 30" fill="none" style="opacity: 1;"></path><path  fill="black" stroke="black" d="M 0 0 0 0" transform="matrix(6.123233995736766e-17,1,-1,6.123233995736766e-17,1100,600)"></path><path  fill="#707070" stroke="#707070" d="M 20 0 L 0 10 L 20 20 z" id="v-321" transform="matrix(-1.8369701987210297e-16,-1,1,-1.8369701987210297e-16,1090,900)" style="opacity: 1;"></path><path  d="M 1100 600 L 1100 900" id="v-320" fill="none" style="cursor: auto; pointer-events: visiblepainted;"></path><g ><g id="v-310"  label-idx="0" cursor="move" transform="matrix(1,0,0,1,1100,750)" style="cursor: default; opacity: 1;"><rect joint-selector="rect" id="v-314" fill="#ffffff" rx="3" ry="3" pointer-events="none" width="141.4375" height="85.4375" transform="matrix(1,0,0,1,-70.7,-42.7)"></rect><text joint-selector="text" id="v-313" font-size="24px" xml:space="preserve" y="0.8em" fill="#707070" text-anchor="middle" pointer-events="none" font-family="'DM Sans', DMSans, sans-serif" font-weight="normal" transform="matrix(1,0,0,1,0,-39.6)"><tspan dy="0" >Beheert</tspan><tspan dy="1.2em" x="0" >verkiezing en</tspan><tspan dy="1.2em" x="0" >gebruikers</tspan></text></g><g id="v-311"  label-idx="1" cursor="move" transform="matrix(1,0,0,1,1100,805.2000122070312)" style="cursor: default; opacity: 1;"><rect joint-selector="rect" id="v-316" fill="#ffffff" rx="3" ry="3" pointer-events="none" width="65.1875" height="19.75" transform="matrix(1,0,0,1,-32.6,-9.8)"></rect><text joint-selector="text" id="v-315" font-size="17px" xml:space="preserve" y="0.8em" fill="#707070" text-anchor="middle" pointer-events="none" font-family="'DM Sans', DMSans, sans-serif" font-weight="normal" transform="matrix(1,0,0,1,0,-7.6)"><tspan dy="0" >[HTTPS]</tspan></text></g><g id="v-312"  label-idx="2" cursor="move" transform="matrix(1,0,0,1,1090,813.5999755859375)" style="cursor: default; opacity: 1;"><rect joint-selector="rect" id="v-318" fill="#ffffff" rx="3" ry="3"  width="0" height="0" transform="matrix(1,0,0,1,0,0)" display="none"></rect><text joint-selector="text" id="v-317" fill="#000000" font-size="14" text-anchor="middle" pointer-events="none"></text></g></g><g  display="none" style="display: none;"></g><g  id="v-323" display="none"><g  id="v-308"><path  end="source" d="M 26 0 L 0 13 L 26 26 z"></path></g><g  id="v-309"><path  end="target" d="M 26 0 L 0 13 L 26 26 z"></path></g></g><g  id="v-322" display="none"><g  id="v-307" transform="translate(1100, 640) "><g  event="remove"><circle r="11"></circle><path transform="scale(.8) translate(-16, -16)" d="M24.778,21.419 19.276,15.917 24.777,10.415 21.949,7.585 16.447,13.087 10.945,7.585 8.117,10.415 13.618,15.917 8.116,21.419 10.946,24.248 16.447,18.746 21.948,24.248z"></path><title>Remove link.</title></g><g  event="link:options"><circle r="11" transform="translate(25)"></circle><path fill="white" transform="scale(.55) translate(29, -16)" d="M31.229,17.736c0.064-0.571,0.104-1.148,0.104-1.736s-0.04-1.166-0.104-1.737l-4.377-1.557c-0.218-0.716-0.504-1.401-0.851-2.05l1.993-4.192c-0.725-0.91-1.549-1.734-2.458-2.459l-4.193,1.994c-0.647-0.347-1.334-0.632-2.049-0.849l-1.558-4.378C17.165,0.708,16.588,0.667,16,0.667s-1.166,0.041-1.737,0.105L12.707,5.15c-0.716,0.217-1.401,0.502-2.05,0.849L6.464,4.005C5.554,4.73,4.73,5.554,4.005,6.464l1.994,4.192c-0.347,0.648-0.632,1.334-0.849,2.05l-4.378,1.557C0.708,14.834,0.667,15.412,0.667,16s0.041,1.165,0.105,1.736l4.378,1.558c0.217,0.715,0.502,1.401,0.849,2.049l-1.994,4.193c0.725,0.909,1.549,1.733,2.459,2.458l4.192-1.993c0.648,0.347,1.334,0.633,2.05,0.851l1.557,4.377c0.571,0.064,1.148,0.104,1.737,0.104c0.588,0,1.165-0.04,1.736-0.104l1.558-4.377c0.715-0.218,1.399-0.504,2.049-0.851l4.193,1.993c0.909-0.725,1.733-1.549,2.458-2.458l-1.993-4.193c0.347-0.647,0.633-1.334,0.851-2.049L31.229,17.736zM16,20.871c-2.69,0-4.872-2.182-4.872-4.871c0-2.69,2.182-4.872,4.872-4.872c2.689,0,4.871,2.182,4.871,4.872C20.871,18.689,18.689,20.871,16,20.871z"></path><title>Link options.</title></g></g></g></g><!--z-index:18--><!--z-index:19--><!--z-index:20--><!--z-index:21--><!--z-index:22--><!--z-index:23--><!--z-index:24--><!--z-index:25--><!--z-index:26--><!--z-index:27--><!--z-index:28--><!--z-index:29--><!--z-index:30--><!--z-index:31--><!--z-index:32--><!--z-index:33--><!--z-index:34--></g><g ></g><g ></g><g ></g></g></svg>