<svg xmlns="http://www.w3.org/2000/svg" version="1.1" viewBox="0 0 24 24" role="img">
  <path d="M20,22c-.6,0-1-.4-1-1,0-1.3,0-1.9-.1-2.4-.3-1-1-1.7-2-2-.4-.1-1.1-.1-2.4-.1h-5c-1.3,0-1.9,0-2.4.1-1,.3-1.7,1-2,2-.1.4-.1,1.1-.1,2.4s-.4,1-1,1-1-.4-1-1c0-1.5,0-2.2.2-3,.5-1.6,1.7-2.8,3.3-3.3.7-.2,1.5-.2,3-.2h5c1.5,0,2.2,0,3,.2,1.6.5,2.8,1.7,3.3,3.3.2.7.2,1.5.2,3s-.4,1-1,1ZM12,13c-3,0-5.5-2.5-5.5-5.5s2.5-5.5,5.5-5.5,5.5,2.5,5.5,5.5-2.5,5.5-5.5,5.5ZM12,4c-1.9,0-3.5,1.6-3.5,3.5s1.6,3.5,3.5,3.5,3.5-1.6,3.5-3.5-1.6-3.5-3.5-3.5Z"/>
</svg>