<?xml version="1.0" encoding="utf-8"?>
<!-- Generator: Adobe Illustrator 27.9.0, SVG Export Plug-In . SVG Version: 6.00 Build 0)  -->
<svg version="1.1" xmlns="http://www.w3.org/2000/svg" xmlns:xlink="http://www.w3.org/1999/xlink" x="0px" y="0px"
	 viewBox="0 0 468.5 536.8" style="enable-background:new 0 0 468.5 536.8;" xml:space="preserve">
<style type="text/css">
	.st0{fill:#00305B;}
	.st1{fill:#F0F0F0;}
	.st2{fill:none;}
	.st3{font-family:'DMSans-Regular';}
	.st4{font-size:16px;}
	.st5{fill:#E4032E;}
</style>
<g id="grid">
	<rect x="214.7" y="19.5" class="st0" width="19.5" height="19.5"/>
	<rect x="234.2" y="19.5" class="st0" width="19.5" height="19.5"/>
</g>
<g id="Laag_2">
	<polygon class="st1" points="463.7,401.7 463.7,136.7 234.2,4.2 4.7,136.7 4.7,401.7 234.2,534.2 	"/>
</g>
<g id="Laag_1">
	<path class="st0" d="M375.3,332H101.9c-3.6,0-6.5-2.1-6.5-4.7v-0.7c0-2.6,2.9-4.7,6.5-4.7h273.4c3.6,0,6.5,2.1,6.5,4.7v0.7
		C381.9,329.9,378.9,332,375.3,332z"/>
	<g>
		<rect x="5.2" y="431.2" class="st2" width="457.9" height="88.5"/>
		<text transform="matrix(1 0 0 1 201.2163 442.7088)"><tspan x="0" y="0" class="st0 st3 st4">Software  </tspan><tspan x="-59.6" y="17" class="st0 st3 st4">voor verkiezingsuitslagen  </tspan><tspan x="-29.8" y="34" class="st0 st3 st4">en zetelverdeling</tspan></text>
	</g>
	<rect x="112.1" y="320.7" class="st1" width="19.5" height="27"/>
	<g>
		<g>
			<path class="st0" d="M57.9,329.1l-20.8,79.3h15.4l4.3-17.4h28.3l4.3,17.4h15.4L84,329.1H57.9z M60.3,377.1l9.6-38.6h2l9.6,38.6
				H60.3z"/>
			<path class="st0" d="M161.2,353.9c-3.9-2.2-8-3.3-12.6-3.3c-3.4,0-6.3,0.4-8.6,1.2c-2.3,0.8-4.2,1.8-5.6,3
				c-1.4,1.2-2.5,2.5-3.3,3.9h-2v-29.1l0,0v-8.2l-7.1-4.1l-7.1,4.1v8.2l0,0v78.9h14v-6.8h2c1.3,2.1,3.3,4,6,5.8
				c2.7,1.7,6.6,2.6,11.7,2.6c4.5,0,8.7-1.1,12.6-3.3c3.9-2.2,6.9-5.5,9.3-9.8c2.3-4.3,3.5-9.5,3.5-15.6v-1.8
				c0-6.1-1.2-11.3-3.5-15.6C168.1,359.4,165,356.2,161.2,353.9z M159.7,380.8c0,5.4-1.5,9.6-4.4,12.4c-2.9,2.8-6.6,4.2-11,4.2
				c-4.4,0-8-1.4-11-4.2c-2.9-2.8-4.4-7-4.4-12.4v-1.1c0-5.4,1.5-9.6,4.4-12.4c2.9-2.8,6.6-4.2,11-4.2c4.5,0,8.1,1.4,11,4.2
				c2.9,2.8,4.4,7,4.4,12.4V380.8z"/>
			<path class="st0" d="M357.5,380.7c0,5.2-1.2,9.3-3.6,12.2c-2.4,2.9-5.8,4.4-10.2,4.4c-3.9,0-6.8-1.1-8.9-3.2
				c-2.1-2.1-3.1-5.3-3.1-9.5v-32.4h-14.3v33.5c0,4.6,0.9,8.7,2.7,12.2c1.8,3.6,4.4,6.3,7.6,8.3c3.3,2,7.1,3,11.5,3
				c5.1,0,8.8-0.9,11.3-2.7c2.5-1.8,4.2-3.7,5.1-5.6h2v4.4h0.1v0.1l7,4l7-4v-0.1h0v-53.2h-14.3V380.7z"/>
			<path class="st0" d="M431.5,382.1c-2-2.3-4.7-4.1-8.2-5.3c-3.4-1.2-7.3-2.2-11.5-3l-3.2-0.6c-2.6-0.5-4.6-1.1-6.1-2
				c-1.5-0.9-2.3-2.2-2.3-4c0-1.7,0.7-3,2.2-3.9c1.4-0.9,3.5-1.4,6.2-1.4c2.7,0,5,0.6,6.9,1.8c1.8,1.2,3.1,3.2,3.7,6.1l0,0l7.8,1.8
				l5.4-5.8l0,0l0,0c-1.3-4.5-4-8.2-8.2-11c-4.2-2.8-9.4-4.2-15.6-4.2c-6.6,0-12,1.5-16.1,4.5c-4.1,3-6.1,7.3-6.1,12.9
				c0,3.7,1,6.7,2.9,9.1c2,2.3,4.6,4.2,7.8,5.5c3.2,1.3,6.8,2.4,10.8,3.1l3.2,0.6c3.3,0.6,5.7,1.4,7.3,2.3c1.5,0.9,2.3,2.3,2.3,4
				c0,1.7-0.8,3.2-2.4,4.4c-1.6,1.2-4,1.8-7.4,1.8c-2.2,0-4.2-0.3-6.1-1c-1.9-0.6-3.4-1.7-4.6-3.2c-1.2-1.5-2.1-3.6-2.7-6.2
				l-13.1,3.4c1,5.9,3.8,10.4,8.5,13.6c4.7,3.2,10.7,4.8,18,4.8c7.2,0,12.9-1.6,17.2-4.8c4.3-3.2,6.4-7.8,6.4-13.7
				C434.5,387.6,433.5,384.4,431.5,382.1z"/>
			<path class="st0" d="M237.5,396.6c-2,0-3.1-1.2-3.1-3.4v-21c0-7-2.2-12.4-6.5-16.1c-4.3-3.7-10.2-5.6-17.6-5.6
				c-4.8,0-8.9,0.7-12.3,2.2c-3.4,1.5-6,3.4-8,5.8c-2,2.4-3.5,5-4.4,7.9l13.1,4.4c0.5-2.6,1.7-4.7,3.4-6.3c1.7-1.6,4.4-2.4,7.9-2.4
				c3.6,0,6.3,0.8,7.9,2.5c1.7,1.7,2.5,3.9,2.5,6.5v3.2h-15.4c-4.2,0-8,0.7-11.3,2c-3.3,1.3-5.9,3.3-7.7,5.9
				c-1.9,2.6-2.8,5.8-2.8,9.7c0,3.9,0.9,7.1,2.8,9.8c1.9,2.7,4.4,4.7,7.5,6.1s6.8,2.1,10.8,2.1c3.9,0,7-0.6,9.3-1.7s3.9-2.4,5-3.9
				c1.1-1.5,1.7-2.7,2-3.6h2.2v0.1c0,2.3,0.9,4.1,2.7,5.4c1.8,1.4,4.1,2,6.9,2h9.5v0h0.1l3.4-5.9l-3.4-5.9H237.5z M220.6,386.2
				c0,3.7-1.3,6.7-3.8,8.9c-2.5,2.2-5.8,3.3-9.8,3.3c-3,0-5.3-0.6-6.9-1.9c-1.6-1.3-2.4-2.9-2.4-5c0-2,0.8-3.6,2.3-4.8
				c1.5-1.1,3.6-1.7,6.2-1.7h14.4V386.2z"/>
			<path class="st0" d="M300.1,382.8l-7.9,2.3l0,0l0,0c0,0.1-0.1,0.3-0.1,0.4l-0.5,2.1c-0.8,2.5-2,4.6-3.7,6.3
				c-2.2,2.2-5.5,3.3-9.8,3.3c-2.9,0-5.5-0.6-7.8-1.9c-2.3-1.2-4.1-3.1-5.4-5.6c-1.3-2.5-2-5.5-2-9v-1.1c0-3.5,0.7-6.6,2-9
				c1.3-2.5,3.1-4.3,5.4-5.6c2.3-1.2,4.9-1.9,7.8-1.9c2.9,0,5.3,0.5,7.2,1.6c1.9,1.1,3.4,2.5,4.5,4.3c1.1,1.8,1.7,3.9,2,6.1
				l13.8-2.9c-0.8-4.2-2.3-7.9-4.7-11.2c-2.4-3.3-5.5-5.9-9.3-7.8c-3.9-1.9-8.5-2.8-13.8-2.8c-5.4,0-10.4,1.1-14.8,3.4
				c-4.4,2.3-7.9,5.6-10.5,9.9c-2.6,4.3-3.9,9.5-3.9,15.6v1.6c0,6.1,1.3,11.3,3.9,15.6c2.6,4.3,6.1,7.6,10.5,9.9
				c4.4,2.3,9.3,3.4,14.8,3.4c5.4,0,10-0.9,13.8-2.8c3.9-1.9,7-4.5,9.3-7.8c2.4-3.3,4.1-6.9,5-10.9l0,0L300.1,382.8z"/>
		</g>
	</g>
	<g>
		<path class="st0" d="M311.9,319.9h4.2c0.3-0.4,0.4-0.9,0.4-1.4V51.7l-5-2.9v269.8C311.5,319.1,311.6,319.5,311.9,319.9z"/>
		<path class="st0" d="M235.1,319.9h4.2c0.3-0.5,0.4-1,0.4-1.6V7.3l-5-2.9v313.9C234.7,318.9,234.8,319.5,235.1,319.9z"/>
		<path class="st0" d="M158.3,319.9h4.2c0.3-0.4,0.4-0.9,0.4-1.4V45.3l-5,2.9v270.4C157.9,319.1,158.1,319.5,158.3,319.9z"/>
	</g>
	<polygon class="st0" points="177.5,306.9 177.5,287.2 160.4,277.4 143.4,287.2 143.4,306.9 160.4,316.8 	"/>
	<polygon class="st0" points="177.5,264.6 177.5,244.9 160.4,235.1 143.4,244.9 143.4,264.6 160.4,274.5 	"/>
	<polygon class="st0" points="177.5,222.3 177.5,202.6 160.4,192.8 143.4,202.6 143.4,222.3 160.4,232.2 	"/>
	<polygon class="st0" points="254.3,306.9 254.3,287.2 237.2,277.4 220.1,287.2 220.1,306.9 237.2,316.8 	"/>
	<polygon class="st0" points="254.3,264.6 254.3,244.9 237.2,235 220.1,244.9 220.1,264.6 237.2,274.5 	"/>
	<polygon class="st0" points="254.3,222.3 254.3,202.6 237.2,192.7 220.1,202.6 220.1,222.3 237.2,232.1 	"/>
	<polygon class="st0" points="254.3,179.9 254.3,160.2 237.2,150.4 220.1,160.2 220.1,179.9 237.2,189.8 	"/>
	<polygon class="st0" points="331,306.9 331,287.2 314,277.4 296.9,287.2 296.9,306.9 314,316.8 	"/>
	<polygon class="st0" points="331,264.9 331,245.2 314,235.3 296.9,245.2 296.9,264.9 314,274.8 	"/>
	<polygon class="st0" points="331,222.9 331,203.2 314,193.3 296.9,203.2 296.9,222.9 314,232.8 	"/>
	<polygon class="st5" points="331,180.9 331,161.2 314,151.3 296.9,161.2 296.9,180.9 314,190.7 	"/>
	<polygon class="st0" points="254.3,137.6 254.3,117.9 237.2,108 220.1,117.9 220.1,137.6 237.2,147.5 	"/>
	<polygon class="st0" points="254.3,95.3 254.3,75.6 237.2,65.7 220.1,75.6 220.1,95.3 237.2,105.1 	"/>
</g>
</svg>
