<?xml version="1.0" encoding="utf-8"?>
<svg version="1.1" id="Laag_1" xmlns="http://www.w3.org/2000/svg" xmlns:xlink="http://www.w3.org/1999/xlink" x="0px" y="0px"
	 viewBox="0 0 468.5 536.8" style="enable-background:new 0 0 468.5 536.8;" xml:space="preserve">
<style type="text/css">
	.st0{fill:#00305B;}
	.st1{fill:#F0F0F0;}
	.st2{fill:none;}
	.st3{enable-background:new    ;}
	.st4{fill:#E4032E;}
</style>
<g id="grid">
	<rect x="214.7" y="19.5" class="st0" width="19.5" height="19.5"/>
	<rect x="234.2" y="19.5" class="st0" width="19.5" height="19.5"/>
</g>
<g id="Laag_2_00000106138553243660579430000004447003472929591976_">
	<polygon class="st1" points="463.7,401.7 463.7,136.7 234.2,4.2 4.7,136.7 4.7,401.7 234.2,534.2 	"/>
</g>
<g id="Laag_1_00000000224770143852995110000003329852828530418359_">
	<path class="st0" d="M375.3,332H101.9c-3.6,0-6.5-2.1-6.5-4.7v-0.7c0-2.6,2.9-4.7,6.5-4.7h273.4c3.6,0,6.5,2.1,6.5,4.7v0.7
		C381.9,329.9,378.9,332,375.3,332z"/>
	<g>
		<rect x="5.2" y="431.2" class="st2" width="457.9" height="88.5"/>
		<g class="st3">
			<path class="st0" d="M206,442.9c-0.8,0-1.5-0.1-2.1-0.4s-1.1-0.7-1.4-1.2c-0.3-0.5-0.5-1.2-0.5-1.9h1.4c0,0.4,0.1,0.8,0.3,1.2
				c0.2,0.4,0.5,0.7,0.9,0.9c0.4,0.2,0.9,0.3,1.4,0.3c0.8,0,1.3-0.2,1.8-0.5c0.4-0.4,0.6-0.8,0.6-1.4c0-0.4-0.1-0.8-0.3-1.1
				c-0.2-0.3-0.5-0.5-0.8-0.7c-0.3-0.2-0.7-0.3-1.1-0.4c-0.4-0.1-0.9-0.3-1.3-0.4c-0.9-0.3-1.5-0.7-1.9-1.1s-0.6-1-0.6-1.7
				c0-0.6,0.1-1.1,0.4-1.6s0.7-0.8,1.2-1.1s1.2-0.4,1.9-0.4c0.7,0,1.3,0.1,1.9,0.4c0.5,0.3,0.9,0.6,1.2,1.1c0.3,0.5,0.4,1,0.5,1.6
				H208c0-0.3-0.1-0.6-0.2-0.9c-0.2-0.3-0.4-0.6-0.7-0.7c-0.3-0.2-0.7-0.3-1.2-0.3c-0.6,0-1.1,0.1-1.5,0.5c-0.4,0.3-0.6,0.8-0.6,1.3
				c0,0.5,0.1,0.8,0.4,1.1s0.7,0.5,1.1,0.6c0.5,0.2,1.1,0.4,1.7,0.6c0.5,0.2,1,0.4,1.4,0.7s0.8,0.6,1,1c0.2,0.4,0.4,0.9,0.4,1.6
				c0,0.5-0.1,1-0.4,1.5s-0.7,0.9-1.3,1.2S206.8,442.9,206,442.9z"/>
			<path class="st0" d="M215.2,442.9c-0.7,0-1.4-0.2-2-0.5c-0.6-0.3-1.1-0.8-1.4-1.4c-0.3-0.6-0.5-1.4-0.5-2.2s0.2-1.6,0.5-2.2
				s0.8-1.1,1.4-1.4c0.6-0.3,1.3-0.5,2-0.5s1.4,0.2,2,0.5c0.6,0.3,1.1,0.8,1.4,1.4c0.3,0.6,0.5,1.4,0.5,2.2s-0.2,1.6-0.5,2.2
				c-0.4,0.6-0.8,1.1-1.4,1.4C216.6,442.7,215.9,442.9,215.2,442.9z M215.2,441.7c0.5,0,0.9-0.1,1.3-0.3s0.7-0.6,1-1
				c0.2-0.4,0.4-1,0.4-1.7s-0.1-1.2-0.4-1.7c-0.2-0.4-0.6-0.8-1-1c-0.4-0.2-0.8-0.3-1.3-0.3c-0.5,0-0.9,0.1-1.3,0.3
				c-0.4,0.2-0.7,0.6-1,1c-0.2,0.4-0.4,1-0.4,1.7s0.1,1.2,0.4,1.7c0.2,0.4,0.6,0.8,1,1S214.7,441.7,215.2,441.7z"/>
			<path class="st0" d="M221.5,442.7v-6.8h-1.2v-1.1h1.2v-1.4c0-0.8,0.2-1.3,0.6-1.7c0.4-0.4,0.9-0.5,1.7-0.5h0.8v1.2h-0.6
				c-0.4,0-0.7,0.1-0.9,0.2c-0.2,0.2-0.3,0.4-0.3,0.8v1.3h2v1.1h-2v6.8H221.5z"/>
			<path class="st0" d="M229.5,442.7c-0.7,0-1.3-0.2-1.7-0.5c-0.4-0.4-0.6-1-0.6-1.9v-4.4h-1.4v-1.1h1.4l0.2-1.9h1.2v1.9h2.3v1.1
				h-2.3v4.4c0,0.5,0.1,0.8,0.3,1s0.6,0.3,1.1,0.3h0.8v1.2H229.5z"/>
			<path class="st0" d="M234.2,442.7l-2.3-7.9h1.3l1.7,6.2l1.9-6.2h1.5l1.9,6.2l1.7-6.2h1.4l-2.3,7.9h-1.4l-2-6.5l-2,6.5H234.2z"/>
			<path class="st0" d="M247,442.9c-0.7,0-1.2-0.1-1.6-0.3c-0.4-0.2-0.8-0.5-1-0.9c-0.2-0.4-0.3-0.8-0.3-1.2c0-0.8,0.3-1.4,0.9-1.9
				s1.5-0.7,2.5-0.7h2.1v-0.1c0-0.7-0.2-1.2-0.5-1.6c-0.4-0.4-0.8-0.5-1.5-0.5c-0.5,0-1,0.1-1.4,0.4c-0.4,0.3-0.6,0.6-0.7,1.1h-1.4
				c0.1-0.6,0.2-1.1,0.6-1.5s0.8-0.7,1.3-0.9c0.5-0.2,1-0.3,1.6-0.3c1.1,0,1.9,0.3,2.5,0.9s0.8,1.4,0.8,2.4v4.9h-1.2l-0.1-1.4
				c-0.2,0.4-0.6,0.8-1,1.1S247.7,442.9,247,442.9z M247.2,441.8c0.5,0,1-0.1,1.3-0.4s0.6-0.6,0.8-1c0.2-0.4,0.3-0.9,0.3-1.3v0h-2
				c-0.8,0-1.3,0.1-1.7,0.4c-0.3,0.3-0.5,0.6-0.5,1c0,0.4,0.2,0.8,0.5,1C246.2,441.6,246.6,441.8,247.2,441.8z"/>
			<path class="st0" d="M253,442.7v-7.9h1.2l0.1,1.5c0.2-0.5,0.6-0.9,1.1-1.2s1.1-0.5,1.9-0.5v1.4h-0.4c-0.5,0-0.9,0.1-1.3,0.2
				c-0.4,0.2-0.7,0.4-0.9,0.8s-0.4,0.9-0.4,1.6v4H253z"/>
			<path class="st0" d="M262.1,442.9c-0.8,0-1.4-0.2-2-0.5c-0.6-0.3-1-0.8-1.4-1.4c-0.3-0.6-0.5-1.3-0.5-2.2c0-0.8,0.2-1.6,0.5-2.2
				c0.3-0.6,0.8-1.1,1.4-1.5c0.6-0.3,1.3-0.5,2.1-0.5c0.8,0,1.4,0.2,2,0.5c0.6,0.3,1,0.8,1.3,1.4s0.4,1.2,0.4,1.8c0,0.1,0,0.2,0,0.4
				c0,0.1,0,0.3,0,0.4h-6.3c0,0.6,0.2,1.1,0.4,1.5c0.2,0.4,0.6,0.7,0.9,0.9c0.4,0.2,0.8,0.3,1.2,0.3c0.6,0,1-0.1,1.4-0.4
				s0.6-0.6,0.8-1h1.3c-0.2,0.7-0.6,1.3-1.2,1.8C263.8,442.7,263,442.9,262.1,442.9z M262.1,435.7c-0.6,0-1.2,0.2-1.7,0.6
				c-0.5,0.4-0.8,1-0.9,1.7h5c0-0.7-0.3-1.3-0.7-1.7S262.7,435.7,262.1,435.7z"/>
		</g>
		<g class="st3">
			<path class="st0" d="M145,459.7l-3-7.9h1.4l2.4,6.6l2.4-6.6h1.4l-3,7.9H145z"/>
			<path class="st0" d="M154.3,459.9c-0.7,0-1.4-0.2-2-0.5c-0.6-0.3-1.1-0.8-1.4-1.4c-0.3-0.6-0.5-1.4-0.5-2.2s0.2-1.6,0.5-2.2
				s0.8-1.1,1.4-1.4c0.6-0.3,1.3-0.5,2-0.5s1.4,0.2,2,0.5c0.6,0.3,1.1,0.8,1.4,1.4c0.3,0.6,0.5,1.4,0.5,2.2s-0.2,1.6-0.5,2.2
				c-0.4,0.6-0.8,1.1-1.4,1.4C155.7,459.7,155,459.9,154.3,459.9z M154.3,458.7c0.5,0,0.9-0.1,1.3-0.3s0.7-0.6,1-1
				c0.2-0.4,0.4-1,0.4-1.7s-0.1-1.2-0.4-1.7c-0.2-0.4-0.6-0.8-1-1c-0.4-0.2-0.8-0.3-1.3-0.3c-0.5,0-0.9,0.1-1.3,0.3
				c-0.4,0.2-0.7,0.6-1,1c-0.2,0.4-0.4,1-0.4,1.7s0.1,1.2,0.4,1.7c0.2,0.4,0.6,0.8,1,1S153.8,458.7,154.3,458.7z"/>
			<path class="st0" d="M163.7,459.9c-0.7,0-1.4-0.2-2-0.5c-0.6-0.3-1.1-0.8-1.4-1.4c-0.3-0.6-0.5-1.4-0.5-2.2s0.2-1.6,0.5-2.2
				s0.8-1.1,1.4-1.4c0.6-0.3,1.3-0.5,2-0.5s1.4,0.2,2,0.5c0.6,0.3,1.1,0.8,1.4,1.4c0.3,0.6,0.5,1.4,0.5,2.2s-0.2,1.6-0.5,2.2
				c-0.4,0.6-0.8,1.1-1.4,1.4C165.2,459.7,164.5,459.9,163.7,459.9z M163.7,458.7c0.5,0,0.9-0.1,1.3-0.3s0.7-0.6,1-1
				c0.2-0.4,0.4-1,0.4-1.7s-0.1-1.2-0.4-1.7c-0.2-0.4-0.6-0.8-1-1c-0.4-0.2-0.8-0.3-1.3-0.3c-0.5,0-0.9,0.1-1.3,0.3
				c-0.4,0.2-0.7,0.6-1,1c-0.2,0.4-0.4,1-0.4,1.7s0.1,1.2,0.4,1.7c0.2,0.4,0.6,0.8,1,1S163.3,458.7,163.7,458.7z"/>
			<path class="st0" d="M169.6,459.7v-7.9h1.2l0.1,1.5c0.2-0.5,0.6-0.9,1.1-1.2s1.1-0.5,1.9-0.5v1.4h-0.4c-0.5,0-0.9,0.1-1.3,0.2
				c-0.4,0.2-0.7,0.4-0.9,0.8c-0.2,0.4-0.4,0.9-0.4,1.6v4H169.6z"/>
			<path class="st0" d="M181.9,459.7l-3-7.9h1.4l2.4,6.6l2.4-6.6h1.4l-3,7.9H181.9z"/>
			<path class="st0" d="M191.2,459.9c-0.8,0-1.4-0.2-2-0.5c-0.6-0.3-1-0.8-1.4-1.4c-0.3-0.6-0.5-1.3-0.5-2.2c0-0.8,0.2-1.6,0.5-2.2
				c0.3-0.6,0.8-1.1,1.4-1.5c0.6-0.3,1.3-0.5,2.1-0.5c0.8,0,1.4,0.2,2,0.5c0.6,0.3,1,0.8,1.3,1.4s0.4,1.2,0.4,1.8c0,0.1,0,0.2,0,0.4
				c0,0.1,0,0.3,0,0.4h-6.3c0,0.6,0.2,1.1,0.4,1.5c0.3,0.4,0.6,0.7,0.9,0.9c0.4,0.2,0.8,0.3,1.2,0.3c0.6,0,1-0.1,1.4-0.4
				c0.4-0.3,0.6-0.6,0.8-1h1.3c-0.2,0.7-0.6,1.3-1.2,1.8S192.1,459.9,191.2,459.9z M191.2,452.7c-0.6,0-1.2,0.2-1.7,0.6
				c-0.5,0.4-0.8,1-0.9,1.7h5c0-0.7-0.3-1.3-0.7-1.7C192.4,452.9,191.8,452.7,191.2,452.7z"/>
			<path class="st0" d="M196.7,459.7v-7.9h1.2l0.1,1.5c0.2-0.5,0.6-0.9,1.1-1.2s1.1-0.5,1.9-0.5v1.4h-0.4c-0.5,0-0.9,0.1-1.3,0.2
				c-0.4,0.2-0.7,0.4-0.9,0.8c-0.2,0.4-0.4,0.9-0.4,1.6v4H196.7z"/>
			<path class="st0" d="M202.5,459.7v-11.5h1.3v6.9l3.2-3.3h1.6l-3.5,3.6l4,4.4h-1.7l-3.6-4.1v4.1H202.5z"/>
			<path class="st0" d="M211.4,450c-0.3,0-0.5-0.1-0.7-0.3c-0.2-0.2-0.3-0.4-0.3-0.7c0-0.3,0.1-0.5,0.3-0.6c0.2-0.2,0.4-0.3,0.7-0.3
				c0.3,0,0.5,0.1,0.7,0.3c0.2,0.2,0.3,0.4,0.3,0.6c0,0.3-0.1,0.5-0.3,0.7C211.9,449.9,211.6,450,211.4,450z M210.7,459.7v-7.9h1.3
				v7.9H210.7z"/>
			<path class="st0" d="M218,459.9c-0.8,0-1.4-0.2-2-0.5c-0.6-0.3-1-0.8-1.4-1.4c-0.3-0.6-0.5-1.3-0.5-2.2c0-0.8,0.2-1.6,0.5-2.2
				c0.3-0.6,0.8-1.1,1.4-1.5c0.6-0.3,1.3-0.5,2.1-0.5c0.8,0,1.4,0.2,2,0.5c0.6,0.3,1,0.8,1.3,1.4s0.4,1.2,0.4,1.8c0,0.1,0,0.2,0,0.4
				c0,0.1,0,0.3,0,0.4h-6.3c0,0.6,0.2,1.1,0.4,1.5c0.3,0.4,0.6,0.7,0.9,0.9c0.4,0.2,0.8,0.3,1.2,0.3c0.6,0,1-0.1,1.4-0.4
				c0.4-0.3,0.6-0.6,0.8-1h1.3c-0.2,0.7-0.6,1.3-1.2,1.8S218.9,459.9,218,459.9z M218,452.7c-0.6,0-1.2,0.2-1.7,0.6
				c-0.5,0.4-0.8,1-0.9,1.7h5c0-0.7-0.3-1.3-0.7-1.7C219.2,452.9,218.6,452.7,218,452.7z"/>
			<path class="st0" d="M222.9,459.7v-1.1l4.4-5.7H223v-1.1h5.8v1.1l-4.4,5.7h4.5v1.1H222.9z"/>
			<path class="st0" d="M231.5,450c-0.3,0-0.5-0.1-0.7-0.3c-0.2-0.2-0.3-0.4-0.3-0.7c0-0.3,0.1-0.5,0.3-0.6c0.2-0.2,0.4-0.3,0.7-0.3
				c0.3,0,0.5,0.1,0.7,0.3c0.2,0.2,0.3,0.4,0.3,0.6c0,0.3-0.1,0.5-0.3,0.7C232,449.9,231.8,450,231.5,450z M230.9,459.7v-7.9h1.3
				v7.9H230.9z"/>
			<path class="st0" d="M234.5,459.7v-7.9h1.2l0.1,1.4c0.3-0.5,0.6-0.9,1.1-1.2c0.5-0.3,1-0.4,1.6-0.4c0.9,0,1.7,0.3,2.2,0.9
				c0.6,0.6,0.8,1.4,0.8,2.6v4.6h-1.3v-4.5c0-1.7-0.7-2.5-2-2.5c-0.7,0-1.3,0.2-1.7,0.7c-0.5,0.5-0.7,1.2-0.7,2.1v4.1H234.5z"/>
			<path class="st0" d="M246.8,457.2c-0.4,0-0.9-0.1-1.2-0.2l-0.8,0.8c0.1,0.1,0.3,0.2,0.4,0.2s0.4,0.1,0.8,0.2
				c0.3,0,0.8,0.1,1.4,0.2c1.1,0.1,1.8,0.3,2.3,0.7c0.5,0.4,0.7,1,0.7,1.6c0,0.5-0.1,0.9-0.4,1.3c-0.3,0.4-0.6,0.8-1.2,1
				s-1.2,0.4-2,0.4c-0.7,0-1.3-0.1-1.9-0.3s-1-0.5-1.3-0.8c-0.3-0.4-0.5-0.9-0.5-1.4c0-0.3,0.1-0.6,0.2-1c0.2-0.3,0.5-0.7,0.9-1
				c-0.2-0.1-0.4-0.2-0.6-0.3c-0.2-0.1-0.3-0.2-0.5-0.4v-0.4l1.4-1.3c-0.6-0.5-0.9-1.2-0.9-2.1c0-0.5,0.1-1,0.4-1.4
				c0.2-0.4,0.6-0.8,1.1-1c0.5-0.3,1-0.4,1.7-0.4c0.5,0,0.9,0.1,1.2,0.2h2.9v1l-1.5,0.1c0.3,0.4,0.5,1,0.5,1.6c0,0.5-0.1,1-0.4,1.4
				c-0.3,0.4-0.6,0.8-1.1,1C248.1,457.1,247.5,457.2,246.8,457.2z M244.5,460.7c0,0.5,0.2,0.9,0.7,1.2s1,0.4,1.7,0.4
				c0.7,0,1.2-0.1,1.6-0.4c0.4-0.3,0.6-0.7,0.6-1.2c0-0.3-0.1-0.6-0.4-0.9c-0.3-0.2-0.8-0.4-1.5-0.4c-0.6,0-1.1-0.1-1.5-0.2
				c-0.4,0.2-0.7,0.5-0.9,0.8C244.6,460.3,244.5,460.5,244.5,460.7z M246.8,456.1c0.6,0,1-0.1,1.4-0.4c0.3-0.3,0.5-0.7,0.5-1.3
				c0-0.5-0.2-1-0.5-1.3c-0.3-0.3-0.8-0.4-1.4-0.4c-0.6,0-1,0.1-1.4,0.4c-0.3,0.3-0.5,0.7-0.5,1.3c0,0.6,0.2,1,0.5,1.3
				C245.8,456,246.3,456.1,246.8,456.1z"/>
			<path class="st0" d="M255.6,459.9c-1,0-1.7-0.2-2.4-0.7c-0.6-0.5-1-1.1-1.1-2h1.4c0.1,0.4,0.3,0.8,0.7,1.1
				c0.4,0.3,0.8,0.5,1.4,0.5c0.6,0,1-0.1,1.2-0.4c0.3-0.2,0.4-0.5,0.4-0.9c0-0.5-0.2-0.8-0.5-1s-0.8-0.3-1.5-0.4
				c-0.4-0.1-0.9-0.2-1.3-0.4s-0.8-0.4-1.1-0.7c-0.3-0.3-0.4-0.7-0.4-1.2c0-0.7,0.3-1.3,0.8-1.7c0.5-0.4,1.2-0.7,2.1-0.7
				c0.8,0,1.5,0.2,2.1,0.6c0.5,0.4,0.9,1,0.9,1.8H257c-0.1-0.4-0.2-0.7-0.5-1c-0.3-0.2-0.7-0.3-1.2-0.3c-0.5,0-0.9,0.1-1.1,0.3
				c-0.3,0.2-0.4,0.5-0.4,0.8c0,0.3,0.2,0.6,0.5,0.8s0.8,0.3,1.4,0.5c0.5,0.1,1,0.2,1.4,0.4c0.4,0.2,0.8,0.4,1.1,0.7
				c0.3,0.3,0.4,0.7,0.4,1.3c0,0.7-0.3,1.3-0.8,1.8C257.2,459.7,256.5,459.9,255.6,459.9z"/>
			<path class="st0" d="M263.4,459.9c-0.9,0-1.7-0.3-2.2-0.9c-0.6-0.6-0.8-1.4-0.8-2.6v-4.6h1.3v4.5c0,1.7,0.7,2.5,2,2.5
				c0.7,0,1.3-0.2,1.7-0.7c0.5-0.5,0.7-1.2,0.7-2.1v-4.1h1.3v7.9h-1.2l-0.1-1.4c-0.2,0.5-0.6,0.9-1.1,1.2
				C264.6,459.8,264,459.9,263.4,459.9z"/>
			<path class="st0" d="M270.5,450c-0.3,0-0.5-0.1-0.7-0.3s-0.3-0.4-0.3-0.7c0-0.3,0.1-0.5,0.3-0.6s0.4-0.3,0.7-0.3
				c0.3,0,0.5,0.1,0.7,0.3c0.2,0.2,0.3,0.4,0.3,0.6c0,0.3-0.1,0.5-0.3,0.7C271,449.9,270.8,450,270.5,450z M269.8,459.7v-7.9h1.3
				v7.9H269.8z"/>
			<path class="st0" d="M276.6,459.7c-0.7,0-1.3-0.2-1.7-0.5c-0.4-0.4-0.6-1-0.6-1.9v-4.4h-1.4v-1.1h1.4l0.2-1.9h1.2v1.9h2.3v1.1
				h-2.3v4.4c0,0.5,0.1,0.8,0.3,1c0.2,0.2,0.6,0.3,1.1,0.3h0.8v1.2H276.6z"/>
			<path class="st0" d="M282.7,459.9c-1,0-1.7-0.2-2.4-0.7c-0.6-0.5-1-1.1-1.1-2h1.4c0.1,0.4,0.3,0.8,0.7,1.1
				c0.4,0.3,0.8,0.5,1.4,0.5c0.6,0,1-0.1,1.2-0.4c0.3-0.2,0.4-0.5,0.4-0.9c0-0.5-0.2-0.8-0.5-1s-0.8-0.3-1.5-0.4
				c-0.4-0.1-0.9-0.2-1.3-0.4s-0.8-0.4-1.1-0.7c-0.3-0.3-0.4-0.7-0.4-1.2c0-0.7,0.3-1.3,0.8-1.7c0.5-0.4,1.2-0.7,2.1-0.7
				c0.8,0,1.5,0.2,2.1,0.6c0.5,0.4,0.9,1,0.9,1.8h-1.3c-0.1-0.4-0.2-0.7-0.5-1c-0.3-0.2-0.7-0.3-1.2-0.3c-0.5,0-0.9,0.1-1.1,0.3
				c-0.3,0.2-0.4,0.5-0.4,0.8c0,0.3,0.2,0.6,0.5,0.8s0.8,0.3,1.4,0.5c0.5,0.1,1,0.2,1.4,0.4c0.4,0.2,0.8,0.4,1.1,0.7
				c0.3,0.3,0.4,0.7,0.4,1.3c0,0.7-0.3,1.3-0.8,1.8C284.4,459.7,283.7,459.9,282.7,459.9z"/>
			<path class="st0" d="M287.7,459.7v-11.5h1.3v11.5H287.7z"/>
			<path class="st0" d="M293.9,459.9c-0.7,0-1.2-0.1-1.6-0.3c-0.4-0.2-0.8-0.5-1-0.9c-0.2-0.4-0.3-0.8-0.3-1.2
				c0-0.8,0.3-1.4,0.9-1.9c0.6-0.4,1.5-0.7,2.5-0.7h2.1v-0.1c0-0.7-0.2-1.2-0.5-1.6c-0.4-0.4-0.8-0.5-1.5-0.5c-0.5,0-1,0.1-1.4,0.4
				c-0.4,0.3-0.6,0.6-0.7,1.1h-1.4c0.1-0.6,0.2-1.1,0.6-1.5s0.8-0.7,1.3-0.9c0.5-0.2,1-0.3,1.6-0.3c1.1,0,1.9,0.3,2.5,0.9
				s0.8,1.4,0.8,2.4v4.9h-1.2l-0.1-1.4c-0.2,0.4-0.6,0.8-1,1.1C295.2,459.7,294.6,459.9,293.9,459.9z M294.1,458.8
				c0.5,0,1-0.1,1.3-0.4s0.6-0.6,0.8-1s0.3-0.9,0.3-1.3v0h-2c-0.8,0-1.3,0.1-1.7,0.4c-0.3,0.3-0.5,0.6-0.5,1c0,0.4,0.2,0.8,0.5,1
				C293.1,458.6,293.5,458.8,294.1,458.8z"/>
			<path class="st0" d="M303,457.2c-0.4,0-0.9-0.1-1.2-0.2l-0.8,0.8c0.1,0.1,0.3,0.2,0.4,0.2s0.4,0.1,0.8,0.2c0.3,0,0.8,0.1,1.4,0.2
				c1.1,0.1,1.8,0.3,2.3,0.7c0.5,0.4,0.7,1,0.7,1.6c0,0.5-0.1,0.9-0.4,1.3c-0.3,0.4-0.6,0.8-1.2,1s-1.2,0.4-2,0.4
				c-0.7,0-1.3-0.1-1.9-0.3s-1-0.5-1.3-0.8c-0.3-0.4-0.5-0.9-0.5-1.4c0-0.3,0.1-0.6,0.2-1c0.2-0.3,0.5-0.7,0.9-1
				c-0.2-0.1-0.4-0.2-0.6-0.3c-0.2-0.1-0.3-0.2-0.5-0.4v-0.4l1.4-1.3c-0.6-0.5-0.9-1.2-0.9-2.1c0-0.5,0.1-1,0.4-1.4
				c0.2-0.4,0.6-0.8,1.1-1c0.5-0.3,1-0.4,1.7-0.4c0.5,0,0.9,0.1,1.2,0.2h2.9v1l-1.5,0.1c0.3,0.4,0.5,1,0.5,1.6c0,0.5-0.1,1-0.4,1.4
				c-0.3,0.4-0.6,0.8-1.1,1C304.3,457.1,303.7,457.2,303,457.2z M300.7,460.7c0,0.5,0.2,0.9,0.7,1.2s1,0.4,1.7,0.4
				c0.7,0,1.2-0.1,1.6-0.4c0.4-0.3,0.6-0.7,0.6-1.2c0-0.3-0.1-0.6-0.4-0.9c-0.3-0.2-0.8-0.4-1.5-0.4c-0.6,0-1.1-0.1-1.5-0.2
				c-0.4,0.2-0.7,0.5-0.9,0.8C300.8,460.3,300.7,460.5,300.7,460.7z M303,456.1c0.6,0,1-0.1,1.4-0.4c0.3-0.3,0.5-0.7,0.5-1.3
				c0-0.5-0.2-1-0.5-1.3c-0.3-0.3-0.8-0.4-1.4-0.4c-0.6,0-1,0.1-1.4,0.4c-0.3,0.3-0.5,0.7-0.5,1.3c0,0.6,0.2,1,0.5,1.3
				C302,456,302.5,456.1,303,456.1z"/>
			<path class="st0" d="M312,459.9c-0.8,0-1.4-0.2-2-0.5c-0.6-0.3-1-0.8-1.4-1.4c-0.3-0.6-0.5-1.3-0.5-2.2c0-0.8,0.2-1.6,0.5-2.2
				s0.8-1.1,1.4-1.5c0.6-0.3,1.3-0.5,2.1-0.5c0.8,0,1.4,0.2,2,0.5c0.6,0.3,1,0.8,1.3,1.4s0.4,1.2,0.4,1.8c0,0.1,0,0.2,0,0.4
				c0,0.1,0,0.3,0,0.4h-6.3c0,0.6,0.2,1.1,0.4,1.5c0.3,0.4,0.6,0.7,0.9,0.9c0.4,0.2,0.8,0.3,1.2,0.3c0.6,0,1-0.1,1.4-0.4
				s0.6-0.6,0.8-1h1.3c-0.2,0.7-0.6,1.3-1.2,1.8S312.9,459.9,312,459.9z M312,452.7c-0.6,0-1.2,0.2-1.7,0.6c-0.5,0.4-0.8,1-0.9,1.7
				h5c0-0.7-0.3-1.3-0.7-1.7C313.2,452.9,312.7,452.7,312,452.7z"/>
			<path class="st0" d="M317.5,459.7v-7.9h1.2l0.1,1.4c0.3-0.5,0.6-0.9,1.1-1.2c0.5-0.3,1-0.4,1.6-0.4c0.9,0,1.7,0.3,2.2,0.9
				c0.6,0.6,0.8,1.4,0.8,2.6v4.6h-1.3v-4.5c0-1.7-0.7-2.5-2-2.5c-0.7,0-1.3,0.2-1.7,0.7c-0.5,0.5-0.7,1.2-0.7,2.1v4.1H317.5z"/>
		</g>
		<g class="st3">
			<path class="st0" d="M176.1,476.9c-0.8,0-1.4-0.2-2-0.5c-0.6-0.3-1-0.8-1.4-1.4c-0.3-0.6-0.5-1.3-0.5-2.2c0-0.8,0.2-1.6,0.5-2.2
				c0.3-0.6,0.8-1.1,1.4-1.5c0.6-0.3,1.3-0.5,2.1-0.5c0.8,0,1.4,0.2,2,0.5c0.6,0.3,1,0.8,1.3,1.4s0.4,1.2,0.4,1.8c0,0.1,0,0.2,0,0.4
				c0,0.1,0,0.3,0,0.4h-6.3c0,0.6,0.2,1.1,0.4,1.5c0.3,0.4,0.6,0.7,0.9,0.9c0.4,0.2,0.8,0.3,1.2,0.3c0.6,0,1-0.1,1.4-0.4
				c0.4-0.3,0.6-0.6,0.8-1h1.3c-0.2,0.7-0.6,1.3-1.2,1.8S177,476.9,176.1,476.9z M176.1,469.7c-0.6,0-1.2,0.2-1.7,0.6
				c-0.5,0.4-0.8,1-0.9,1.7h5c0-0.7-0.3-1.3-0.7-1.7C177.3,469.9,176.8,469.7,176.1,469.7z"/>
			<path class="st0" d="M181.6,476.7v-7.9h1.2l0.1,1.4c0.3-0.5,0.6-0.9,1.1-1.2s1-0.4,1.6-0.4c0.9,0,1.7,0.3,2.2,0.9
				c0.6,0.6,0.8,1.4,0.8,2.6v4.6h-1.3v-4.5c0-1.7-0.7-2.5-2-2.5c-0.7,0-1.3,0.2-1.7,0.7c-0.5,0.5-0.7,1.2-0.7,2.1v4.1H181.6z"/>
			<path class="st0" d="M194.5,476.7v-1.1l4.4-5.7h-4.3v-1.1h5.8v1.1l-4.4,5.7h4.5v1.1H194.5z"/>
			<path class="st0" d="M205.8,476.9c-0.8,0-1.4-0.2-2-0.5c-0.6-0.3-1-0.8-1.4-1.4c-0.3-0.6-0.5-1.3-0.5-2.2c0-0.8,0.2-1.6,0.5-2.2
				c0.3-0.6,0.8-1.1,1.4-1.5c0.6-0.3,1.3-0.5,2.1-0.5c0.8,0,1.4,0.2,2,0.5c0.6,0.3,1,0.8,1.3,1.4s0.4,1.2,0.4,1.8c0,0.1,0,0.2,0,0.4
				c0,0.1,0,0.3,0,0.4h-6.3c0,0.6,0.2,1.1,0.4,1.5c0.3,0.4,0.6,0.7,0.9,0.9c0.4,0.2,0.8,0.3,1.2,0.3c0.6,0,1-0.1,1.4-0.4
				c0.4-0.3,0.6-0.6,0.8-1h1.3c-0.2,0.7-0.6,1.3-1.2,1.8S206.8,476.9,205.8,476.9z M205.8,469.7c-0.6,0-1.2,0.2-1.7,0.6
				c-0.5,0.4-0.8,1-0.9,1.7h5c0-0.7-0.3-1.3-0.7-1.7C207.1,469.9,206.5,469.7,205.8,469.7z"/>
			<path class="st0" d="M214.2,476.7c-0.7,0-1.3-0.2-1.7-0.5c-0.4-0.4-0.6-1-0.6-1.9v-4.4h-1.4v-1.1h1.4l0.2-1.9h1.2v1.9h2.3v1.1
				h-2.3v4.4c0,0.5,0.1,0.8,0.3,1s0.6,0.3,1.1,0.3h0.8v1.2H214.2z"/>
			<path class="st0" d="M220.6,476.9c-0.8,0-1.4-0.2-2-0.5c-0.6-0.3-1-0.8-1.4-1.4c-0.3-0.6-0.5-1.3-0.5-2.2c0-0.8,0.2-1.6,0.5-2.2
				c0.3-0.6,0.8-1.1,1.4-1.5c0.6-0.3,1.3-0.5,2.1-0.5c0.8,0,1.4,0.2,2,0.5c0.6,0.3,1,0.8,1.3,1.4s0.4,1.2,0.4,1.8c0,0.1,0,0.2,0,0.4
				c0,0.1,0,0.3,0,0.4H218c0,0.6,0.2,1.1,0.4,1.5c0.3,0.4,0.6,0.7,0.9,0.9c0.4,0.2,0.8,0.3,1.2,0.3c0.6,0,1-0.1,1.4-0.4
				c0.4-0.3,0.6-0.6,0.8-1h1.3c-0.2,0.7-0.6,1.3-1.2,1.8S221.6,476.9,220.6,476.9z M220.6,469.7c-0.6,0-1.2,0.2-1.7,0.6
				c-0.5,0.4-0.8,1-0.9,1.7h5c0-0.7-0.3-1.3-0.7-1.7C221.9,469.9,221.3,469.7,220.6,469.7z"/>
			<path class="st0" d="M226.2,476.7v-11.5h1.3v11.5H226.2z"/>
			<path class="st0" d="M232,476.7l-3-7.9h1.4l2.4,6.6l2.4-6.6h1.4l-3,7.9H232z"/>
			<path class="st0" d="M241.2,476.9c-0.8,0-1.4-0.2-2-0.5s-1-0.8-1.4-1.4c-0.3-0.6-0.5-1.3-0.5-2.2c0-0.8,0.2-1.6,0.5-2.2
				c0.3-0.6,0.8-1.1,1.4-1.5c0.6-0.3,1.3-0.5,2.1-0.5c0.8,0,1.4,0.2,2,0.5c0.6,0.3,1,0.8,1.3,1.4s0.4,1.2,0.4,1.8c0,0.1,0,0.2,0,0.4
				c0,0.1,0,0.3,0,0.4h-6.3c0,0.6,0.2,1.1,0.4,1.5c0.2,0.4,0.6,0.7,0.9,0.9c0.4,0.2,0.8,0.3,1.2,0.3c0.6,0,1-0.1,1.4-0.4
				c0.4-0.3,0.6-0.6,0.8-1h1.3c-0.2,0.7-0.6,1.3-1.2,1.8S242.1,476.9,241.2,476.9z M241.2,469.7c-0.6,0-1.2,0.2-1.7,0.6
				c-0.5,0.4-0.8,1-0.9,1.7h5c0-0.7-0.3-1.3-0.7-1.7S241.9,469.7,241.2,469.7z"/>
			<path class="st0" d="M246.7,476.7v-7.9h1.2l0.1,1.5c0.2-0.5,0.6-0.9,1.1-1.2c0.5-0.3,1.1-0.5,1.9-0.5v1.4h-0.4
				c-0.5,0-0.9,0.1-1.3,0.2c-0.4,0.2-0.7,0.4-0.9,0.8c-0.2,0.4-0.4,0.9-0.4,1.6v4H246.7z"/>
			<path class="st0" d="M255.8,476.9c-0.8,0-1.5-0.2-2.1-0.5c-0.6-0.4-1.1-0.9-1.4-1.5c-0.3-0.6-0.5-1.3-0.5-2.1
				c0-0.8,0.2-1.5,0.5-2.1c0.3-0.6,0.8-1.1,1.4-1.5c0.6-0.4,1.3-0.5,2.1-0.5c0.7,0,1.2,0.1,1.7,0.4c0.5,0.3,0.9,0.6,1.2,1.1v-4.9
				h1.3v11.5h-1.2l-0.1-1.3c-0.3,0.4-0.6,0.7-1.1,1C257.2,476.7,256.6,476.9,255.8,476.9z M256,475.7c0.5,0,1-0.1,1.4-0.4
				c0.4-0.3,0.7-0.6,1-1c0.2-0.4,0.3-1,0.3-1.6s-0.1-1.1-0.3-1.6c-0.2-0.4-0.5-0.8-1-1c-0.4-0.3-0.9-0.4-1.4-0.4
				c-0.5,0-1,0.1-1.4,0.4c-0.4,0.3-0.7,0.6-1,1s-0.3,1-0.3,1.6s0.1,1.1,0.3,1.6c0.2,0.4,0.5,0.8,1,1
				C255,475.6,255.5,475.7,256,475.7z"/>
			<path class="st0" d="M265.9,476.9c-0.8,0-1.4-0.2-2-0.5s-1-0.8-1.4-1.4c-0.3-0.6-0.5-1.3-0.5-2.2c0-0.8,0.2-1.6,0.5-2.2
				c0.3-0.6,0.8-1.1,1.4-1.5c0.6-0.3,1.3-0.5,2.1-0.5c0.8,0,1.4,0.2,2,0.5c0.6,0.3,1,0.8,1.3,1.4s0.4,1.2,0.4,1.8c0,0.1,0,0.2,0,0.4
				c0,0.1,0,0.3,0,0.4h-6.3c0,0.6,0.2,1.1,0.4,1.5c0.2,0.4,0.6,0.7,0.9,0.9c0.4,0.2,0.8,0.3,1.2,0.3c0.6,0,1-0.1,1.4-0.4
				c0.4-0.3,0.6-0.6,0.8-1h1.3c-0.2,0.7-0.6,1.3-1.2,1.8S266.8,476.9,265.9,476.9z M265.9,469.7c-0.6,0-1.2,0.2-1.7,0.6
				c-0.5,0.4-0.8,1-0.9,1.7h5c0-0.7-0.3-1.3-0.7-1.7S266.5,469.7,265.9,469.7z"/>
			<path class="st0" d="M271.4,476.7v-11.5h1.3v11.5H271.4z"/>
			<path class="st0" d="M275.8,467c-0.3,0-0.5-0.1-0.7-0.3c-0.2-0.2-0.3-0.4-0.3-0.7c0-0.3,0.1-0.5,0.3-0.6c0.2-0.2,0.4-0.3,0.7-0.3
				c0.3,0,0.5,0.1,0.7,0.3s0.3,0.4,0.3,0.6c0,0.3-0.1,0.5-0.3,0.7S276,467,275.8,467z M275.1,476.7v-7.9h1.3v7.9H275.1z"/>
			<path class="st0" d="M278.8,476.7v-7.9h1.2l0.1,1.4c0.3-0.5,0.6-0.9,1.1-1.2c0.5-0.3,1-0.4,1.6-0.4c0.9,0,1.7,0.3,2.2,0.9
				c0.6,0.6,0.8,1.4,0.8,2.6v4.6h-1.3v-4.5c0-1.7-0.7-2.5-2-2.5c-0.7,0-1.3,0.2-1.7,0.7c-0.5,0.5-0.7,1.2-0.7,2.1v4.1H278.8z"/>
			<path class="st0" d="M291.1,474.2c-0.4,0-0.9-0.1-1.2-0.2l-0.8,0.8c0.1,0.1,0.3,0.2,0.4,0.2c0.2,0.1,0.4,0.1,0.8,0.2
				c0.3,0,0.8,0.1,1.4,0.2c1.1,0.1,1.8,0.3,2.3,0.7c0.5,0.4,0.7,1,0.7,1.6c0,0.5-0.1,0.9-0.4,1.3c-0.2,0.4-0.6,0.8-1.2,1
				c-0.5,0.3-1.2,0.4-2,0.4c-0.7,0-1.3-0.1-1.9-0.3s-1-0.5-1.3-0.8s-0.5-0.9-0.5-1.4c0-0.3,0.1-0.6,0.2-1c0.2-0.3,0.5-0.7,0.9-1
				c-0.2-0.1-0.4-0.2-0.6-0.3c-0.2-0.1-0.3-0.2-0.5-0.4v-0.4l1.4-1.3c-0.6-0.5-0.9-1.2-0.9-2.1c0-0.5,0.1-1,0.4-1.4
				c0.2-0.4,0.6-0.8,1.1-1c0.5-0.3,1-0.4,1.7-0.4c0.5,0,0.9,0.1,1.2,0.2h2.9v1l-1.5,0.1c0.3,0.4,0.5,1,0.5,1.6c0,0.5-0.1,1-0.4,1.4
				s-0.6,0.8-1.1,1C292.3,474.1,291.7,474.2,291.1,474.2z M288.7,477.7c0,0.5,0.2,0.9,0.7,1.2c0.4,0.3,1,0.4,1.7,0.4
				c0.7,0,1.2-0.1,1.6-0.4c0.4-0.3,0.6-0.7,0.6-1.2c0-0.3-0.1-0.6-0.4-0.9c-0.3-0.2-0.8-0.4-1.5-0.4c-0.6,0-1.1-0.1-1.5-0.2
				c-0.4,0.2-0.7,0.5-0.9,0.8C288.8,477.3,288.7,477.5,288.7,477.7z M291.1,473.1c0.6,0,1-0.1,1.4-0.4c0.3-0.3,0.5-0.7,0.5-1.3
				c0-0.5-0.2-1-0.5-1.3c-0.3-0.3-0.8-0.4-1.4-0.4c-0.6,0-1,0.1-1.4,0.4c-0.3,0.3-0.5,0.7-0.5,1.3c0,0.6,0.2,1,0.5,1.3
				C290,473,290.5,473.1,291.1,473.1z"/>
		</g>
	</g>
	<rect x="112.1" y="320.7" class="st1" width="19.5" height="27"/>
	<g>
		<g>
			<path class="st0" d="M57.9,329.1l-20.8,79.3h15.4l4.3-17.4h28.3l4.3,17.4h15.4L84,329.1H57.9z M60.3,377.1l9.6-38.6h2l9.6,38.6
				H60.3z"/>
			<path class="st0" d="M161.2,353.9c-3.9-2.2-8-3.3-12.6-3.3c-3.4,0-6.3,0.4-8.6,1.2c-2.3,0.8-4.2,1.8-5.6,3
				c-1.4,1.2-2.5,2.5-3.3,3.9h-2v-29.1l0,0v-8.2l-7.1-4.1l-7.1,4.1v8.2l0,0v78.9h14v-6.8h2c1.3,2.1,3.3,4,6,5.8
				c2.7,1.7,6.6,2.6,11.7,2.6c4.5,0,8.7-1.1,12.6-3.3c3.9-2.2,6.9-5.5,9.3-9.8c2.3-4.3,3.5-9.5,3.5-15.6v-1.8
				c0-6.1-1.2-11.3-3.5-15.6C168.1,359.4,165,356.2,161.2,353.9z M159.7,380.8c0,5.4-1.5,9.6-4.4,12.4s-6.6,4.2-11,4.2
				s-8-1.4-11-4.2c-2.9-2.8-4.4-7-4.4-12.4v-1.1c0-5.4,1.5-9.6,4.4-12.4s6.6-4.2,11-4.2c4.5,0,8.1,1.4,11,4.2
				c2.9,2.8,4.4,7,4.4,12.4V380.8z"/>
			<path class="st0" d="M357.5,380.7c0,5.2-1.2,9.3-3.6,12.2c-2.4,2.9-5.8,4.4-10.2,4.4c-3.9,0-6.8-1.1-8.9-3.2s-3.1-5.3-3.1-9.5
				v-32.4h-14.3v33.5c0,4.6,0.9,8.7,2.7,12.2c1.8,3.6,4.4,6.3,7.6,8.3c3.3,2,7.1,3,11.5,3c5.1,0,8.8-0.9,11.3-2.7
				c2.5-1.8,4.2-3.7,5.1-5.6h2v4.4h0.1v0.1l7,4l7-4v-0.1l0,0v-53.2h-14.3L357.5,380.7L357.5,380.7z"/>
			<path class="st0" d="M431.5,382.1c-2-2.3-4.7-4.1-8.2-5.3c-3.4-1.2-7.3-2.2-11.5-3l-3.2-0.6c-2.6-0.5-4.6-1.1-6.1-2
				s-2.3-2.2-2.3-4c0-1.7,0.7-3,2.2-3.9c1.4-0.9,3.5-1.4,6.2-1.4s5,0.6,6.9,1.8c1.8,1.2,3.1,3.2,3.7,6.1l0,0l7.8,1.8l5.4-5.8l0,0
				l0,0c-1.3-4.5-4-8.2-8.2-11s-9.4-4.2-15.6-4.2c-6.6,0-12,1.5-16.1,4.5s-6.1,7.3-6.1,12.9c0,3.7,1,6.7,2.9,9.1
				c2,2.3,4.6,4.2,7.8,5.5c3.2,1.3,6.8,2.4,10.8,3.1l3.2,0.6c3.3,0.6,5.7,1.4,7.3,2.3c1.5,0.9,2.3,2.3,2.3,4s-0.8,3.2-2.4,4.4
				c-1.6,1.2-4,1.8-7.4,1.8c-2.2,0-4.2-0.3-6.1-1c-1.9-0.6-3.4-1.7-4.6-3.2s-2.1-3.6-2.7-6.2l-13.1,3.4c1,5.9,3.8,10.4,8.5,13.6
				s10.7,4.8,18,4.8c7.2,0,12.9-1.6,17.2-4.8c4.3-3.2,6.4-7.8,6.4-13.7C434.5,387.6,433.5,384.4,431.5,382.1z"/>
			<path class="st0" d="M237.5,396.6c-2,0-3.1-1.2-3.1-3.4v-21c0-7-2.2-12.4-6.5-16.1s-10.2-5.6-17.6-5.6c-4.8,0-8.9,0.7-12.3,2.2
				c-3.4,1.5-6,3.4-8,5.8s-3.5,5-4.4,7.9l13.1,4.4c0.5-2.6,1.7-4.7,3.4-6.3c1.7-1.6,4.4-2.4,7.9-2.4c3.6,0,6.3,0.8,7.9,2.5
				c1.7,1.7,2.5,3.9,2.5,6.5v3.2H205c-4.2,0-8,0.7-11.3,2s-5.9,3.3-7.7,5.9c-1.9,2.6-2.8,5.8-2.8,9.7c0,3.9,0.9,7.1,2.8,9.8
				c1.9,2.7,4.4,4.7,7.5,6.1s6.8,2.1,10.8,2.1c3.9,0,7-0.6,9.3-1.7s3.9-2.4,5-3.9s1.7-2.7,2-3.6h2.2v0.1c0,2.3,0.9,4.1,2.7,5.4
				c1.8,1.4,4.1,2,6.9,2h9.5l0,0h0.1l3.4-5.9l-3.4-5.9h-4.5V396.6z M220.6,386.2c0,3.7-1.3,6.7-3.8,8.9c-2.5,2.2-5.8,3.3-9.8,3.3
				c-3,0-5.3-0.6-6.9-1.9c-1.6-1.3-2.4-2.9-2.4-5c0-2,0.8-3.6,2.3-4.8c1.5-1.1,3.6-1.7,6.2-1.7h14.4V386.2z"/>
			<path class="st0" d="M300.1,382.8l-7.9,2.3l0,0l0,0c0,0.1-0.1,0.3-0.1,0.4l-0.5,2.1c-0.8,2.5-2,4.6-3.7,6.3
				c-2.2,2.2-5.5,3.3-9.8,3.3c-2.9,0-5.5-0.6-7.8-1.9c-2.3-1.2-4.1-3.1-5.4-5.6s-2-5.5-2-9v-1.1c0-3.5,0.7-6.6,2-9
				c1.3-2.5,3.1-4.3,5.4-5.6c2.3-1.2,4.9-1.9,7.8-1.9s5.3,0.5,7.2,1.6c1.9,1.1,3.4,2.5,4.5,4.3s1.7,3.9,2,6.1l13.8-2.9
				c-0.8-4.2-2.3-7.9-4.7-11.2c-2.4-3.3-5.5-5.9-9.3-7.8c-3.9-1.9-8.5-2.8-13.8-2.8c-5.4,0-10.4,1.1-14.8,3.4s-7.9,5.6-10.5,9.9
				s-3.9,9.5-3.9,15.6v1.6c0,6.1,1.3,11.3,3.9,15.6c2.6,4.3,6.1,7.6,10.5,9.9s9.3,3.4,14.8,3.4c5.4,0,10-0.9,13.8-2.8
				c3.9-1.9,7-4.5,9.3-7.8c2.4-3.3,4.1-6.9,5-10.9l0,0L300.1,382.8z"/>
		</g>
	</g>
	<g>
		<path class="st0" d="M311.9,319.9h4.2c0.3-0.4,0.4-0.9,0.4-1.4V51.7l-5-2.9v269.8C311.5,319.1,311.6,319.5,311.9,319.9z"/>
		<path class="st0" d="M235.1,319.9h4.2c0.3-0.5,0.4-1,0.4-1.6V7.3l-5-2.9v313.9C234.7,318.9,234.8,319.5,235.1,319.9z"/>
		<path class="st0" d="M158.3,319.9h4.2c0.3-0.4,0.4-0.9,0.4-1.4V45.3l-5,2.9v270.4C157.9,319.1,158.1,319.5,158.3,319.9z"/>
	</g>
	<polygon class="st0" points="177.5,306.9 177.5,287.2 160.4,277.4 143.4,287.2 143.4,306.9 160.4,316.8 	"/>
	<polygon class="st0" points="177.5,264.6 177.5,244.9 160.4,235.1 143.4,244.9 143.4,264.6 160.4,274.5 	"/>
	<polygon class="st0" points="177.5,222.3 177.5,202.6 160.4,192.8 143.4,202.6 143.4,222.3 160.4,232.2 	"/>
	<polygon class="st0" points="254.3,306.9 254.3,287.2 237.2,277.4 220.1,287.2 220.1,306.9 237.2,316.8 	"/>
	<polygon class="st0" points="254.3,264.6 254.3,244.9 237.2,235 220.1,244.9 220.1,264.6 237.2,274.5 	"/>
	<polygon class="st0" points="254.3,222.3 254.3,202.6 237.2,192.7 220.1,202.6 220.1,222.3 237.2,232.1 	"/>
	<polygon class="st0" points="254.3,179.9 254.3,160.2 237.2,150.4 220.1,160.2 220.1,179.9 237.2,189.8 	"/>
	<polygon class="st0" points="331,306.9 331,287.2 314,277.4 296.9,287.2 296.9,306.9 314,316.8 	"/>
	<polygon class="st0" points="331,264.9 331,245.2 314,235.3 296.9,245.2 296.9,264.9 314,274.8 	"/>
	<polygon class="st0" points="331,222.9 331,203.2 314,193.3 296.9,203.2 296.9,222.9 314,232.8 	"/>
	<polygon class="st4" points="331,180.9 331,161.2 314,151.3 296.9,161.2 296.9,180.9 314,190.7 	"/>
	<polygon class="st0" points="254.3,137.6 254.3,117.9 237.2,108 220.1,117.9 220.1,137.6 237.2,147.5 	"/>
	<polygon class="st0" points="254.3,95.3 254.3,75.6 237.2,65.7 220.1,75.6 220.1,95.3 237.2,105.1 	"/>
</g>
</svg>
