<svg xmlns="http://www.w3.org/2000/svg" version="1.1" viewBox="0 0 24 24">
    <path d="M8.7,23c-.4,0-.8,0-1.2-.2-.7-.3-1.3-.9-1.6-1.6l-.7-1.7c-.1-.3-.3-.5-.6-.6l-1.7-.7c-.7-.3-1.3-.9-1.6-1.6-.3-.8-.3-1.6,0-2.3l.7-1.7c.1-.3.1-.5,0-.8l-.7-1.7c-.2-.4-.2-.8-.2-1.2s0-.8.2-1.2c.2-.4.4-.7.7-1,.3-.3.6-.5,1-.7l1.7-.7c.3-.1.5-.3.6-.6l.7-1.7c.3-.7.9-1.3,1.6-1.6.7-.3,1.6-.3,2.3,0l1.7.7c.3.1.5.1.8,0l1.7-.7c.7-.3,1.6-.3,2.3,0,.7.3,1.3.9,1.6,1.6l.7,1.7s0,0,0,0c.1.3.3.5.6.6l1.7.7c.7.3,1.3.9,1.6,1.6.3.7.3,1.6,0,2.3l-.7,1.7c-.1.3-.1.5,0,.8l.7,1.7c.2.4.2.8.2,1.2s0,.8-.2,1.2c-.2.4-.4.7-.7,1-.3.3-.6.5-1,.7l-1.7.7c-.3.1-.5.3-.6.6l-.7,1.7c-.3.7-.9,1.3-1.6,1.6-.7.3-1.6.3-2.3,0l-1.7-.7c-.3-.1-.5-.1-.8,0l-1.7.7c-.4.2-.8.2-1.2.2ZM8.7,3c-.1,0-.3,0-.4,0-.3.1-.5.3-.6.6l-.7,1.7c-.3.7-.9,1.3-1.6,1.6l-1.7.7c-.1,0-.2.1-.3.2s-.2.2-.2.3c0,.1,0,.3,0,.4s0,.3,0,.4l.7,1.7c.3.7.3,1.6,0,2.3l-.7,1.7c-.1.3-.1.5,0,.8.1.2.3.5.6.6l1.7.7c.7.3,1.3.9,1.6,1.6l.7,1.7c.1.3.3.5.6.6.3.1.5.1.8,0l1.7-.7c.7-.3,1.6-.3,2.3,0l1.7.7c.3.1.5.1.8,0,.3-.1.5-.3.6-.6l.7-1.7c.3-.8.9-1.3,1.6-1.6l1.7-.7c.1,0,.2-.1.3-.2,0,0,.2-.2.2-.3,0-.1,0-.3,0-.4s0-.3,0-.4l-.7-1.7c-.3-.7-.3-1.6,0-2.3l.7-1.7c.1-.3.1-.5,0-.8-.1-.3-.3-.5-.6-.6l-1.7-.7c-.7-.3-1.3-.9-1.6-1.6,0,0,0,0,0,0l-.7-1.7c-.1-.3-.3-.5-.6-.6-.3-.1-.5-.1-.8,0l-1.7.7c-.7.3-1.6.3-2.3,0l-1.7-.7c-.1,0-.3,0-.4,0ZM11,15c-.3,0-.5,0-.7-.3l-2-2c-.4-.4-.4-1,0-1.4s1-.4,1.4,0l1.3,1.3,3.8-3.8c.4-.4,1-.4,1.4,0s.4,1,0,1.4l-4.5,4.5c-.2.2-.5.3-.7.3Z"/>
</svg>