<svg xmlns="http://www.w3.org/2000/svg" version="1.1" viewBox="0 0 24 24" role="img">
  <path d="M22,22c-.55,0-1-.45-1-1v-2c0-1.37-.92-2.56-2.25-2.91-.54-.14-.86-.68-.72-1.22.14-.54.69-.86,1.22-.72,2.21.57,3.75,2.56,3.75,4.84v2c0,.55-.45,1-1,1ZM17,22c-.55,0-1-.45-1-1,0-1.73,0-2.6-.23-3.15-.3-.73-.89-1.32-1.62-1.62-.55-.23-1.47-.23-3.15-.23h-3c-1.73,0-2.6,0-3.15.23-.73.3-1.32.89-1.62,1.62-.23.55-.23,1.42-.23,3.15,0,.55-.45,1-1,1s-1-.45-1-1c0-1.99,0-3,.38-3.91.5-1.22,1.49-2.2,2.71-2.71.92-.38,1.92-.38,3.91-.38h3c1.99,0,3,0,3.91.38,1.23.51,2.19,1.47,2.71,2.71.38.92.38,1.92.38,3.91,0,.55-.45,1-1,1ZM9.5,12c-2.76,0-5-2.24-5-5s2.24-5,5-5,5,2.24,5,5-2.24,5-5,5ZM9.5,4c-1.65,0-3,1.35-3,3s1.35,3,3,3,3-1.35,3-3-1.35-3-3-3ZM15.5,11.71c-.4,0-.77-.24-.93-.63-.21-.51.04-1.09.55-1.3,1.14-.46,1.88-1.55,1.88-2.78s-.74-2.32-1.88-2.78c-.51-.21-.76-.79-.55-1.3s.79-.76,1.3-.55c1.9.77,3.12,2.59,3.12,4.64s-1.23,3.87-3.12,4.64c-.12.05-.25.07-.38.07Z"/>
</svg>
